<svg xmlns="http://www.w3.org/2000/svg" xmlns:xlink="http://www.w3.org/1999/xlink" xmlns:lucid="lucid" width="1807.52" height="1340.35"><g transform="translate(770.5193819615743 104.95505511834028)" lucid:page-tab-id="TtSh_lH-zJA0"><path d="M-1696-1296h3456v2656h-3456z" fill="#fff"/><path d="M-159.63-4.6c0-3.3 2.7-6 6-6h432.56c3.3 0 6 2.7 6 6v188c0 3.3-2.7 6-6 6h-432.56c-3.3 0-6-2.7-6-6z" fill="#fff"/><path d="M-124.8-10.6h28.84m14.42 0h28.84m14.42 0h28.84m14.4 0h28.85m14.43 0h28.84m14.42 0h28.82m14.42 0h28.84m14.42 0h28.83m14.42 0h28.84m14.4 0h14.43l3.02.82 2.16 2.15.83 3.03v15.67m0 15.66v31.34m0 15.66v31.34m0 15.66v31.34m0 15.66v15.67l-.82 3.03-2.15 2.15-3.02.82H264.5m-14.4 0h-28.85m-14.42 0H178m-14.42 0h-28.84m-14.42 0H91.5m-14.43 0H48.23m-14.42 0H4.98m-14.4 0H-38.3m-14.42 0h-28.84m-14.42 0h-28.83m-14.4 0h-14.43l-3.03-.82-2.15-2.15-.83-3.03v-15.67m0-15.66v-31.34m0-15.66V73.73m0-15.66V26.73m0-15.66V-4.6l.82-3.03 2.14-2.15 3.03-.82h14.42" stroke="#1071e5" stroke-width="3" fill="none"/><path d="M-115.07 37.44c0-3.3 2.68-6 6-6h148c3.3 0 6 2.7 6 6v108c0 3.3-2.7 6-6 6h-148c-3.32 0-6-2.7-6-6z" stroke="#1071e5" stroke-width="3" fill="#fff"/><path d="M-375.07 37.44c0-3.3 2.68-6 6-6h148c3.3 0 6 2.7 6 6v108c0 3.3-2.7 6-6 6h-148c-3.32 0-6-2.7-6-6z" stroke="#3a414a" fill="#1071e5"/><use xlink:href="#a" transform="matrix(1,0,0,1,-363.07446332525325,43.44104494792356) translate(41.32899305555556 35.21875)"/><use xlink:href="#b" transform="matrix(1,0,0,1,-363.07446332525325,43.44104494792356) translate(25.3263888888889 52.99652777777777)"/><use xlink:href="#c" transform="matrix(1,0,0,1,-363.07446332525325,43.44104494792356) translate(30.660590277777786 70.77430555555554)"/><path d="M-159.63-2.56c0-3.3 2.7-6 6-6h128c3.3 0 6 2.7 6 6v28c0 3.3-2.7 6-6 6h-128c-3.3 0-6-2.7-6-6z" stroke="#000" stroke-opacity="0" fill="#fff" fill-opacity="0"/><use xlink:href="#d" transform="matrix(1,0,0,1,-154.6295446889323,-3.558955052076442) translate(11.657986111111114 19.84375)"/><use xlink:href="#e" transform="matrix(1,0,0,1,-154.6295446889323,-3.558955052076442) translate(75.66840277777777 19.84375)"/><path d="M571.9 146.25c1.68 2.87.34 5.2-2.97 5.2h-228c-3.32 0-4.65-2.33-3-5.2l113.98-196.1c1.68-2.86 4.38-2.86 6.04 0z" stroke="#1071e5" stroke-width="2" fill="#fff"/><path d="M504.93 63.1c0 27.62-22.4 50-50 50-27.62 0-50-22.38-50-50 0-27.6 22.38-50 50-50 27.6 0 50 22.4 50 50z" stroke="#fff" fill="#1071e5"/><use xlink:href="#f" transform="matrix(1,0,0,1,409.92553667474675,18.107711614590244) translate(7.660590277777786 41.44097222222222)"/><use xlink:href="#g" transform="matrix(1,0,0,1,409.92553667474675,18.107711614590244) translate(-3.007812499999986 59.21875)"/><path d="M364.93 116.33c0-3.3 2.68-6 6-6h168c3.3 0 6 2.7 6 6v33.56c0 3.3-2.7 6-6 6h-168c-3.32 0-6-2.7-6-6z" stroke="#000" stroke-opacity="0" fill="#fff" fill-opacity="0"/><use xlink:href="#d" transform="matrix(1,0,0,1,369.92553667474675,115.32993383681242) translate(4.986979166666686 23.21875)"/><use xlink:href="#h" transform="matrix(1,0,0,1,369.92553667474675,115.32993383681242) translate(68.99739583333334 23.21875)"/><use xlink:href="#i" transform="matrix(1,0,0,1,369.92553667474675,115.32993383681242) translate(101.00260416666667 23.21875)"/><path d="M644.93 37.44c0-3.3 2.68-6 6-6h148c3.3 0 6 2.7 6 6v108c0 3.3-2.7 6-6 6h-148c-3.32 0-6-2.7-6-6z" stroke="#3a414a" fill="#1071e5"/><use xlink:href="#j" transform="matrix(1,0,0,1,656.9255366747468,43.44104494792356) translate(14.657986111111114 35.21875)"/><use xlink:href="#k" transform="matrix(1,0,0,1,656.9255366747468,43.44104494792356) translate(78.66840277777777 35.21875)"/><use xlink:href="#l" transform="matrix(1,0,0,1,656.9255366747468,43.44104494792356) translate(3.989583333333343 52.99652777777777)"/><use xlink:href="#m" transform="matrix(1,0,0,1,656.9255366747468,43.44104494792356) translate(68 52.99652777777777)"/><use xlink:href="#n" transform="matrix(1,0,0,1,656.9255366747468,43.44104494792356) translate(30.660590277777786 70.77430555555554)"/><path d="M-295.07 152.44V1228.9" stroke="#3a414a" fill="none"/><path d="M-294.57 152.45h-1v-.5h1z" stroke="#3a414a" stroke-width=".05" fill="#3a414a"/><path d="M-295.07 1228.9v.5M-35.07 153.44V1228.9" stroke="#3a414a" fill="none"/><path d="M-34.57 153.45h-1v-.5h1z" stroke="#3a414a" stroke-width=".05" fill="#3a414a"/><path d="M-35.07 1228.9v.5M184.93 150.4v1078.5" stroke="#3a414a" fill="none"/><path d="M185.43 150.4h-1v-.5h1z" stroke="#3a414a" stroke-width=".05" fill="#3a414a"/><path d="M184.93 1228.9v.5" stroke="#3a414a" fill="none"/><path d="M104.93 35.4c0-3.3 2.68-6 6-6h148c3.3 0 6 2.7 6 6v108c0 3.3-2.7 6-6 6h-148c-3.32 0-6-2.7-6-6z" stroke="#1071e5" fill="#1071e5"/><path d="M114.93 45.95c0-3.3 2.68-6 6-6h128c3.3 0 6 2.7 6 6v86.9c0 3.3-2.7 6-6 6h-128c-3.32 0-6-2.7-6-6z" stroke="#000" stroke-opacity="0" fill="#fff" fill-opacity="0"/><use xlink:href="#a" transform="matrix(1,0,0,1,119.92553667474675,44.95475601485879) translate(38.32899305555556 14.218749999999998)"/><use xlink:href="#o" transform="matrix(1,0,0,1,119.92553667474675,44.95475601485879) translate(22.3263888888889 31.99652777777777)"/><use xlink:href="#p" transform="matrix(1,0,0,1,119.92553667474675,44.95475601485879) translate(22.3263888888889 49.77430555555555)"/><use xlink:href="#q" transform="matrix(1,0,0,1,119.92553667474675,44.95475601485879) translate(27.660590277777786 67.55208333333333)"/><use xlink:href="#r" transform="matrix(1,0,0,1,119.92553667474675,44.95475601485879) translate(32.99479166666667 85.3298611111111)"/><path d="M454.93 152.94V1228.9" stroke="#3a414a" fill="none"/><path d="M455.43 152.95h-1v-.5h1z" stroke="#3a414a" stroke-width=".05" fill="#3a414a"/><path d="M454.93 1228.9v.5M724.93 152.44V1228.9" stroke="#3a414a" fill="none"/><path d="M725.43 152.45h-1v-.5h1z" stroke="#3a414a" stroke-width=".05" fill="#3a414a"/><path d="M724.93 1228.9v.5M959.5 149.9v536.78c0 1.5 1.2 2.72 2.7 2.72 1.5 0 2.73 1.2 2.73 2.7v536.8" stroke="#3a414a" fill="none"/><path d="M960 149.9h-1v-.5h.39l.6-.03zm0-.74h-.38l-.62-.02v-2.75h1z" stroke="#3a414a" stroke-width=".05" fill="#3a414a"/><path d="M964.93 1228.9v.5" stroke="#3a414a" fill="none"/><path d="M-595.07 249.4c0 22.1-17.9 40-40 40s-40-17.9-40-40 17.9-40 40-40 40 17.9 40 40z" stroke="#3a414a" stroke-width="3" fill="#fc9432"/><use xlink:href="#s" transform="matrix(1,0,0,1,-670.0744633252532,214.3992004593032) translate(28.82716049382716 39.65277777777778)"/><path d="M-592.07 249.4h276.37" stroke="#3a414a" stroke-width="3" fill="none"/><path d="M-592.04 250.9h-1.63l.1-1.48-.06-1.52h1.6z" stroke="#3a414a" stroke-width=".05" fill="#3a414a"/><path d="M-299.93 249.4l-14.27 4.63v-9.27z" stroke="#3a414a" stroke-width="3" fill="#3a414a"/><path d="M-595.07 257.07c0-3.32 2.68-6 6-6h268c3.3 0 6 2.68 6 6v104.66c0 3.32-2.7 6-6 6h-268c-3.32 0-6-2.68-6-6z" stroke="#000" stroke-opacity="0" fill="#fff" fill-opacity="0"/><use xlink:href="#t" transform="matrix(1,0,0,1,-590.0744633252532,256.0658671259699) translate(28.315972222222257 51)"/><use xlink:href="#u" transform="matrix(1,0,0,1,-590.0744633252532,256.0658671259699) translate(102.99479166666669 51)"/><use xlink:href="#v" transform="matrix(1,0,0,1,-590.0744633252532,256.0658671259699) translate(49.6527777777778 68.77777777777777)"/><use xlink:href="#w" transform="matrix(1,0,0,1,-590.0744633252532,256.0658671259699) translate(135 68.77777777777777)"/><path d="M-215.07 309.4c0 22.1-17.9 40-40 40s-40-17.9-40-40 17.9-40 40-40 40 17.9 40 40z" stroke="#3a414a" stroke-width="3" fill="#54c45e"/><use xlink:href="#x" transform="matrix(1,0,0,1,-290.07446332525325,274.3992004593032) translate(28.82716049382716 39.65277777777778)"/><path d="M-212.07 309.4H434.3" stroke="#3a414a" stroke-width="3" fill="none"/><path d="M-212.04 310.9h-1.63l.1-1.48-.06-1.52h1.6z" stroke="#3a414a" stroke-width=".05" fill="#3a414a"/><path d="M450.07 309.4l-14.26 4.63v-9.27z" stroke="#3a414a" stroke-width="3" fill="#3a414a"/><path d="M-155.07 295.4c0-3.3 2.68-6 6-6h548c3.3 0 6 2.7 6 6v104.67c0 3.3-2.7 6-6 6h-548c-3.32 0-6-2.7-6-6z" stroke="#000" stroke-opacity="0" fill="#fff" fill-opacity="0"/><use xlink:href="#t" transform="matrix(1,0,0,1,-150.07446332525325,294.3992004593032) translate(13.624131944444514 57.6875)"/><use xlink:href="#y" transform="matrix(1,0,0,1,-150.07446332525325,294.3992004593032) translate(88.30295138888894 57.6875)"/><use xlink:href="#z" transform="matrix(1,0,0,1,-150.07446332525325,294.3992004593032) translate(173.65017361111114 57.6875)"/><use xlink:href="#A" transform="matrix(1,0,0,1,-150.07446332525325,294.3992004593032) translate(280.33420138888886 57.6875)"/><use xlink:href="#v" transform="matrix(1,0,0,1,-150.07446332525325,294.3992004593032) translate(312.3394097222222 57.6875)"/><use xlink:href="#B" transform="matrix(1,0,0,1,-150.07446332525325,294.3992004593032) translate(397.6866319444444 57.6875)"/><use xlink:href="#C" transform="matrix(1,0,0,1,-150.07446332525325,294.3992004593032) translate(493.7022569444444 57.6875)"/><path d="M-595.07 589.4c0 22.1-17.9 40-40 40s-40-17.9-40-40 17.9-40 40-40 40 17.9 40 40z" stroke="#3a414a" stroke-width="3" fill="#fc9432"/><use xlink:href="#D" transform="matrix(1,0,0,1,-670.0744633252532,554.3992004593032) translate(28.82716049382716 39.65277777777778)"/><path d="M-592.07 589.4h276.37" stroke="#3a414a" stroke-width="3" fill="none"/><path d="M-592.04 590.9h-1.63l.1-1.48-.06-1.52h1.6z" stroke="#3a414a" stroke-width=".05" fill="#3a414a"/><path d="M-299.93 589.4l-14.27 4.63v-9.27z" stroke="#3a414a" stroke-width="3" fill="#3a414a"/><path d="M-575.07 595.4c0-3.3 2.68-6 6-6h228c3.3 0 6 2.7 6 6v104.67c0 3.3-2.7 6-6 6h-228c-3.32 0-6-2.7-6-6z" stroke="#000" stroke-opacity="0" fill="#fff" fill-opacity="0"/><use xlink:href="#E" transform="matrix(1,0,0,1,-570.0744633252532,594.3992004593031) translate(24.318576388888914 40.96875)"/><use xlink:href="#F" transform="matrix(1,0,0,1,-570.0744633252532,594.3992004593031) translate(131.00260416666666 40.96875)"/><use xlink:href="#B" transform="matrix(1,0,0,1,-570.0744633252532,594.3992004593031) translate(8.315972222222243 58.74652777777777)"/><use xlink:href="#G" transform="matrix(1,0,0,1,-570.0744633252532,594.3992004593031) translate(104.33159722222221 58.74652777777777)"/><use xlink:href="#H" transform="matrix(1,0,0,1,-570.0744633252532,594.3992004593031) translate(136.33680555555554 58.74652777777777)"/><use xlink:href="#I" transform="matrix(1,0,0,1,-570.0744633252532,594.3992004593031) translate(168.34201388888886 58.74652777777777)"/><use xlink:href="#J" transform="matrix(1,0,0,1,-570.0744633252532,594.3992004593031) translate(72.3263888888889 76.52430555555554)"/><path d="M-215.07 649.4c0 22.1-17.9 40-40 40s-40-17.9-40-40 17.9-40 40-40 40 17.9 40 40z" stroke="#3a414a" stroke-width="3" fill="#54c45e"/><use xlink:href="#K" transform="matrix(1,0,0,1,-290.07446332525325,614.3992004593032) translate(28.82716049382716 39.65277777777778)"/><path d="M-212.07 649.4H161" stroke="#3a414a" stroke-width="3" fill="none"/><path d="M-212.04 650.9h-1.63l.1-1.48-.06-1.52h1.6z" stroke="#3a414a" stroke-width=".05" fill="#3a414a"/><path d="M176.2 649.84l-14.4 4.22.28-9.27z" stroke="#3a414a" stroke-width="3" fill="#3a414a"/><path d="M-195.07 655.4c0-3.3 2.68-6 6-6h368c3.3 0 6 2.7 6 6v68c0 3.3-2.7 6-6 6h-368c-3.32 0-6-2.7-6-6z" stroke="#000" stroke-opacity="0" fill="#fff" fill-opacity="0"/><use xlink:href="#L" transform="matrix(1,0,0,1,-190.07446332525325,654.3992004593032) translate(8.971354166666686 40.84375)"/><use xlink:href="#M" transform="matrix(1,0,0,1,-190.07446332525325,654.3992004593032) translate(83.65017361111111 40.84375)"/><use xlink:href="#N" transform="matrix(1,0,0,1,-190.07446332525325,654.3992004593032) translate(136.9921875 40.84375)"/><use xlink:href="#v" transform="matrix(1,0,0,1,-190.07446332525325,654.3992004593032) translate(190.33420138888889 40.84375)"/><use xlink:href="#w" transform="matrix(1,0,0,1,-190.07446332525325,654.3992004593032) translate(275.6814236111111 40.84375)"/><path d="M-595.07 449.4c0 22.1-17.9 40-40 40s-40-17.9-40-40 17.9-40 40-40 40 17.9 40 40z" stroke="#3a414a" stroke-width="3" fill="#fc9432"/><use xlink:href="#O" transform="matrix(1,0,0,1,-670.0744633252532,414.3992004593033) translate(28.82716049382716 39.65277777777778)"/><path d="M-592.07 449.4H704.3" stroke="#3a414a" stroke-width="3" fill="none"/><path d="M-592.04 450.9h-1.63l.1-1.48-.06-1.52h1.6z" stroke="#3a414a" stroke-width=".05" fill="#3a414a"/><path d="M720.07 449.4l-14.27 4.63v-9.27z" stroke="#3a414a" stroke-width="3" fill="#3a414a"/><path d="M-305.07 475.4c0-3.3 2.68-6 6-6h868c3.3 0 6 2.7 6 6v48c0 3.3-2.7 6-6 6h-868c-3.32 0-6-2.7-6-6z" stroke="#000" stroke-opacity="0" fill="#fff" fill-opacity="0"/><use xlink:href="#t" transform="matrix(1,0,0,1,-300.07446332525325,474.3992004593032) translate(34.93489583333343 20.59375)"/><use xlink:href="#P" transform="matrix(1,0,0,1,-300.07446332525325,474.3992004593032) translate(109.61371527777786 20.59375)"/><use xlink:href="#Q" transform="matrix(1,0,0,1,-300.07446332525325,474.3992004593032) translate(130.95052083333343 20.59375)"/><use xlink:href="#R" transform="matrix(1,0,0,1,-300.07446332525325,474.3992004593032) translate(184.29253472222229 20.59375)"/><use xlink:href="#S" transform="matrix(1,0,0,1,-300.07446332525325,474.3992004593032) translate(237.63454861111117 20.59375)"/><use xlink:href="#T" transform="matrix(1,0,0,1,-300.07446332525325,474.3992004593032) translate(344.3185763888889 20.59375)"/><use xlink:href="#U" transform="matrix(1,0,0,1,-300.07446332525325,474.3992004593032) translate(472.33940972222223 20.59375)"/><use xlink:href="#v" transform="matrix(1,0,0,1,-300.07446332525325,474.3992004593032) translate(515.0130208333333 20.59375)"/><use xlink:href="#B" transform="matrix(1,0,0,1,-300.07446332525325,474.3992004593032) translate(600.3602430555554 20.59375)"/><use xlink:href="#U" transform="matrix(1,0,0,1,-300.07446332525325,474.3992004593032) translate(696.3758680555554 20.59375)"/><use xlink:href="#V" transform="matrix(1,0,0,1,-300.07446332525325,474.3992004593032) translate(739.0494791666665 20.59375)"/><use xlink:href="#W" transform="matrix(1,0,0,1,-300.07446332525325,474.3992004593032) translate(781.7230902777776 20.59375)"/><use xlink:href="#X" transform="matrix(1,0,0,1,-300.07446332525325,474.3992004593032) translate(376.32378472222223 38.37152777777777)"/><use xlink:href="#Y" transform="matrix(1,0,0,1,-300.07446332525325,474.3992004593032) translate(451.00260416666663 38.37152777777777)"/><path d="M44.93 769.4c0 22.1-17.9 40-40 40s-40-17.9-40-40 17.9-40 40-40 40 17.9 40 40z" stroke="#3a414a" stroke-width="3" fill="#fc9432"/><g><use xlink:href="#Z" transform="matrix(1,0,0,1,-30.074463325253248,734.3992004593032) translate(28.82716049382716 39.65277777777778)"/></g><path d="M47.93 769.4H164.3" stroke="#3a414a" stroke-width="3" fill="none"/><path d="M47.96 770.9h-1.63l.1-1.48-.06-1.52h1.6z" stroke="#3a414a" stroke-width=".05" fill="#3a414a"/><path d="M180.07 769.4l-14.27 4.63v-9.27z" stroke="#3a414a" stroke-width="3" fill="#3a414a"/><path d="M-19.63 815.4c0-3.3 2.7-6 6-6h188c3.3 0 6 2.7 6 6v68c0 3.3-2.7 6-6 6h-188c-3.3 0-6-2.7-6-6z" stroke="#000" stroke-opacity="0" fill="#fff" fill-opacity="0"/><g><use xlink:href="#aa" transform="matrix(1,0,0,1,-14.629544688932299,814.3992004593031) translate(20.32118055555557 14.218749999999998)"/><use xlink:href="#ab" transform="matrix(1,0,0,1,-14.629544688932299,814.3992004593031) translate(105.66840277777777 14.218749999999998)"/><use xlink:href="#ac" transform="matrix(1,0,0,1,-14.629544688932299,814.3992004593031) translate(36.32378472222223 31.99652777777777)"/><use xlink:href="#ad" transform="matrix(1,0,0,1,-14.629544688932299,814.3992004593031) translate(100.33420138888889 31.99652777777777)"/><use xlink:href="#ae" transform="matrix(1,0,0,1,-14.629544688932299,814.3992004593031) translate(143.0078125 31.99652777777777)"/><use xlink:href="#af" transform="matrix(1,0,0,1,-14.629544688932299,814.3992004593031) translate(25.655381944444457 49.77430555555555)"/><use xlink:href="#ag" transform="matrix(1,0,0,1,-14.629544688932299,814.3992004593031) translate(121.67100694444443 49.77430555555555)"/><use xlink:href="#ah" transform="matrix(1,0,0,1,-14.629544688932299,814.3992004593031) translate(20.32118055555557 67.55208333333333)"/><use xlink:href="#ai" transform="matrix(1,0,0,1,-14.629544688932299,814.3992004593031) translate(84.33159722222223 67.55208333333333)"/></g><path d="M264.93 829.4c0 22.1-17.9 40-40 40s-40-17.9-40-40 17.9-40 40-40 40 17.9 40 40z" stroke="#3a414a" stroke-width="3" fill="#54c45e"/><g><use xlink:href="#aj" transform="matrix(1,0,0,1,189.92553667474675,794.3992004593031) translate(28.82716049382716 39.65277777777778)"/></g><path d="M267.93 829.4h181c3.3 0 6 2.7 6 6v122.73c0 3.32-2.7 6-6 6H-14.45" stroke="#3a414a" stroke-width="3" fill="none"/><path d="M267.96 830.9h-1.63l.1-1.48-.06-1.52h1.6z" stroke="#3a414a" stroke-width=".05" fill="#3a414a"/><path d="M-30.22 964.13l14.27-4.63v9.27z" stroke="#3a414a" stroke-width="3" fill="#3a414a"/><path d="M244.93 828.18c0-3.32 2.68-6 6-6h188c3.3 0 6 2.68 6 6v122.44c0 3.32-2.7 6-6 6h-188c-3.32 0-6-2.68-6-6z" stroke="#000" stroke-opacity="0" fill="#fff" fill-opacity="0"/><g><use xlink:href="#aa" transform="matrix(1,0,0,1,249.92553667474675,827.176978237081) translate(20.32118055555557 22.03125)"/><use xlink:href="#ab" transform="matrix(1,0,0,1,249.92553667474675,827.176978237081) translate(105.66840277777777 22.03125)"/><use xlink:href="#ac" transform="matrix(1,0,0,1,249.92553667474675,827.176978237081) translate(36.32378472222223 39.80902777777777)"/><use xlink:href="#ad" transform="matrix(1,0,0,1,249.92553667474675,827.176978237081) translate(100.33420138888889 39.80902777777777)"/><use xlink:href="#ae" transform="matrix(1,0,0,1,249.92553667474675,827.176978237081) translate(143.0078125 39.80902777777777)"/><use xlink:href="#af" transform="matrix(1,0,0,1,249.92553667474675,827.176978237081) translate(25.655381944444457 57.58680555555555)"/><use xlink:href="#ag" transform="matrix(1,0,0,1,249.92553667474675,827.176978237081) translate(121.67100694444443 57.58680555555555)"/><use xlink:href="#ak" transform="matrix(1,0,0,1,249.92553667474675,827.176978237081) translate(30.989583333333343 75.36458333333333)"/><use xlink:href="#al" transform="matrix(1,0,0,1,249.92553667474675,827.176978237081) translate(95 75.36458333333333)"/><use xlink:href="#am" transform="matrix(1,0,0,1,249.92553667474675,827.176978237081) translate(127.00520833333333 75.36458333333333)"/><use xlink:href="#an" transform="matrix(1,0,0,1,249.92553667474675,827.176978237081) translate(25.655381944444457 93.1423611111111)"/><use xlink:href="#ao" transform="matrix(1,0,0,1,249.92553667474675,827.176978237081) translate(100.33420138888889 93.1423611111111)"/><use xlink:href="#ac" transform="matrix(1,0,0,1,249.92553667474675,827.176978237081) translate(4.318576388888914 110.92013888888887)"/><use xlink:href="#G" transform="matrix(1,0,0,1,249.92553667474675,827.176978237081) translate(68.32899305555557 110.92013888888887)"/><use xlink:href="#J" transform="matrix(1,0,0,1,249.92553667474675,827.176978237081) translate(100.3342013888889 110.92013888888887)"/></g><path d="M44.93 1069.4c0 22.1-17.9 40-40 40s-40-17.9-40-40 17.9-40 40-40 40 17.9 40 40z" stroke="#3a414a" stroke-width="3" fill="#fc9432"/><g><use xlink:href="#ap" transform="matrix(1,0,0,1,-30.074463325253248,1034.399200459303) translate(28.82716049382716 39.65277777777778)"/></g><path d="M47.93 1069.4h911c3.3 0 6 2.7 6 6v97.44c0 3.32-2.7 6-6 6H-14.45" stroke="#3a414a" stroke-width="3" fill="none"/><path d="M47.96 1070.9h-1.63l.1-1.48-.06-1.52h1.6z" stroke="#3a414a" stroke-width=".05" fill="#3a414a"/><path d="M-30.22 1178.84l14.27-4.63v9.28z" stroke="#3a414a" stroke-width="3" fill="#3a414a"/><path d="M58.93 1099.4c0-3.3 2.68-6 6-6h868c3.3 0 6 2.7 6 6v48c0 3.3-2.7 6-6 6h-868c-3.32 0-6-2.7-6-6z" stroke="#000" stroke-opacity="0" fill="#fff" fill-opacity="0"/><g><use xlink:href="#aq" transform="matrix(1,0,0,1,63.92553667474675,1098.399200459303) translate(98.94531250000006 30.15625)"/><use xlink:href="#ar" transform="matrix(1,0,0,1,63.92553667474675,1098.399200459303) translate(152.28732638888894 30.15625)"/><use xlink:href="#as" transform="matrix(1,0,0,1,63.92553667474675,1098.399200459303) translate(194.96093750000006 30.15625)"/><use xlink:href="#at" transform="matrix(1,0,0,1,63.92553667474675,1098.399200459303) translate(258.97135416666674 30.15625)"/><use xlink:href="#H" transform="matrix(1,0,0,1,63.92553667474675,1098.399200459303) translate(312.3133680555556 30.15625)"/><use xlink:href="#au" transform="matrix(1,0,0,1,63.92553667474675,1098.399200459303) translate(344.3185763888889 30.15625)"/><use xlink:href="#av" transform="matrix(1,0,0,1,63.92553667474675,1098.399200459303) translate(386.9921875 30.15625)"/><use xlink:href="#aw" transform="matrix(1,0,0,1,63.92553667474675,1098.399200459303) translate(429.6657986111111 30.15625)"/><use xlink:href="#U" transform="matrix(1,0,0,1,63.92553667474675,1098.399200459303) translate(515.0130208333333 30.15625)"/><use xlink:href="#ax" transform="matrix(1,0,0,1,63.92553667474675,1098.399200459303) translate(557.6866319444443 30.15625)"/><use xlink:href="#A" transform="matrix(1,0,0,1,63.92553667474675,1098.399200459303) translate(653.7022569444443 30.15625)"/><use xlink:href="#ay" transform="matrix(1,0,0,1,63.92553667474675,1098.399200459303) translate(685.7074652777778 30.15625)"/><use xlink:href="#az" transform="matrix(1,0,0,1,63.92553667474675,1098.399200459303) translate(707.0442708333333 30.15625)"/></g><path d="M-750.52-78.96c0-3.3 2.7-6 6-6h308c3.3 0 6 2.7 6 6v244.5c0 3.3-2.7 6-6 6h-308c-3.3 0-6-2.7-6-6z" stroke="#3a414a" stroke-width="3" fill="#fff"/><path d="M-630.52-11.8c0 22.1-17.9 40-40 40s-40-17.9-40-40 17.9-40 40-40 40 17.9 40 40z" stroke="#3a414a" stroke-width="3" fill="#fc9432"/><path d="M-630.52 99.86c0 22.1-17.9 40-40 40s-40-17.9-40-40 17.9-40 40-40 40 17.9 40 40z" stroke="#3a414a" stroke-width="3" fill="#54c45e"/><path d="M-610.52-30.62c0-3.32 2.7-6 6-6h128c3.3 0 6 2.68 6 6V2.93c0 3.32-2.7 6-6 6h-128c-3.3 0-6-2.68-6-6z" stroke="#000" stroke-opacity="0" fill="#fff" fill-opacity="0"/><g><use xlink:href="#aA" transform="matrix(1,0,0,1,-605.5193819615743,-31.621721785006912) translate(22.3263888888889 14.218749999999998)"/><use xlink:href="#aB" transform="matrix(1,0,0,1,-605.5193819615743,-31.621721785006912) translate(27.660590277777786 31.99652777777777)"/></g><path d="M-610.52 83.1c0-3.33 2.7-6 6-6h128c3.3 0 6 2.67 6 6v33.54c0 3.32-2.7 6-6 6h-128c-3.3 0-6-2.68-6-6z" stroke="#000" stroke-opacity="0" fill="#fff" fill-opacity="0"/><g><use xlink:href="#aC" transform="matrix(1,0,0,1,-605.5193819615743,82.08678937028009) translate(22.3263888888889 14.218749999999998)"/><use xlink:href="#aD" transform="matrix(1,0,0,1,-605.5193819615743,82.08678937028009) translate(27.660590277777786 31.99652777777777)"/></g><path d="M14.3 89.94c.9-.8.75-2.3 0-3.13l-4.85-4.17-21.55-18.2c-.95-.8-2.34-.8-3.45 0-.95.85-1.24 2.34 0 3.14L7.1 86.8c.93.85.93 2.34 0 3.14l-23.13 19.93c-.9.8-.9 2.3 0 3.14.95.8 2.66.65 3.45 0l21.4-18.44.16-.15 5.3-4.46zM-84.44 89.94c-.92-.8-.76-2.3 0-3.13l4.84-4.17 21.55-18.2c.95-.8 2.35-.8 3.45 0 .95.85 1.24 2.34 0 3.14L-76.78 86.8c-.92.85-.92 2.34 0 3.14l22.66 19.93c.92.8.92 2.3 0 3.14-.95.8-2.66.65-3.45 0l-21.87-18.2-.16-.1-4.84-4.76z" stroke="#000" stroke-opacity="0" stroke-width="2.34" fill="#3999c6"/><path d="M-10.7 49.4h-30.48l-16.4 40.16 20 .08-15.62 39.76 43.12-53.04h-20.94L-10.7 49.4z" stroke="#000" stroke-opacity="0" stroke-width="2.34" fill="#fcd116"/><path d="M-31.03 76.36L-10.7 49.4h-15.94L-43.5 82.76l19.97.16-29.66 46.48 43.12-53.04h-20.95z" stroke="#000" stroke-opacity="0" stroke-width="2.34" fill="#ff8c00" fill-opacity=".3"/><path d="M-40.16 51.1l-4.75 13.8-12.12.7-26.84 22.72 26.94 23.55 10.37 3.75-4.85 10.28 9.88-11.93 25.5-.97 29.05-24.53-26.55-23.03-9.88-.38 9.6-14.17z" stroke="#000" stroke-opacity="0" stroke-width="0" fill-opacity="0"/><path d="M959.4 29.4c-16.42 0-30.07 13.62-30.07 30 0 13.63 8.72 24.6 20.2 28.35l-6.55 7.1 8.23 7.08-8.22 7.64 8.23 7.08-8.22 8.2 16.4 15.28 13.66-14.18V86.1c9.86-5.43 16.4-15.3 16.4-27.25 0-16.38-13.64-29.45-30.05-29.45zm5.46 21.8s-1.08 0-1.62 1.12c0 0-1.14 1.1-1.7 1.1h-4.86l-1.14-1.1-1.08-1.66V45.8l1.08-1.12 1.7-1.1h4.86l1.14 1.1 1.08 1.66v4.87z" stroke="#000" stroke-opacity="0" stroke-width="6.25" fill="#fcd116"/><path d="M962.12 89.4v39.27l5.47-5.45v-34.9c-1.9.55-3.53.88-5.48 1.08z" stroke="#000" stroke-opacity="0" stroke-width="6.25" fill="#ff8c00" fill-opacity=".4"/><path d="M959.4 78.5c9.67.1 17.74-6.82 19.12-16.37h-38.26c1.38 9.55 9.45 16.46 19.13 16.36z" stroke="#000" stroke-opacity="0" stroke-width="6.25" fill="#fff" fill-opacity=".4"/><path d="M991.64 44.67c1.6 3.25 2.18 5.45 2.76 9.32 10.9 10.26 16.53 23.14 16.4 38.1 0 28.4-23.52 51.85-51.98 51.85-28.35 0-51.3-23.46-51.3-51.84-.13-14.96 5.38-27.84 16.3-38.1l3.32-9.33C910.84 55.67 902 72.53 902 92.1c0 31.64 25.7 57.3 57.4 57.3 31.67 0 57.38-25.66 57.38-57.3 0-19.57-9.87-37.06-25.14-47.43z" stroke="#000" stroke-opacity="0" stroke-width="6.25" fill="#7fba00"/><path d="M959.62 34.83c31.67 0 57.38 25.6 57.38 57.17 0 31.56-25.7 57.17-57.38 57.17-31.68 0-57.4-25.6-57.4-57.17 0-31.56 25.72-57.17 57.4-57.17z" stroke="#000" stroke-opacity="0" stroke-width=".01" fill-opacity="0"/><defs><path fill="#fff" d="M1034 0L896-382H333L196 0H0l510-1349h217L1228 0h-194zM847-531c-77-225-157-447-231-674-69 231-154 451-232 674h463" id="aE"/><path fill="#fff" d="M147 0v-137l681-806H187v-139h844v137L349-139h719V0H147" id="aF"/><path fill="#fff" d="M528 20c-247 0-343-132-343-381v-721h180v686c-4 177 45 284 224 277 194-8 279-136 279-336v-627h181c3 360-6 732 6 1082H885c-4-54-7-126-8-185h-3C809-64 714 20 528 20" id="aG"/><path fill="#fff" d="M839-1102c70 0 148 7 206 17v167c-112-18-268-36-363 15-129 69-208 203-208 395V0H294c-10-367 32-789-52-1082h171c21 75 41 161 48 250h5c67-152 152-270 373-270" id="aH"/><path fill="#fff" d="M617-1102c355 0 481 238 477 599H322c5 222 84 388 301 388 144 0 244-59 284-166l158 45C1002-72 854 20 623 20c-342 0-490-220-490-568 0-346 151-554 484-554zm291 461c-18-192-90-328-289-328-194 0-287 128-295 328h584" id="aI"/><g id="a"><use transform="matrix(0.008680555555555554,0,0,0.008680555555555554,0,0)" xlink:href="#aE"/><use transform="matrix(0.008680555555555554,0,0,0.008680555555555554,10.668402777777777,0)" xlink:href="#aF"/><use transform="matrix(0.008680555555555554,0,0,0.008680555555555554,21.336805555555554,0)" xlink:href="#aG"/><use transform="matrix(0.008680555555555554,0,0,0.008680555555555554,32.00520833333333,0)" xlink:href="#aH"/><use transform="matrix(0.008680555555555554,0,0,0.008680555555555554,42.67361111111111,0)" xlink:href="#aI"/></g><path fill="#fff" d="M1121-976c0 225-142 341-344 379L1177 0H957L591-575H353V0H162v-1349h482c281 3 477 100 477 373zM633-726c181-1 296-73 296-247 0-149-101-223-304-223H353v470h280" id="aJ"/><path fill="#fff" d="M873-819c-18-114-119-146-250-146-163 0-245 50-245 151 0 151 170 148 294 185 182 54 388 94 388 320 0 240-189 325-439 329-245 4-410-69-454-268l159-31c24 133 136 168 295 165 144-2 270-31 270-171 0-164-195-160-331-202-167-52-350-87-350-299 0-218 173-315 413-313 220 2 373 77 412 260" id="aK"/><path fill="#fff" d="M615-1102c343 0 484 203 482 560-1 347-147 562-488 562-336 0-475-219-479-562-4-349 156-560 485-560zm-8 989c240 0 301-180 301-429 0-245-55-427-290-427-236 0-299 181-299 427 0 243 61 429 288 429" id="aL"/><path fill="#fff" d="M631 20c-350 0-501-215-501-562 0-355 162-560 502-560 250 0 399 118 446 323l-192 14c-23-124-109-196-262-196-242 0-305 171-305 415 1 245 61 427 304 427 151 0 248-77 267-215l190 12C1039-107 883 20 631 20" id="aM"/><g id="b"><use transform="matrix(0.008680555555555554,0,0,0.008680555555555554,0,0)" xlink:href="#aJ"/><use transform="matrix(0.008680555555555554,0,0,0.008680555555555554,10.668402777777777,0)" xlink:href="#aI"/><use transform="matrix(0.008680555555555554,0,0,0.008680555555555554,21.336805555555554,0)" xlink:href="#aK"/><use transform="matrix(0.008680555555555554,0,0,0.008680555555555554,32.00520833333333,0)" xlink:href="#aL"/><use transform="matrix(0.008680555555555554,0,0,0.008680555555555554,42.67361111111111,0)" xlink:href="#aG"/><use transform="matrix(0.008680555555555554,0,0,0.008680555555555554,53.342013888888886,0)" xlink:href="#aH"/><use transform="matrix(0.008680555555555554,0,0,0.008680555555555554,64.01041666666666,0)" xlink:href="#aM"/><use transform="matrix(0.008680555555555554,0,0,0.008680555555555554,74.67881944444443,0)" xlink:href="#aI"/></g><path fill="#fff" d="M285-1169c8 382 2 780 4 1169H129v-1349h237c86 239 188 461 253 720 69-258 169-481 255-720h225V0H937c2-390-5-788 6-1169-75 255-170 488-259 729H547c-90-240-185-475-262-729" id="aN"/><path fill="#fff" d="M1000-272c3 95 12 159 101 161 21 0 41-3 59-7V-6c-44 10-86 16-139 16-141 2-191-84-197-217h-6C748-76 648 20 446 20c-207 0-318-120-318-322 0-266 194-348 454-354l236-4c12-191-40-305-222-305-140 0-220 47-232 172l-188-17c33-204 181-292 423-292 255 0 401 118 401 364v466zm-683-27c0 109 63 184 175 182 166-3 259-96 306-217 24-65 20-120 20-200-232 7-501-28-501 235" id="aO"/><path fill="#fff" d="M706-1102c241 0 344 136 343 381V0H868v-695c1-168-57-273-220-268-190 6-283 138-283 336V0H185c-3-360 6-732-6-1082h170c4 54 7 126 8 185h3c63-121 164-204 346-205" id="aP"/><path fill="#fff" d="M1048-32c-2 300-135 456-433 456-222-1-358-88-400-267l184-25c22 99 100 157 222 156 184-2 248-125 248-315 0-64 3-133-2-194C807-100 706-13 524-12c-306 0-381-228-381-537 0-318 85-550 400-550 164 0 271 83 325 202h3c1-60 3-134 12-185h171c-13 339-4 702-6 1050zM585-145c210-8 284-178 284-406 0-192-52-331-177-392-33-16-69-22-104-22-223 2-259 184-259 414 0 229 31 415 256 406" id="aQ"/><g id="c"><use transform="matrix(0.008680555555555554,0,0,0.008680555555555554,0,0)" xlink:href="#aN"/><use transform="matrix(0.008680555555555554,0,0,0.008680555555555554,10.668402777777777,0)" xlink:href="#aO"/><use transform="matrix(0.008680555555555554,0,0,0.008680555555555554,21.336805555555554,0)" xlink:href="#aP"/><use transform="matrix(0.008680555555555554,0,0,0.008680555555555554,32.00520833333333,0)" xlink:href="#aO"/><use transform="matrix(0.008680555555555554,0,0,0.008680555555555554,42.67361111111111,0)" xlink:href="#aQ"/><use transform="matrix(0.008680555555555554,0,0,0.008680555555555554,53.342013888888886,0)" xlink:href="#aI"/><use transform="matrix(0.008680555555555554,0,0,0.008680555555555554,64.01041666666666,0)" xlink:href="#aH"/></g><path fill="#3a414a" d="M1034 0L896-382H333L196 0H0l510-1349h217L1228 0h-194zM847-531c-77-225-157-447-231-674-69 231-154 451-232 674h463" id="aR"/><path fill="#3a414a" d="M147 0v-137l681-806H187v-139h844v137L349-139h719V0H147" id="aS"/><path fill="#3a414a" d="M528 20c-247 0-343-132-343-381v-721h180v686c-4 177 45 284 224 277 194-8 279-136 279-336v-627h181c3 360-6 732 6 1082H885c-4-54-7-126-8-185h-3C809-64 714 20 528 20" id="aT"/><path fill="#3a414a" d="M839-1102c70 0 148 7 206 17v167c-112-18-268-36-363 15-129 69-208 203-208 395V0H294c-10-367 32-789-52-1082h171c21 75 41 161 48 250h5c67-152 152-270 373-270" id="aU"/><path fill="#3a414a" d="M617-1102c355 0 481 238 477 599H322c5 222 84 388 301 388 144 0 244-59 284-166l158 45C1002-72 854 20 623 20c-342 0-490-220-490-568 0-346 151-554 484-554zm291 461c-18-192-90-328-289-328-194 0-287 128-295 328h584" id="aV"/><g id="d"><use transform="matrix(0.008680555555555554,0,0,0.008680555555555554,0,0)" xlink:href="#aR"/><use transform="matrix(0.008680555555555554,0,0,0.008680555555555554,10.668402777777777,0)" xlink:href="#aS"/><use transform="matrix(0.008680555555555554,0,0,0.008680555555555554,21.336805555555554,0)" xlink:href="#aT"/><use transform="matrix(0.008680555555555554,0,0,0.008680555555555554,32.00520833333333,0)" xlink:href="#aU"/><use transform="matrix(0.008680555555555554,0,0,0.008680555555555554,42.67361111111111,0)" xlink:href="#aV"/></g><path fill="#3a414a" d="M875 0v-623H353V0H162v-1349h191v566h522v-566h191V0H875" id="aW"/><path fill="#3a414a" d="M615-1102c343 0 484 203 482 560-1 347-147 562-488 562-336 0-475-219-479-562-4-349 156-560 485-560zm-8 989c240 0 301-180 301-429 0-245-55-427-290-427-236 0-299 181-299 427 0 243 61 429 288 429" id="aX"/><path fill="#3a414a" d="M873-819c-18-114-119-146-250-146-163 0-245 50-245 151 0 151 170 148 294 185 182 54 388 94 388 320 0 240-189 325-439 329-245 4-410-69-454-268l159-31c24 133 136 168 295 165 144-2 270-31 270-171 0-164-195-160-331-202-167-52-350-87-350-299 0-218 173-315 413-313 220 2 373 77 412 260" id="aY"/><path fill="#3a414a" d="M682 16c-209 0-323-80-324-285v-671H190v-142h170l58-282h120v282h432v142H538v652c2 114 60 155 182 155 106 0 209-16 297-34v137C921-4 806 16 682 16" id="aZ"/><g id="e"><use transform="matrix(0.008680555555555554,0,0,0.008680555555555554,0,0)" xlink:href="#aW"/><use transform="matrix(0.008680555555555554,0,0,0.008680555555555554,10.668402777777777,0)" xlink:href="#aX"/><use transform="matrix(0.008680555555555554,0,0,0.008680555555555554,21.336805555555554,0)" xlink:href="#aY"/><use transform="matrix(0.008680555555555554,0,0,0.008680555555555554,32.00520833333333,0)" xlink:href="#aZ"/></g><path fill="#fff" d="M614-1226c-167 1-283 53-283 213 0 183 186 193 334 234 230 63 463 120 463 409 0 286-219 387-518 390C309 23 131-98 79-338l185-37c34 165 149 248 351 246 184-2 324-58 324-238 0-203-207-221-372-266-210-57-422-111-422-377 0-267 201-356 470-360 279-5 430 101 480 324l-188 33c-28-141-121-215-293-213" id="ba"/><path fill="#fff" d="M715 0H502L69-1082h202c94 253 197 500 285 758 19 57 36 126 52 183 96-335 234-626 350-941h201" id="bb"/><path fill="#fff" d="M745-142h380V0H143v-142h422v-798H246v-142h499v940zM545-1292v-192h200v192H545" id="bc"/><g id="f"><use transform="matrix(0.008680555555555554,0,0,0.008680555555555554,0,0)" xlink:href="#ba"/><use transform="matrix(0.008680555555555554,0,0,0.008680555555555554,10.668402777777777,0)" xlink:href="#aI"/><use transform="matrix(0.008680555555555554,0,0,0.008680555555555554,21.336805555555554,0)" xlink:href="#aH"/><use transform="matrix(0.008680555555555554,0,0,0.008680555555555554,32.00520833333333,0)" xlink:href="#bb"/><use transform="matrix(0.008680555555555554,0,0,0.008680555555555554,42.67361111111111,0)" xlink:href="#bc"/><use transform="matrix(0.008680555555555554,0,0,0.008680555555555554,53.342013888888886,0)" xlink:href="#aM"/><use transform="matrix(0.008680555555555554,0,0,0.008680555555555554,64.01041666666666,0)" xlink:href="#aI"/></g><path fill="#fff" d="M622-1349c296 4 497 117 497 404 0 282-193 424-485 431H353V0H162v-1349h460zm-15 684c195-3 320-88 320-277 0-184-129-255-328-254H353v531h254" id="bd"/><path fill="#fff" d="M698-1104c312 3 392 244 392 558 0 315-82 566-392 566-169 0-277-65-331-184h-5c8 188 2 394 4 589H185V-858c0-76-1-156-6-224h175c6 52 9 120 10 178h4c58-122 150-202 330-200zm-49 991c225 0 255-203 255-433 0-225-32-419-253-419-236 0-285 192-285 441 0 237 53 411 283 411" id="be"/><path fill="#fff" d="M736-142h380V0H134v-142h422v-1200H267v-142h469v1342" id="bf"/><g id="g"><use transform="matrix(0.008680555555555554,0,0,0.008680555555555554,0,0)" xlink:href="#bd"/><use transform="matrix(0.008680555555555554,0,0,0.008680555555555554,10.668402777777777,0)" xlink:href="#aH"/><use transform="matrix(0.008680555555555554,0,0,0.008680555555555554,21.336805555555554,0)" xlink:href="#bc"/><use transform="matrix(0.008680555555555554,0,0,0.008680555555555554,32.00520833333333,0)" xlink:href="#aP"/><use transform="matrix(0.008680555555555554,0,0,0.008680555555555554,42.67361111111111,0)" xlink:href="#aM"/><use transform="matrix(0.008680555555555554,0,0,0.008680555555555554,53.342013888888886,0)" xlink:href="#bc"/><use transform="matrix(0.008680555555555554,0,0,0.008680555555555554,64.01041666666666,0)" xlink:href="#be"/><use transform="matrix(0.008680555555555554,0,0,0.008680555555555554,74.67881944444443,0)" xlink:href="#aO"/><use transform="matrix(0.008680555555555554,0,0,0.008680555555555554,85.3472222222222,0)" xlink:href="#bf"/></g><path fill="#3a414a" d="M473-1349c438-1 655 221 652 661C1122-268 945-8 532 0H162v-1349h311zm42 1193c308-4 416-205 418-532 2-330-131-509-459-505H353v1037h162" id="bg"/><g id="h"><use transform="matrix(0.008680555555555554,0,0,0.008680555555555554,0,0)" xlink:href="#aR"/><use transform="matrix(0.008680555555555554,0,0,0.008680555555555554,10.668402777777777,0)" xlink:href="#bg"/></g><path fill="#3a414a" d="M709-1193V0H519v-1193H76v-156h1076v156H709" id="bh"/><path fill="#3a414a" d="M706-1102c241 0 344 136 343 381V0H868v-695c1-168-57-273-220-268-190 6-283 138-283 336V0H185c-3-360 6-732-6-1082h170c4 54 7 126 8 185h3c63-121 164-204 346-205" id="bi"/><path fill="#3a414a" d="M1000-272c3 95 12 159 101 161 21 0 41-3 59-7V-6c-44 10-86 16-139 16-141 2-191-84-197-217h-6C748-76 648 20 446 20c-207 0-318-120-318-322 0-266 194-348 454-354l236-4c12-191-40-305-222-305-140 0-220 47-232 172l-188-17c33-204 181-292 423-292 255 0 401 118 401 364v466zm-683-27c0 109 63 184 175 182 166-3 259-96 306-217 24-65 20-120 20-200-232 7-501-28-501 235" id="bj"/><g id="i"><use transform="matrix(0.008680555555555554,0,0,0.008680555555555554,0,0)" xlink:href="#bh"/><use transform="matrix(0.008680555555555554,0,0,0.008680555555555554,10.668402777777777,0)" xlink:href="#aV"/><use transform="matrix(0.008680555555555554,0,0,0.008680555555555554,21.336805555555554,0)" xlink:href="#bi"/><use transform="matrix(0.008680555555555554,0,0,0.008680555555555554,32.00520833333333,0)" xlink:href="#bj"/><use transform="matrix(0.008680555555555554,0,0,0.008680555555555554,42.67361111111111,0)" xlink:href="#bi"/><use transform="matrix(0.008680555555555554,0,0,0.008680555555555554,53.342013888888886,0)" xlink:href="#aZ"/></g><g id="j"><use transform="matrix(0.008680555555555554,0,0,0.008680555555555554,0,0)" xlink:href="#aE"/><use transform="matrix(0.008680555555555554,0,0,0.008680555555555554,10.668402777777777,0)" xlink:href="#aF"/><use transform="matrix(0.008680555555555554,0,0,0.008680555555555554,21.336805555555554,0)" xlink:href="#aG"/><use transform="matrix(0.008680555555555554,0,0,0.008680555555555554,32.00520833333333,0)" xlink:href="#aH"/><use transform="matrix(0.008680555555555554,0,0,0.008680555555555554,42.67361111111111,0)" xlink:href="#aI"/></g><g id="k"><use transform="matrix(0.008680555555555554,0,0,0.008680555555555554,0,0)" xlink:href="#aJ"/><use transform="matrix(0.008680555555555554,0,0,0.008680555555555554,10.668402777777777,0)" xlink:href="#aL"/><use transform="matrix(0.008680555555555554,0,0,0.008680555555555554,21.336805555555554,0)" xlink:href="#bf"/><use transform="matrix(0.008680555555555554,0,0,0.008680555555555554,32.00520833333333,0)" xlink:href="#aI"/></g><path fill="#fff" d="M802-711c201 25 350 118 350 331C1152-95 921 0 634 0H162v-1349c401 9 908-74 908 327 0 184-111 275-268 311zm-224-69c174-2 300-51 300-218 0-163-124-198-302-198H353v416h225zM353-153c281-2 612 44 606-244-5-271-329-233-606-234v478" id="bk"/><path fill="#fff" d="M865-914c-3-187-2-380-2-570h180v1261c0 76 1 155 6 223H877c-8-49-9-116-10-174h-5C801-44 708 26 530 26c-135 0-234-46-297-139s-95-232-95-419c0-377 131-566 392-566 176 0 271 63 335 184zm-286-51c-222 0-255 197-255 427 0 229 31 425 253 425 237 0 286-195 286-441 0-238-52-411-284-411" id="bl"/><g id="l"><use transform="matrix(0.008680555555555554,0,0,0.008680555555555554,0,0)" xlink:href="#bk"/><use transform="matrix(0.008680555555555554,0,0,0.008680555555555554,10.668402777777777,0)" xlink:href="#aO"/><use transform="matrix(0.008680555555555554,0,0,0.008680555555555554,21.336805555555554,0)" xlink:href="#aK"/><use transform="matrix(0.008680555555555554,0,0,0.008680555555555554,32.00520833333333,0)" xlink:href="#aI"/><use transform="matrix(0.008680555555555554,0,0,0.008680555555555554,42.67361111111111,0)" xlink:href="#bl"/></g><g id="m"><use transform="matrix(0.008680555555555554,0,0,0.008680555555555554,0,0)" xlink:href="#aE"/><use transform="matrix(0.008680555555555554,0,0,0.008680555555555554,10.668402777777777,0)" xlink:href="#aM"/><use transform="matrix(0.008680555555555554,0,0,0.008680555555555554,21.336805555555554,0)" xlink:href="#aM"/><use transform="matrix(0.008680555555555554,0,0,0.008680555555555554,32.00520833333333,0)" xlink:href="#aI"/><use transform="matrix(0.008680555555555554,0,0,0.008680555555555554,42.67361111111111,0)" xlink:href="#aK"/><use transform="matrix(0.008680555555555554,0,0,0.008680555555555554,53.342013888888886,0)" xlink:href="#aK"/></g><path fill="#fff" d="M650-1214c-281 0-336 244-336 533 0 295 60 546 347 546 188 0 263-142 322-282l159 65C1058-155 935 20 659 20c-401 0-546-295-546-701 0-407 135-689 536-689 264 0 391 146 466 335l-168 65c-47-129-127-244-297-244" id="bm"/><path fill="#fff" d="M682 16c-209 0-323-80-324-285v-671H190v-142h170l58-282h120v282h432v142H538v652c2 114 60 155 182 155 106 0 209-16 297-34v137C921-4 806 16 682 16" id="bn"/><g id="n"><use transform="matrix(0.008680555555555554,0,0,0.008680555555555554,0,0)" xlink:href="#bm"/><use transform="matrix(0.008680555555555554,0,0,0.008680555555555554,10.668402777777777,0)" xlink:href="#aL"/><use transform="matrix(0.008680555555555554,0,0,0.008680555555555554,21.336805555555554,0)" xlink:href="#aP"/><use transform="matrix(0.008680555555555554,0,0,0.008680555555555554,32.00520833333333,0)" xlink:href="#bn"/><use transform="matrix(0.008680555555555554,0,0,0.008680555555555554,42.67361111111111,0)" xlink:href="#aH"/><use transform="matrix(0.008680555555555554,0,0,0.008680555555555554,53.342013888888886,0)" xlink:href="#aL"/><use transform="matrix(0.008680555555555554,0,0,0.008680555555555554,64.01041666666666,0)" xlink:href="#bf"/></g><path fill="#fff" d="M202-1349h823v156H709v1037h316V0H202v-156h316v-1037H202v-156" id="bo"/><g id="o"><use transform="matrix(0.008680555555555554,0,0,0.008680555555555554,0,0)" xlink:href="#bo"/><use transform="matrix(0.008680555555555554,0,0,0.008680555555555554,10.668402777777777,0)" xlink:href="#aP"/><use transform="matrix(0.008680555555555554,0,0,0.008680555555555554,21.336805555555554,0)" xlink:href="#aK"/><use transform="matrix(0.008680555555555554,0,0,0.008680555555555554,32.00520833333333,0)" xlink:href="#bn"/><use transform="matrix(0.008680555555555554,0,0,0.008680555555555554,42.67361111111111,0)" xlink:href="#aO"/><use transform="matrix(0.008680555555555554,0,0,0.008680555555555554,53.342013888888886,0)" xlink:href="#aP"/><use transform="matrix(0.008680555555555554,0,0,0.008680555555555554,64.01041666666666,0)" xlink:href="#aM"/><use transform="matrix(0.008680555555555554,0,0,0.008680555555555554,74.67881944444443,0)" xlink:href="#aI"/></g><g id="p"><use transform="matrix(0.008680555555555554,0,0,0.008680555555555554,0,0)" xlink:href="#aN"/><use transform="matrix(0.008680555555555554,0,0,0.008680555555555554,10.668402777777777,0)" xlink:href="#aI"/><use transform="matrix(0.008680555555555554,0,0,0.008680555555555554,21.336805555555554,0)" xlink:href="#bn"/><use transform="matrix(0.008680555555555554,0,0,0.008680555555555554,32.00520833333333,0)" xlink:href="#aO"/><use transform="matrix(0.008680555555555554,0,0,0.008680555555555554,42.67361111111111,0)" xlink:href="#bl"/><use transform="matrix(0.008680555555555554,0,0,0.008680555555555554,53.342013888888886,0)" xlink:href="#aO"/><use transform="matrix(0.008680555555555554,0,0,0.008680555555555554,64.01041666666666,0)" xlink:href="#bn"/><use transform="matrix(0.008680555555555554,0,0,0.008680555555555554,74.67881944444443,0)" xlink:href="#aO"/></g><g id="q"><use transform="matrix(0.008680555555555554,0,0,0.008680555555555554,0,0)" xlink:href="#ba"/><use transform="matrix(0.008680555555555554,0,0,0.008680555555555554,10.668402777777777,0)" xlink:href="#aI"/><use transform="matrix(0.008680555555555554,0,0,0.008680555555555554,21.336805555555554,0)" xlink:href="#aH"/><use transform="matrix(0.008680555555555554,0,0,0.008680555555555554,32.00520833333333,0)" xlink:href="#bb"/><use transform="matrix(0.008680555555555554,0,0,0.008680555555555554,42.67361111111111,0)" xlink:href="#bc"/><use transform="matrix(0.008680555555555554,0,0,0.008680555555555554,53.342013888888886,0)" xlink:href="#aM"/><use transform="matrix(0.008680555555555554,0,0,0.008680555555555554,64.01041666666666,0)" xlink:href="#aI"/></g><path fill="#fff" d="M891-1484c-201 251-362 514-362 954 0 441 161 704 362 955H701C500 176 342-90 342-532c0-440 159-704 359-952h190" id="bp"/><path fill="#fff" d="M473-1349c438-1 655 221 652 661C1122-268 945-8 532 0H162v-1349h311zm42 1193c308-4 416-205 418-532 2-330-131-509-459-505H353v1037h162" id="bq"/><path fill="#fff" d="M528-1484c201 248 357 511 357 952 0 442-156 709-357 957H336C537 174 700-89 700-530c0-440-163-703-364-954h192" id="br"/><g id="r"><use transform="matrix(0.008680555555555554,0,0,0.008680555555555554,0,0)" xlink:href="#bp"/><use transform="matrix(0.008680555555555554,0,0,0.008680555555555554,10.668402777777777,0)" xlink:href="#bo"/><use transform="matrix(0.008680555555555554,0,0,0.008680555555555554,21.336805555555554,0)" xlink:href="#aN"/><use transform="matrix(0.008680555555555554,0,0,0.008680555555555554,32.00520833333333,0)" xlink:href="#bq"/><use transform="matrix(0.008680555555555554,0,0,0.008680555555555554,42.67361111111111,0)" xlink:href="#ba"/><use transform="matrix(0.008680555555555554,0,0,0.008680555555555554,53.342013888888886,0)" xlink:href="#br"/></g><path fill="#3a414a" d="M23 0v-37h61v-169l-59 37v-38l62-41h46v211h57V0H23" id="bs"/><use transform="matrix(0.06172839506172839,0,0,0.06172839506172839,0,0)" xlink:href="#bs" id="s"/><path fill="#3a414a" d="M872-915c-35-112-84-223-220-223-91 0-156 41-204 116-89 137-87 550 2 688 51 79 116 122 209 122 150 0 197-126 240-244l273 52C1094-168 961 20 656 20 239 20 80-262 80-681c0-418 154-689 568-689 289 0 425 167 496 389" id="bt"/><path fill="#3a414a" d="M875-1102c70 0 148 7 206 17v237c-110-17-267-37-359 15-123 69-192 207-192 395V0H250c-10-367 32-789-52-1082h271c19 69 36 149 46 228h4c52-151 151-250 356-248" id="bu"/><path fill="#3a414a" d="M1113-274C1038-96 884 20 626 20c-352 0-526-209-526-566 0-358 185-556 530-556 358 0 496 251 499 615H395c5 180 68 319 245 319 102 0 186-45 208-129zM857-663c-6-177-128-307-315-247-94 30-141 121-145 247h460" id="bv"/><path fill="#3a414a" d="M775-193C708-75 621 20 439 20 226 20 106-93 106-306c0-251 170-341 417-346l223-4c4-143-12-264-148-264-103 0-141 58-150 153l-293-14c37-219 194-321 455-321 263 0 418 130 417 390v392c1 84 5 161 89 160 21 0 42-2 62-6v152c-57 15-108 27-180 26-145 0-202-73-217-205h-6zm-256 17c168 0 234-139 227-325-166 4-347-25-347 173 0 94 33 152 120 152" id="bw"/><path fill="#3a414a" d="M711 13c-250 0-386-99-385-349l2-556H161v-190h181l88-282h176v282h385v190H606v530c-10 130 45 186 174 184 91-2 176-11 255-27v186C933-1 833 13 711 13" id="bx"/><g id="t"><use transform="matrix(0.008680555555555554,0,0,0.008680555555555554,0,0)" xlink:href="#bt"/><use transform="matrix(0.008680555555555554,0,0,0.008680555555555554,10.668402777777777,0)" xlink:href="#bu"/><use transform="matrix(0.008680555555555554,0,0,0.008680555555555554,21.336805555555554,0)" xlink:href="#bv"/><use transform="matrix(0.008680555555555554,0,0,0.008680555555555554,32.00520833333333,0)" xlink:href="#bw"/><use transform="matrix(0.008680555555555554,0,0,0.008680555555555554,42.67361111111111,0)" xlink:href="#bx"/><use transform="matrix(0.008680555555555554,0,0,0.008680555555555554,53.342013888888886,0)" xlink:href="#bv"/></g><path fill="#3a414a" d="M1100-543c2 361-147 563-501 563-342 0-470-199-470-548v-821h295v818c3 172 13 322 183 320 173-2 198-150 198-330v-808h295v806" id="by"/><path fill="#3a414a" d="M622-916c-112 2-200 14-200 111 0 90 89 101 168 121 234 58 514 77 514 368C1104-4 751 54 434 5 267-21 161-112 121-270l247-37c24 111 113 145 252 141 114-3 226-12 226-124 0-101-103-113-192-134-225-54-490-76-490-351 0-247 201-328 458-328 245 0 413 88 457 292l-249 26c-16-98-92-133-208-131" id="bz"/><path fill="#3a414a" d="M324-409v-244h580v244H324" id="bA"/><path fill="#3a414a" d="M1229 0H935l-92-330H387L295 0H0l443-1349h344zM615-1167c-46 213-110 412-166 615h332c-56-204-119-401-166-615" id="bB"/><path fill="#3a414a" d="M794-190h353V0H118v-190h395v-702H223v-190h571v892zM513-1277v-207h281v207H513" id="bC"/><path fill="#3a414a" d="M1108-33c-3 314-178 467-492 467-243 0-400-94-447-291l281-33c17 79 82 141 174 141 176 0 212-155 205-347-2-40 5-80 0-115C773-85 665-12 501-12c-288 0-377-242-377-538 0-242 65-426 223-510 50-26 108-39 175-39 160 0 253 78 307 191h5c1-58 5-125 14-174h266c-12 335-3 703-6 1049zM811-384c25-82 27-259 1-342-30-99-77-180-190-180-172 0-205 171-205 356 0 116 18 202 54 258 48 76 129 107 221 70 62-25 96-86 119-162" id="bD"/><path fill="#3a414a" d="M768-1103c247 0 336 167 336 416V0H824v-619c-3-164-24-273-171-273-164 0-229 142-229 312V0H143c-4-359 9-736-8-1082h268c7 63 12 146 13 215h4c67-145 160-236 348-236" id="bE"/><path fill="#3a414a" d="M802-909c-3-189-2-383-2-575h281v1248c-1 83 4 168 8 236H817c-9-50-14-117-15-176h-4C735-49 651 20 482 20 191 20 97-238 97-539c0-243 66-432 221-519 50-28 108-42 175-42 162 2 253 78 309 191zm-70 658c91-113 93-462 2-584-46-61-145-100-224-53-96 56-119 190-120 349 0 123 17 214 52 275 46 82 130 115 222 74 25-12 46-33 68-61" id="bF"/><g id="u"><use transform="matrix(0.008680555555555554,0,0,0.008680555555555554,0,0)" xlink:href="#by"/><use transform="matrix(0.008680555555555554,0,0,0.008680555555555554,10.668402777777777,0)" xlink:href="#bz"/><use transform="matrix(0.008680555555555554,0,0,0.008680555555555554,21.336805555555554,0)" xlink:href="#bv"/><use transform="matrix(0.008680555555555554,0,0,0.008680555555555554,32.00520833333333,0)" xlink:href="#bu"/><use transform="matrix(0.008680555555555554,0,0,0.008680555555555554,42.67361111111111,0)" xlink:href="#bA"/><use transform="matrix(0.008680555555555554,0,0,0.008680555555555554,53.342013888888886,0)" xlink:href="#bB"/><use transform="matrix(0.008680555555555554,0,0,0.008680555555555554,64.01041666666666,0)" xlink:href="#bz"/><use transform="matrix(0.008680555555555554,0,0,0.008680555555555554,74.67881944444443,0)" xlink:href="#bz"/><use transform="matrix(0.008680555555555554,0,0,0.008680555555555554,85.3472222222222,0)" xlink:href="#bC"/><use transform="matrix(0.008680555555555554,0,0,0.008680555555555554,96.01562499999997,0)" xlink:href="#bD"/><use transform="matrix(0.008680555555555554,0,0,0.008680555555555554,106.68402777777774,0)" xlink:href="#bE"/><use transform="matrix(0.008680555555555554,0,0,0.008680555555555554,117.35243055555551,0)" xlink:href="#bv"/><use transform="matrix(0.008680555555555554,0,0,0.008680555555555554,128.0208333333333,0)" xlink:href="#bF"/></g><path fill="#3a414a" d="M305-1169c27 366 9 780 14 1169H99v-1349h347c49 189 108 371 150 564 12 56 15 107 23 166 33-270 117-487 176-730h335V0H908c5-390-13-801 16-1169-52 285-130 541-199 809H507c-70-267-148-525-202-809" id="bG"/><g id="v"><use transform="matrix(0.008680555555555554,0,0,0.008680555555555554,0,0)" xlink:href="#bG"/><use transform="matrix(0.008680555555555554,0,0,0.008680555555555554,10.668402777777777,0)" xlink:href="#bw"/><use transform="matrix(0.008680555555555554,0,0,0.008680555555555554,21.336805555555554,0)" xlink:href="#bE"/><use transform="matrix(0.008680555555555554,0,0,0.008680555555555554,32.00520833333333,0)" xlink:href="#bw"/><use transform="matrix(0.008680555555555554,0,0,0.008680555555555554,42.67361111111111,0)" xlink:href="#bD"/><use transform="matrix(0.008680555555555554,0,0,0.008680555555555554,53.342013888888886,0)" xlink:href="#bv"/><use transform="matrix(0.008680555555555554,0,0,0.008680555555555554,64.01041666666666,0)" xlink:href="#bF"/></g><path fill="#3a414a" d="M157-1349h916v228H757v893h316V0H157v-228h316v-893H157v-228" id="bH"/><path fill="#3a414a" d="M143 212c82 12 185 12 233-31 50-45 83-117 110-192L38-1082h297c100 284 211 557 291 861 72-305 176-578 270-861h294L742 57c-80 192-156 368-417 368-60 0-131-4-182-13V212" id="bI"/><g id="w"><use transform="matrix(0.008680555555555554,0,0,0.008680555555555554,0,0)" xlink:href="#bH"/><use transform="matrix(0.008680555555555554,0,0,0.008680555555555554,10.668402777777777,0)" xlink:href="#bF"/><use transform="matrix(0.008680555555555554,0,0,0.008680555555555554,21.336805555555554,0)" xlink:href="#bv"/><use transform="matrix(0.008680555555555554,0,0,0.008680555555555554,32.00520833333333,0)" xlink:href="#bE"/><use transform="matrix(0.008680555555555554,0,0,0.008680555555555554,42.67361111111111,0)" xlink:href="#bx"/><use transform="matrix(0.008680555555555554,0,0,0.008680555555555554,53.342013888888886,0)" xlink:href="#bC"/><use transform="matrix(0.008680555555555554,0,0,0.008680555555555554,64.01041666666666,0)" xlink:href="#bx"/><use transform="matrix(0.008680555555555554,0,0,0.008680555555555554,74.67881944444443,0)" xlink:href="#bI"/></g><path fill="#3a414a" d="M182-182c0 78-84 86-111 141h115V0H12c-6-101 99-100 120-180 1-22-12-31-33-32-23 0-32 14-35 34l-49-3c5-45 32-70 84-70 51 0 83 22 83 69" id="bJ"/><use transform="matrix(0.06172839506172839,0,0,0.06172839506172839,0,0)" xlink:href="#bJ" id="x"/><path fill="#3a414a" d="M609-1161c-125 0-218 36-218 153 0 149 166 161 290 196 235 67 484 129 484 421 0 300-239 408-554 411C302 23 93-114 38-367l285-37c32 128 131 205 296 203 143-2 259-31 259-173 0-164-197-172-333-212-218-64-441-131-441-405 0-276 231-379 511-379 299 0 463 114 513 363l-286 29c-28-115-96-183-233-183" id="bK"/><path fill="#3a414a" d="M774 0H438L31-1082h297c94 290 200 568 280 872 83-304 194-581 291-872h294" id="bL"/><path fill="#3a414a" d="M1109-360C1066-122 902 20 624 20c-347 0-514-209-514-555 0-353 168-567 518-567 270 0 425 136 473 361l-283 14c-16-106-75-183-196-182-75 0-130 31-165 93s-52 152-52 270c0 249 74 374 221 374 120 0 188-82 201-201" id="bM"/><g id="y"><use transform="matrix(0.008680555555555554,0,0,0.008680555555555554,0,0)" xlink:href="#bK"/><use transform="matrix(0.008680555555555554,0,0,0.008680555555555554,10.668402777777777,0)" xlink:href="#bv"/><use transform="matrix(0.008680555555555554,0,0,0.008680555555555554,21.336805555555554,0)" xlink:href="#bu"/><use transform="matrix(0.008680555555555554,0,0,0.008680555555555554,32.00520833333333,0)" xlink:href="#bL"/><use transform="matrix(0.008680555555555554,0,0,0.008680555555555554,42.67361111111111,0)" xlink:href="#bC"/><use transform="matrix(0.008680555555555554,0,0,0.008680555555555554,53.342013888888886,0)" xlink:href="#bM"/><use transform="matrix(0.008680555555555554,0,0,0.008680555555555554,64.01041666666666,0)" xlink:href="#bv"/></g><path fill="#3a414a" d="M616-1349c316 3 526 118 526 426 0 301-201 442-514 447H431V0H136v-1349h480zm-25 646c164 1 254-62 254-215 0-157-99-200-262-202H431v417h160" id="bN"/><path fill="#3a414a" d="M427-171c3 195 2 397 2 596H148V-846c1-83-4-168-8-236h272c10 49 14 118 15 176h4c59-114 151-197 316-197 291 0 385 259 385 560 0 243-65 433-220 521-50 28-109 42-176 42-162-2-253-78-309-191zm69-661c-91 113-92 463-1 586 46 62 145 101 225 54 96-57 118-191 119-351 0-123-18-215-53-276-46-82-128-115-220-74-25 12-48 33-70 61" id="bO"/><path fill="#3a414a" d="M794-190h353V0H118v-190h395v-1104H223v-190h571v1294" id="bP"/><g id="z"><use transform="matrix(0.008680555555555554,0,0,0.008680555555555554,0,0)" xlink:href="#bN"/><use transform="matrix(0.008680555555555554,0,0,0.008680555555555554,10.668402777777777,0)" xlink:href="#bu"/><use transform="matrix(0.008680555555555554,0,0,0.008680555555555554,21.336805555555554,0)" xlink:href="#bC"/><use transform="matrix(0.008680555555555554,0,0,0.008680555555555554,32.00520833333333,0)" xlink:href="#bE"/><use transform="matrix(0.008680555555555554,0,0,0.008680555555555554,42.67361111111111,0)" xlink:href="#bM"/><use transform="matrix(0.008680555555555554,0,0,0.008680555555555554,53.342013888888886,0)" xlink:href="#bC"/><use transform="matrix(0.008680555555555554,0,0,0.008680555555555554,64.01041666666666,0)" xlink:href="#bO"/><use transform="matrix(0.008680555555555554,0,0,0.008680555555555554,74.67881944444443,0)" xlink:href="#bw"/><use transform="matrix(0.008680555555555554,0,0,0.008680555555555554,85.3472222222222,0)" xlink:href="#bP"/></g><path fill="#3a414a" d="M616-1102c361 0 521 202 521 560 0 354-171 562-527 562C259 20 92-192 92-542c0-351 169-560 524-560zm-9 930c200-2 236-165 236-370 0-199-27-367-223-367-195 0-233 146-233 367 0 129 18 223 55 282s92 88 165 88" id="bQ"/><path fill="#3a414a" d="M844-1321c-130 0-195 53-191 182v57h443v190H653V0H373v-892H117v-190h256v-83c5-247 162-348 422-349 120-1 232 13 327 28v184c-84-10-183-19-278-19" id="bR"/><g id="A"><use transform="matrix(0.008680555555555554,0,0,0.008680555555555554,0,0)" xlink:href="#bQ"/><use transform="matrix(0.008680555555555554,0,0,0.008680555555555554,10.668402777777777,0)" xlink:href="#bR"/></g><g id="B"><use transform="matrix(0.008680555555555554,0,0,0.008680555555555554,0,0)" xlink:href="#bH"/><use transform="matrix(0.008680555555555554,0,0,0.008680555555555554,10.668402777777777,0)" xlink:href="#bF"/><use transform="matrix(0.008680555555555554,0,0,0.008680555555555554,21.336805555555554,0)" xlink:href="#bv"/><use transform="matrix(0.008680555555555554,0,0,0.008680555555555554,32.00520833333333,0)" xlink:href="#bE"/><use transform="matrix(0.008680555555555554,0,0,0.008680555555555554,42.67361111111111,0)" xlink:href="#bx"/><use transform="matrix(0.008680555555555554,0,0,0.008680555555555554,53.342013888888886,0)" xlink:href="#bC"/><use transform="matrix(0.008680555555555554,0,0,0.008680555555555554,64.01041666666666,0)" xlink:href="#bx"/><use transform="matrix(0.008680555555555554,0,0,0.008680555555555554,74.67881944444443,0)" xlink:href="#bI"/></g><g id="C"><use transform="matrix(0.008680555555555554,0,0,0.008680555555555554,0,0)" xlink:href="#bx"/><use transform="matrix(0.008680555555555554,0,0,0.008680555555555554,10.668402777777777,0)" xlink:href="#bI"/><use transform="matrix(0.008680555555555554,0,0,0.008680555555555554,21.336805555555554,0)" xlink:href="#bO"/><use transform="matrix(0.008680555555555554,0,0,0.008680555555555554,32.00520833333333,0)" xlink:href="#bv"/></g><path fill="#3a414a" d="M165-50V0h-47v-50H5v-38l105-160h55v161h33v37h-33zm-47-37l2-116L46-87h72" id="bS"/><use transform="matrix(0.06172839506172839,0,0,0.06172839506172839,0,0)" xlink:href="#bS" id="D"/><g id="E"><use transform="matrix(0.008680555555555554,0,0,0.008680555555555554,0,0)" xlink:href="#bB"/><use transform="matrix(0.008680555555555554,0,0,0.008680555555555554,10.668402777777777,0)" xlink:href="#bz"/><use transform="matrix(0.008680555555555554,0,0,0.008680555555555554,21.336805555555554,0)" xlink:href="#bz"/><use transform="matrix(0.008680555555555554,0,0,0.008680555555555554,32.00520833333333,0)" xlink:href="#bQ"/><use transform="matrix(0.008680555555555554,0,0,0.008680555555555554,42.67361111111111,0)" xlink:href="#bM"/><use transform="matrix(0.008680555555555554,0,0,0.008680555555555554,53.342013888888886,0)" xlink:href="#bC"/><use transform="matrix(0.008680555555555554,0,0,0.008680555555555554,64.01041666666666,0)" xlink:href="#bw"/><use transform="matrix(0.008680555555555554,0,0,0.008680555555555554,74.67881944444443,0)" xlink:href="#bx"/><use transform="matrix(0.008680555555555554,0,0,0.008680555555555554,85.3472222222222,0)" xlink:href="#bv"/></g><g id="F"><use transform="matrix(0.008680555555555554,0,0,0.008680555555555554,0,0)" xlink:href="#bG"/><use transform="matrix(0.008680555555555554,0,0,0.008680555555555554,10.668402777777777,0)" xlink:href="#bw"/><use transform="matrix(0.008680555555555554,0,0,0.008680555555555554,21.336805555555554,0)" xlink:href="#bE"/><use transform="matrix(0.008680555555555554,0,0,0.008680555555555554,32.00520833333333,0)" xlink:href="#bw"/><use transform="matrix(0.008680555555555554,0,0,0.008680555555555554,42.67361111111111,0)" xlink:href="#bD"/><use transform="matrix(0.008680555555555554,0,0,0.008680555555555554,53.342013888888886,0)" xlink:href="#bv"/><use transform="matrix(0.008680555555555554,0,0,0.008680555555555554,64.01041666666666,0)" xlink:href="#bF"/></g><g id="G"><use transform="matrix(0.008680555555555554,0,0,0.008680555555555554,0,0)" xlink:href="#bx"/><use transform="matrix(0.008680555555555554,0,0,0.008680555555555554,10.668402777777777,0)" xlink:href="#bQ"/></g><g id="H"><use transform="matrix(0.008680555555555554,0,0,0.008680555555555554,0,0)" xlink:href="#bw"/><use transform="matrix(0.008680555555555554,0,0,0.008680555555555554,10.668402777777777,0)" xlink:href="#bE"/></g><path fill="#3a414a" d="M138 0v-199l570-680H179v-203h849v201L461-205h616V0H138" id="bT"/><path fill="#3a414a" d="M471 20c-247 0-336-169-336-415v-687h281v607c4 148 31 285 172 285 152 0 207-150 207-312v-580h281c4 359-9 736 8 1082H816c-7-63-11-146-12-215h-5C736-76 644 20 471 20" id="bU"/><g id="I"><use transform="matrix(0.008680555555555554,0,0,0.008680555555555554,0,0)" xlink:href="#bB"/><use transform="matrix(0.008680555555555554,0,0,0.008680555555555554,10.668402777777777,0)" xlink:href="#bT"/><use transform="matrix(0.008680555555555554,0,0,0.008680555555555554,21.336805555555554,0)" xlink:href="#bU"/><use transform="matrix(0.008680555555555554,0,0,0.008680555555555554,32.00520833333333,0)" xlink:href="#bu"/><use transform="matrix(0.008680555555555554,0,0,0.008680555555555554,42.67361111111111,0)" xlink:href="#bv"/></g><path fill="#3a414a" d="M462-1121v384h621v228H462V0H167v-1349h939v228H462" id="bV"/><g id="J"><use transform="matrix(0.008680555555555554,0,0,0.008680555555555554,0,0)" xlink:href="#bV"/><use transform="matrix(0.008680555555555554,0,0,0.008680555555555554,10.668402777777777,0)" xlink:href="#bU"/><use transform="matrix(0.008680555555555554,0,0,0.008680555555555554,21.336805555555554,0)" xlink:href="#bE"/><use transform="matrix(0.008680555555555554,0,0,0.008680555555555554,32.00520833333333,0)" xlink:href="#bM"/><use transform="matrix(0.008680555555555554,0,0,0.008680555555555554,42.67361111111111,0)" xlink:href="#bx"/><use transform="matrix(0.008680555555555554,0,0,0.008680555555555554,53.342013888888886,0)" xlink:href="#bC"/><use transform="matrix(0.008680555555555554,0,0,0.008680555555555554,64.01041666666666,0)" xlink:href="#bQ"/><use transform="matrix(0.008680555555555554,0,0,0.008680555555555554,74.67881944444443,0)" xlink:href="#bE"/></g><path fill="#3a414a" d="M139-81c0-46-55-55-73-27H18l9-140h149v37H72l-4 63c44-38 133-4 122 66C201 21 21 35 11-62l49-4c5 18 15 30 39 30 26 0 40-18 40-45" id="bW"/><use transform="matrix(0.06172839506172839,0,0,0.06172839506172839,0,0)" xlink:href="#bW" id="K"/><g id="L"><use transform="matrix(0.008680555555555554,0,0,0.008680555555555554,0,0)" xlink:href="#by"/><use transform="matrix(0.008680555555555554,0,0,0.008680555555555554,10.668402777777777,0)" xlink:href="#bO"/><use transform="matrix(0.008680555555555554,0,0,0.008680555555555554,21.336805555555554,0)" xlink:href="#bF"/><use transform="matrix(0.008680555555555554,0,0,0.008680555555555554,32.00520833333333,0)" xlink:href="#bw"/><use transform="matrix(0.008680555555555554,0,0,0.008680555555555554,42.67361111111111,0)" xlink:href="#bx"/><use transform="matrix(0.008680555555555554,0,0,0.008680555555555554,53.342013888888886,0)" xlink:href="#bv"/></g><path fill="#3a414a" d="M496-1349c439 0 656 222 653 664C1146-265 969 0 556 0H135v-1349h361zm36 1121c245-7 319-187 320-457 1-273-91-439-361-436h-61v893h102" id="bX"/><g id="M"><use transform="matrix(0.008680555555555554,0,0,0.008680555555555554,0,0)" xlink:href="#bH"/><use transform="matrix(0.008680555555555554,0,0,0.008680555555555554,10.668402777777777,0)" xlink:href="#bG"/><use transform="matrix(0.008680555555555554,0,0,0.008680555555555554,21.336805555555554,0)" xlink:href="#bX"/><use transform="matrix(0.008680555555555554,0,0,0.008680555555555554,32.00520833333333,0)" xlink:href="#bK"/></g><path fill="#3a414a" d="M1028 0H784c-56-191-119-378-170-573C562-377 495-191 437 0H194L11-1082h228c32 239 67 472 95 714 4 40 7 80 7 119 53-195 119-378 177-568h193c56 190 120 371 169 568-1-79 11-158 21-226l91-607h226" id="bY"/><path fill="#3a414a" d="M424-1484c-2 206 5 424-8 618h4c67-145 160-234 348-236 251-3 335 167 336 416V0H824v-621c0-150-23-276-173-270-163 7-227 142-227 312V0H143v-1484h281" id="bZ"/><g id="N"><use transform="matrix(0.008680555555555554,0,0,0.008680555555555554,0,0)" xlink:href="#bY"/><use transform="matrix(0.008680555555555554,0,0,0.008680555555555554,10.668402777777777,0)" xlink:href="#bC"/><use transform="matrix(0.008680555555555554,0,0,0.008680555555555554,21.336805555555554,0)" xlink:href="#bx"/><use transform="matrix(0.008680555555555554,0,0,0.008680555555555554,32.00520833333333,0)" xlink:href="#bZ"/></g><path fill="#3a414a" d="M128-127c34 4 56 21 59 58 7 91-148 94-172 28-4-9-6-17-7-26l51-5c1 24 16 35 40 36 23 0 39-12 38-36-1-31-31-36-65-34v-40c32 2 59-3 59-33 0-20-13-33-34-33s-33 13-35 32l-50-3c6-44 37-68 86-68 50 0 83 20 83 66 0 35-22 52-53 58" id="ca"/><use transform="matrix(0.06172839506172839,0,0,0.06172839506172839,0,0)" xlink:href="#ca" id="O"/><use transform="matrix(0.008680555555555554,0,0,0.008680555555555554,0,0)" xlink:href="#bw" id="P"/><path fill="#3a414a" d="M1157-949c0 209-118 316-279 368L1227 0H895L605-515H432V0H137v-1349h494c317-2 526 111 526 400zM608-744c158 1 248-51 252-193 5-207-223-184-428-183v376h176" id="cb"/><path fill="#3a414a" d="M836-709c204 20 350 118 350 324C1186-112 992 0 719 0H137v-1349h525c258 3 443 87 443 339 0 176-107 269-269 301zM643-811c107 0 165-53 165-159 0-113-61-160-167-160H432v319h211zm46 592c128-1 201-59 200-191-1-128-80-183-207-183H432v374h257" id="cc"/><g id="Q"><use transform="matrix(0.008680555555555554,0,0,0.008680555555555554,0,0)" xlink:href="#cb"/><use transform="matrix(0.008680555555555554,0,0,0.008680555555555554,10.668402777777777,0)" xlink:href="#cc"/><use transform="matrix(0.008680555555555554,0,0,0.008680555555555554,21.336805555555554,0)" xlink:href="#bB"/><use transform="matrix(0.008680555555555554,0,0,0.008680555555555554,32.00520833333333,0)" xlink:href="#bt"/></g><g id="R"><use transform="matrix(0.008680555555555554,0,0,0.008680555555555554,0,0)" xlink:href="#bu"/><use transform="matrix(0.008680555555555554,0,0,0.008680555555555554,10.668402777777777,0)" xlink:href="#bQ"/><use transform="matrix(0.008680555555555554,0,0,0.008680555555555554,21.336805555555554,0)" xlink:href="#bP"/><use transform="matrix(0.008680555555555554,0,0,0.008680555555555554,32.00520833333333,0)" xlink:href="#bv"/></g><path fill="#3a414a" d="M934-1102c199 0 220 177 220 381V0H926c-2-260 10-533-4-785-4-72-14-138-83-138-34 0-61 27-81 81s-29 134-29 241V0H501c-2-260 9-533-5-785-4-72-13-138-82-138-46 0-65 47-80 93-21 67-30 155-30 248V0H75c-3-360 6-732-6-1082h209c6 50 3 123 8 175 36-100 83-195 216-195 135 0 166 79 196 196 42-105 93-196 236-196" id="cd"/><g id="S"><use transform="matrix(0.008680555555555554,0,0,0.008680555555555554,0,0)" xlink:href="#bw"/><use transform="matrix(0.008680555555555554,0,0,0.008680555555555554,10.668402777777777,0)" xlink:href="#bz"/><use transform="matrix(0.008680555555555554,0,0,0.008680555555555554,21.336805555555554,0)" xlink:href="#bC"/><use transform="matrix(0.008680555555555554,0,0,0.008680555555555554,32.00520833333333,0)" xlink:href="#bD"/><use transform="matrix(0.008680555555555554,0,0,0.008680555555555554,42.67361111111111,0)" xlink:href="#bE"/><use transform="matrix(0.008680555555555554,0,0,0.008680555555555554,53.342013888888886,0)" xlink:href="#cd"/><use transform="matrix(0.008680555555555554,0,0,0.008680555555555554,64.01041666666666,0)" xlink:href="#bv"/><use transform="matrix(0.008680555555555554,0,0,0.008680555555555554,74.67881944444443,0)" xlink:href="#bE"/><use transform="matrix(0.008680555555555554,0,0,0.008680555555555554,85.3472222222222,0)" xlink:href="#bx"/></g><g id="T"><use transform="matrix(0.008680555555555554,0,0,0.008680555555555554,0,0)" xlink:href="#bw"/><use transform="matrix(0.008680555555555554,0,0,0.008680555555555554,10.668402777777777,0)" xlink:href="#bz"/><use transform="matrix(0.008680555555555554,0,0,0.008680555555555554,21.336805555555554,0)" xlink:href="#bz"/><use transform="matrix(0.008680555555555554,0,0,0.008680555555555554,32.00520833333333,0)" xlink:href="#bQ"/><use transform="matrix(0.008680555555555554,0,0,0.008680555555555554,42.67361111111111,0)" xlink:href="#bM"/><use transform="matrix(0.008680555555555554,0,0,0.008680555555555554,53.342013888888886,0)" xlink:href="#bC"/><use transform="matrix(0.008680555555555554,0,0,0.008680555555555554,64.01041666666666,0)" xlink:href="#bw"/><use transform="matrix(0.008680555555555554,0,0,0.008680555555555554,74.67881944444443,0)" xlink:href="#bx"/><use transform="matrix(0.008680555555555554,0,0,0.008680555555555554,85.3472222222222,0)" xlink:href="#bC"/><use transform="matrix(0.008680555555555554,0,0,0.008680555555555554,96.01562499999997,0)" xlink:href="#bE"/><use transform="matrix(0.008680555555555554,0,0,0.008680555555555554,106.68402777777774,0)" xlink:href="#bD"/></g><g id="U"><use transform="matrix(0.008680555555555554,0,0,0.008680555555555554,0,0)" xlink:href="#bx"/><use transform="matrix(0.008680555555555554,0,0,0.008680555555555554,10.668402777777777,0)" xlink:href="#bZ"/><use transform="matrix(0.008680555555555554,0,0,0.008680555555555554,21.336805555555554,0)" xlink:href="#bv"/></g><path fill="#3a414a" d="M881 0L558-557 431-415V0H136v-1349h295v599l436-599h343L750-770 1229 0H881" id="ce"/><g id="V"><use transform="matrix(0.008680555555555554,0,0,0.008680555555555554,0,0)" xlink:href="#ce"/><use transform="matrix(0.008680555555555554,0,0,0.008680555555555554,10.668402777777777,0)" xlink:href="#bv"/><use transform="matrix(0.008680555555555554,0,0,0.008680555555555554,21.336805555555554,0)" xlink:href="#bI"/></g><path fill="#3a414a" d="M766 0H467L3-1349h308c102 347 212 687 307 1041 91-356 204-694 304-1041h305" id="cf"/><g id="W"><use transform="matrix(0.008680555555555554,0,0,0.008680555555555554,0,0)" xlink:href="#cf"/><use transform="matrix(0.008680555555555554,0,0,0.008680555555555554,10.668402777777777,0)" xlink:href="#bw"/><use transform="matrix(0.008680555555555554,0,0,0.008680555555555554,21.336805555555554,0)" xlink:href="#bU"/><use transform="matrix(0.008680555555555554,0,0,0.008680555555555554,32.00520833333333,0)" xlink:href="#bP"/><use transform="matrix(0.008680555555555554,0,0,0.008680555555555554,42.67361111111111,0)" xlink:href="#bx"/></g><g id="X"><use transform="matrix(0.008680555555555554,0,0,0.008680555555555554,0,0)" xlink:href="#cb"/><use transform="matrix(0.008680555555555554,0,0,0.008680555555555554,10.668402777777777,0)" xlink:href="#bv"/><use transform="matrix(0.008680555555555554,0,0,0.008680555555555554,21.336805555555554,0)" xlink:href="#bw"/><use transform="matrix(0.008680555555555554,0,0,0.008680555555555554,32.00520833333333,0)" xlink:href="#bF"/><use transform="matrix(0.008680555555555554,0,0,0.008680555555555554,42.67361111111111,0)" xlink:href="#bv"/><use transform="matrix(0.008680555555555554,0,0,0.008680555555555554,53.342013888888886,0)" xlink:href="#bu"/></g><g id="Y"><use transform="matrix(0.008680555555555554,0,0,0.008680555555555554,0,0)" xlink:href="#bu"/><use transform="matrix(0.008680555555555554,0,0,0.008680555555555554,10.668402777777777,0)" xlink:href="#bQ"/><use transform="matrix(0.008680555555555554,0,0,0.008680555555555554,21.336805555555554,0)" xlink:href="#bP"/><use transform="matrix(0.008680555555555554,0,0,0.008680555555555554,32.00520833333333,0)" xlink:href="#bv"/></g><path fill="#3a414a" d="M115-159c48 0 72 30 72 78 0 54-30 85-83 85-64 0-91-50-91-122 0-98 58-163 141-120 15 8 21 24 27 44l-47 6c-5-31-48-31-61-4-7 14-11 33-11 60 9-17 28-27 53-27zM102-35c24 0 36-20 36-45s-11-43-37-43c-23 0-36 14-36 38 0 27 11 50 37 50" id="cg"/><use transform="matrix(0.06172839506172839,0,0,0.06172839506172839,0,0)" xlink:href="#cg" id="Z"/><path fill="#3a414a" d="M800 425c-1-198 1-404 0-596C746-55 645 20 483 20 183 20 97-237 97-543c0-242 74-429 227-518 49-28 105-42 168-42 163 0 248 85 306 197h4c1-59 6-126 15-176h272c-4 67-9 153-8 236V425H800zm-66-671c93-114 91-467-2-586-35-45-76-79-141-79-64 0-113 31-149 92-69 115-66 440 4 561 39 68 130 111 220 70 25-11 46-31 68-58" id="ch"/><g id="aa"><use transform="matrix(0.008680555555555554,0,0,0.008680555555555554,0,0)" xlink:href="#cb"/><use transform="matrix(0.008680555555555554,0,0,0.008680555555555554,10.668402777777777,0)" xlink:href="#bv"/><use transform="matrix(0.008680555555555554,0,0,0.008680555555555554,21.336805555555554,0)" xlink:href="#ch"/><use transform="matrix(0.008680555555555554,0,0,0.008680555555555554,32.00520833333333,0)" xlink:href="#bU"/><use transform="matrix(0.008680555555555554,0,0,0.008680555555555554,42.67361111111111,0)" xlink:href="#bv"/><use transform="matrix(0.008680555555555554,0,0,0.008680555555555554,53.342013888888886,0)" xlink:href="#bz"/><use transform="matrix(0.008680555555555554,0,0,0.008680555555555554,64.01041666666666,0)" xlink:href="#bx"/></g><g id="ab"><use transform="matrix(0.008680555555555554,0,0,0.008680555555555554,0,0)" xlink:href="#bw"/><use transform="matrix(0.008680555555555554,0,0,0.008680555555555554,10.668402777777777,0)" xlink:href="#bM"/><use transform="matrix(0.008680555555555554,0,0,0.008680555555555554,21.336805555555554,0)" xlink:href="#bM"/><use transform="matrix(0.008680555555555554,0,0,0.008680555555555554,32.00520833333333,0)" xlink:href="#bv"/><use transform="matrix(0.008680555555555554,0,0,0.008680555555555554,42.67361111111111,0)" xlink:href="#bz"/><use transform="matrix(0.008680555555555554,0,0,0.008680555555555554,53.342013888888886,0)" xlink:href="#bz"/></g><path fill="#3a414a" d="M864 0L575-490l-121 84V0H173v-1484h281v850l386-448h302L762-660 1171 0H864" id="ci"/><g id="ac"><use transform="matrix(0.008680555555555554,0,0,0.008680555555555554,0,0)" xlink:href="#bx"/><use transform="matrix(0.008680555555555554,0,0,0.008680555555555554,10.668402777777777,0)" xlink:href="#bQ"/><use transform="matrix(0.008680555555555554,0,0,0.008680555555555554,21.336805555555554,0)" xlink:href="#ci"/><use transform="matrix(0.008680555555555554,0,0,0.008680555555555554,32.00520833333333,0)" xlink:href="#bv"/><use transform="matrix(0.008680555555555554,0,0,0.008680555555555554,42.67361111111111,0)" xlink:href="#bE"/></g><g id="ad"><use transform="matrix(0.008680555555555554,0,0,0.008680555555555554,0,0)" xlink:href="#bR"/><use transform="matrix(0.008680555555555554,0,0,0.008680555555555554,10.668402777777777,0)" xlink:href="#bQ"/><use transform="matrix(0.008680555555555554,0,0,0.008680555555555554,21.336805555555554,0)" xlink:href="#bu"/></g><use transform="matrix(0.008680555555555554,0,0,0.008680555555555554,0,0)" xlink:href="#bw" id="ae"/><g id="af"><use transform="matrix(0.008680555555555554,0,0,0.008680555555555554,0,0)" xlink:href="#bu"/><use transform="matrix(0.008680555555555554,0,0,0.008680555555555554,10.668402777777777,0)" xlink:href="#bv"/><use transform="matrix(0.008680555555555554,0,0,0.008680555555555554,21.336805555555554,0)" xlink:href="#bz"/><use transform="matrix(0.008680555555555554,0,0,0.008680555555555554,32.00520833333333,0)" xlink:href="#bQ"/><use transform="matrix(0.008680555555555554,0,0,0.008680555555555554,42.67361111111111,0)" xlink:href="#bU"/><use transform="matrix(0.008680555555555554,0,0,0.008680555555555554,53.342013888888886,0)" xlink:href="#bu"/><use transform="matrix(0.008680555555555554,0,0,0.008680555555555554,64.01041666666666,0)" xlink:href="#bM"/><use transform="matrix(0.008680555555555554,0,0,0.008680555555555554,74.67881944444443,0)" xlink:href="#bv"/></g><g id="ag"><use transform="matrix(0.008680555555555554,0,0,0.008680555555555554,0,0)" xlink:href="#bR"/><use transform="matrix(0.008680555555555554,0,0,0.008680555555555554,10.668402777777777,0)" xlink:href="#bu"/><use transform="matrix(0.008680555555555554,0,0,0.008680555555555554,21.336805555555554,0)" xlink:href="#bQ"/><use transform="matrix(0.008680555555555554,0,0,0.008680555555555554,32.00520833333333,0)" xlink:href="#cd"/></g><g id="ah"><use transform="matrix(0.008680555555555554,0,0,0.008680555555555554,0,0)" xlink:href="#bP"/><use transform="matrix(0.008680555555555554,0,0,0.008680555555555554,10.668402777777777,0)" xlink:href="#bQ"/><use transform="matrix(0.008680555555555554,0,0,0.008680555555555554,21.336805555555554,0)" xlink:href="#bM"/><use transform="matrix(0.008680555555555554,0,0,0.008680555555555554,32.00520833333333,0)" xlink:href="#bw"/><use transform="matrix(0.008680555555555554,0,0,0.008680555555555554,42.67361111111111,0)" xlink:href="#bP"/></g><g id="ai"><use transform="matrix(0.008680555555555554,0,0,0.008680555555555554,0,0)" xlink:href="#bv"/><use transform="matrix(0.008680555555555554,0,0,0.008680555555555554,10.668402777777777,0)" xlink:href="#bE"/><use transform="matrix(0.008680555555555554,0,0,0.008680555555555554,21.336805555555554,0)" xlink:href="#bF"/><use transform="matrix(0.008680555555555554,0,0,0.008680555555555554,32.00520833333333,0)" xlink:href="#bO"/><use transform="matrix(0.008680555555555554,0,0,0.008680555555555554,42.67361111111111,0)" xlink:href="#bQ"/><use transform="matrix(0.008680555555555554,0,0,0.008680555555555554,53.342013888888886,0)" xlink:href="#bC"/><use transform="matrix(0.008680555555555554,0,0,0.008680555555555554,64.01041666666666,0)" xlink:href="#bE"/><use transform="matrix(0.008680555555555554,0,0,0.008680555555555554,74.67881944444443,0)" xlink:href="#bx"/></g><path fill="#3a414a" d="M52 0c1-96 47-148 87-207H15v-41h169v40c-36 62-79 113-81 208H52" id="cj"/><use transform="matrix(0.06172839506172839,0,0,0.06172839506172839,0,0)" xlink:href="#cj" id="aj"/><g id="ak"><use transform="matrix(0.008680555555555554,0,0,0.008680555555555554,0,0)" xlink:href="#bB"/><use transform="matrix(0.008680555555555554,0,0,0.008680555555555554,10.668402777777777,0)" xlink:href="#bT"/><use transform="matrix(0.008680555555555554,0,0,0.008680555555555554,21.336805555555554,0)" xlink:href="#bU"/><use transform="matrix(0.008680555555555554,0,0,0.008680555555555554,32.00520833333333,0)" xlink:href="#bu"/><use transform="matrix(0.008680555555555554,0,0,0.008680555555555554,42.67361111111111,0)" xlink:href="#bv"/></g><g id="al"><use transform="matrix(0.008680555555555554,0,0,0.008680555555555554,0,0)" xlink:href="#bB"/><use transform="matrix(0.008680555555555554,0,0,0.008680555555555554,10.668402777777777,0)" xlink:href="#bX"/></g><g id="am"><use transform="matrix(0.008680555555555554,0,0,0.008680555555555554,0,0)" xlink:href="#bw"/><use transform="matrix(0.008680555555555554,0,0,0.008680555555555554,10.668402777777777,0)" xlink:href="#bE"/><use transform="matrix(0.008680555555555554,0,0,0.008680555555555554,21.336805555555554,0)" xlink:href="#bF"/></g><g id="an"><use transform="matrix(0.008680555555555554,0,0,0.008680555555555554,0,0)" xlink:href="#bu"/><use transform="matrix(0.008680555555555554,0,0,0.008680555555555554,10.668402777777777,0)" xlink:href="#bv"/><use transform="matrix(0.008680555555555554,0,0,0.008680555555555554,21.336805555555554,0)" xlink:href="#bx"/><use transform="matrix(0.008680555555555554,0,0,0.008680555555555554,32.00520833333333,0)" xlink:href="#bU"/><use transform="matrix(0.008680555555555554,0,0,0.008680555555555554,42.67361111111111,0)" xlink:href="#bu"/><use transform="matrix(0.008680555555555554,0,0,0.008680555555555554,53.342013888888886,0)" xlink:href="#bE"/></g><g id="ao"><use transform="matrix(0.008680555555555554,0,0,0.008680555555555554,0,0)" xlink:href="#bw"/><use transform="matrix(0.008680555555555554,0,0,0.008680555555555554,10.668402777777777,0)" xlink:href="#bM"/><use transform="matrix(0.008680555555555554,0,0,0.008680555555555554,21.336805555555554,0)" xlink:href="#bM"/><use transform="matrix(0.008680555555555554,0,0,0.008680555555555554,32.00520833333333,0)" xlink:href="#bv"/><use transform="matrix(0.008680555555555554,0,0,0.008680555555555554,42.67361111111111,0)" xlink:href="#bz"/><use transform="matrix(0.008680555555555554,0,0,0.008680555555555554,53.342013888888886,0)" xlink:href="#bz"/></g><path fill="#3a414a" d="M138-131c27 9 52 24 51 61 0 53-36 74-89 74S11-19 11-69c0-35 22-54 51-61-78-25-46-121 38-121 51 0 83 19 83 66 0 30-18 49-45 54zm-38-16c24 0 32-13 32-36 1-23-11-34-32-34-22 0-33 12-32 34 0 22 9 36 32 36zm1 116c27 0 37-17 37-43 0-25-13-39-39-39-24 0-37 15-37 40 0 27 11 42 39 42" id="ck"/><use transform="matrix(0.06172839506172839,0,0,0.06172839506172839,0,0)" xlink:href="#ck" id="ap"/><g id="aq"><use transform="matrix(0.008680555555555554,0,0,0.008680555555555554,0,0)" xlink:href="#bt"/><use transform="matrix(0.008680555555555554,0,0,0.008680555555555554,10.668402777777777,0)" xlink:href="#bw"/><use transform="matrix(0.008680555555555554,0,0,0.008680555555555554,21.336805555555554,0)" xlink:href="#bP"/><use transform="matrix(0.008680555555555554,0,0,0.008680555555555554,32.00520833333333,0)" xlink:href="#bP"/></g><g id="ar"><use transform="matrix(0.008680555555555554,0,0,0.008680555555555554,0,0)" xlink:href="#ce"/><use transform="matrix(0.008680555555555554,0,0,0.008680555555555554,10.668402777777777,0)" xlink:href="#bv"/><use transform="matrix(0.008680555555555554,0,0,0.008680555555555554,21.336805555555554,0)" xlink:href="#bI"/></g><g id="as"><use transform="matrix(0.008680555555555554,0,0,0.008680555555555554,0,0)" xlink:href="#cf"/><use transform="matrix(0.008680555555555554,0,0,0.008680555555555554,10.668402777777777,0)" xlink:href="#bw"/><use transform="matrix(0.008680555555555554,0,0,0.008680555555555554,21.336805555555554,0)" xlink:href="#bU"/><use transform="matrix(0.008680555555555554,0,0,0.008680555555555554,32.00520833333333,0)" xlink:href="#bP"/><use transform="matrix(0.008680555555555554,0,0,0.008680555555555554,42.67361111111111,0)" xlink:href="#bx"/></g><g id="at"><use transform="matrix(0.008680555555555554,0,0,0.008680555555555554,0,0)" xlink:href="#bR"/><use transform="matrix(0.008680555555555554,0,0,0.008680555555555554,10.668402777777777,0)" xlink:href="#bu"/><use transform="matrix(0.008680555555555554,0,0,0.008680555555555554,21.336805555555554,0)" xlink:href="#bQ"/><use transform="matrix(0.008680555555555554,0,0,0.008680555555555554,32.00520833333333,0)" xlink:href="#cd"/></g><g id="au"><use transform="matrix(0.008680555555555554,0,0,0.008680555555555554,0,0)" xlink:href="#bK"/><use transform="matrix(0.008680555555555554,0,0,0.008680555555555554,10.668402777777777,0)" xlink:href="#bX"/><use transform="matrix(0.008680555555555554,0,0,0.008680555555555554,21.336805555555554,0)" xlink:href="#ce"/></g><g id="av"><use transform="matrix(0.008680555555555554,0,0,0.008680555555555554,0,0)" xlink:href="#bw"/><use transform="matrix(0.008680555555555554,0,0,0.008680555555555554,10.668402777777777,0)" xlink:href="#bE"/><use transform="matrix(0.008680555555555554,0,0,0.008680555555555554,21.336805555555554,0)" xlink:href="#bF"/></g><g id="aw"><use transform="matrix(0.008680555555555554,0,0,0.008680555555555554,0,0)" xlink:href="#bu"/><use transform="matrix(0.008680555555555554,0,0,0.008680555555555554,10.668402777777777,0)" xlink:href="#bv"/><use transform="matrix(0.008680555555555554,0,0,0.008680555555555554,21.336805555555554,0)" xlink:href="#ch"/><use transform="matrix(0.008680555555555554,0,0,0.008680555555555554,32.00520833333333,0)" xlink:href="#bU"/><use transform="matrix(0.008680555555555554,0,0,0.008680555555555554,42.67361111111111,0)" xlink:href="#bv"/><use transform="matrix(0.008680555555555554,0,0,0.008680555555555554,53.342013888888886,0)" xlink:href="#bz"/><use transform="matrix(0.008680555555555554,0,0,0.008680555555555554,64.01041666666666,0)" xlink:href="#bx"/></g><g id="ax"><use transform="matrix(0.008680555555555554,0,0,0.008680555555555554,0,0)" xlink:href="#bM"/><use transform="matrix(0.008680555555555554,0,0,0.008680555555555554,10.668402777777777,0)" xlink:href="#bQ"/><use transform="matrix(0.008680555555555554,0,0,0.008680555555555554,21.336805555555554,0)" xlink:href="#bE"/><use transform="matrix(0.008680555555555554,0,0,0.008680555555555554,32.00520833333333,0)" xlink:href="#bx"/><use transform="matrix(0.008680555555555554,0,0,0.008680555555555554,42.67361111111111,0)" xlink:href="#bv"/><use transform="matrix(0.008680555555555554,0,0,0.008680555555555554,53.342013888888886,0)" xlink:href="#bE"/><use transform="matrix(0.008680555555555554,0,0,0.008680555555555554,64.01041666666666,0)" xlink:href="#bx"/><use transform="matrix(0.008680555555555554,0,0,0.008680555555555554,74.67881944444443,0)" xlink:href="#bz"/></g><use transform="matrix(0.008680555555555554,0,0,0.008680555555555554,0,0)" xlink:href="#bw" id="ay"/><g id="az"><use transform="matrix(0.008680555555555554,0,0,0.008680555555555554,0,0)" xlink:href="#bz"/><use transform="matrix(0.008680555555555554,0,0,0.008680555555555554,10.668402777777777,0)" xlink:href="#bv"/><use transform="matrix(0.008680555555555554,0,0,0.008680555555555554,21.336805555555554,0)" xlink:href="#bM"/><use transform="matrix(0.008680555555555554,0,0,0.008680555555555554,32.00520833333333,0)" xlink:href="#bu"/><use transform="matrix(0.008680555555555554,0,0,0.008680555555555554,42.67361111111111,0)" xlink:href="#bv"/><use transform="matrix(0.008680555555555554,0,0,0.008680555555555554,53.342013888888886,0)" xlink:href="#bx"/></g><g id="aA"><use transform="matrix(0.008680555555555554,0,0,0.008680555555555554,0,0)" xlink:href="#bt"/><use transform="matrix(0.008680555555555554,0,0,0.008680555555555554,10.668402777777777,0)" xlink:href="#bU"/><use transform="matrix(0.008680555555555554,0,0,0.008680555555555554,21.336805555555554,0)" xlink:href="#bz"/><use transform="matrix(0.008680555555555554,0,0,0.008680555555555554,32.00520833333333,0)" xlink:href="#bx"/><use transform="matrix(0.008680555555555554,0,0,0.008680555555555554,42.67361111111111,0)" xlink:href="#bQ"/><use transform="matrix(0.008680555555555554,0,0,0.008680555555555554,53.342013888888886,0)" xlink:href="#cd"/><use transform="matrix(0.008680555555555554,0,0,0.008680555555555554,64.01041666666666,0)" xlink:href="#bv"/><use transform="matrix(0.008680555555555554,0,0,0.008680555555555554,74.67881944444443,0)" xlink:href="#bu"/></g><g id="aB"><use transform="matrix(0.008680555555555554,0,0,0.008680555555555554,0,0)" xlink:href="#bN"/><use transform="matrix(0.008680555555555554,0,0,0.008680555555555554,10.668402777777777,0)" xlink:href="#bu"/><use transform="matrix(0.008680555555555554,0,0,0.008680555555555554,21.336805555555554,0)" xlink:href="#bQ"/><use transform="matrix(0.008680555555555554,0,0,0.008680555555555554,32.00520833333333,0)" xlink:href="#bM"/><use transform="matrix(0.008680555555555554,0,0,0.008680555555555554,42.67361111111111,0)" xlink:href="#bv"/><use transform="matrix(0.008680555555555554,0,0,0.008680555555555554,53.342013888888886,0)" xlink:href="#bz"/><use transform="matrix(0.008680555555555554,0,0,0.008680555555555554,64.01041666666666,0)" xlink:href="#bz"/></g><g id="aC"><use transform="matrix(0.008680555555555554,0,0,0.008680555555555554,0,0)" xlink:href="#bN"/><use transform="matrix(0.008680555555555554,0,0,0.008680555555555554,10.668402777777777,0)" xlink:href="#bP"/><use transform="matrix(0.008680555555555554,0,0,0.008680555555555554,21.336805555555554,0)" xlink:href="#bw"/><use transform="matrix(0.008680555555555554,0,0,0.008680555555555554,32.00520833333333,0)" xlink:href="#bx"/><use transform="matrix(0.008680555555555554,0,0,0.008680555555555554,42.67361111111111,0)" xlink:href="#bR"/><use transform="matrix(0.008680555555555554,0,0,0.008680555555555554,53.342013888888886,0)" xlink:href="#bQ"/><use transform="matrix(0.008680555555555554,0,0,0.008680555555555554,64.01041666666666,0)" xlink:href="#bu"/><use transform="matrix(0.008680555555555554,0,0,0.008680555555555554,74.67881944444443,0)" xlink:href="#cd"/></g><g id="aD"><use transform="matrix(0.008680555555555554,0,0,0.008680555555555554,0,0)" xlink:href="#bO"/><use transform="matrix(0.008680555555555554,0,0,0.008680555555555554,10.668402777777777,0)" xlink:href="#bu"/><use transform="matrix(0.008680555555555554,0,0,0.008680555555555554,21.336805555555554,0)" xlink:href="#bQ"/><use transform="matrix(0.008680555555555554,0,0,0.008680555555555554,32.00520833333333,0)" xlink:href="#bM"/><use transform="matrix(0.008680555555555554,0,0,0.008680555555555554,42.67361111111111,0)" xlink:href="#bv"/><use transform="matrix(0.008680555555555554,0,0,0.008680555555555554,53.342013888888886,0)" xlink:href="#bz"/><use transform="matrix(0.008680555555555554,0,0,0.008680555555555554,64.01041666666666,0)" xlink:href="#bz"/></g></defs></g></svg>