<svg xmlns="http://www.w3.org/2000/svg" xmlns:xlink="http://www.w3.org/1999/xlink" xmlns:lucid="lucid" width="1591.08" height="721"><g transform="translate(661.5 -339.5)" lucid:page-tab-id="iTd2aL9BK~Ko"><path d="M-1000 0h2000v1500h-2000z" fill="#fff"/><path d="M-40 366a6 6 0 0 1 6-6h894.27a6 6 0 0 1 6 6v568a6 6 0 0 1-6 6H-34a6 6 0 0 1-6-6z" stroke="#3a414a" fill="#fff"/><path d="M226.27 416a6 6 0 0 1 6-6h528a6 6 0 0 1 6 6v362.04a6 6 0 0 1-6 6h-528a6 6 0 0 1-6-6z" stroke="#3a414a" fill="#fff"/><path d="M746.27 799.57c0 .15.07.26.2.33l2.73 1.48 4.6 2.63c.2.1.44.05.56-.14l1.55-2.6c.1-.17.04-.36-.13-.47l-5.42-3c-.12-.08-.2-.2-.2-.34v-23.8c0-.15.08-.26.2-.34l5.42-3c.17-.1.23-.3.14-.48l-1.54-2.6c-.1-.17-.35-.25-.55-.17l-4.5 2.55-2.84 1.55c-.12.08-.2.2-.2.34v28.07z" stroke="#000" stroke-opacity="0" fill="#949494"/><path d="M750.12 773.46l.14-.13 5.4-3 .08-.04c.14-.1.18-.32.07-.46l-1.54-2.6-.03-.05c-.1-.18-.32-.23-.5-.13l-4.52 2.56-2.78 1.54s-.13 0-.15.15l2.1 1.17zM755.7 800.74l-5.42-3c-.08-.06-.13-.13-.17-.22l-3.8 2.32h.1l2.72 1.5 4.7 2.57c.03 0 .04.03.06.03.18.1.4 0 .47-.16l1.56-2.6c.02 0 .02-.02.03-.03.04-.18-.06-.35-.24-.4z" stroke="#000" stroke-opacity="0" fill="#a3a3a3"/><path d="M786.27 799.57c0 .15-.07.26-.18.33l-2.75 1.48-4.62 2.63c-.2.1-.43.05-.54-.14l-1.57-2.6c-.1-.17-.03-.36.15-.47l5.42-3c.1-.08.18-.2.18-.34v-23.8c0-.15-.07-.26-.18-.34l-5.42-3c-.18-.1-.24-.3-.15-.48l1.56-2.6c.1-.17.32-.25.52-.17l4.53 2.5 2.84 1.57c.1.07.17.18.17.33v28.1z" stroke="#000" stroke-opacity="0" fill="#949494"/><path d="M782.42 773.46l-.14-.13-5.4-3c-.17-.08-.26-.26-.18-.43l.03-.06 1.55-2.6c.06-.17.26-.27.45-.2l.07.03 4.53 2.5 2.8 1.56.14.14-2.1 1.17zM776.86 800.74l5.4-3c.08-.06.13-.13.16-.22l3.8 2.32-2.7 1.5-4.7 2.57c-.15.1-.37.07-.48-.1 0 0-.02 0-.03-.03l-1.54-2.6c-.1-.14-.05-.34.1-.43z" stroke="#000" stroke-opacity="0" fill="#a3a3a3"/><path d="M778.75 778.46v14.15l-12.52 7.14v-14.17l12.52-7.1z" stroke="#000" stroke-opacity="0" fill="#32bedd"/><path d="M778.75 778.44l-12.5 7.13-12.5-7.13 12.5-7.13 12.5 7.14z" stroke="#000" stroke-opacity="0" fill="#9cebff"/><path d="M766.23 785.6v14.14l-12.48-7.13v-14.14l12.48 7.13z" stroke="#000" stroke-opacity="0" fill="#50e6ff"/><path d="M753.75 792.63l12.48-7.06v14.17l-12.48-7.1z" stroke="#000" stroke-opacity="0" fill="#9cebff"/><path d="M778.75 792.63l-12.52-7.06v14.17l12.52-7.1z" stroke="#000" stroke-opacity="0" fill="#50e6ff"/><path d="M754.34 767.25h23.9l-1.33 2.7 5.82 3.16.13 24.76-5.78 3.08 1.5 2.63-.34.3h-23.9l1.36-2.82-5.85-3.37.06-24.6 5.76-2.97-1.55-2.55z" stroke="#000" stroke-opacity="0" fill-opacity="0"/><use xlink:href="#a" transform="matrix(1,0,0,1,716.2717657583264,813.0390035783098) translate(-30.900000000000006 14.4)"/><path d="M877.84 943.4c2.88-2.64 2.88-6.96 0-9.6l-12.64-11.82c-2.88-2.64-7.52-2.64-10.4 0l-12.64 11.82c-2.88 2.64-2.88 6.96 0 9.6l11.12 10.38v19.98L860 980l5.84-5.4v-.06l3.4-3.18-3.4-3.18 3.4-3.12-3.4-3.18 3.4-3.12-3.4-3.18v-.96l12-11.22zM860 924.86c2.32-.06 4.2 1.68 4.24 3.78.04 2.16-1.8 3.9-4.08 3.96H860c-2.32-.06-4.12-1.8-4.08-3.96.04-2.1 1.84-3.78 4.08-3.78z" stroke="#000" stroke-opacity="0" stroke-width="3" fill="#fcd116"/><path d="M856.42 972.75l2.62 2.4V956l-2.62-1.2z" stroke="#000" stroke-opacity="0" stroke-width="3" fill="#ff8c00" fill-opacity=".4"/><path d="M847.57 936.34h24.05v3.22h-24.05zm0 5.23h24.05v3.2h-24.05z" stroke="#000" stroke-opacity="0" stroke-width="3" fill="#fff" fill-opacity=".5"/><use xlink:href="#b" transform="matrix(1,0,0,1,810,989) translate(0.5749999999999957 14.4)"/><path d="M-640 392a12 12 0 0 1 12-12h256a12 12 0 0 1 12 12v446a12 12 0 0 1-12 12h-256a12 12 0 0 1-12-12z" stroke="#dfe3e8" stroke-width="2" fill="#fff"/><path d="M-564.63 480.2c1.35-1.35 1.35-3.54 0-4.88l-5.93-6c-1.36-1.34-3.53-1.34-4.9 0l-5.92 6c-1.35 1.34-1.35 3.53 0 4.87l5.22 5.26v10.14l3.16 3.16 2.74-2.74V496l1.6-1.62-1.6-1.62 1.6-1.58-1.6-1.6 1.6-1.6-1.6-1.6v-.5l5.63-5.7zm-8.37-9.42c1.1-.03 1.97.85 2 1.92 0 1.1-.86 1.98-1.93 2h-.07c-1.1-.02-1.94-.9-1.92-2 .02-1.07.86-1.92 1.92-1.92z" stroke="#000" stroke-opacity="0" stroke-width="3" fill="#fcd116"/><path d="M-574.68 495.1l1.22 1.2v-9.7l-1.22-.62z" stroke="#000" stroke-opacity="0" stroke-width="3" fill="#ff8c00" fill-opacity=".4"/><path d="M-578.84 476.6h11.3v1.64h-11.3zm0 2.66h11.3v1.63h-11.3z" stroke="#000" stroke-opacity="0" stroke-width="3" fill="#fff" fill-opacity=".5"/><path d="M-572.97 530.83c-.05 0-.1 0-.14-.05l-8.98-5.17c-.07-.05-.13-.13-.13-.23s.05-.2.12-.23l8.9-5.15c.1-.06.2-.06.3 0l8.95 5.17c.07.05.13.14.13.23 0 .1-.06.2-.13.24l-8.9 5.14c-.04.04-.1.05-.14.05" stroke="#000" stroke-opacity="0" fill="#3999c6"/><path d="M-574.26 543.42c-.05 0-.1-.02-.14-.03l-8.93-5.2c-.1-.04-.14-.12-.14-.2V527.6c0-.1.05-.2.14-.24.08-.05.18-.05.27 0l8.93 5.17c.1.05.13.13.13.23v10.37c0 .1-.04.2-.13.24l-.13.02M-571.74 543.42l-.14-.03c-.08-.06-.13-.16-.13-.25v-10.3c0-.1.04-.2.12-.23l8.93-5.17c.1-.05.2-.05.28 0 .07.04.13.14.13.24v10.28c0 .1-.05.2-.13.24l-8.93 5.17-.13.02" stroke="#000" stroke-opacity="0" fill="#59b4d9"/><path d="M-571.74 543.42l-.14-.03c-.08-.06-.13-.16-.13-.25v-10.3c0-.1.04-.2.12-.23l8.93-5.17c.1-.05.2-.05.28 0 .07.04.13.14.13.24v10.28c0 .1-.05.2-.13.24l-8.93 5.17-.13.02" stroke="#000" stroke-opacity="0" fill="#fff" fill-opacity=".5"/><path d="M-582.4 544.57c-.16 0-.3-.05-.45-.12l-4.17-2.42c-.7-.4-1.2-1.27-1.2-2.1V524.6c0-.8.5-1.7 1.2-2.1l4.17-2.4c.42-.25.97-.1 1.2.32.25.42.1.96-.32 1.2l-4.17 2.42c-.14.1-.32.4-.32.56v15.36c0 .17.18.47.32.57l4.17 2.42c.43.25.57.8.33 1.2-.16.3-.47.45-.77.45zM-563.6 519.95c.15 0 .3.05.44.13l4.17 2.4c.7.4 1.22 1.3 1.22 2.1v15.36c0 .8-.5 1.7-1.2 2.1l-4.18 2.4c-.42.25-.97.1-1.2-.3-.25-.43-.1-.97.32-1.22l4.17-2.4c.15-.1.32-.4.32-.58v-15.36c0-.17-.17-.47-.32-.57l-4.17-2.4c-.43-.24-.57-.78-.33-1.2.16-.3.47-.45.77-.45z" stroke="#000" stroke-opacity="0" fill="#7a7a7a"/><path d="M-582.48 520.5l18.9.02 4.7 3.3.26 16.78-5.32 3.5-18.54-.1-5.03-3.33s-.1-17.06.05-17c.1.06 4.97-3.17 4.97-3.17z" stroke="#000" stroke-opacity="0" stroke-width="0" fill-opacity="0"/><path d="M-561.44 594.7h-23.14c-2 0-3.65-1.66-3.65-3.66V567.3h30.44v23.76c0 2-1.63 3.65-3.64 3.65z" stroke="#000" stroke-opacity="0" fill="#3e3e3e"/><path d="M-585.8 573.98h25.57v6.7h-25.57v-6.7z" stroke="#000" stroke-opacity="0" fill="#fcd116" fill-opacity=".9"/><path d="M-585.8 583.12h25.57v9.13h-25.57v-9.13z" stroke="#000" stroke-opacity="0" fill="#7fba00"/><path d="M-585.8 567.28h25.57v4.27h-25.57v-4.27z" stroke="#000" stroke-opacity="0" fill="#fff" fill-opacity=".9"/><path d="M-585.8 583.12h25.57v1.22h-25.57v-1.22zM-585.8 573.98h25.57v1.22h-25.57v-1.22z" stroke="#000" stroke-opacity="0" fill="#fff" fill-opacity=".3"/><path d="M-588.23 567.28v24.3c0 2.37 2.63 3.1 3.87 3.08l1-.02 19.48-27.36z" stroke="#000" stroke-opacity="0" fill="#fff" fill-opacity=".15"/><path d="M-588.23 567.28v24s.3 3.32 3.8 3.4h22.88s3.56.1 3.77-3.9v-23.5z" stroke="#000" stroke-opacity="0" stroke-width="0" fill-opacity="0"/><path d="M-587.87 567.28h29.72c.24 0 .36.12.36.36v23.06c0 .24-.1.36-.35.36h-29.72c-.24 0-.36-.12-.36-.36v-23.06c0-.24.12-.36.37-.36z" stroke="#000" stroke-width="0" fill-opacity="0"/><path d="M-588.23 623.04h30.45V641c0 .56-.46 1.02-1 1.02h-28.45c-.54 0-1-.46-1-1.03v-17.96z" stroke="#000" stroke-opacity="0" fill="url(#c)"/><path d="M-587.22 617.4h28.44c.55 0 1 .46 1 1.02v4.62h-30.45v-4.6c0-.58.46-1.04 1-1.04z" stroke="#000" stroke-opacity="0" fill="#0078d4"/><path d="M-564.84 626.72h-7.48c-.07 0-.15-.02-.22-.07l-2.12-1.42c-.07-.05-.14-.08-.23-.08h-6.27c-.22 0-.4.2-.4.4v13.27c0 .2.2.4.4.4h16.33c.22 0 .4-.2.4-.42v-11.68c0-.22-.18-.4-.4-.4z" stroke="#000" stroke-opacity="0" fill="#f78d1e"/><path d="M-579.84 625.92h3.57c.1 0 .16.05.16.16v.46c0 .1-.07.16-.17.16h-3.57c-.1 0-.17-.05-.17-.16v-.46c0-.1.05-.16.16-.16z" stroke="#000" stroke-opacity="0" fill="#fff"/><path d="M-579.9 625.92h.56c.07 0 .1.04.1.1v.57c0 .06-.03.1-.1.1h-.56c-.07 0-.1-.04-.1-.1v-.57c0-.07.03-.1.1-.1z" stroke="#000" stroke-opacity="0" fill="#d15900"/><path d="M-564.84 626.7h-8.2c-.12 0-.2.04-.3.12l-1.3 1.32c-.1.1-.18.13-.3.13h-6.23c-.22 0-.4.17-.4.4v10.12c0 .2.2.4.4.4h16.33c.22 0 .4-.2.4-.4v-11.7c0-.22-.2-.4-.4-.4zM-571.25 663.43h-13.1c-.56 0-1.03.45-1.03 1.03v27.95c0 .58.47 1.03 1.04 1.03h22.7c.56 0 1-.45 1-1.02v-18.5c0-.57-.44-1.02-1-1.02h-7.56c-.57 0-1-.45-1-1.02v-7.4-.04c0-.54-.48-1-1.05-1z" stroke="#000" stroke-opacity="0" fill="#fff"/><path d="M-571.72 664.73v7.03c0 1.44 1.15 2.56 2.58 2.6h7.14v17.78h-22v-27.4h12.28m.47-1.53h-13.26c-.6 0-1.07.46-1.07 1.04v28.38c0 .58.48 1.04 1.06 1.04h23c.58 0 1.06-.46 1.06-1.03v-18.8c0-.57-.48-1.03-1.06-1.03h-7.64c-.57 0-1.05-.46-1.05-1.03v-7.53c0-.58-.44-1.03-1.05-1.03z" stroke="#000" stroke-opacity="0" fill="url(#d)"/><path d="M-560.85 673l-9.7-9.57v7.8c0 .97.8 1.76 1.77 1.77z" stroke="#000" stroke-opacity="0" fill="#0078d4"/><path d="M-580.52 677.06h15.03c.7 0 1.04.35 1.04 1.03v.2c0 .7-.34 1.03-1.03 1.03h-15.02c-.7 0-1.03-.34-1.03-1.02v-.2c0-.7.34-1.04 1.03-1.04zM-580.52 681.14h15.03c.7 0 1.04.34 1.04 1.03v.22c0 .67-.34 1-1.03 1h-15.02c-.7 0-1.03-.33-1.03-1v-.23c0-.7.34-1.03 1.03-1.03zM-580.5 685.2h8.7c.7 0 1.03.33 1.03 1.02v.22c0 .68-.34 1.02-1.03 1.02h-8.7c-.7 0-1.05-.34-1.05-1.02v-.22c0-.7.35-1.03 1.04-1.03z" stroke="#000" stroke-opacity="0" fill="#5ea0ef"/><path d="M-561.53 742.38c1.37 0 2.48-1.1 2.48-2.45v-.28c-1-7.75-5.4-14.04-13.95-14.04-8.55 0-13.07 5.34-13.93 14.07h-.03c-.1 1.37.9 2.58 2.26 2.7h23.17z" stroke="#000" stroke-opacity="0" fill="url(#e)"/><path d="M-573 727.45c-1.6 0-2.93-.4-4.25-1.24l4.24 10.88 4.15-10.8c-1.3.8-2.62 1.18-4.16 1.17z" stroke="#000" stroke-opacity="0" fill="#ef0"/><path d="M-565.16 719.68c0 4.28-3.5 7.75-7.82 7.75-4.3 0-7.8-3.47-7.8-7.75 0-4.28 3.5-7.75 7.8-7.75 4.32 0 7.82 3.47 7.82 7.75z" stroke="#000" stroke-opacity="0" fill="url(#f)"/><path d="M-564.04 789.92h.05c1.3-.02 2.32-1.06 2.32-2.35v-.28c-.93-7.43-5.18-13.5-13.27-13.5-8.1 0-12.4 5.13-13.28 13.5-.1 1.32.82 2.48 2.15 2.62h22.04z" stroke="#000" stroke-opacity="0" fill="url(#g)"/><path d="M-574.8 775.57c-1.5 0-2.8-.37-4.05-1.18l3.9 10.44 4-10.38c-1.23.74-2.43 1.1-3.85 1.1z" stroke="#000" stroke-opacity="0" fill="#fff"/><path d="M-567.4 768.13c0 4.13-3.35 7.48-7.48 7.48-4.12 0-7.47-3.34-7.47-7.47s3.35-7.48 7.47-7.48c4.13 0 7.48 3.36 7.48 7.48z" stroke="#000" stroke-opacity="0" fill="url(#h)"/><path d="M-557.78 779.7v7.6l-6.5 3.8v-7.6l6.5-3.8z" stroke="#000" stroke-opacity="0" fill="#32bedd"/><path d="M-557.78 779.7l-6.53 3.82-6.54-3.82 6.53-3.82 6.52 3.82z" stroke="#000" stroke-opacity="0" fill="#9cebff"/><path d="M-564.33 783.5v7.6l-6.5-3.8v-7.6l6.5 3.8z" stroke="#000" stroke-opacity="0" fill="#50e6ff"/><path d="M-570.84 787.3l6.5-3.77v7.58l-6.5-3.8z" stroke="#000" stroke-opacity="0" fill="#9cebff"/><path d="M-557.78 787.3l-6.5-3.77v7.58l6.5-3.8z" stroke="#000" stroke-opacity="0" fill="#50e6ff"/><use xlink:href="#i" transform="matrix(1,0,0,1,-591.276102088167,416.5429234338747) translate(0 22.162070181991737)"/><use xlink:href="#j" transform="matrix(1,0,0,1,-536.4617169373549,465.2668213457076) translate(0 21.775971398333354)"/><use xlink:href="#k" transform="matrix(1,0,0,1,-536.4617169373549,513.9907192575406) translate(0 21.775971398333354)"/><use xlink:href="#l" transform="matrix(1,0,0,1,-536.4617169373549,513.9907192575406) translate(73.78347755711886 21.775971398333354)"/><use xlink:href="#m" transform="matrix(1,0,0,1,-536.4617169373549,708.8863109048724) translate(0 12.573249951952217)"/><use xlink:href="#n" transform="matrix(1,0,0,1,-536.4617169373549,708.8863109048724) translate(38.89962859475434 12.573249951952217)"/><use xlink:href="#o" transform="matrix(1,0,0,1,-536.4617169373549,708.8863109048724) translate(80.00818701346489 12.573249951952217)"/><use xlink:href="#p" transform="matrix(1,0,0,1,-536.4617169373549,708.8863109048724) translate(0 30.36449490693515)"/><use xlink:href="#q" transform="matrix(1,0,0,1,-536.4617169373549,757.6102088167054) translate(0 19.81645387927778)"/><use xlink:href="#r" transform="matrix(1,0,0,1,-536.4617169373549,757.6102088167054) translate(48.351136964569015 19.81645387927778)"/><use xlink:href="#s" transform="matrix(1,0,0,1,-536.4617169373549,757.6102088167054) translate(0 41.93046762861676)"/><use xlink:href="#t" transform="matrix(1,0,0,1,-536.4617169373549,757.6102088167054) translate(38.99735589635114 41.93046762861676)"/><use xlink:href="#u" transform="matrix(1,0,0,1,-536.4617169373549,562.7146171693736) translate(0 21.775971398333354)"/><use xlink:href="#v" transform="matrix(1,0,0,1,-536.4617169373549,562.7146171693736) translate(61.21596214903817 21.775971398333354)"/><use xlink:href="#w" transform="matrix(1,0,0,1,-536.4617169373549,611.4385150812066) translate(0 21.775971398333354)"/><use xlink:href="#x" transform="matrix(1,0,0,1,-536.4617169373549,611.4385150812066) translate(36.89173877855943 21.775971398333354)"/><use xlink:href="#y" transform="matrix(1,0,0,1,-536.4617169373549,660.1624129930394) translate(0 21.775971398333354)"/><path d="M266.27 453.02a6 6 0 0 1 6-6h428a6 6 0 0 1 6 6v248a6 6 0 0 1-6 6h-428a6 6 0 0 1-6-6z" stroke="#3a414a" fill="#fff"/><path d="M715.2 720h-30.4c-2.64 0-4.8-2.4-4.8-5.32V680h40v34.68c0 2.92-2.17 5.32-4.8 5.32z" stroke="#000" stroke-opacity="0" fill="#3e3e3e"/><path d="M683.2 689.78h33.6v9.78h-33.6v-9.78z" stroke="#000" stroke-opacity="0" fill="#fcd116" fill-opacity=".9"/><path d="M683.2 703.1h33.6v13.34h-33.6V703.1z" stroke="#000" stroke-opacity="0" fill="#7fba00"/><path d="M683.2 680h33.6v6.22h-33.6V680z" stroke="#000" stroke-opacity="0" fill="#fff" fill-opacity=".9"/><path d="M683.2 703.1h33.6v1.8h-33.6v-1.8zM683.2 689.78h33.6v1.78h-33.6v-1.78z" stroke="#000" stroke-opacity="0" fill="#fff" fill-opacity=".3"/><path d="M680 680v35.45c0 3.47 3.46 4.55 5.1 4.5l1.3-.03L712 680z" stroke="#000" stroke-opacity="0" fill="#fff" fill-opacity=".15"/><path d="M680 680v35.03s.4 4.83 5 4.95h30.04s4.68.16 4.96-5.67V680z" stroke="#000" stroke-opacity="0" stroke-width="0" fill-opacity="0"/><path d="M680.48 680h39.03c.33 0 .5.17.5.52v33.66c0 .35-.17.52-.5.52H680.5c-.32 0-.48-.17-.48-.52v-33.66c0-.35.16-.52.48-.52z" stroke="#000" stroke-width="0" fill-opacity="0"/><use xlink:href="#z" transform="matrix(1,0,0,1,650,729) translate(-23.974999999999994 14.4)"/><path d="M306.27 473.02a6 6 0 0 1 6-6H374a6 6 0 0 1 6 6V534a6 6 0 0 1-6 6h-61.73a6 6 0 0 1-6-6zM420 473.02a6 6 0 0 1 6-6h268a6 6 0 0 1 6 6v148a6 6 0 0 1-6 6H426a6 6 0 0 1-6-6z" stroke="#3a414a" fill="#fff"/><path d="M360 529.16h40v29.18c0 .92-.6 1.66-1.32 1.66h-37.36c-.72 0-1.32-.74-1.32-1.66v-29.18z" stroke="#000" stroke-opacity="0" fill="url(#A)"/><path d="M361.33 520h37.36c.7 0 1.3.74 1.3 1.66v7.5h-40v-7.5c0-.9.6-1.66 1.33-1.66z" stroke="#000" stroke-opacity="0" fill="#0078d4"/><path d="M390.72 535.13h-9.82c-.1 0-.2-.02-.3-.1l-2.78-2.32c-.1-.05-.18-.1-.3-.1h-8.24c-.3 0-.52.3-.52.66v21.54c0 .34.25.64.52.64h21.44c.3 0 .52-.3.52-.66V535.8c0-.37-.23-.66-.52-.66z" stroke="#000" stroke-opacity="0" fill="#f78d1e"/><path d="M371 533.84h4.7c.15 0 .22.1.22.27v.74c0 .18-.07.27-.22.27H371c-.13 0-.2-.08-.2-.26v-.73c0-.17.07-.26.2-.26z" stroke="#000" stroke-opacity="0" fill="#fff"/><path d="M370.95 533.84h.72c.1 0 .15.06.15.18v.9c0 .13-.05.2-.15.2h-.72c-.1 0-.15-.07-.15-.2v-.9c0-.12.05-.18.15-.18z" stroke="#000" stroke-opacity="0" fill="#d15900"/><path d="M390.72 535.12h-10.77c-.15 0-.26.06-.38.18l-1.73 2.15c-.1.14-.22.2-.38.2h-8.18c-.3 0-.52.3-.52.65v16.45c0 .37.25.65.52.65h21.44c.3 0 .52-.28.52-.65v-18.98c0-.37-.25-.65-.52-.65z" stroke="#000" stroke-opacity="0" fill="#fff"/><path d="M640 614.73h40v29.18c0 .93-.6 1.67-1.32 1.67h-37.36c-.72 0-1.32-.74-1.32-1.66v-29.17z" stroke="#000" stroke-opacity="0" fill="url(#B)"/><path d="M641.33 605.57h37.36c.7 0 1.3.74 1.3 1.66v7.5h-40v-7.5c0-.9.6-1.66 1.33-1.66z" stroke="#000" stroke-opacity="0" fill="#0078d4"/><path d="M670.72 620.7h-9.82c-.1 0-.2-.02-.3-.1l-2.78-2.3c-.1-.08-.18-.13-.3-.13h-8.24c-.3 0-.52.3-.52.66v21.54c0 .35.25.64.52.64h21.44c.3 0 .52-.28.52-.65v-18.98c0-.37-.23-.66-.52-.66z" stroke="#000" stroke-opacity="0" fill="#f78d1e"/><path d="M651 619.4h4.7c.15 0 .22.1.22.28v.74c0 .18-.07.26-.2.26H651c-.15 0-.22-.08-.22-.26v-.74c0-.18.07-.27.22-.27z" stroke="#000" stroke-opacity="0" fill="#fff"/><path d="M650.95 619.4h.72c.1 0 .15.07.15.2v.9c0 .12-.05.18-.15.18h-.72c-.1 0-.15-.06-.15-.18v-.9c0-.13.05-.2.15-.2z" stroke="#000" stroke-opacity="0" fill="#d15900"/><path d="M670.72 620.7h-10.76c-.16 0-.28.05-.4.17l-1.72 2.15c-.1.15-.22.2-.38.2h-8.18c-.3 0-.52.3-.52.66v16.44c0 .37.25.65.52.65h21.44c.3 0 .52-.28.52-.65v-18.98c0-.36-.25-.65-.52-.65zM622.8 487.47h-20.85c-.9 0-1.66.88-1.66 2v55.1c0 1.1.74 2 1.65 2h36.13c.9 0 1.6-.9 1.6-2v-36.48c0-1.13-.7-2.02-1.6-2.02h-12.02c-.9 0-1.62-.88-1.62-2v-14.6-.06c0-1.07-.75-1.95-1.65-1.95z" stroke="#000" stroke-opacity="0" fill="#fff"/><path d="M622.04 490.02v13.86c0 2.82 1.84 5.04 4.12 5.1h11.36v35.04h-35.04v-54h19.56m.76-3h-21.12c-.92 0-1.68.9-1.68 2.04v55.92c0 1.14.76 2.04 1.68 2.04h36.64c.92 0 1.68-.9 1.68-2.04v-37.02c0-1.14-.76-2.04-1.68-2.04h-12.16c-.92 0-1.68-.9-1.68-2.04v-14.82c0-1.14-.72-2.04-1.68-2.04z" stroke="#000" stroke-opacity="0" fill="url(#C)"/><path d="M639.36 506.3l-15.44-18.83v15.35c0 1.92 1.25 3.47 2.8 3.5z" stroke="#000" stroke-opacity="0" fill="#0078d4"/><path d="M608.03 514.32h23.94c1.1 0 1.63.67 1.63 2v.46c0 1.34-.54 2-1.63 2h-23.94c-1.1 0-1.63-.66-1.63-2v-.45c0-1.34.54-2 1.63-2zM608.03 522.36h23.94c1.1 0 1.63.67 1.63 2v.46c0 1.34-.54 2-1.63 2h-23.94c-1.1 0-1.63-.66-1.63-2v-.45c0-1.34.54-2 1.63-2zM608.05 530.34h13.86c1.1 0 1.66.67 1.66 2v.46c0 1.34-.55 2-1.65 2h-13.85c-1.1 0-1.65-.66-1.65-2v-.45c0-1.34.55-2 1.65-2z" stroke="#000" stroke-opacity="0" fill="#5ea0ef"/><path d="M482.8 487.47h-20.85c-.9 0-1.66.88-1.66 2v55.1c0 1.1.74 2 1.65 2h36.13c.9 0 1.6-.9 1.6-2v-36.48c0-1.13-.7-2.02-1.6-2.02h-12.02c-.9 0-1.62-.88-1.62-2v-14.6-.06c0-1.07-.75-1.95-1.65-1.95z" stroke="#000" stroke-opacity="0" fill="#fff"/><path d="M482.04 490.02v13.86c0 2.82 1.84 5.04 4.12 5.1h11.36v35.04h-35.04v-54h19.56m.76-3h-21.12c-.92 0-1.68.9-1.68 2.04v55.92c0 1.14.76 2.04 1.68 2.04h36.64c.92 0 1.68-.9 1.68-2.04v-37.02c0-1.14-.76-2.04-1.68-2.04h-12.16c-.92 0-1.68-.9-1.68-2.04v-14.82c0-1.14-.72-2.04-1.68-2.04z" stroke="#000" stroke-opacity="0" fill="url(#D)"/><path d="M499.36 506.3l-15.44-18.83v15.35c-.02 1.92 1.25 3.47 2.8 3.5z" stroke="#000" stroke-opacity="0" fill="#0078d4"/><path d="M468.03 514.32h23.94c1.1 0 1.63.67 1.63 2v.46c0 1.34-.54 2-1.63 2h-23.94c-1.1 0-1.63-.66-1.63-2v-.45c0-1.34.54-2 1.63-2zM468.03 522.36h23.94c1.1 0 1.63.67 1.63 2v.46c0 1.34-.54 2-1.63 2h-23.94c-1.1 0-1.63-.66-1.63-2v-.45c0-1.34.54-2 1.63-2zM468.05 530.34h13.86c1.1 0 1.66.67 1.66 2v.46c0 1.34-.55 2-1.65 2h-13.85c-1.1 0-1.65-.66-1.65-2v-.45c0-1.34.55-2 1.65-2z" stroke="#000" stroke-opacity="0" fill="#5ea0ef"/><path d="M80.3 467.02c1.96 0 3.56-1.45 3.56-3.22v-.37c-1.44-10.2-7.76-18.45-20-18.45s-18.72 7-19.96 18.47c-.04 0-.04.02-.04.02-.16 1.8 1.28 3.37 3.24 3.55h33.2z" stroke="#000" stroke-opacity="0" fill="url(#E)"/><path d="M63.85 447.4c-2.25 0-4.18-.5-6.07-1.62l6.07 14.28 5.97-14.2c-1.87 1.08-3.75 1.56-5.97 1.55z" stroke="#000" stroke-opacity="0" fill="#ef0"/><path d="M75.1 437.2c0 5.62-5 10.18-11.2 10.18-6.18 0-11.2-4.56-11.2-10.18s5.02-10.18 11.2-10.18c6.2 0 11.2 4.56 11.2 10.18z" stroke="#000" stroke-opacity="0" fill="url(#F)"/><use xlink:href="#G" transform="matrix(1,0,0,1,13.86447454294506,476.0195017891549) translate(18.525 14.4)"/><use xlink:href="#H" transform="matrix(1,0,0,1,13.86447454294506,476.0195017891549) translate(10.549999999999997 36)"/><use xlink:href="#I" transform="matrix(1,0,0,1,13.86447454294506,476.0195017891549) translate(51.5 36)"/><use xlink:href="#J" transform="matrix(1,0,0,1,13.86447454294506,476.0195017891549) translate(23.549999999999997 57.6)"/><path d="M171.78 474.44h.06c1.68-.02 3.04-1.25 3.04-2.77v-.32c-1.22-8.74-6.8-15.87-17.44-15.87s-16.3 6.03-17.44 15.88c-.14 1.54 1.08 2.9 2.82 3.08h28.96z" stroke="#000" stroke-opacity="0" fill="url(#K)"/><path d="M157.65 457.55c-1.98 0-3.67-.43-5.33-1.4l5.13 12.3 5.23-12.2c-1.6.87-3.17 1.27-5.03 1.3z" stroke="#000" stroke-opacity="0" fill="#fff"/><path d="M167.36 448.8c0 4.85-4.4 8.8-9.82 8.8s-9.82-3.95-9.82-8.8c0-4.86 4.4-8.8 9.82-8.8s9.82 3.94 9.82 8.8z" stroke="#000" stroke-opacity="0" fill="url(#L)"/><path d="M180 462.4v8.95l-8.56 4.48v-8.95l8.56-4.48z" stroke="#000" stroke-opacity="0" fill="#32bedd"/><path d="M180 462.4l-8.58 4.5-8.58-4.5 8.58-4.48 8.58 4.5z" stroke="#000" stroke-opacity="0" fill="#9cebff"/><path d="M171.4 466.88v8.95l-8.56-4.48v-8.95l8.56 4.48z" stroke="#000" stroke-opacity="0" fill="#50e6ff"/><path d="M162.84 471.35l8.56-4.44v8.93l-8.56-4.48z" stroke="#000" stroke-opacity="0" fill="#9cebff"/><path d="M180 471.35l-8.56-4.44v8.93l8.56-4.48z" stroke="#000" stroke-opacity="0" fill="#50e6ff"/><path d="M84.36 463.43h41.66" stroke="#3a414a" fill="none"/><path d="M84.38 463.93h-.57l.06-.13v-.37l-.13-.5h.65z" stroke="#3a414a" stroke-width=".05" fill="#3a414a"/><path d="M140.8 463.43l-14.28 4.63v-9.27z" stroke="#3a414a" fill="#3a414a"/><path d="M160 474.94v90.8a6 6 0 0 0 6 6h43.4" stroke="#3a414a" fill="none"/><path d="M160.5 474.95h-1v-.5h1z" stroke="#3a414a" stroke-width=".05" fill="#3a414a"/><path d="M224.15 571.75l-14.26 4.64v-9.28z" stroke="#3a414a" fill="#3a414a"/><path d="M80.3 660c1.96 0 3.56-1.46 3.56-3.22v-.37c-1.44-10.17-7.76-18.44-20-18.44s-18.72 7-19.96 18.47c-.04 0-.04.02-.04.02-.16 1.8 1.28 3.37 3.24 3.55h33.2z" stroke="#000" stroke-opacity="0" fill="url(#M)"/><path d="M63.85 640.4c-2.25 0-4.18-.53-6.07-1.64l6.07 14.28 5.97-14.2c-1.87 1.08-3.75 1.56-5.97 1.55z" stroke="#000" stroke-opacity="0" fill="#ef0"/><path d="M75.1 630.18c0 5.62-5 10.18-11.2 10.18-6.18 0-11.2-4.56-11.2-10.18S57.72 620 63.9 620c6.2 0 11.2 4.56 11.2 10.18z" stroke="#000" stroke-opacity="0" fill="url(#N)"/><use xlink:href="#G" transform="matrix(1,0,0,1,13.86447454294506,669) translate(18.525 14.4)"/><use xlink:href="#H" transform="matrix(1,0,0,1,13.86447454294506,669) translate(10.549999999999997 36)"/><use xlink:href="#I" transform="matrix(1,0,0,1,13.86447454294506,669) translate(51.5 36)"/><use xlink:href="#O" transform="matrix(1,0,0,1,13.86447454294506,669) translate(20.549999999999997 57.6)"/><use xlink:href="#P" transform="matrix(1,0,0,1,13.86447454294506,669) translate(50 79.20000000000002)"/><path d="M171.78 667.42h.06c1.68-.02 3.04-1.25 3.04-2.77v-.32c-1.22-8.74-6.8-15.87-17.44-15.87s-16.3 6.03-17.44 15.88c-.14 1.54 1.08 2.9 2.82 3.08h28.96z" stroke="#000" stroke-opacity="0" fill="url(#Q)"/><path d="M157.65 650.53c-1.98 0-3.67-.43-5.33-1.4l5.13 12.3 5.23-12.2c-1.6.87-3.17 1.28-5.03 1.3z" stroke="#000" stroke-opacity="0" fill="#fff"/><path d="M167.36 641.78c0 4.85-4.4 8.8-9.82 8.8s-9.82-3.95-9.82-8.8c0-4.86 4.4-8.8 9.82-8.8s9.82 3.94 9.82 8.8z" stroke="#000" stroke-opacity="0" fill="url(#R)"/><path d="M180 655.38v8.95l-8.56 4.48v-8.94l8.56-4.48z" stroke="#000" stroke-opacity="0" fill="#32bedd"/><path d="M180 655.4l-8.58 4.5-8.58-4.5 8.58-4.5 8.58 4.5z" stroke="#000" stroke-opacity="0" fill="#9cebff"/><path d="M171.4 659.86v8.95l-8.56-4.47v-8.95l8.56 4.48z" stroke="#000" stroke-opacity="0" fill="#50e6ff"/><path d="M162.84 664.34l8.56-4.45v8.9l-8.56-4.46z" stroke="#000" stroke-opacity="0" fill="#9cebff"/><path d="M180 664.34l-8.56-4.45v8.9l8.56-4.46z" stroke="#000" stroke-opacity="0" fill="#50e6ff"/><path d="M84.36 656.55h41.6" stroke="#3a414a" fill="none"/><path d="M84.38 657.05h-.64l.12-.27v-.37l-.1-.35h.62z" stroke="#3a414a" stroke-width=".05" fill="#3a414a"/><path d="M140.73 656.55l-14.26 4.63v-9.27z" stroke="#3a414a" fill="#3a414a"/><path d="M160 667.92v80.75a6 6 0 0 0 6 6h43.4" stroke="#3a414a" fill="none"/><path d="M160.5 667.93h-1v-.5h1z" stroke="#3a414a" stroke-width=".05" fill="#3a414a"/><path d="M224.15 754.66l-14.26 4.64v-9.27z" stroke="#3a414a" fill="#3a414a"/><path d="M-20 806a6 6 0 0 1 6-6h248a6 6 0 0 1 6 6v108a6 6 0 0 1-6 6H-14a6 6 0 0 1-6-6z" fill="#fff" fill-opacity="0"/><path d="M6 800h-20a6 6 0 0 0-6 6v108a6 6 0 0 0 6 6H6" stroke="#3a414a" fill="none"/><g><use xlink:href="#S" transform="matrix(1,0,0,1,1.25,805) translate(0 26.55555555555555)"/><use xlink:href="#T" transform="matrix(1,0,0,1,1.25,805) translate(0 47.88888888888888)"/><use xlink:href="#U" transform="matrix(1,0,0,1,1.25,805) translate(20.691358024691354 47.88888888888888)"/><use xlink:href="#V" transform="matrix(1,0,0,1,1.25,805) translate(102.51851851851849 47.88888888888888)"/><use xlink:href="#W" transform="matrix(1,0,0,1,1.25,805) translate(155.80246913580243 47.88888888888888)"/><use xlink:href="#X" transform="matrix(1,0,0,1,1.25,805) translate(0 69.22222222222221)"/><use xlink:href="#Y" transform="matrix(1,0,0,1,1.25,805) translate(20.691358024691354 69.22222222222221)"/><use xlink:href="#Z" transform="matrix(1,0,0,1,1.25,805) translate(61.13580246913579 69.22222222222221)"/><use xlink:href="#aa" transform="matrix(1,0,0,1,1.25,805) translate(108.49382716049381 69.22222222222221)"/><use xlink:href="#ab" transform="matrix(1,0,0,1,1.25,805) translate(138.12345679012344 69.22222222222221)"/><use xlink:href="#ac" transform="matrix(1,0,0,1,1.25,805) translate(0 90.55555555555554)"/></g><path d="M-240 986a6 6 0 0 1 6-6H-6a6 6 0 0 1 6 6v48a6 6 0 0 1-6 6h-228a6 6 0 0 1-6-6z" stroke="#000" stroke-opacity="0" fill="#fff" fill-opacity="0"/><g><use xlink:href="#ad" transform="matrix(1,0,0,1,-235,985) translate(76.06172839506173 29.84722222222222)"/></g><path d="M340 571.57a6 6 0 0 1 6-6h68a6 6 0 0 1 6 6v28a6 6 0 0 1-6 6h-68a6 6 0 0 1-6-6z" stroke="#000" stroke-opacity="0" fill="#fff" fill-opacity="0"/><g><use xlink:href="#ae" transform="matrix(1,0,0,1,345,570.5720709831901) translate(3.44444444444445 17.97222222222222)"/></g><path d="M620 646a6 6 0 0 1 6-6h68a6 6 0 0 1 6 6v28a6 6 0 0 1-6 6h-68a6 6 0 0 1-6-6z" stroke="#000" stroke-opacity="0" fill="#fff" fill-opacity="0"/><g><use xlink:href="#ad" transform="matrix(1,0,0,1,625,645) translate(-3.938271604938265 18.555555555555557)"/></g><path d="M440 553.02a6 6 0 0 1 6-6h68a6 6 0 0 1 6 6v28a6 6 0 0 1-6 6h-68a6 6 0 0 1-6-6z" stroke="#000" stroke-opacity="0" fill="#fff" fill-opacity="0"/><g><use xlink:href="#af" transform="matrix(1,0,0,1,445,552.0195017891549) translate(-13.34567901234567 18.555555555555557)"/></g><path d="M580 553.02a6 6 0 0 1 6-6h68a6 6 0 0 1 6 6v28a6 6 0 0 1-6 6h-68a6 6 0 0 1-6-6z" stroke="#000" stroke-opacity="0" fill="#fff" fill-opacity="0"/><g><use xlink:href="#ag" transform="matrix(1,0,0,1,585,552.0195017891549) translate(-25.691358024691347 18.555555555555557)"/></g><defs><path d="M114-163C36-179 61-72 57 0H25l-1-190h30c1 12-1 29 2 39 6-27 23-49 58-41v29" id="ah"/><path d="M177-190C167-65 218 103 67 71c-23-6-38-20-44-43l32-5c15 47 100 32 89-28v-30C133-14 115 1 83 1 29 1 15-40 15-95c0-56 16-97 71-98 29-1 48 16 59 35 1-10 0-23 2-32h30zM94-22c36 0 50-32 50-73 0-42-14-75-50-75-39 0-46 34-46 75s6 73 46 73" id="ai"/><path d="M16-82v-28h88v28H16" id="aj"/><path d="M85-194c31 0 48 13 60 33l-1-100h32l1 261h-30c-2-10 0-23-3-31C134-8 116 4 85 4 32 4 16-35 15-94c0-66 23-100 70-100zm9 24c-40 0-46 34-46 75 0 40 6 74 45 74 42 0 51-32 51-76 0-42-9-74-50-73" id="ak"/><path d="M100-194c63 0 86 42 84 106H49c0 40 14 67 53 68 26 1 43-12 49-29l28 8c-11 28-37 45-77 45C44 4 14-33 15-96c1-61 26-98 85-98zm52 81c6-60-76-77-97-28-3 7-6 17-6 28h103" id="al"/><path d="M210-169c-67 3-38 105-44 169h-31v-121c0-29-5-50-35-48C34-165 62-65 56 0H25l-1-190h30c1 10-1 24 2 32 10-44 99-50 107 0 11-21 27-35 58-36 85-2 47 119 55 194h-31v-121c0-29-5-49-35-48" id="am"/><path d="M100-194c62-1 85 37 85 99 1 63-27 99-86 99S16-35 15-95c0-66 28-99 85-99zM99-20c44 1 53-31 53-75 0-43-8-75-51-75s-53 32-53 75 10 74 51 75" id="an"/><path d="M141-36C126-15 110 5 73 4 37 3 15-17 15-53c-1-64 63-63 125-63 3-35-9-54-41-54-24 1-41 7-42 31l-33-3c5-37 33-52 76-52 45 0 72 20 72 64v82c-1 20 7 32 28 27v20c-31 9-61-2-59-35zM48-53c0 20 12 33 32 33 41-3 63-29 60-74-43 2-92-5-92 41" id="ao"/><path d="M115-194c53 0 69 39 70 98 0 66-23 100-70 100C84 3 66-7 56-30L54 0H23l1-261h32v101c10-23 28-34 59-34zm-8 174c40 0 45-34 45-75 0-40-5-75-45-74-42 0-51 32-51 76 0 43 10 73 51 73" id="ap"/><path d="M96-169c-40 0-48 33-48 73s9 75 48 75c24 0 41-14 43-38l32 2c-6 37-31 61-74 61-59 0-76-41-82-99-10-93 101-131 147-64 4 7 5 14 7 22l-32 3c-4-21-16-35-41-35" id="aq"/><path d="M158-156l-14 65h45v19h-49L124 0h-19l15-72H56L41 0H22l15-72H2v-19h39l14-65H11v-19h48l15-71h20l-16 71h64l16-71h19l-16 71h37v19h-40zm-83 0L61-91h63l14-65H75" id="ar"/><g id="a"><use transform="matrix(0.05,0,0,0.05,0,0)" xlink:href="#ah"/><use transform="matrix(0.05,0,0,0.05,5.95,0)" xlink:href="#ai"/><use transform="matrix(0.05,0,0,0.05,15.949999999999998,0)" xlink:href="#aj"/><use transform="matrix(0.05,0,0,0.05,21.9,0)" xlink:href="#ak"/><use transform="matrix(0.05,0,0,0.05,31.899999999999995,0)" xlink:href="#al"/><use transform="matrix(0.05,0,0,0.05,41.9,0)" xlink:href="#am"/><use transform="matrix(0.05,0,0,0.05,56.85,0)" xlink:href="#an"/><use transform="matrix(0.05,0,0,0.05,66.85,0)" xlink:href="#aj"/><use transform="matrix(0.05,0,0,0.05,72.8,0)" xlink:href="#ao"/><use transform="matrix(0.05,0,0,0.05,82.8,0)" xlink:href="#ap"/><use transform="matrix(0.05,0,0,0.05,92.8,0)" xlink:href="#ao"/><use transform="matrix(0.05,0,0,0.05,102.80000000000001,0)" xlink:href="#aq"/><use transform="matrix(0.05,0,0,0.05,111.80000000000001,0)" xlink:href="#ar"/><use transform="matrix(0.05,0,0,0.05,121.80000000000001,0)" xlink:href="#ar"/><use transform="matrix(0.05,0,0,0.05,131.8,0)" xlink:href="#ar"/><use transform="matrix(0.05,0,0,0.05,141.8,0)" xlink:href="#ar"/><use transform="matrix(0.05,0,0,0.05,151.8,0)" xlink:href="#ar"/></g><path d="M185-189c-5-48-123-54-124 2 14 75 158 14 163 119 3 78-121 87-175 55-17-10-28-26-33-46l33-7c5 56 141 63 141-1 0-78-155-14-162-118-5-82 145-84 179-34 5 7 8 16 11 25" id="as"/><path d="M84 4C-5 8 30-112 23-190h32v120c0 31 7 50 39 49 72-2 45-101 50-169h31l1 190h-30c-1-10 1-25-2-33-11 22-28 36-60 37" id="at"/><path d="M135-143c-3-34-86-38-87 0 15 53 115 12 119 90S17 21 10-45l28-5c4 36 97 45 98 0-10-56-113-15-118-90-4-57 82-63 122-42 12 7 21 19 24 35" id="au"/><path d="M24-231v-30h32v30H24zM24 0v-190h32V0H24" id="av"/><path d="M115-194c55 1 70 41 70 98S169 2 115 4C84 4 66-9 55-30l1 105H24l-1-265h31l2 30c10-21 28-34 59-34zm-8 174c40 0 45-34 45-75s-6-73-45-74c-42 0-51 32-51 76 0 43 10 73 51 73" id="aw"/><path d="M59-47c-2 24 18 29 38 22v24C64 9 27 4 27-40v-127H5v-23h24l9-43h21v43h35v23H59v120" id="ax"/><path d="M117-194c89-4 53 116 60 194h-32v-121c0-31-8-49-39-48C34-167 62-67 57 0H25l-1-190h30c1 10-1 24 2 32 11-22 29-35 61-36" id="ay"/><g id="b"><use transform="matrix(0.05,0,0,0.05,0,0)" xlink:href="#as"/><use transform="matrix(0.05,0,0,0.05,12,0)" xlink:href="#at"/><use transform="matrix(0.05,0,0,0.05,22,0)" xlink:href="#ap"/><use transform="matrix(0.05,0,0,0.05,32,0)" xlink:href="#au"/><use transform="matrix(0.05,0,0,0.05,41,0)" xlink:href="#aq"/><use transform="matrix(0.05,0,0,0.05,50,0)" xlink:href="#ah"/><use transform="matrix(0.05,0,0,0.05,55.95,0)" xlink:href="#av"/><use transform="matrix(0.05,0,0,0.05,59.900000000000006,0)" xlink:href="#aw"/><use transform="matrix(0.05,0,0,0.05,69.9,0)" xlink:href="#ax"/><use transform="matrix(0.05,0,0,0.05,74.9,0)" xlink:href="#av"/><use transform="matrix(0.05,0,0,0.05,78.85000000000001,0)" xlink:href="#an"/><use transform="matrix(0.05,0,0,0.05,88.85000000000001,0)" xlink:href="#ay"/></g><linearGradient gradientUnits="userSpaceOnUse" id="c" x1="-573" y1="642.52" x2="-573" y2="622.54"><stop offset="0%" stop-color="#32bedd"/><stop offset="77.5%" stop-color="#32d4f5"/></linearGradient><linearGradient gradientUnits="userSpaceOnUse" id="d" x1="-573" y1="694.16" x2="-573" y2="662.71"><stop offset="0%" stop-color="#0078d4"/><stop offset="81.7%" stop-color="#5ea0ef"/></linearGradient><linearGradient gradientUnits="userSpaceOnUse" id="e" x1="-573.01" y1="722.93" x2="-573.01" y2="747.28"><stop offset="22%" stop-color="#21d400"/><stop offset="100%" stop-color="#088a00"/></linearGradient><linearGradient gradientUnits="userSpaceOnUse" id="f" x1="-573.7" y1="710.71" x2="-571.91" y2="732.9"><stop offset="22%" stop-color="#21d400"/><stop offset="100%" stop-color="#088a00"/></linearGradient><linearGradient gradientUnits="userSpaceOnUse" id="g" x1="-574.93" y1="792.51" x2="-574.93" y2="769.07"><stop offset="0%" stop-color="#5e9624"/><stop offset="100%" stop-color="#b4ec36"/></linearGradient><linearGradient gradientUnits="userSpaceOnUse" id="h" x1="-574.88" y1="776.82" x2="-574.88" y2="755.34"><stop offset="0%" stop-color="#5e9624"/><stop offset="100%" stop-color="#b4ec36"/></linearGradient><path d="M24 0v-248h52v208h133V0H24" id="az"/><path d="M185-48c-13 30-37 53-82 52C43 2 14-33 14-96s30-98 90-98c62 0 83 45 84 108H66c0 31 8 55 39 56 18 0 30-7 34-22zm-45-69c5-46-57-63-70-21-2 6-4 13-4 21h74" id="aA"/><path d="M195-6C206 82 75 100 31 46c-4-6-6-13-8-21l49-6c3 16 16 24 34 25 40 0 42-37 40-79-11 22-30 35-61 35-53 0-70-43-70-97 0-56 18-96 73-97 30 0 46 14 59 34l2-30h47zm-90-29c32 0 41-27 41-63 0-35-9-62-40-62-32 0-39 29-40 63 0 36 9 62 39 62" id="aB"/><path d="M135-194c87-1 58 113 63 194h-50c-7-57 23-157-34-157-59 0-34 97-39 157H25l-1-190h47c2 12-1 28 3 38 12-26 28-41 61-42" id="aC"/><path d="M88-194c31-1 46 15 58 34l-1-101h50l1 261h-48c-2-10 0-23-3-31C134-8 116 4 84 4 32 4 16-41 15-95c0-56 19-97 73-99zm17 164c33 0 40-30 41-66 1-37-9-64-41-64s-38 30-39 65c0 43 13 65 39 65" id="aD"/><g id="i"><use transform="matrix(0.04504485809347915,0,0,0.04504485809347915,0,0)" xlink:href="#az"/><use transform="matrix(0.04504485809347915,0,0,0.04504485809347915,9.864823922471933,0)" xlink:href="#aA"/><use transform="matrix(0.04504485809347915,0,0,0.04504485809347915,18.873795541167766,0)" xlink:href="#aB"/><use transform="matrix(0.04504485809347915,0,0,0.04504485809347915,28.7386194636397,0)" xlink:href="#aA"/><use transform="matrix(0.04504485809347915,0,0,0.04504485809347915,37.74759108233553,0)" xlink:href="#aC"/><use transform="matrix(0.04504485809347915,0,0,0.04504485809347915,47.61241500480747,0)" xlink:href="#aD"/></g><g id="j"><use transform="matrix(0.045044858093479155,0,0,0.045044858093479155,0,0)" xlink:href="#as"/><use transform="matrix(0.045044858093479155,0,0,0.045044858093479155,10.810765942434998,0)" xlink:href="#at"/><use transform="matrix(0.045044858093479155,0,0,0.045044858093479155,19.81973756113083,0)" xlink:href="#ap"/><use transform="matrix(0.045044858093479155,0,0,0.045044858093479155,28.82870917982666,0)" xlink:href="#au"/><use transform="matrix(0.045044858093479155,0,0,0.045044858093479155,36.936783636652905,0)" xlink:href="#aq"/><use transform="matrix(0.045044858093479155,0,0,0.045044858093479155,45.04485809347915,0)" xlink:href="#ah"/><use transform="matrix(0.045044858093479155,0,0,0.045044858093479155,50.40519620660317,0)" xlink:href="#av"/><use transform="matrix(0.045044858093479155,0,0,0.045044858093479155,53.96373999598803,0)" xlink:href="#aw"/><use transform="matrix(0.045044858093479155,0,0,0.045044858093479155,62.97271161468386,0)" xlink:href="#ax"/><use transform="matrix(0.045044858093479155,0,0,0.045044858093479155,67.47719742403177,0)" xlink:href="#av"/><use transform="matrix(0.045044858093479155,0,0,0.045044858093479155,71.03574121341663,0)" xlink:href="#an"/><use transform="matrix(0.045044858093479155,0,0,0.045044858093479155,80.04471283211245,0)" xlink:href="#ay"/><use transform="matrix(0.045044858093479155,0,0,0.045044858093479155,89.05368445080828,0)" xlink:href="#au"/></g><path d="M233-177c-1 41-23 64-60 70L243 0h-38l-65-103H63V0H30v-248c88 3 205-21 203 71zM63-129c60-2 137 13 137-47 0-61-80-42-137-45v92" id="aE"/><g id="k"><use transform="matrix(0.045044858093479155,0,0,0.045044858093479155,0,0)" xlink:href="#aE"/><use transform="matrix(0.045044858093479155,0,0,0.045044858093479155,11.666618246211101,0)" xlink:href="#al"/><use transform="matrix(0.045044858093479155,0,0,0.045044858093479155,20.675589864906932,0)" xlink:href="#au"/><use transform="matrix(0.045044858093479155,0,0,0.045044858093479155,28.78366432173318,0)" xlink:href="#an"/><use transform="matrix(0.045044858093479155,0,0,0.045044858093479155,37.792635940429015,0)" xlink:href="#at"/><use transform="matrix(0.045044858093479155,0,0,0.045044858093479155,46.80160755912484,0)" xlink:href="#ah"/><use transform="matrix(0.045044858093479155,0,0,0.045044858093479155,52.16194567224887,0)" xlink:href="#aq"/><use transform="matrix(0.045044858093479155,0,0,0.045044858093479155,60.27002012907511,0)" xlink:href="#al"/></g><path d="M143 4C61 4 22-44 18-125c-5-107 100-154 193-111 17 8 29 25 37 43l-32 9c-13-25-37-40-76-40-61 0-88 39-88 99 0 61 29 100 91 101 35 0 62-11 79-27v-45h-74v-28h105v86C228-13 192 4 143 4" id="aF"/><g id="l"><use transform="matrix(0.045044858093479155,0,0,0.045044858093479155,0,0)" xlink:href="#aF"/><use transform="matrix(0.045044858093479155,0,0,0.045044858093479155,12.612560266174164,0)" xlink:href="#ah"/><use transform="matrix(0.045044858093479155,0,0,0.045044858093479155,17.972898379298183,0)" xlink:href="#an"/><use transform="matrix(0.045044858093479155,0,0,0.045044858093479155,26.981869997994014,0)" xlink:href="#at"/><use transform="matrix(0.045044858093479155,0,0,0.045044858093479155,35.99084161668984,0)" xlink:href="#aw"/><use transform="matrix(0.045044858093479155,0,0,0.045044858093479155,44.99981323538567,0)" xlink:href="#au"/></g><path d="M205 0l-28-72H64L36 0H1l101-248h38L239 0h-34zm-38-99l-47-123c-12 45-31 82-46 123h93" id="aG"/><path d="M9 0v-24l116-142H16v-24h144v24L44-24h123V0H9" id="aH"/><g id="m"><use transform="matrix(0.03743948854163074,0,0,0.03743948854163074,0,0)" xlink:href="#aG"/><use transform="matrix(0.03743948854163074,0,0,0.03743948854163074,8.985477249991378,0)" xlink:href="#aH"/><use transform="matrix(0.03743948854163074,0,0,0.03743948854163074,15.724585187484912,0)" xlink:href="#at"/><use transform="matrix(0.03743948854163074,0,0,0.03743948854163074,23.21248289581106,0)" xlink:href="#ah"/><use transform="matrix(0.03743948854163074,0,0,0.03743948854163074,27.667782032265123,0)" xlink:href="#al"/></g><path d="M160-131c35 5 61 23 61 61C221 17 115-2 30 0v-248c76 3 177-17 177 60 0 33-19 50-47 57zm-97-11c50-1 110 9 110-42 0-47-63-36-110-37v79zm0 115c55-2 124 14 124-45 0-56-70-42-124-44v89" id="aI"/><path d="M212-179c-10-28-35-45-73-45-59 0-87 40-87 99 0 60 29 101 89 101 43 0 62-24 78-52l27 14C228-24 195 4 139 4 59 4 22-46 18-125c-6-104 99-153 187-111 19 9 31 26 39 46" id="aJ"/><g id="n"><use transform="matrix(0.03743948854163074,0,0,0.03743948854163074,0,0)" xlink:href="#aE"/><use transform="matrix(0.03743948854163074,0,0,0.03743948854163074,9.696827532282365,0)" xlink:href="#aI"/><use transform="matrix(0.03743948854163074,0,0,0.03743948854163074,18.682304782273743,0)" xlink:href="#aG"/><use transform="matrix(0.03743948854163074,0,0,0.03743948854163074,27.667782032265123,0)" xlink:href="#aJ"/></g><path d="M24 0v-261h32V0H24" id="aK"/><g id="o"><use transform="matrix(0.03743948854163074,0,0,0.03743948854163074,0,0)" xlink:href="#aE"/><use transform="matrix(0.03743948854163074,0,0,0.03743948854163074,9.696827532282365,0)" xlink:href="#an"/><use transform="matrix(0.03743948854163074,0,0,0.03743948854163074,17.18472524060851,0)" xlink:href="#aK"/><use transform="matrix(0.03743948854163074,0,0,0.03743948854163074,20.14244483539734,0)" xlink:href="#al"/></g><path d="M30-248c118-7 216 8 213 122C240-48 200 0 122 0H30v-248zM63-27c89 8 146-16 146-99s-60-101-146-95v194" id="aL"/><path d="M101-234c-31-9-42 10-38 44h38v23H63V0H32v-167H5v-23h27c-7-52 17-82 69-68v24" id="aM"/><g id="p"><use transform="matrix(0.03743948854163074,0,0,0.03743948854163074,0,0)" xlink:href="#aL"/><use transform="matrix(0.03743948854163074,0,0,0.03743948854163074,9.696827532282365,0)" xlink:href="#al"/><use transform="matrix(0.03743948854163074,0,0,0.03743948854163074,17.18472524060851,0)" xlink:href="#aM"/><use transform="matrix(0.03743948854163074,0,0,0.03743948854163074,20.928674094771587,0)" xlink:href="#av"/><use transform="matrix(0.03743948854163074,0,0,0.03743948854163074,23.88639368956041,0)" xlink:href="#ay"/><use transform="matrix(0.03743948854163074,0,0,0.03743948854163074,31.37429139788656,0)" xlink:href="#av"/><use transform="matrix(0.03743948854163074,0,0,0.03743948854163074,34.33201099267539,0)" xlink:href="#ax"/><use transform="matrix(0.03743948854163074,0,0,0.03743948854163074,38.07595984683846,0)" xlink:href="#av"/><use transform="matrix(0.03743948854163074,0,0,0.03743948854163074,41.03367944162729,0)" xlink:href="#an"/><use transform="matrix(0.03743948854163074,0,0,0.03743948854163074,48.52157714995344,0)" xlink:href="#ay"/></g><g id="q"><use transform="matrix(0.046536224219989424,0,0,0.046536224219989424,0,0)" xlink:href="#aG"/><use transform="matrix(0.046536224219989424,0,0,0.046536224219989424,11.168693812797462,0)" xlink:href="#aH"/><use transform="matrix(0.046536224219989424,0,0,0.046536224219989424,19.54521417239556,0)" xlink:href="#at"/><use transform="matrix(0.046536224219989424,0,0,0.046536224219989424,28.852459016393446,0)" xlink:href="#ah"/><use transform="matrix(0.046536224219989424,0,0,0.046536224219989424,34.39026969857219,0)" xlink:href="#al"/></g><g id="r"><use transform="matrix(0.046536224219989424,0,0,0.046536224219989424,0,0)" xlink:href="#aE"/><use transform="matrix(0.046536224219989424,0,0,0.046536224219989424,12.05288207297726,0)" xlink:href="#aI"/><use transform="matrix(0.046536224219989424,0,0,0.046536224219989424,23.221575885774726,0)" xlink:href="#aG"/><use transform="matrix(0.046536224219989424,0,0,0.046536224219989424,34.39026969857219,0)" xlink:href="#aJ"/></g><g id="s"><use transform="matrix(0.046536224219989424,0,0,0.046536224219989424,0,0)" xlink:href="#aE"/><use transform="matrix(0.046536224219989424,0,0,0.046536224219989424,12.05288207297726,0)" xlink:href="#an"/><use transform="matrix(0.046536224219989424,0,0,0.046536224219989424,21.360126916975148,0)" xlink:href="#aK"/><use transform="matrix(0.046536224219989424,0,0,0.046536224219989424,25.036488630354317,0)" xlink:href="#al"/></g><g id="t"><use transform="matrix(0.046536224219989424,0,0,0.046536224219989424,0,0)" xlink:href="#aG"/><use transform="matrix(0.046536224219989424,0,0,0.046536224219989424,11.168693812797462,0)" xlink:href="#au"/><use transform="matrix(0.046536224219989424,0,0,0.046536224219989424,19.54521417239556,0)" xlink:href="#au"/><use transform="matrix(0.046536224219989424,0,0,0.046536224219989424,27.92173453199366,0)" xlink:href="#av"/><use transform="matrix(0.046536224219989424,0,0,0.046536224219989424,31.598096245372822,0)" xlink:href="#ai"/><use transform="matrix(0.046536224219989424,0,0,0.046536224219989424,40.90534108937071,0)" xlink:href="#ay"/><use transform="matrix(0.046536224219989424,0,0,0.046536224219989424,50.2125859333686,0)" xlink:href="#am"/><use transform="matrix(0.046536224219989424,0,0,0.046536224219989424,64.12691697514543,0)" xlink:href="#al"/><use transform="matrix(0.046536224219989424,0,0,0.046536224219989424,73.43416181914333,0)" xlink:href="#ay"/><use transform="matrix(0.046536224219989424,0,0,0.046536224219989424,82.7414066631412,0)" xlink:href="#ax"/></g><g id="u"><use transform="matrix(0.045044858093479155,0,0,0.045044858093479155,0,0)" xlink:href="#as"/><use transform="matrix(0.045044858093479155,0,0,0.045044858093479155,10.810765942434998,0)" xlink:href="#ax"/><use transform="matrix(0.045044858093479155,0,0,0.045044858093479155,15.315251751782913,0)" xlink:href="#an"/><use transform="matrix(0.045044858093479155,0,0,0.045044858093479155,24.324223370478744,0)" xlink:href="#ah"/><use transform="matrix(0.045044858093479155,0,0,0.045044858093479155,29.684561483602764,0)" xlink:href="#ao"/><use transform="matrix(0.045044858093479155,0,0,0.045044858093479155,38.693533102298595,0)" xlink:href="#ai"/><use transform="matrix(0.045044858093479155,0,0,0.045044858093479155,47.702504720994426,0)" xlink:href="#al"/></g><g id="v"><use transform="matrix(0.045044858093479155,0,0,0.045044858093479155,0,0)" xlink:href="#aG"/><use transform="matrix(0.045044858093479155,0,0,0.045044858093479155,10.810765942434998,0)" xlink:href="#aq"/><use transform="matrix(0.045044858093479155,0,0,0.045044858093479155,18.918840399261246,0)" xlink:href="#aq"/><use transform="matrix(0.045044858093479155,0,0,0.045044858093479155,27.026914856087494,0)" xlink:href="#an"/><use transform="matrix(0.045044858093479155,0,0,0.045044858093479155,36.035886474783325,0)" xlink:href="#at"/><use transform="matrix(0.045044858093479155,0,0,0.045044858093479155,45.04485809347916,0)" xlink:href="#ay"/><use transform="matrix(0.045044858093479155,0,0,0.045044858093479155,54.05382971217499,0)" xlink:href="#ax"/><use transform="matrix(0.045044858093479155,0,0,0.045044858093479155,58.5583155215229,0)" xlink:href="#au"/></g><g id="w"><use transform="matrix(0.045044858093479155,0,0,0.045044858093479155,0,0)" xlink:href="#aI"/><use transform="matrix(0.045044858093479155,0,0,0.045044858093479155,10.810765942434998,0)" xlink:href="#aK"/><use transform="matrix(0.045044858093479155,0,0,0.045044858093479155,14.369309731819852,0)" xlink:href="#an"/><use transform="matrix(0.045044858093479155,0,0,0.045044858093479155,23.37828135051568,0)" xlink:href="#ap"/></g><g id="x"><use transform="matrix(0.045044858093479155,0,0,0.045044858093479155,0,0)" xlink:href="#aJ"/><use transform="matrix(0.045044858093479155,0,0,0.045044858093479155,11.666618246211101,0)" xlink:href="#an"/><use transform="matrix(0.045044858093479155,0,0,0.045044858093479155,20.675589864906932,0)" xlink:href="#ay"/><use transform="matrix(0.045044858093479155,0,0,0.045044858093479155,29.684561483602764,0)" xlink:href="#ax"/><use transform="matrix(0.045044858093479155,0,0,0.045044858093479155,34.18904729295068,0)" xlink:href="#ao"/><use transform="matrix(0.045044858093479155,0,0,0.045044858093479155,43.19801891164651,0)" xlink:href="#av"/><use transform="matrix(0.045044858093479155,0,0,0.045044858093479155,46.75656270103136,0)" xlink:href="#ay"/><use transform="matrix(0.045044858093479155,0,0,0.045044858093479155,55.765534319727195,0)" xlink:href="#al"/><use transform="matrix(0.045044858093479155,0,0,0.045044858093479155,64.77450593842302,0)" xlink:href="#ah"/></g><g id="y"><use transform="matrix(0.045044858093479155,0,0,0.045044858093479155,0,0)" xlink:href="#aI"/><use transform="matrix(0.045044858093479155,0,0,0.045044858093479155,10.810765942434998,0)" xlink:href="#aK"/><use transform="matrix(0.045044858093479155,0,0,0.045044858093479155,14.369309731819852,0)" xlink:href="#an"/><use transform="matrix(0.045044858093479155,0,0,0.045044858093479155,23.37828135051568,0)" xlink:href="#ap"/></g><g id="z"><use transform="matrix(0.05,0,0,0.05,0,0)" xlink:href="#au"/><use transform="matrix(0.05,0,0,0.05,9,0)" xlink:href="#ax"/><use transform="matrix(0.05,0,0,0.05,14,0)" xlink:href="#ak"/><use transform="matrix(0.05,0,0,0.05,24,0)" xlink:href="#al"/><use transform="matrix(0.05,0,0,0.05,34,0)" xlink:href="#am"/><use transform="matrix(0.05,0,0,0.05,48.95,0)" xlink:href="#an"/><use transform="matrix(0.05,0,0,0.05,58.95,0)" xlink:href="#ao"/><use transform="matrix(0.05,0,0,0.05,68.95,0)" xlink:href="#ap"/><use transform="matrix(0.05,0,0,0.05,78.95,0)" xlink:href="#ao"/><use transform="matrix(0.05,0,0,0.05,88.95,0)" xlink:href="#aq"/><use transform="matrix(0.05,0,0,0.05,97.95,0)" xlink:href="#ar"/><use transform="matrix(0.05,0,0,0.05,107.95,0)" xlink:href="#ar"/><use transform="matrix(0.05,0,0,0.05,117.95,0)" xlink:href="#ar"/><use transform="matrix(0.05,0,0,0.05,127.95,0)" xlink:href="#ar"/><use transform="matrix(0.05,0,0,0.05,137.95,0)" xlink:href="#ar"/></g><linearGradient gradientUnits="userSpaceOnUse" id="A" x1="380" y1="560" x2="380" y2="520"><stop offset="0%" stop-color="#32bedd"/><stop offset="77.5%" stop-color="#32d4f5"/></linearGradient><linearGradient gradientUnits="userSpaceOnUse" id="B" x1="660" y1="645.57" x2="660" y2="605.57"><stop offset="0%" stop-color="#32bedd"/><stop offset="77.5%" stop-color="#32d4f5"/></linearGradient><linearGradient gradientUnits="userSpaceOnUse" id="C" x1="620" y1="547.02" x2="620" y2="487.02"><stop offset="0%" stop-color="#0078d4"/><stop offset="81.7%" stop-color="#5ea0ef"/></linearGradient><linearGradient gradientUnits="userSpaceOnUse" id="D" x1="480" y1="547.02" x2="480" y2="487.02"><stop offset="0%" stop-color="#0078d4"/><stop offset="81.7%" stop-color="#5ea0ef"/></linearGradient><linearGradient gradientUnits="userSpaceOnUse" id="E" x1="63.86" y1="422.14" x2="63.86" y2="476.91"><stop offset="22%" stop-color="#21d400"/><stop offset="100%" stop-color="#088a00"/></linearGradient><linearGradient gradientUnits="userSpaceOnUse" id="F" x1="62.12" y1="425.27" x2="66.44" y2="479.07"><stop offset="22%" stop-color="#21d400"/><stop offset="100%" stop-color="#088a00"/></linearGradient><g id="G"><use transform="matrix(0.05,0,0,0.05,0,0)" xlink:href="#as"/><use transform="matrix(0.05,0,0,0.05,12,0)" xlink:href="#ax"/><use transform="matrix(0.05,0,0,0.05,17,0)" xlink:href="#an"/><use transform="matrix(0.05,0,0,0.05,27,0)" xlink:href="#ah"/><use transform="matrix(0.05,0,0,0.05,32.95,0)" xlink:href="#ao"/><use transform="matrix(0.05,0,0,0.05,42.95,0)" xlink:href="#ai"/><use transform="matrix(0.05,0,0,0.05,52.95,0)" xlink:href="#al"/></g><g id="H"><use transform="matrix(0.05,0,0,0.05,0,0)" xlink:href="#aI"/><use transform="matrix(0.05,0,0,0.05,12,0)" xlink:href="#aK"/><use transform="matrix(0.05,0,0,0.05,15.949999999999998,0)" xlink:href="#an"/><use transform="matrix(0.05,0,0,0.05,25.950000000000003,0)" xlink:href="#ap"/></g><g id="I"><use transform="matrix(0.05,0,0,0.05,0,0)" xlink:href="#aL"/><use transform="matrix(0.05,0,0,0.05,12.950000000000001,0)" xlink:href="#ao"/><use transform="matrix(0.05,0,0,0.05,22.950000000000003,0)" xlink:href="#ax"/><use transform="matrix(0.05,0,0,0.05,27.950000000000003,0)" xlink:href="#ao"/></g><path d="M140-251c81 0 123 46 123 126C263-46 219 4 140 4 59 4 17-45 17-125s42-126 123-126zm0 227c63 0 89-41 89-101s-29-99-89-99c-61 0-89 39-89 99S79-25 140-24" id="aN"/><path d="M206 0h-36l-40-164L89 0H53L-1-190h32L70-26l43-164h34l41 164 42-164h31" id="aO"/><g id="J"><use transform="matrix(0.05,0,0,0.05,0,0)" xlink:href="#aN"/><use transform="matrix(0.05,0,0,0.05,14,0)" xlink:href="#aO"/><use transform="matrix(0.05,0,0,0.05,26.950000000000003,0)" xlink:href="#ay"/><use transform="matrix(0.05,0,0,0.05,36.95,0)" xlink:href="#al"/><use transform="matrix(0.05,0,0,0.05,46.95,0)" xlink:href="#ah"/></g><linearGradient gradientUnits="userSpaceOnUse" id="K" x1="160.04" y1="480.21" x2="160.04" y2="431.12"><stop offset="0%" stop-color="#5e9624"/><stop offset="100%" stop-color="#b4ec36"/></linearGradient><linearGradient gradientUnits="userSpaceOnUse" id="L" x1="160" y1="477.42" x2="160" y2="429.17"><stop offset="0%" stop-color="#5e9624"/><stop offset="100%" stop-color="#b4ec36"/></linearGradient><linearGradient gradientUnits="userSpaceOnUse" id="M" x1="63.86" y1="615.12" x2="63.86" y2="669.89"><stop offset="22%" stop-color="#21d400"/><stop offset="100%" stop-color="#088a00"/></linearGradient><linearGradient gradientUnits="userSpaceOnUse" id="N" x1="62.12" y1="618.25" x2="66.44" y2="672.05"><stop offset="22%" stop-color="#21d400"/><stop offset="100%" stop-color="#088a00"/></linearGradient><g id="O"><use transform="matrix(0.05,0,0,0.05,0,0)" xlink:href="#aE"/><use transform="matrix(0.05,0,0,0.05,12.950000000000001,0)" xlink:href="#al"/><use transform="matrix(0.05,0,0,0.05,22.950000000000003,0)" xlink:href="#ao"/><use transform="matrix(0.05,0,0,0.05,32.95,0)" xlink:href="#ak"/><use transform="matrix(0.05,0,0,0.05,42.95,0)" xlink:href="#al"/><use transform="matrix(0.05,0,0,0.05,52.95,0)" xlink:href="#ah"/></g><linearGradient gradientUnits="userSpaceOnUse" id="Q" x1="160.04" y1="673.19" x2="160.04" y2="624.1"><stop offset="0%" stop-color="#5e9624"/><stop offset="100%" stop-color="#b4ec36"/></linearGradient><linearGradient gradientUnits="userSpaceOnUse" id="R" x1="160" y1="670.4" x2="160" y2="622.15"><stop offset="0%" stop-color="#5e9624"/><stop offset="100%" stop-color="#b4ec36"/></linearGradient><path fill="#3a414a" d="M212-179c-10-28-35-45-73-45-59 0-87 40-87 99 0 60 29 101 89 101 43 0 62-24 78-52l27 14C228-24 195 4 139 4 59 4 22-46 18-125c-6-104 99-153 187-111 19 9 31 26 39 46" id="aP"/><path fill="#3a414a" d="M100-194c62-1 85 37 85 99 1 63-27 99-86 99S16-35 15-95c0-66 28-99 85-99zM99-20c44 1 53-31 53-75 0-43-8-75-51-75s-53 32-53 75 10 74 51 75" id="aQ"/><path fill="#3a414a" d="M117-194c89-4 53 116 60 194h-32v-121c0-31-8-49-39-48C34-167 62-67 57 0H25l-1-190h30c1 10-1 24 2 32 11-22 29-35 61-36" id="aR"/><path fill="#3a414a" d="M85-194c31 0 48 13 60 33l-1-100h32l1 261h-30c-2-10 0-23-3-31C134-8 116 4 85 4 32 4 16-35 15-94c0-66 23-100 70-100zm9 24c-40 0-46 34-46 75 0 40 6 74 45 74 42 0 51-32 51-76 0-42-9-74-50-73" id="aS"/><path fill="#3a414a" d="M24-231v-30h32v30H24zM24 0v-190h32V0H24" id="aT"/><path fill="#3a414a" d="M59-47c-2 24 18 29 38 22v24C64 9 27 4 27-40v-127H5v-23h24l9-43h21v43h35v23H59v120" id="aU"/><path fill="#3a414a" d="M135-143c-3-34-86-38-87 0 15 53 115 12 119 90S17 21 10-45l28-5c4 36 97 45 98 0-10-56-113-15-118-90-4-57 82-63 122-42 12 7 21 19 24 35" id="aV"/><path fill="#3a414a" d="M33-154v-36h34v36H33zM33 0v-36h34V0H33" id="aW"/><g id="S"><use transform="matrix(0.049382716049382706,0,0,0.049382716049382706,0,0)" xlink:href="#aP"/><use transform="matrix(0.049382716049382706,0,0,0.049382716049382706,12.790123456790122,0)" xlink:href="#aQ"/><use transform="matrix(0.049382716049382706,0,0,0.049382716049382706,22.666666666666664,0)" xlink:href="#aR"/><use transform="matrix(0.049382716049382706,0,0,0.049382716049382706,32.5432098765432,0)" xlink:href="#aS"/><use transform="matrix(0.049382716049382706,0,0,0.049382716049382706,42.419753086419746,0)" xlink:href="#aT"/><use transform="matrix(0.049382716049382706,0,0,0.049382716049382706,46.32098765432098,0)" xlink:href="#aU"/><use transform="matrix(0.049382716049382706,0,0,0.049382716049382706,51.25925925925925,0)" xlink:href="#aT"/><use transform="matrix(0.049382716049382706,0,0,0.049382716049382706,55.16049382716049,0)" xlink:href="#aQ"/><use transform="matrix(0.049382716049382706,0,0,0.049382716049382706,65.03703703703702,0)" xlink:href="#aR"/><use transform="matrix(0.049382716049382706,0,0,0.049382716049382706,74.91358024691357,0)" xlink:href="#aV"/><use transform="matrix(0.049382716049382706,0,0,0.049382716049382706,83.80246913580245,0)" xlink:href="#aW"/></g><path fill="#3a414a" d="M27 0v-27h64v-190l-56 39v-29l58-41h29v221h61V0H27" id="aX"/><path fill="#3a414a" d="M33-261c38 41 65 92 65 168S71 34 33 75H2C39 34 66-17 66-93S39-220 2-261h31" id="aY"/><g id="T"><use transform="matrix(0.049382716049382706,0,0,0.049382716049382706,0,0)" xlink:href="#aX"/><use transform="matrix(0.049382716049382706,0,0,0.049382716049382706,9.87654320987654,0)" xlink:href="#aY"/></g><path fill="#3a414a" d="M141-36C126-15 110 5 73 4 37 3 15-17 15-53c-1-64 63-63 125-63 3-35-9-54-41-54-24 1-41 7-42 31l-33-3c5-37 33-52 76-52 45 0 72 20 72 64v82c-1 20 7 32 28 27v20c-31 9-61-2-59-35zM48-53c0 20 12 33 32 33 41-3 63-29 60-74-43 2-92-5-92 41" id="aZ"/><path fill="#3a414a" d="M100-194c63 0 86 42 84 106H49c0 40 14 67 53 68 26 1 43-12 49-29l28 8c-11 28-37 45-77 45C44 4 14-33 15-96c1-61 26-98 85-98zm52 81c6-60-76-77-97-28-3 7-6 17-6 28h103" id="ba"/><path fill="#3a414a" d="M114-163C36-179 61-72 57 0H25l-1-190h30c1 12-1 29 2 39 6-27 23-49 58-41v29" id="bb"/><g id="U"><use transform="matrix(0.049382716049382706,0,0,0.049382716049382706,0,0)" xlink:href="#aP"/><use transform="matrix(0.049382716049382706,0,0,0.049382716049382706,12.790123456790122,0)" xlink:href="#aQ"/><use transform="matrix(0.049382716049382706,0,0,0.049382716049382706,22.666666666666664,0)" xlink:href="#aR"/><use transform="matrix(0.049382716049382706,0,0,0.049382716049382706,32.5432098765432,0)" xlink:href="#aU"/><use transform="matrix(0.049382716049382706,0,0,0.049382716049382706,37.481481481481474,0)" xlink:href="#aZ"/><use transform="matrix(0.049382716049382706,0,0,0.049382716049382706,47.35802469135801,0)" xlink:href="#aT"/><use transform="matrix(0.049382716049382706,0,0,0.049382716049382706,51.25925925925925,0)" xlink:href="#aR"/><use transform="matrix(0.049382716049382706,0,0,0.049382716049382706,61.13580246913578,0)" xlink:href="#ba"/><use transform="matrix(0.049382716049382706,0,0,0.049382716049382706,71.01234567901233,0)" xlink:href="#bb"/></g><path fill="#3a414a" d="M210-169c-67 3-38 105-44 169h-31v-121c0-29-5-50-35-48C34-165 62-65 56 0H25l-1-190h30c1 10-1 24 2 32 10-44 99-50 107 0 11-21 27-35 58-36 85-2 47 119 55 194h-31v-121c0-29-5-49-35-48" id="bc"/><path fill="#3a414a" d="M96-169c-40 0-48 33-48 73s9 75 48 75c24 0 41-14 43-38l32 2c-6 37-31 61-74 61-59 0-76-41-82-99-10-93 101-131 147-64 4 7 5 14 7 22l-32 3c-4-21-16-35-41-35" id="bd"/><path fill="#3a414a" d="M106-169C34-169 62-67 57 0H25v-261h32l-1 103c12-21 28-36 61-36 89 0 53 116 60 194h-32v-121c2-32-8-49-39-48" id="be"/><g id="V"><use transform="matrix(0.049382716049382706,0,0,0.049382716049382706,0,0)" xlink:href="#bc"/><use transform="matrix(0.049382716049382706,0,0,0.049382716049382706,14.765432098765428,0)" xlink:href="#aZ"/><use transform="matrix(0.049382716049382706,0,0,0.049382716049382706,24.641975308641968,0)" xlink:href="#aU"/><use transform="matrix(0.049382716049382706,0,0,0.049382716049382706,29.58024691358024,0)" xlink:href="#bd"/><use transform="matrix(0.049382716049382706,0,0,0.049382716049382706,38.469135802469125,0)" xlink:href="#be"/></g><path fill="#3a414a" d="M143 0L79-87 56-68V0H24v-261h32v163l83-92h37l-77 82L181 0h-38" id="bf"/><path fill="#3a414a" d="M177-190C167-65 218 103 67 71c-23-6-38-20-44-43l32-5c15 47 100 32 89-28v-30C133-14 115 1 83 1 29 1 15-40 15-95c0-56 16-97 71-98 29-1 48 16 59 35 1-10 0-23 2-32h30zM94-22c36 0 50-32 50-73 0-42-14-75-50-75-39 0-46 34-46 75s6 73 46 73" id="bg"/><g id="W"><use transform="matrix(0.049382716049382706,0,0,0.049382716049382706,0,0)" xlink:href="#bc"/><use transform="matrix(0.049382716049382706,0,0,0.049382716049382706,14.765432098765428,0)" xlink:href="#aZ"/><use transform="matrix(0.049382716049382706,0,0,0.049382716049382706,24.641975308641968,0)" xlink:href="#bb"/><use transform="matrix(0.049382716049382706,0,0,0.049382716049382706,30.51851851851851,0)" xlink:href="#bf"/><use transform="matrix(0.049382716049382706,0,0,0.049382716049382706,39.4074074074074,0)" xlink:href="#ba"/><use transform="matrix(0.049382716049382706,0,0,0.049382716049382706,49.283950617283935,0)" xlink:href="#aU"/><use transform="matrix(0.049382716049382706,0,0,0.049382716049382706,54.222222222222214,0)" xlink:href="#aT"/><use transform="matrix(0.049382716049382706,0,0,0.049382716049382706,58.12345679012345,0)" xlink:href="#aR"/><use transform="matrix(0.049382716049382706,0,0,0.049382716049382706,67.99999999999999,0)" xlink:href="#bg"/></g><path fill="#3a414a" d="M101-251c82-7 93 87 43 132L82-64C71-53 59-42 53-27h129V0H18c2-99 128-94 128-182 0-28-16-43-45-43s-46 15-49 41l-32-3c6-41 34-60 81-64" id="bh"/><g id="X"><use transform="matrix(0.049382716049382706,0,0,0.049382716049382706,0,0)" xlink:href="#bh"/><use transform="matrix(0.049382716049382706,0,0,0.049382716049382706,9.87654320987654,0)" xlink:href="#aY"/></g><path fill="#3a414a" d="M160-131c35 5 61 23 61 61C221 17 115-2 30 0v-248c76 3 177-17 177 60 0 33-19 50-47 57zm-97-11c50-1 110 9 110-42 0-47-63-36-110-37v79zm0 115c55-2 124 14 124-45 0-56-70-42-124-44v89" id="bi"/><path fill="#3a414a" d="M24 0v-261h32V0H24" id="bj"/><path fill="#3a414a" d="M115-194c53 0 69 39 70 98 0 66-23 100-70 100C84 3 66-7 56-30L54 0H23l1-261h32v101c10-23 28-34 59-34zm-8 174c40 0 45-34 45-75 0-40-5-75-45-74-42 0-51 32-51 76 0 43 10 73 51 73" id="bk"/><g id="Y"><use transform="matrix(0.049382716049382706,0,0,0.049382716049382706,0,0)" xlink:href="#bi"/><use transform="matrix(0.049382716049382706,0,0,0.049382716049382706,11.85185185185185,0)" xlink:href="#bj"/><use transform="matrix(0.049382716049382706,0,0,0.049382716049382706,15.753086419753084,0)" xlink:href="#aQ"/><use transform="matrix(0.049382716049382706,0,0,0.049382716049382706,25.629629629629626,0)" xlink:href="#bk"/></g><path fill="#3a414a" d="M141 0L90-78 38 0H4l68-98-65-92h35l48 74 47-74h35l-64 92 68 98h-35" id="bl"/><g id="Z"><use transform="matrix(0.049382716049382706,0,0,0.049382716049382706,0,0)" xlink:href="#aT"/><use transform="matrix(0.049382716049382706,0,0,0.049382716049382706,3.9012345679012337,0)" xlink:href="#aR"/><use transform="matrix(0.049382716049382706,0,0,0.049382716049382706,13.777777777777775,0)" xlink:href="#aS"/><use transform="matrix(0.049382716049382706,0,0,0.049382716049382706,23.654320987654316,0)" xlink:href="#ba"/><use transform="matrix(0.049382716049382706,0,0,0.049382716049382706,33.53086419753086,0)" xlink:href="#bl"/></g><g id="aa"><use transform="matrix(0.049382716049382706,0,0,0.049382716049382706,0,0)" xlink:href="#aU"/><use transform="matrix(0.049382716049382706,0,0,0.049382716049382706,4.93827160493827,0)" xlink:href="#aZ"/><use transform="matrix(0.049382716049382706,0,0,0.049382716049382706,14.814814814814811,0)" xlink:href="#bg"/></g><g id="ab"><use transform="matrix(0.049382716049382706,0,0,0.049382716049382706,0,0)" xlink:href="#bc"/><use transform="matrix(0.049382716049382706,0,0,0.049382716049382706,14.765432098765428,0)" xlink:href="#aZ"/><use transform="matrix(0.049382716049382706,0,0,0.049382716049382706,24.641975308641968,0)" xlink:href="#aU"/><use transform="matrix(0.049382716049382706,0,0,0.049382716049382706,29.58024691358024,0)" xlink:href="#bd"/><use transform="matrix(0.049382716049382706,0,0,0.049382716049382706,38.469135802469125,0)" xlink:href="#be"/></g><path fill="#3a414a" d="M115-194c55 1 70 41 70 98S169 2 115 4C84 4 66-9 55-30l1 105H24l-1-265h31l2 30c10-21 28-34 59-34zm-8 174c40 0 45-34 45-75s-6-73-45-74c-42 0-51 32-51 76 0 43 10 73 51 73" id="bm"/><path fill="#3a414a" d="M24-231v-30h32v30H24zM-9 49c24 4 33-6 33-30v-209h32V24c2 40-23 58-65 49V49" id="bn"/><g id="ac"><use transform="matrix(0.049382716049382706,0,0,0.049382716049382706,0,0)" xlink:href="#bm"/><use transform="matrix(0.049382716049382706,0,0,0.049382716049382706,9.87654320987654,0)" xlink:href="#bb"/><use transform="matrix(0.049382716049382706,0,0,0.049382716049382706,15.75308641975308,0)" xlink:href="#aQ"/><use transform="matrix(0.049382716049382706,0,0,0.049382716049382706,25.629629629629626,0)" xlink:href="#bn"/><use transform="matrix(0.049382716049382706,0,0,0.049382716049382706,29.530864197530857,0)" xlink:href="#ba"/><use transform="matrix(0.049382716049382706,0,0,0.049382716049382706,39.4074074074074,0)" xlink:href="#bd"/><use transform="matrix(0.049382716049382706,0,0,0.049382716049382706,48.29629629629628,0)" xlink:href="#aU"/><use transform="matrix(0.049382716049382706,0,0,0.049382716049382706,53.234567901234556,0)" xlink:href="#aW"/><use transform="matrix(0.049382716049382706,0,0,0.049382716049382706,58.17283950617283,0)" xlink:href="#aZ"/><use transform="matrix(0.049382716049382706,0,0,0.049382716049382706,68.04938271604937,0)" xlink:href="#bk"/><use transform="matrix(0.049382716049382706,0,0,0.049382716049382706,77.92592592592591,0)" xlink:href="#aZ"/><use transform="matrix(0.049382716049382706,0,0,0.049382716049382706,87.80246913580245,0)" xlink:href="#bd"/></g><path fill="#3a414a" d="M240 0l2-218c-23 76-54 145-80 218h-23L58-218 59 0H30v-248h44l77 211c21-75 51-140 76-211h43V0h-30" id="bo"/><g id="ad"><use transform="matrix(0.049382716049382706,0,0,0.049382716049382706,0,0)" xlink:href="#bo"/><use transform="matrix(0.049382716049382706,0,0,0.049382716049382706,14.765432098765428,0)" xlink:href="#aZ"/><use transform="matrix(0.049382716049382706,0,0,0.049382716049382706,24.641975308641968,0)" xlink:href="#bb"/><use transform="matrix(0.049382716049382706,0,0,0.049382716049382706,30.51851851851851,0)" xlink:href="#bf"/><use transform="matrix(0.049382716049382706,0,0,0.049382716049382706,39.4074074074074,0)" xlink:href="#ba"/><use transform="matrix(0.049382716049382706,0,0,0.049382716049382706,49.283950617283935,0)" xlink:href="#aU"/><use transform="matrix(0.049382716049382706,0,0,0.049382716049382706,54.222222222222214,0)" xlink:href="#aT"/><use transform="matrix(0.049382716049382706,0,0,0.049382716049382706,58.12345679012345,0)" xlink:href="#aR"/><use transform="matrix(0.049382716049382706,0,0,0.049382716049382706,67.99999999999999,0)" xlink:href="#bg"/></g><path fill="#3a414a" d="M63-220v92h138v28H63V0H30v-248h175v28H63" id="bp"/><g id="ae"><use transform="matrix(0.049382716049382706,0,0,0.049382716049382706,0,0)" xlink:href="#bp"/><use transform="matrix(0.049382716049382706,0,0,0.049382716049382706,10.814814814814813,0)" xlink:href="#aT"/><use transform="matrix(0.049382716049382706,0,0,0.049382716049382706,14.716049382716047,0)" xlink:href="#aR"/><use transform="matrix(0.049382716049382706,0,0,0.049382716049382706,24.592592592592588,0)" xlink:href="#aZ"/><use transform="matrix(0.049382716049382706,0,0,0.049382716049382706,34.469135802469125,0)" xlink:href="#aR"/><use transform="matrix(0.049382716049382706,0,0,0.049382716049382706,44.34567901234567,0)" xlink:href="#bd"/><use transform="matrix(0.049382716049382706,0,0,0.049382716049382706,53.234567901234556,0)" xlink:href="#ba"/></g><g id="af"><use transform="matrix(0.049382716049382706,0,0,0.049382716049382706,0,0)" xlink:href="#bm"/><use transform="matrix(0.049382716049382706,0,0,0.049382716049382706,9.87654320987654,0)" xlink:href="#bb"/><use transform="matrix(0.049382716049382706,0,0,0.049382716049382706,15.75308641975308,0)" xlink:href="#aQ"/><use transform="matrix(0.049382716049382706,0,0,0.049382716049382706,25.629629629629626,0)" xlink:href="#bn"/><use transform="matrix(0.049382716049382706,0,0,0.049382716049382706,29.530864197530857,0)" xlink:href="#ba"/><use transform="matrix(0.049382716049382706,0,0,0.049382716049382706,39.4074074074074,0)" xlink:href="#bd"/><use transform="matrix(0.049382716049382706,0,0,0.049382716049382706,48.29629629629628,0)" xlink:href="#aU"/><use transform="matrix(0.049382716049382706,0,0,0.049382716049382706,53.234567901234556,0)" xlink:href="#aW"/><use transform="matrix(0.049382716049382706,0,0,0.049382716049382706,58.17283950617283,0)" xlink:href="#aZ"/><use transform="matrix(0.049382716049382706,0,0,0.049382716049382706,68.04938271604937,0)" xlink:href="#bk"/><use transform="matrix(0.049382716049382706,0,0,0.049382716049382706,77.92592592592591,0)" xlink:href="#aZ"/><use transform="matrix(0.049382716049382706,0,0,0.049382716049382706,87.80246913580245,0)" xlink:href="#bd"/></g><g id="ag"><use transform="matrix(0.049382716049382706,0,0,0.049382716049382706,0,0)" xlink:href="#bm"/><use transform="matrix(0.049382716049382706,0,0,0.049382716049382706,9.87654320987654,0)" xlink:href="#bb"/><use transform="matrix(0.049382716049382706,0,0,0.049382716049382706,15.75308641975308,0)" xlink:href="#aQ"/><use transform="matrix(0.049382716049382706,0,0,0.049382716049382706,25.629629629629626,0)" xlink:href="#bn"/><use transform="matrix(0.049382716049382706,0,0,0.049382716049382706,29.530864197530857,0)" xlink:href="#ba"/><use transform="matrix(0.049382716049382706,0,0,0.049382716049382706,39.4074074074074,0)" xlink:href="#bd"/><use transform="matrix(0.049382716049382706,0,0,0.049382716049382706,48.29629629629628,0)" xlink:href="#aU"/><use transform="matrix(0.049382716049382706,0,0,0.049382716049382706,53.234567901234556,0)" xlink:href="#aW"/><use transform="matrix(0.049382716049382706,0,0,0.049382716049382706,58.17283950617283,0)" xlink:href="#aR"/><use transform="matrix(0.049382716049382706,0,0,0.049382716049382706,68.04938271604937,0)" xlink:href="#aQ"/><use transform="matrix(0.049382716049382706,0,0,0.049382716049382706,77.92592592592591,0)" xlink:href="#aU"/><use transform="matrix(0.049382716049382706,0,0,0.049382716049382706,82.86419753086417,0)" xlink:href="#aZ"/><use transform="matrix(0.049382716049382706,0,0,0.049382716049382706,92.74074074074072,0)" xlink:href="#bk"/><use transform="matrix(0.049382716049382706,0,0,0.049382716049382706,102.61728395061726,0)" xlink:href="#aZ"/><use transform="matrix(0.049382716049382706,0,0,0.049382716049382706,112.49382716049381,0)" xlink:href="#bd"/></g></defs></g></svg>