<svg xmlns="http://www.w3.org/2000/svg" xmlns:xlink="http://www.w3.org/1999/xlink" xmlns:lucid="lucid" width="1348.72" height="731.1"><g transform="translate(4.166666666666668 180.5)" lucid:page-tab-id="OYUVIK_lgUKk"><path d="M0-500h1500V500H0z" fill="#fff"/><path d="M340-154a6 6 0 0 1 6-6h908a6 6 0 0 1 6 6v600.42a6 6 0 0 1-6 6H346a6 6 0 0 1-6-6z" stroke="#3a414a" fill="#fff"/><path d="M520-91.42a6 6 0 0 1 6-6h643.3a6 6 0 0 1 6 6v458a6 6 0 0 1-6 6H526a6 6 0 0 1-6-6z" stroke="#3a414a" fill="#fff"/><path d="M735.3-41.42a6 6 0 0 1 6-6h308a6 6 0 0 1 6 6v248a6 6 0 0 1-6 6h-308a6 6 0 0 1-6-6z" stroke="#3a414a" fill="#fff"/><path d="M1015.3 225.34c0 .24.1.42.27.54l4.1 2.4 6.94 4.26c.3.12.65.06.82-.24l2.34-4.2c.13-.3.04-.6-.22-.78l-8.13-4.86c-.16-.12-.27-.3-.27-.54v-38.58c0-.24.1-.42.28-.54l8.14-4.86c.26-.18.35-.48.22-.78l-2.34-4.2c-.16-.3-.52-.42-.8-.3l-6.8 4.14-4.25 2.52c-.17.12-.27.3-.27.54v45.48z" stroke="#000" stroke-opacity="0" fill="#949494"/><path d="M1021.07 183.02l.22-.22 8.1-4.86.1-.05c.2-.18.27-.5.1-.74l-2.32-4.2-.05-.1c-.15-.28-.47-.36-.73-.2l-6.8 4.15-4.2 2.52s-.17 0-.2.23l3.16 1.9zM1029.43 227.23l-8.13-4.87c-.1-.1-.18-.2-.24-.34l-5.73 3.75h.17l4.07 2.43 7.07 4.17c.03 0 .04.03.07.04.27.15.6.02.72-.26l2.33-4.2c0-.02 0-.04.03-.06.07-.28-.1-.56-.35-.65z" stroke="#000" stroke-opacity="0" fill="#a3a3a3"/><path d="M1075.3 225.34c0 .24-.1.42-.28.54l-4.1 2.4-6.94 4.26c-.3.12-.63.06-.8-.24l-2.35-4.2c-.13-.3-.04-.6.22-.78l8.13-4.86c.18-.12.28-.3.28-.54v-38.58c0-.24-.1-.42-.28-.54l-8.13-4.86c-.26-.18-.35-.48-.22-.78l2.34-4.2c.15-.3.5-.42.8-.3l6.8 4.08 4.25 2.52c.17.12.28.3.28.54v45.54z" stroke="#000" stroke-opacity="0" fill="#949494"/><path d="M1069.52 183.02l-.2-.22-8.12-4.86c-.25-.12-.38-.42-.26-.7l.04-.08 2.34-4.2c.08-.3.38-.45.66-.34.04 0 .07.03.1.05l6.8 4.07 4.2 2.5.22.23-3.17 1.9zM1061.17 227.23l8.1-4.87c.13-.1.2-.2.25-.34l5.72 3.75-4.06 2.43-7.05 4.17c-.23.17-.56.1-.73-.16-.02 0-.03-.03-.05-.06l-2.32-4.2c-.15-.24-.07-.55.14-.7z" stroke="#000" stroke-opacity="0" fill="#a3a3a3"/><path d="M1064.02 191.12v22.95l-18.78 11.55v-22.97l18.78-11.53z" stroke="#000" stroke-opacity="0" fill="#32bedd"/><path d="M1064.02 191.1l-18.75 11.54-18.75-11.55 18.75-11.56 18.75 11.55z" stroke="#000" stroke-opacity="0" fill="#9cebff"/><path d="M1045.24 202.68v22.94l-18.72-11.55v-22.95l18.72 11.56z" stroke="#000" stroke-opacity="0" fill="#50e6ff"/><path d="M1026.52 214.1l18.72-11.46v22.98l-18.72-11.53z" stroke="#000" stroke-opacity="0" fill="#9cebff"/><path d="M1064.02 214.1l-18.78-11.46v22.98l18.78-11.53z" stroke="#000" stroke-opacity="0" fill="#50e6ff"/><path d="M1027.4 172.96h35.83l-1.98 4.4 8.7 5.1.2 40.1-8.65 5 2.22 4.27-.5.47h-35.83l2.02-4.56-8.76-5.46.1-39.88 8.6-4.8-2.3-4.16z" stroke="#000" stroke-opacity="0" fill-opacity="0"/><use xlink:href="#a" transform="matrix(1,0,0,1,985.2958333333333,241.58333333333334) translate(-49.8 14.4)"/><path d="M1193.14 355.98c2.88-2.64 2.88-6.96 0-9.6l-12.64-11.82c-2.88-2.64-7.52-2.64-10.4 0l-12.64 11.82c-2.88 2.64-2.88 6.96 0 9.6l11.12 10.38v19.98l6.72 6.24 5.84-5.4v-.06l3.4-3.18-3.4-3.18 3.4-3.12-3.4-3.18 3.4-3.12-3.4-3.18v-.96l12-11.22zm-17.84-18.54c2.32-.06 4.2 1.68 4.24 3.78.04 2.16-1.8 3.9-4.08 3.96h-.16c-2.32-.06-4.12-1.8-4.08-3.96.04-2.1 1.84-3.78 4.08-3.78z" stroke="#000" stroke-opacity="0" stroke-width="3" fill="#fcd116"/><path d="M1171.72 385.33l2.62 2.4V368.6l-2.62-1.2z" stroke="#000" stroke-opacity="0" stroke-width="3" fill="#ff8c00" fill-opacity=".4"/><path d="M1162.87 348.92h24.05v3.22h-24.05zm0 5.23h24.05v3.22h-24.05z" stroke="#000" stroke-opacity="0" stroke-width="3" fill="#fff" fill-opacity=".5"/><use xlink:href="#b" transform="matrix(1,0,0,1,1125.2958333333333,401.58333333333337) translate(0.5749999999999957 14.4)"/><path d="M534.78 26.5a6 6 0 0 1 6-6h62.7a6 6 0 0 1 6 6V54a6 6 0 0 1-6 6h-62.7a6 6 0 0 1-6-6z" stroke="#000" stroke-opacity="0" fill="#fff" fill-opacity="0"/><use xlink:href="#c" transform="matrix(1,0,0,1,539.7817708333333,25.5) translate(6.049999999999997 18.15)"/><path d="M20-85.42a12 12 0 0 1 12-12h256a12 12 0 0 1 12 12v446a12 12 0 0 1-12 12H32a12 12 0 0 1-12-12z" stroke="#dfe3e8" stroke-width="2" fill="#fff"/><path d="M89.06-5.62c1.24-1.22 1.24-3.23 0-4.46l-5.44-5.5c-1.23-1.22-3.23-1.22-4.47 0l-5.44 5.5c-1.23 1.23-1.23 3.24 0 4.46L78.5-.8v9.3l2.9 2.9 2.5-2.5v-.03l1.46-1.48-1.46-1.5 1.46-1.44-1.46-1.48 1.46-1.45L83.9.05V-.4l5.16-5.22zm-7.67-8.62c.98-.03 1.8.78 1.8 1.76.03 1-.76 1.8-1.74 1.84h-.07c-1-.03-1.8-.83-1.77-1.84.02-.98.8-1.76 1.76-1.76z" stroke="#000" stroke-opacity="0" stroke-width="3" fill="#fcd116"/><path d="M79.85 8.04l1.12 1.1V.25L79.85-.3z" stroke="#000" stroke-opacity="0" stroke-width="3" fill="#ff8c00" fill-opacity=".4"/><path d="M76.04-8.9h10.34v1.5H76.05zm0 2.43h10.34v1.5H76.05z" stroke="#000" stroke-opacity="0" stroke-width="3" fill="#fff" fill-opacity=".5"/><path d="M81.42 40.78c-.05 0-.08 0-.13-.04L73.07 36c-.07-.05-.12-.13-.12-.22 0-.1.05-.17.12-.2l8.16-4.73c.08-.04.16-.04.25 0l8.2 4.75c.07.04.12.13.12.2 0 .1-.05.2-.12.23l-8.16 4.7c-.04.04-.1.05-.12.05" stroke="#000" stroke-opacity="0" fill="#3999c6"/><path d="M80.23 52.32c-.04 0-.08 0-.13-.03l-8.17-4.75c-.1-.04-.13-.12-.13-.2v-9.5c0-.1.04-.18.13-.23.07-.04.16-.04.24 0l8.2 4.75c.06.04.1.1.1.2v9.5c0 .1-.04.18-.1.22l-.14.02M82.55 52.32c-.04 0-.1 0-.13-.03-.08-.05-.12-.14-.12-.23v-9.43c0-.1.04-.17.12-.22l8.18-4.73c.08-.06.18-.06.25 0 .07.03.13.12.13.2v9.44c0 .1-.05.17-.13.2l-8.18 4.75-.12.02" stroke="#000" stroke-opacity="0" fill="#59b4d9"/><path d="M82.55 52.32c-.04 0-.1 0-.13-.03-.08-.05-.12-.14-.12-.23v-9.43c0-.1.04-.17.12-.22l8.18-4.73c.08-.06.18-.06.25 0 .07.03.13.12.13.2v9.44c0 .1-.05.17-.13.2l-8.18 4.75-.12.02" stroke="#000" stroke-opacity="0" fill="#fff" fill-opacity=".5"/><path d="M72.77 53.38c-.14 0-.28-.05-.4-.12l-3.83-2.2c-.64-.37-1.1-1.18-1.1-1.92V35.06c0-.74.46-1.55 1.1-1.9l3.82-2.23c.4-.22.9-.1 1.1.3.24.38.1.88-.28 1.1l-3.83 2.2c-.13.1-.3.38-.3.53v14.08c0 .16.17.42.3.52l3.83 2.2c.38.23.52.73.3 1.1-.16.28-.43.42-.7.42zM90 30.82c.14 0 .28.05.4.1l3.83 2.22c.64.37 1.1 1.18 1.1 1.92v14.08c0 .74-.46 1.55-1.1 1.9l-3.82 2.22c-.38.23-.88.1-1.1-.3-.22-.37-.1-.87.3-1.1l3.82-2.2c.14-.1.3-.37.3-.52V35.06c0-.16-.16-.43-.3-.52l-3.82-2.2c-.4-.23-.52-.73-.3-1.1.15-.28.43-.42.7-.42z" stroke="#000" stroke-opacity="0" fill="#7a7a7a"/><path d="M72.7 31.32l17.3.02 4.33 3.03.24 15.37-4.88 3.2-17-.1-4.6-3.04s-.08-15.63.05-15.58c.1.06 4.56-2.9 4.56-2.9z" stroke="#000" stroke-opacity="0" stroke-width="0" fill-opacity="0"/><path d="M67.44 87.33h5.8v5.8h-5.8v-5.8zM67.44 79.77h5.8v5.8h-5.8v-5.8zM67.44 94.88h5.8v5.8h-5.8v-5.8zM75 94.88h5.8v5.8H75v-5.8zM82.55 94.88h5.8v5.8h-5.8v-5.8z" stroke="#000" stroke-opacity="0" fill="#a0a1a2"/><path d="M85.17 72.8C79.47 72.8 75 77.26 75 82.96v10.17h10.17c5.7 0 10.17-4.48 10.17-10.17 0-5.7-4.48-10.18-10.17-10.18z" stroke="#000" stroke-opacity="0" fill="#0072c6"/><path d="M79.06 81.5h1.75v6.4h-1.74v-6.4zM83.13 83.26h1.75v4.65h-1.75v-4.64zM87.2 79.2h1.74v8.7H87.2v-8.7z" stroke="#000" stroke-opacity="0" fill="#fff"/><path d="M67.86 80.2v20.03h20.1l.06-8.72 6.4-8.22-2.53-6.34-6.35-3.44-5.77 2.62-3.56 4z" stroke="#000" stroke-opacity="0" stroke-width="0" fill-opacity="0"/><path d="M91.9 145.34c1.25 0 2.27-1 2.27-2.24v-.26c-.92-7.1-4.96-12.87-12.78-12.87-7.84 0-11.98 4.88-12.78 12.88-.02 0-.02.02-.02.02-.1 1.24.82 2.35 2.07 2.47H91.9z" stroke="#000" stroke-opacity="0" fill="url(#d)"/><path d="M81.38 131.66c-1.44 0-2.67-.36-3.88-1.14l3.88 9.97 3.82-9.92c-1.2.75-2.4 1.1-3.82 1.08z" stroke="#000" stroke-opacity="0" fill="#ef0"/><path d="M88.57 124.54c0 3.92-3.2 7.1-7.16 7.1-3.94 0-7.15-3.18-7.15-7.1 0-3.92 3.2-7.1 7.16-7.1 3.97 0 7.17 3.18 7.17 7.1z" stroke="#000" stroke-opacity="0" fill="url(#e)"/><path d="M89.6 188.9h.05c1.17-.02 2.12-.98 2.12-2.16v-.25c-.85-6.8-4.75-12.36-12.17-12.36s-11.36 4.7-12.16 12.37c-.1 1.2.75 2.26 1.97 2.4h20.2z" stroke="#000" stroke-opacity="0" fill="url(#f)"/><path d="M79.75 175.75c-1.4 0-2.56-.34-3.72-1.08l3.58 9.57 3.66-9.5c-1.12.67-2.22 1-3.52 1z" stroke="#000" stroke-opacity="0" fill="#fff"/><path d="M86.52 168.93c0 3.78-3.07 6.85-6.85 6.85s-6.85-3.07-6.85-6.85 3.07-6.85 6.85-6.85 6.85 3.07 6.85 6.85z" stroke="#000" stroke-opacity="0" fill="url(#g)"/><path d="M95.34 179.52v6.97l-5.97 3.5V183l5.97-3.5z" stroke="#000" stroke-opacity="0" fill="#32bedd"/><path d="M95.34 179.54l-6 3.5-5.97-3.5 5.98-3.5 6 3.5z" stroke="#000" stroke-opacity="0" fill="#9cebff"/><path d="M89.34 183.02V190l-5.97-3.5v-6.98l5.97 3.5z" stroke="#000" stroke-opacity="0" fill="#50e6ff"/><path d="M83.37 186.5l5.97-3.46V190l-5.97-3.5z" stroke="#000" stroke-opacity="0" fill="#9cebff"/><path d="M95.34 186.5l-5.97-3.46V190l5.97-3.5z" stroke="#000" stroke-opacity="0" fill="#50e6ff"/><path d="M85.23 236.42c0 2.14-1.74 3.88-3.88 3.88-2.14 0-3.88-1.74-3.88-3.88 0-2.14 1.74-3.87 3.88-3.87 2.14 0 3.88 1.73 3.88 3.87zM89.7 232.8c0 1.04-.85 1.9-1.9 1.9-1.04 0-1.9-.86-1.9-1.9 0-1.05.86-1.9 1.9-1.9 1.05 0 1.9.85 1.9 1.9zM89.7 240.05c0 1.05-.85 1.9-1.9 1.9-1.04 0-1.9-.85-1.9-1.9 0-1.05.86-1.9 1.9-1.9 1.05 0 1.9.85 1.9 1.9zM93.83 242.63c0 .9-.73 1.62-1.62 1.62-.9 0-1.6-.72-1.6-1.62 0-.9.7-1.6 1.6-1.6.9 0 1.63.7 1.63 1.6zM93.76 230.23c0 .86-.7 1.55-1.55 1.55-.85 0-1.54-.7-1.54-1.55 0-.85.7-1.55 1.55-1.55.86 0 1.56.7 1.56 1.55zM93.76 236.42c0 .86-.7 1.55-1.55 1.55-.85 0-1.54-.7-1.54-1.55 0-.85.7-1.55 1.55-1.55.86 0 1.56.7 1.56 1.55z" stroke="#000" stroke-opacity="0" stroke-width="8.33" fill="#59b4d9"/><path d="M88.2 226.94c0 .6-.5 1.1-1.13 1.1-.6 0-1.1-.5-1.1-1.1-.02-.62.5-1.12 1.1-1.12.62 0 1.12.5 1.12 1.12z" stroke="#000" stroke-opacity="0" stroke-width="8.33" fill="#3999c6"/><path d="M81.4 247.8l-10.2-5.72v-11.33l10.2-5.72 5.08 2.85 1.12-1.93-6.2-3.48-12.45 6.97v13.95l12.44 6.97 6.2-3.5-1.12-1.9z" stroke="#000" stroke-opacity="0" stroke-width="8.33" fill="#3999c6"/><path d="M88.2 245.9c0 .6-.5 1.1-1.13 1.1-.6 0-1.1-.5-1.1-1.1-.02-.62.5-1.12 1.1-1.12.62 0 1.12.5 1.12 1.12z" stroke="#000" stroke-opacity="0" stroke-width="8.33" fill="#3999c6"/><path d="M81.4 222.47l-12.45 6.97v13.95l12.44 6.97 6.2-3.5 4.7-2.7.63-.2.62-.58.18-1.15v-12.28l-.5-.9-.47-.27z" stroke="#000" stroke-opacity="0" stroke-width=".01" fill-opacity="0"/><path d="M85.4 278.13c0 2.1-2.2 3.84-4.95 3.84-2.7 0-4.92-1.73-4.92-3.84 0-2.1 2.2-3.84 4.92-3.84 2.74 0 4.95 1.72 4.95 3.83zm5.7-3.6c0 1.05-1.07 1.9-2.45 1.9-1.3 0-2.4-.85-2.4-1.9 0-1.02 1.1-1.88 2.44-1.88 1.33 0 2.4.86 2.4 1.9zm0 7.2c0 1.02-1.07 1.87-2.45 1.87-1.3 0-2.4-.85-2.4-1.9 0-1.02 1.1-1.87 2.44-1.87 1.33 0 2.4.85 2.4 1.88zm5.25 2.53c0 .92-.9 1.6-2.04 1.6-1.16 0-2.06-.7-2.06-1.6 0-.88.93-1.57 2.07-1.57 1.15 0 2.05.68 2.05 1.56zM96.3 272c0 .85-.92 1.54-2 1.54-1.1 0-1.96-.7-1.96-1.55 0-.82.87-1.52 1.97-1.52 1.08 0 2 .67 2 1.5zm0 6.13c0 .85-.92 1.54-2 1.54-1.1 0-1.96-.7-1.96-1.54 0-.85.87-1.54 1.97-1.54 1.08 0 2 .68 2 1.53z" stroke="#000" stroke-opacity="0" stroke-width="8.33" fill="#59b4d9"/><path d="M89.16 268.75c0 .6-.6 1.1-1.4 1.1-.82 0-1.45-.5-1.45-1.1 0-.63.64-1.1 1.45-1.1.8 0 1.4.5 1.4 1.1z" stroke="#000" stroke-opacity="0" stroke-width="8.33" fill="#3999c6"/><path d="M80.52 289.4l-13.03-5.67v-11.2l13.02-5.66 6.5 2.83 1.4-1.92-7.9-3.46-15.88 6.92v13.78l15.88 6.92 7.9-3.46-1.4-1.92z" stroke="#000" stroke-opacity="0" stroke-width="8.33" fill="#3999c6"/><path d="M89.16 287.5c0 .63-.6 1.1-1.4 1.1-.82 0-1.45-.5-1.45-1.1 0-.6.64-1.1 1.45-1.1.8 0 1.4.5 1.4 1.1z" stroke="#000" stroke-opacity="0" stroke-width="8.33" fill="#3999c6"/><path d="M80.52 264.32l-15.88 6.92v13.78l15.88 6.92 7.9-3.46 6-2.68.8-.18.77-.6.22-1.13v-12.16l-.64-.88-.6-.28z" stroke="#000" stroke-opacity="0" stroke-width=".01" fill-opacity="0"/><path d="M90.73 288.38c-.04 0-.07 0-.1-.03l-6.36-3.05c-.07-.03-.1-.1-.1-.13 0-.06.03-.12.06-.12l6.33-3.05c.07-.03.13-.03.2 0l6.36 3.05c.07.03.1.1.1.13 0 .1-.03.12-.1.15l-6.32 3.02c-.04.03-.07.03-.07.03" stroke="#000" stroke-opacity="0" fill="#3999c6"/><path d="M89.8 295.78c-.04 0-.08 0-.08-.03l-6.36-3.02c-.06-.04-.1-.1-.1-.13v-6.1c0-.07.03-.13.1-.16h.2l6.33 3.05c.06.02.1.05.1.12v6.1c0 .06-.04.13-.1.13l-.1.03m1.8 0c-.03 0-.07 0-.1-.03-.07 0-.1-.07-.1-.13v-6.04c0-.06.03-.13.1-.16l6.33-3.05h.23c.03.03.07.1.07.16v6.04c0 .06-.03.12-.07.16l-6.36 3-.1.05" stroke="#000" stroke-opacity="0" fill="#59b4d9"/><path d="M91.6 295.78c-.03 0-.07 0-.1-.03-.07 0-.1-.07-.1-.13v-6.04c0-.06.03-.13.1-.16l6.33-3.05h.23c.03.03.07.1.07.16v6.04c0 .06-.03.12-.07.16l-6.36 3-.1.05" stroke="#000" stroke-opacity="0" fill="#fff" fill-opacity=".5"/><path d="M84.43 285.1l6.23-2.94 6.23 2.92 1 1.42-.04 6.07-6.13 2.96-2 .03-6.27-3.02-.06-6.07z" stroke="#000" stroke-opacity="0" stroke-width="0" fill-opacity="0"/><path d="M86.97 323.58l-.16.4-5-6-.4.36-.44-.36-5 6-.15-.4-3.3 7.94 1.03.43 2.28-5.46 2.28 5.45 1.03-.43-2.65-6.4 4.94-5.9 4.93 5.9-2.67 6.4 1.03.43 2.27-5.46 2.27 5.45 1.03-.43-3.3-7.94z" stroke="#000" stroke-opacity="0" stroke-width="3" fill="#7fba00"/><path d="M91.43 331.74c0 .92-.75 1.67-1.67 1.67-.93 0-1.68-.74-1.68-1.66 0-.93.75-1.68 1.68-1.68.92 0 1.67.75 1.67 1.68zM85.85 331.74c0 .92-.75 1.67-1.67 1.67-.93 0-1.68-.74-1.68-1.66 0-.93.75-1.68 1.68-1.68.92 0 1.67.75 1.67 1.68z" stroke="#000" stroke-opacity="0" stroke-width="3" fill="#3999c6"/><path d="M84.18 318.34c0 1.54-1.25 2.8-2.8 2.8-1.53 0-2.78-1.26-2.78-2.8 0-1.54 1.25-2.8 2.8-2.8 1.53 0 2.78 1.26 2.78 2.8z" stroke="#000" stroke-opacity="0" stroke-width="3" fill="#804998"/><path d="M78.04 325.04c0 1.23-1 2.23-2.23 2.23s-2.23-1-2.23-2.23c0-1.24 1-2.24 2.24-2.24 1.24 0 2.24 1 2.24 2.24zM89.2 325.04c0 1.23-1 2.23-2.23 2.23s-2.23-1-2.23-2.23c0-1.24 1-2.24 2.23-2.24s2.23 1 2.23 2.24z" stroke="#000" stroke-opacity="0" stroke-width="3" fill="#0072c6"/><path d="M80.27 331.74c0 .92-.75 1.67-1.67 1.67-.93 0-1.68-.74-1.68-1.66 0-.93.75-1.68 1.68-1.68.92 0 1.67.75 1.67 1.68zM74.7 331.74c0 .92-.76 1.67-1.68 1.67-.93 0-1.68-.74-1.68-1.66 0-.93.75-1.68 1.68-1.68.92 0 1.67.75 1.67 1.68z" stroke="#000" stroke-opacity="0" stroke-width="3" fill="#3999c6"/><path d="M72.74 336.98c-.14-.02-.25-.04-.4-.1l-3.8-2.24c-.7-.4-1.08-1.08-1.1-1.9v-14.07c0-.8.4-1.5 1.1-1.9l3.8-2.23c.4-.22.9-.1 1.12.3.23.38.1.87-.28 1.1l-3.8 2.23c-.16.14-.24.3-.27.5v14.07c.04.2.12.36.3.5l3.78 2.23c.4.23.5.75.28 1.13-.16.22-.42.36-.72.38zm17.3-22.55c.14.02.25.04.4.1l3.78 2.24c.7.4 1.1 1.1 1.12 1.9v14.07c0 .8-.42 1.5-1.12 1.9l-3.8 2.23c-.38.23-.9.1-1.1-.3-.23-.38-.1-.87.27-1.1l3.8-2.23h-.02c.17-.14.26-.3.28-.5v-14.07c-.02-.2-.1-.36-.27-.5l-3.8-2.23c-.4-.23-.5-.74-.3-1.13.2-.2.43-.35.74-.37z" stroke="#000" stroke-opacity="0" stroke-width="3" fill="#7a7a7a"/><path d="M68.22 317.8l4.47-2.8 17.5-.08 4.3 2.72.06 15.43-4.5 3.43h-17.4l-4.52-3.22z" stroke="#000" stroke-opacity="0" stroke-width="0" fill-opacity="0"/><use xlink:href="#h" transform="matrix(1,0,0,1,64.644977440038,-63.93293358663816) translate(0 20.32706104556923)"/><use xlink:href="#i" transform="matrix(1,0,0,1,114.87057706008076,-19.287956146600152) translate(0 20.387307225313066)"/><use xlink:href="#j" transform="matrix(1,0,0,1,114.87057706008076,25.357021293437853) translate(0 20.387307225313066)"/><use xlink:href="#k" transform="matrix(1,0,0,1,114.87057706008076,25.357021293437853) translate(69.07826969427884 20.387307225313066)"/><use xlink:href="#l" transform="matrix(1,0,0,1,114.87057706008076,70.00199873347586) translate(0 11.46381135413807)"/><use xlink:href="#m" transform="matrix(1,0,0,1,114.87057706008076,70.00199873347586) translate(24.84637103471185 11.46381135413807)"/><use xlink:href="#n" transform="matrix(1,0,0,1,114.87057706008076,70.00199873347586) translate(0 28.330947805131032)"/><use xlink:href="#o" transform="matrix(1,0,0,1,114.87057706008076,114.64697617351385) translate(0 11.46381135413807)"/><use xlink:href="#p" transform="matrix(1,0,0,1,114.87057706008076,114.64697617351385) translate(36.87911357866516 11.46381135413807)"/><use xlink:href="#q" transform="matrix(1,0,0,1,114.87057706008076,114.64697617351385) translate(75.8524212873989 11.46381135413807)"/><use xlink:href="#r" transform="matrix(1,0,0,1,114.87057706008076,114.64697617351385) translate(0 28.330947805131032)"/><use xlink:href="#s" transform="matrix(1,0,0,1,114.87057706008076,159.29195361355184) translate(0 17.86405740378343)"/><use xlink:href="#t" transform="matrix(1,0,0,1,114.87057706008076,159.29195361355184) translate(46.388635210553026 17.86405740378343)"/><use xlink:href="#u" transform="matrix(1,0,0,1,114.87057706008076,159.29195361355184) translate(95.41146626078134 17.86405740378343)"/><use xlink:href="#v" transform="matrix(1,0,0,1,114.87057706008076,159.29195361355184) translate(0 39.08049575994782)"/><use xlink:href="#o" transform="matrix(1,0,0,1,114.87057706008076,219.6742856012033) translate(0 19.897379579634553)"/><use xlink:href="#w" transform="matrix(1,0,0,1,114.87057706008076,219.6742856012033) translate(36.87911357866516 19.897379579634553)"/><use xlink:href="#r" transform="matrix(1,0,0,1,114.87057706008076,219.6742856012033) translate(74.43262865684395 19.897379579634553)"/><use xlink:href="#o" transform="matrix(1,0,0,1,114.87057706008076,264.31926304124136) translate(0 19.897379579634553)"/><use xlink:href="#w" transform="matrix(1,0,0,1,114.87057706008076,264.31926304124136) translate(36.87911357866516 19.897379579634553)"/><use xlink:href="#x" transform="matrix(1,0,0,1,114.87057706008076,264.31926304124136) translate(74.43262865684395 19.897379579634553)"/><use xlink:href="#y" transform="matrix(1,0,0,1,114.87057706008076,308.9642404812794) translate(0 20.387307225313066)"/><use xlink:href="#z" transform="matrix(1,0,0,1,114.87057706008076,308.9642404812794) translate(92.69477215386134 20.387307225313066)"/><path d="M835.3 55.08h25v25h-25v-25zM835.3 22.58h25v25h-25v-25zM835.3 87.58h25v25h-25v-25zM867.8 87.58h25v25h-25v-25zM900.3 87.58h25v25h-25v-25z" stroke="#000" stroke-opacity="0" fill="#a0a1a2"/><path d="M911.55-7.42c-24.5 0-43.75 19.25-43.75 43.75v43.75h43.75c24.5 0 43.75-19.25 43.75-43.75S936.05-7.42 911.55-7.42z" stroke="#000" stroke-opacity="0" fill="#0072c6"/><path d="M885.3 30.08h7.5v27.5h-7.5v-27.5zM902.8 37.58h7.5v20h-7.5v-20zM920.3 20.08h7.5v37.5h-7.5v-37.5z" stroke="#000" stroke-opacity="0" fill="#fff"/><path d="M837.1 24.47v86.12h86.48l.22-37.5 27.53-35.4-10.85-27.26-27.3-14.83-24.8 11.28-15.3 17.24z" stroke="#000" stroke-opacity="0" stroke-width="0" fill-opacity="0"/><use xlink:href="#A" transform="matrix(1,0,0,1,805.2958333333333,121.58333333333334) translate(51.55 14.4)"/><path d="M588.57 22.58c1.96 0 3.56-1.45 3.56-3.2v-.02V19C590.7 8.8 584.37.53 572.13.53s-18.72 7-19.96 18.47c-.04 0-.04.04-.04.04-.16 1.78 1.28 3.37 3.24 3.54h33.2z" stroke="#000" stroke-opacity="0" fill="url(#B)"/><path d="M572.12 2.97c-2.25 0-4.18-.5-6.07-1.63l6.07 14.28 5.97-14.2C576.2 2.5 574.33 3 572.1 2.98z" stroke="#000" stroke-opacity="0" fill="#ef0"/><path d="M583.37-7.24c0 5.62-5 10.18-11.2 10.18-6.18 0-11.2-4.56-11.2-10.18s5.02-10.18 11.2-10.18c6.2 0 11.2 4.56 11.2 10.18z" stroke="#000" stroke-opacity="0" fill="url(#C)"/><path d="M700.75 19.1h.07c1.67-.02 3.03-1.25 3.03-2.77v-.32C702.63 7.28 697.05.16 686.4.16c-10.63 0-16.28 6.02-17.43 15.88-.14 1.54 1.08 2.9 2.83 3.07h28.95z" stroke="#000" stroke-opacity="0" fill="url(#D)"/><path d="M686.62 2.22c-1.98 0-3.67-.43-5.33-1.4l5.12 12.3 5.23-12.2c-1.6.87-3.17 1.27-5.03 1.3z" stroke="#000" stroke-opacity="0" fill="#fff"/><path d="M696.33-6.54c0 4.86-4.4 8.8-9.82 8.8-5.4 0-9.8-3.94-9.8-8.8 0-4.85 4.4-8.8 9.8-8.8 5.43 0 9.83 3.95 9.83 8.8z" stroke="#000" stroke-opacity="0" fill="url(#E)"/><path d="M708.97 7.06V16l-8.56 4.5v-8.95l8.57-4.5z" stroke="#000" stroke-opacity="0" fill="#32bedd"/><path d="M708.97 7.08l-8.58 4.5-8.6-4.5 8.6-4.5 8.57 4.5z" stroke="#000" stroke-opacity="0" fill="#9cebff"/><path d="M700.37 11.55v8.95L691.8 16V7.07l8.57 4.5z" stroke="#000" stroke-opacity="0" fill="#50e6ff"/><path d="M691.8 16.02l8.57-4.44v8.92l-8.56-4.48z" stroke="#000" stroke-opacity="0" fill="#9cebff"/><path d="M708.97 16.02l-8.56-4.44v8.92l8.57-4.48z" stroke="#000" stroke-opacity="0" fill="#50e6ff"/><path d="M581.93 2.58h78.25" stroke="#3a414a" fill="none"/><path d="M581.94 2.9l-.9-.55-.85-.27h1.74z" stroke="#3a414a" stroke-width=".05" fill="#3a414a"/><path d="M674.95 2.58l-14.27 4.64v-9.27z" stroke="#3a414a" fill="#3a414a"/><path d="M407.9 120c0 3.08-2.97 5.56-6.63 5.56-3.67 0-6.65-2.48-6.65-5.55 0-3.06 2.98-5.55 6.64-5.55 3.67 0 6.65 2.5 6.65 5.56zM415.58 114.8c0 1.5-1.46 2.73-3.26 2.73-1.8 0-3.25-1.22-3.25-2.72 0-1.5 1.46-2.7 3.25-2.7 1.8 0 3.26 1.2 3.26 2.7zM415.58 125.2c0 1.5-1.46 2.73-3.26 2.73-1.8 0-3.25-1.22-3.25-2.72 0-1.5 1.46-2.7 3.25-2.7 1.8 0 3.26 1.2 3.26 2.7zM422.65 128.9c0 1.3-1.25 2.33-2.78 2.33-1.53 0-2.77-1.04-2.77-2.32 0-1.27 1.24-2.3 2.77-2.3s2.78 1.03 2.78 2.3zM422.53 111.14c0 1.22-1.2 2.22-2.66 2.22-1.47 0-2.66-1-2.66-2.22 0-1.23 1.2-2.23 2.67-2.23s2.66 1 2.66 2.24zM422.53 120c0 1.24-1.2 2.23-2.66 2.23-1.47 0-2.66-1-2.66-2.22 0-1.22 1.2-2.2 2.67-2.2s2.66.98 2.66 2.2z" stroke="#000" stroke-opacity="0" stroke-width="8.33" fill="#59b4d9"/><path d="M412.98 106.4c0 .9-.86 1.6-1.9 1.6-1.07 0-1.93-.7-1.93-1.6 0-.87.86-1.6 1.92-1.6s1.9.73 1.9 1.6z" stroke="#000" stroke-opacity="0" stroke-width="8.33" fill="#3999c6"/><path d="M401.33 136.32l-17.5-8.2v-16.24l17.5-8.2 8.73 4.08 1.92-2.76-10.65-5L380 110v20l21.33 10 10.65-5-1.92-2.76z" stroke="#000" stroke-opacity="0" stroke-width="8.33" fill="#3999c6"/><path d="M412.98 133.6c0 .87-.86 1.6-1.9 1.6-1.07 0-1.93-.73-1.93-1.6 0-.9.86-1.6 1.92-1.6s1.9.7 1.9 1.6z" stroke="#000" stroke-opacity="0" stroke-width="8.33" fill="#3999c6"/><path d="M401.32 100L380 110v20l21.32 10 10.66-5 8.03-3.88 1.12-.28 1.06-.84.3-1.64v-17.6l-.86-1.28-.8-.4z" stroke="#000" stroke-opacity="0" stroke-width=".01" fill-opacity="0"/><use xlink:href="#F" transform="matrix(1,0,0,1,350,149) translate(7.024999999999999 14.4)"/><use xlink:href="#G" transform="matrix(1,0,0,1,350,149) translate(27.55 36)"/><path d="M490.56 120c0 3.08-2.98 5.56-6.65 5.56-3.65 0-6.63-2.48-6.63-5.55 0-3.06 2.98-5.55 6.64-5.55 3.68 0 6.66 2.5 6.66 5.56zM498.23 114.8c0 1.5-1.46 2.73-3.26 2.73-1.8 0-3.25-1.22-3.25-2.72 0-1.5 1.45-2.7 3.25-2.7s3.25 1.2 3.25 2.7zM498.23 125.2c0 1.5-1.46 2.73-3.26 2.73-1.8 0-3.25-1.22-3.25-2.72 0-1.5 1.45-2.7 3.25-2.7s3.25 1.2 3.25 2.7zM505.3 128.9c0 1.3-1.25 2.33-2.78 2.33-1.53 0-2.77-1.04-2.77-2.32 0-1.27 1.24-2.3 2.77-2.3s2.78 1.03 2.78 2.3zM505.18 111.14c0 1.22-1.2 2.22-2.66 2.22-1.47 0-2.66-1-2.66-2.22 0-1.23 1.2-2.23 2.66-2.23 1.47 0 2.66 1 2.66 2.24zM505.18 120c0 1.24-1.2 2.23-2.66 2.23-1.47 0-2.66-1-2.66-2.22 0-1.22 1.2-2.2 2.66-2.2 1.47 0 2.66.98 2.66 2.2z" stroke="#000" stroke-opacity="0" stroke-width="8.33" fill="#59b4d9"/><path d="M495.63 106.4c0 .9-.86 1.6-1.9 1.6-1.07 0-1.93-.7-1.93-1.6 0-.87.86-1.6 1.92-1.6 1.05 0 1.9.73 1.9 1.6z" stroke="#000" stroke-opacity="0" stroke-width="8.33" fill="#3999c6"/><path d="M483.98 136.32l-17.5-8.2v-16.24l17.5-8.2 8.73 4.08 1.93-2.76-10.65-5-21.33 10v20l21.33 10 10.65-5-1.92-2.76z" stroke="#000" stroke-opacity="0" stroke-width="8.33" fill="#3999c6"/><path d="M495.63 133.6c0 .87-.86 1.6-1.9 1.6-1.07 0-1.93-.73-1.93-1.6 0-.9.86-1.6 1.92-1.6 1.05 0 1.9.7 1.9 1.6z" stroke="#000" stroke-opacity="0" stroke-width="8.33" fill="#3999c6"/><path d="M483.97 100l-21.32 10v20l21.32 10 10.66-5 8.03-3.88 1.1-.28 1.06-.84.3-1.64v-17.6l-.85-1.28-.8-.4z" stroke="#000" stroke-opacity="0" stroke-width=".01" fill-opacity="0"/><path d="M497.7 134.85c-.04 0-.08 0-.13-.04l-8.56-4.4c-.06-.04-.12-.12-.12-.2 0-.08.06-.16.13-.2l8.52-4.4c.1-.03.17-.03.26 0l8.57 4.43c.07.04.12.12.12.2 0 .1-.05.16-.12.2l-8.52 4.38c-.03.04-.08.05-.12.05" stroke="#000" stroke-opacity="0" fill="#3999c6"/><path d="M496.47 145.58c-.04 0-.1 0-.13-.02l-8.54-4.4c-.08-.06-.12-.13-.12-.2v-8.84c0-.1.04-.17.12-.2.08-.05.18-.05.26 0l8.54 4.4c.08.04.13.1.13.2v8.83c0 .08-.05.16-.13.2-.04.02-.08.03-.13.03M498.9 145.58c-.05 0-.1 0-.14-.02-.1-.05-.13-.13-.13-.2v-8.78c0-.08.04-.16.13-.2l8.53-4.4c.07-.05.17-.05.25 0 .08.03.13.1.13.2v8.76c0 .1-.05.17-.13.2l-8.53 4.42-.13.02" stroke="#000" stroke-opacity="0" fill="#59b4d9"/><path d="M498.9 145.58c-.05 0-.1 0-.14-.02-.1-.05-.13-.13-.13-.2v-8.78c0-.08.04-.16.13-.2l8.53-4.4c.07-.05.17-.05.25 0 .08.03.13.1.13.2v8.76c0 .1-.05.17-.13.2l-8.53 4.42-.13.02" stroke="#000" stroke-opacity="0" fill="#fff" fill-opacity=".5"/><path d="M489.28 130.13l8.32-4.3 8.42 4.26 1.36 2.03-.04 8.8-8.24 4.3-2.7.02-8.43-4.35-.07-8.8z" stroke="#000" stroke-opacity="0" stroke-width="0" fill-opacity="0"/><path d="M422.97 120.6h23.3" stroke="#3a414a" fill="none"/><path d="M423 121.1h-.53v-.98l.02-.02h.5z" stroke="#3a414a" stroke-width=".05" fill="#3a414a"/><path d="M461.03 120.6l-14.27 4.63v-9.27z" stroke="#3a414a" fill="#3a414a"/><path d="M1282 444.35l-.34 1.04-10.74-15.95-.92.96-.92-.95-10.74 15.94-.34-1.05-7.1 21.1 2.2 1.16 4.9-14.52 4.9 14.53 2.2-1.14-5.72-17 10.62-15.74 10.62 15.75-5.73 17 2.2 1.14 4.9-14.52 4.9 14.53 2.2-1.14-7.1-21.1z" stroke="#000" stroke-opacity="0" stroke-width="3" fill="#7fba00"/><path d="M1291.6 466.04c0 2.46-1.6 4.45-3.6 4.45s-3.6-2-3.6-4.46 1.6-4.46 3.6-4.46 3.6 2 3.6 4.46zM1279.6 466.04c0 2.46-1.6 4.45-3.6 4.45s-3.6-2-3.6-4.46 1.6-4.46 3.6-4.46 3.6 2 3.6 4.46z" stroke="#000" stroke-opacity="0" stroke-width="3" fill="#3999c6"/><path d="M1276 430.4c0 4.1-2.7 7.42-6 7.42s-6-3.32-6-7.42 2.7-7.43 6-7.43 6 3.33 6 7.43z" stroke="#000" stroke-opacity="0" stroke-width="3" fill="#804998"/><path d="M1262.8 448.22c0 3.28-2.15 5.94-4.8 5.94s-4.8-2.66-4.8-5.94c0-3.28 2.15-5.94 4.8-5.94s4.8 2.66 4.8 5.94zM1286.8 448.22c0 3.28-2.15 5.94-4.8 5.94s-4.8-2.66-4.8-5.94c0-3.28 2.15-5.94 4.8-5.94s4.8 2.66 4.8 5.94z" stroke="#000" stroke-opacity="0" stroke-width="3" fill="#0072c6"/><path d="M1267.6 466.04c0 2.46-1.6 4.45-3.6 4.45s-3.6-2-3.6-4.46 1.6-4.46 3.6-4.46 3.6 2 3.6 4.46zM1255.6 466.04c0 2.46-1.6 4.45-3.6 4.45s-3.6-2-3.6-4.46 1.6-4.46 3.6-4.46 3.6 2 3.6 4.46z" stroke="#000" stroke-opacity="0" stroke-width="3" fill="#3999c6"/><path d="M1251.4 480c-.3-.06-.54-.12-.84-.3l-8.16-5.94c-1.5-1.08-2.34-2.88-2.4-5.04v-37.44c0-2.16.9-3.96 2.4-5.04l8.16-5.94c.84-.6 1.92-.24 2.4.78s.18 2.34-.6 2.94l-8.16 5.94c-.36.36-.54.78-.6 1.32v37.44c.06.54.24.96.6 1.32l8.16 5.94c.84.6 1.08 1.98.6 3-.36.6-.9.96-1.56 1.02zm37.2-60c.3.06.54.12.84.3l8.16 5.94c1.5 1.08 2.34 2.88 2.4 5.04v37.44c0 2.16-.9 3.96-2.4 5.04l-8.16 5.94c-.84.6-1.92.24-2.4-.78s-.18-2.34.6-2.94l8.16-5.94c.36-.36.54-.78.6-1.32v-37.44c-.06-.54-.24-.96-.6-1.32l-8.16-5.94c-.84-.6-1.08-1.98-.6-3 .42-.6.9-.96 1.56-1.02z" stroke="#000" stroke-opacity="0" stroke-width="3" fill="#7a7a7a"/><path d="M1241.7 429l9.6-7.46 37.66-.23 9.26 7.24.12 41.04-9.72 9.13h-37.38l-9.7-8.54z" stroke="#000" stroke-opacity="0" stroke-width="0" fill-opacity="0"/><g><use xlink:href="#H" transform="matrix(1,0,0,1,1210,489) translate(7.549999999999997 14.4)"/><use xlink:href="#I" transform="matrix(1,0,0,1,1210,489) translate(35.025 36)"/></g><defs><path d="M114-163C36-179 61-72 57 0H25l-1-190h30c1 12-1 29 2 39 6-27 23-49 58-41v29" id="J"/><path d="M177-190C167-65 218 103 67 71c-23-6-38-20-44-43l32-5c15 47 100 32 89-28v-30C133-14 115 1 83 1 29 1 15-40 15-95c0-56 16-97 71-98 29-1 48 16 59 35 1-10 0-23 2-32h30zM94-22c36 0 50-32 50-73 0-42-14-75-50-75-39 0-46 34-46 75s6 73 46 73" id="K"/><path d="M16-82v-28h88v28H16" id="L"/><path d="M85-194c31 0 48 13 60 33l-1-100h32l1 261h-30c-2-10 0-23-3-31C134-8 116 4 85 4 32 4 16-35 15-94c0-66 23-100 70-100zm9 24c-40 0-46 34-46 75 0 40 6 74 45 74 42 0 51-32 51-76 0-42-9-74-50-73" id="M"/><path d="M100-194c63 0 86 42 84 106H49c0 40 14 67 53 68 26 1 43-12 49-29l28 8c-11 28-37 45-77 45C44 4 14-33 15-96c1-61 26-98 85-98zm52 81c6-60-76-77-97-28-3 7-6 17-6 28h103" id="N"/><path d="M210-169c-67 3-38 105-44 169h-31v-121c0-29-5-50-35-48C34-165 62-65 56 0H25l-1-190h30c1 10-1 24 2 32 10-44 99-50 107 0 11-21 27-35 58-36 85-2 47 119 55 194h-31v-121c0-29-5-49-35-48" id="O"/><path d="M100-194c62-1 85 37 85 99 1 63-27 99-86 99S16-35 15-95c0-66 28-99 85-99zM99-20c44 1 53-31 53-75 0-43-8-75-51-75s-53 32-53 75 10 74 51 75" id="P"/><path d="M115-194c55 1 70 41 70 98S169 2 115 4C84 4 66-9 55-30l1 105H24l-1-265h31l2 30c10-21 28-34 59-34zm-8 174c40 0 45-34 45-75s-6-73-45-74c-42 0-51 32-51 76 0 43 10 73 51 73" id="Q"/><path d="M24 0v-261h32V0H24" id="R"/><path d="M24-231v-30h32v30H24zM24 0v-190h32V0H24" id="S"/><path d="M96-169c-40 0-48 33-48 73s9 75 48 75c24 0 41-14 43-38l32 2c-6 37-31 61-74 61-59 0-76-41-82-99-10-93 101-131 147-64 4 7 5 14 7 22l-32 3c-4-21-16-35-41-35" id="T"/><path d="M179-190L93 31C79 59 56 82 12 73V49c39 6 53-20 64-50L1-190h34L92-34l54-156h33" id="U"/><path d="M117-194c89-4 53 116 60 194h-32v-121c0-31-8-49-39-48C34-167 62-67 57 0H25l-1-190h30c1 10-1 24 2 32 11-22 29-35 61-36" id="V"/><path d="M158-156l-14 65h45v19h-49L124 0h-19l15-72H56L41 0H22l15-72H2v-19h39l14-65H11v-19h48l15-71h20l-16 71h64l16-71h19l-16 71h37v19h-40zm-83 0L61-91h63l14-65H75" id="W"/><g id="a"><use transform="matrix(0.05,0,0,0.05,0,0)" xlink:href="#J"/><use transform="matrix(0.05,0,0,0.05,5.95,0)" xlink:href="#K"/><use transform="matrix(0.05,0,0,0.05,15.949999999999998,0)" xlink:href="#L"/><use transform="matrix(0.05,0,0,0.05,21.9,0)" xlink:href="#M"/><use transform="matrix(0.05,0,0,0.05,31.899999999999995,0)" xlink:href="#N"/><use transform="matrix(0.05,0,0,0.05,41.9,0)" xlink:href="#O"/><use transform="matrix(0.05,0,0,0.05,56.85,0)" xlink:href="#P"/><use transform="matrix(0.05,0,0,0.05,66.85,0)" xlink:href="#L"/><use transform="matrix(0.05,0,0,0.05,72.8,0)" xlink:href="#Q"/><use transform="matrix(0.05,0,0,0.05,82.8,0)" xlink:href="#P"/><use transform="matrix(0.05,0,0,0.05,92.8,0)" xlink:href="#R"/><use transform="matrix(0.05,0,0,0.05,96.75,0)" xlink:href="#S"/><use transform="matrix(0.05,0,0,0.05,100.7,0)" xlink:href="#T"/><use transform="matrix(0.05,0,0,0.05,109.7,0)" xlink:href="#U"/><use transform="matrix(0.05,0,0,0.05,118.7,0)" xlink:href="#L"/><use transform="matrix(0.05,0,0,0.05,124.65,0)" xlink:href="#M"/><use transform="matrix(0.05,0,0,0.05,134.65,0)" xlink:href="#N"/><use transform="matrix(0.05,0,0,0.05,144.65,0)" xlink:href="#V"/><use transform="matrix(0.05,0,0,0.05,154.65,0)" xlink:href="#U"/><use transform="matrix(0.05,0,0,0.05,163.65,0)" xlink:href="#L"/><use transform="matrix(0.05,0,0,0.05,169.6,0)" xlink:href="#W"/><use transform="matrix(0.05,0,0,0.05,179.6,0)" xlink:href="#W"/><use transform="matrix(0.05,0,0,0.05,189.6,0)" xlink:href="#W"/><use transform="matrix(0.05,0,0,0.05,199.6,0)" xlink:href="#W"/><use transform="matrix(0.05,0,0,0.05,209.60000000000002,0)" xlink:href="#W"/></g><path d="M185-189c-5-48-123-54-124 2 14 75 158 14 163 119 3 78-121 87-175 55-17-10-28-26-33-46l33-7c5 56 141 63 141-1 0-78-155-14-162-118-5-82 145-84 179-34 5 7 8 16 11 25" id="X"/><path d="M84 4C-5 8 30-112 23-190h32v120c0 31 7 50 39 49 72-2 45-101 50-169h31l1 190h-30c-1-10 1-25-2-33-11 22-28 36-60 37" id="Y"/><path d="M115-194c53 0 69 39 70 98 0 66-23 100-70 100C84 3 66-7 56-30L54 0H23l1-261h32v101c10-23 28-34 59-34zm-8 174c40 0 45-34 45-75 0-40-5-75-45-74-42 0-51 32-51 76 0 43 10 73 51 73" id="Z"/><path d="M135-143c-3-34-86-38-87 0 15 53 115 12 119 90S17 21 10-45l28-5c4 36 97 45 98 0-10-56-113-15-118-90-4-57 82-63 122-42 12 7 21 19 24 35" id="aa"/><path d="M59-47c-2 24 18 29 38 22v24C64 9 27 4 27-40v-127H5v-23h24l9-43h21v43h35v23H59v120" id="ab"/><g id="b"><use transform="matrix(0.05,0,0,0.05,0,0)" xlink:href="#X"/><use transform="matrix(0.05,0,0,0.05,12,0)" xlink:href="#Y"/><use transform="matrix(0.05,0,0,0.05,22,0)" xlink:href="#Z"/><use transform="matrix(0.05,0,0,0.05,32,0)" xlink:href="#aa"/><use transform="matrix(0.05,0,0,0.05,41,0)" xlink:href="#T"/><use transform="matrix(0.05,0,0,0.05,50,0)" xlink:href="#J"/><use transform="matrix(0.05,0,0,0.05,55.95,0)" xlink:href="#S"/><use transform="matrix(0.05,0,0,0.05,59.900000000000006,0)" xlink:href="#Q"/><use transform="matrix(0.05,0,0,0.05,69.9,0)" xlink:href="#ab"/><use transform="matrix(0.05,0,0,0.05,74.9,0)" xlink:href="#S"/><use transform="matrix(0.05,0,0,0.05,78.85000000000001,0)" xlink:href="#P"/><use transform="matrix(0.05,0,0,0.05,88.85000000000001,0)" xlink:href="#V"/></g><path d="M140-251c81 0 123 46 123 126C263-46 219 4 140 4 59 4 17-45 17-125s42-126 123-126zm0 227c63 0 89-41 89-101s-29-99-89-99c-61 0-89 39-89 99S79-25 140-24" id="ac"/><path d="M206 0h-36l-40-164L89 0H53L-1-190h32L70-26l43-164h34l41 164 42-164h31" id="ad"/><g id="c"><use transform="matrix(0.05,0,0,0.05,0,0)" xlink:href="#ac"/><use transform="matrix(0.05,0,0,0.05,14,0)" xlink:href="#ad"/><use transform="matrix(0.05,0,0,0.05,26.950000000000003,0)" xlink:href="#V"/><use transform="matrix(0.05,0,0,0.05,36.95,0)" xlink:href="#N"/><use transform="matrix(0.05,0,0,0.05,46.95,0)" xlink:href="#J"/></g><linearGradient gradientUnits="userSpaceOnUse" id="d" x1="81.38" y1="127.47" x2="81.38" y2="149.89"><stop offset="22%" stop-color="#21d400"/><stop offset="100%" stop-color="#088a00"/></linearGradient><linearGradient gradientUnits="userSpaceOnUse" id="e" x1="80.74" y1="116.27" x2="82.4" y2="136.72"><stop offset="22%" stop-color="#21d400"/><stop offset="100%" stop-color="#088a00"/></linearGradient><linearGradient gradientUnits="userSpaceOnUse" id="f" x1="79.62" y1="191.32" x2="79.62" y2="169.73"><stop offset="0%" stop-color="#5e9624"/><stop offset="100%" stop-color="#b4ec36"/></linearGradient><linearGradient gradientUnits="userSpaceOnUse" id="g" x1="79.67" y1="176.93" x2="79.67" y2="157.14"><stop offset="0%" stop-color="#5e9624"/><stop offset="100%" stop-color="#b4ec36"/></linearGradient><path d="M24 0v-248h52v208h133V0H24" id="ae"/><path d="M185-48c-13 30-37 53-82 52C43 2 14-33 14-96s30-98 90-98c62 0 83 45 84 108H66c0 31 8 55 39 56 18 0 30-7 34-22zm-45-69c5-46-57-63-70-21-2 6-4 13-4 21h74" id="af"/><path d="M195-6C206 82 75 100 31 46c-4-6-6-13-8-21l49-6c3 16 16 24 34 25 40 0 42-37 40-79-11 22-30 35-61 35-53 0-70-43-70-97 0-56 18-96 73-97 30 0 46 14 59 34l2-30h47zm-90-29c32 0 41-27 41-63 0-35-9-62-40-62-32 0-39 29-40 63 0 36 9 62 39 62" id="ag"/><path d="M135-194c87-1 58 113 63 194h-50c-7-57 23-157-34-157-59 0-34 97-39 157H25l-1-190h47c2 12-1 28 3 38 12-26 28-41 61-42" id="ah"/><path d="M88-194c31-1 46 15 58 34l-1-101h50l1 261h-48c-2-10 0-23-3-31C134-8 116 4 84 4 32 4 16-41 15-95c0-56 19-97 73-99zm17 164c33 0 40-30 41-66 1-37-9-64-41-64s-38 30-39 65c0 43 13 65 39 65" id="ai"/><g id="h"><use transform="matrix(0.04217232582068305,0,0,0.04217232582068305,0,0)" xlink:href="#ae"/><use transform="matrix(0.04217232582068305,0,0,0.04217232582068305,9.235739354729589,0)" xlink:href="#af"/><use transform="matrix(0.04217232582068305,0,0,0.04217232582068305,17.6702045188662,0)" xlink:href="#ag"/><use transform="matrix(0.04217232582068305,0,0,0.04217232582068305,26.90594387359579,0)" xlink:href="#af"/><use transform="matrix(0.04217232582068305,0,0,0.04217232582068305,35.3404090377324,0)" xlink:href="#ah"/><use transform="matrix(0.04217232582068305,0,0,0.04217232582068305,44.57614839246199,0)" xlink:href="#ai"/></g><g id="i"><use transform="matrix(0.04217232582068305,0,0,0.04217232582068305,0,0)" xlink:href="#X"/><use transform="matrix(0.04217232582068305,0,0,0.04217232582068305,10.121358196963934,0)" xlink:href="#Y"/><use transform="matrix(0.04217232582068305,0,0,0.04217232582068305,18.555823361100543,0)" xlink:href="#Z"/><use transform="matrix(0.04217232582068305,0,0,0.04217232582068305,26.99028852523716,0)" xlink:href="#aa"/><use transform="matrix(0.04217232582068305,0,0,0.04217232582068305,34.58130717296011,0)" xlink:href="#T"/><use transform="matrix(0.04217232582068305,0,0,0.04217232582068305,42.17232582068306,0)" xlink:href="#J"/><use transform="matrix(0.04217232582068305,0,0,0.04217232582068305,47.19083259334434,0)" xlink:href="#S"/><use transform="matrix(0.04217232582068305,0,0,0.04217232582068305,50.522446333178294,0)" xlink:href="#Q"/><use transform="matrix(0.04217232582068305,0,0,0.04217232582068305,58.956911497314906,0)" xlink:href="#ab"/><use transform="matrix(0.04217232582068305,0,0,0.04217232582068305,63.174144079383225,0)" xlink:href="#S"/><use transform="matrix(0.04217232582068305,0,0,0.04217232582068305,66.50575781921718,0)" xlink:href="#P"/><use transform="matrix(0.04217232582068305,0,0,0.04217232582068305,74.94022298335379,0)" xlink:href="#V"/><use transform="matrix(0.04217232582068305,0,0,0.04217232582068305,83.37468814749039,0)" xlink:href="#aa"/></g><path d="M233-177c-1 41-23 64-60 70L243 0h-38l-65-103H63V0H30v-248c88 3 205-21 203 71zM63-129c60-2 137 13 137-47 0-61-80-42-137-45v92" id="aj"/><g id="j"><use transform="matrix(0.04217232582068305,0,0,0.04217232582068305,0,0)" xlink:href="#aj"/><use transform="matrix(0.04217232582068305,0,0,0.04217232582068305,10.922632387556913,0)" xlink:href="#N"/><use transform="matrix(0.04217232582068305,0,0,0.04217232582068305,19.357097551693524,0)" xlink:href="#aa"/><use transform="matrix(0.04217232582068305,0,0,0.04217232582068305,26.948116199416475,0)" xlink:href="#P"/><use transform="matrix(0.04217232582068305,0,0,0.04217232582068305,35.382581363553086,0)" xlink:href="#Y"/><use transform="matrix(0.04217232582068305,0,0,0.04217232582068305,43.817046527689705,0)" xlink:href="#J"/><use transform="matrix(0.04217232582068305,0,0,0.04217232582068305,48.83555330035099,0)" xlink:href="#T"/><use transform="matrix(0.04217232582068305,0,0,0.04217232582068305,56.426571948073935,0)" xlink:href="#N"/></g><path d="M143 4C61 4 22-44 18-125c-5-107 100-154 193-111 17 8 29 25 37 43l-32 9c-13-25-37-40-76-40-61 0-88 39-88 99 0 61 29 100 91 101 35 0 62-11 79-27v-45h-74v-28h105v86C228-13 192 4 143 4" id="ak"/><g id="k"><use transform="matrix(0.04217232582068305,0,0,0.04217232582068305,0,0)" xlink:href="#ak"/><use transform="matrix(0.04217232582068305,0,0,0.04217232582068305,11.808251229791257,0)" xlink:href="#J"/><use transform="matrix(0.04217232582068305,0,0,0.04217232582068305,16.82675800245254,0)" xlink:href="#P"/><use transform="matrix(0.04217232582068305,0,0,0.04217232582068305,25.261223166589147,0)" xlink:href="#Y"/><use transform="matrix(0.04217232582068305,0,0,0.04217232582068305,33.695688330725766,0)" xlink:href="#Q"/><use transform="matrix(0.04217232582068305,0,0,0.04217232582068305,42.13015349486238,0)" xlink:href="#aa"/></g><path d="M30 0v-248h33v221h125V0H30" id="al"/><g id="l"><use transform="matrix(0.035494815763874074,0,0,0.035494815763874074,0,0)" xlink:href="#al"/><use transform="matrix(0.035494815763874074,0,0,0.035494815763874074,7.0989631527748145,0)" xlink:href="#P"/><use transform="matrix(0.035494815763874074,0,0,0.035494815763874074,14.197926305549629,0)" xlink:href="#K"/></g><path d="M205 0l-28-72H64L36 0H1l101-248h38L239 0h-34zm-38-99l-47-123c-12 45-31 82-46 123h93" id="am"/><path d="M141-36C126-15 110 5 73 4 37 3 15-17 15-53c-1-64 63-63 125-63 3-35-9-54-41-54-24 1-41 7-42 31l-33-3c5-37 33-52 76-52 45 0 72 20 72 64v82c-1 20 7 32 28 27v20c-31 9-61-2-59-35zM48-53c0 20 12 33 32 33 41-3 63-29 60-74-43 2-92-5-92 41" id="an"/><g id="m"><use transform="matrix(0.035494815763874074,0,0,0.035494815763874074,0,0)" xlink:href="#am"/><use transform="matrix(0.035494815763874074,0,0,0.035494815763874074,8.518755783329778,0)" xlink:href="#V"/><use transform="matrix(0.035494815763874074,0,0,0.035494815763874074,15.617718936104591,0)" xlink:href="#an"/><use transform="matrix(0.035494815763874074,0,0,0.035494815763874074,22.71668208887941,0)" xlink:href="#R"/><use transform="matrix(0.035494815763874074,0,0,0.035494815763874074,25.520772534225458,0)" xlink:href="#U"/><use transform="matrix(0.035494815763874074,0,0,0.035494815763874074,31.90983937172279,0)" xlink:href="#ab"/><use transform="matrix(0.035494815763874074,0,0,0.035494815763874074,35.4593209481102,0)" xlink:href="#S"/><use transform="matrix(0.035494815763874074,0,0,0.035494815763874074,38.263411393456245,0)" xlink:href="#T"/><use transform="matrix(0.035494815763874074,0,0,0.035494815763874074,44.65247823095358,0)" xlink:href="#aa"/></g><path d="M266 0h-40l-56-210L115 0H75L2-248h35L96-30l15-64 43-154h32l59 218 59-218h35" id="ao"/><path d="M143 0L79-87 56-68V0H24v-261h32v163l83-92h37l-77 82L181 0h-38" id="ap"/><g id="n"><use transform="matrix(0.035494815763874074,0,0,0.035494815763874074,0,0)" xlink:href="#ao"/><use transform="matrix(0.035494815763874074,0,0,0.035494815763874074,11.784278833606193,0)" xlink:href="#P"/><use transform="matrix(0.035494815763874074,0,0,0.035494815763874074,18.88324198638101,0)" xlink:href="#J"/><use transform="matrix(0.035494815763874074,0,0,0.035494815763874074,23.107125062282023,0)" xlink:href="#ap"/><use transform="matrix(0.035494815763874074,0,0,0.035494815763874074,29.496191899779358,0)" xlink:href="#aa"/><use transform="matrix(0.035494815763874074,0,0,0.035494815763874074,35.88525873727669,0)" xlink:href="#Q"/><use transform="matrix(0.035494815763874074,0,0,0.035494815763874074,42.984221890051515,0)" xlink:href="#an"/><use transform="matrix(0.035494815763874074,0,0,0.035494815763874074,50.083185042826315,0)" xlink:href="#T"/><use transform="matrix(0.035494815763874074,0,0,0.035494815763874074,56.472251880323654,0)" xlink:href="#N"/><use transform="matrix(0.035494815763874074,0,0,0.035494815763874074,63.57121503309847,0)" xlink:href="#aa"/></g><path d="M9 0v-24l116-142H16v-24h144v24L44-24h123V0H9" id="aq"/><g id="o"><use transform="matrix(0.035494815763874074,0,0,0.035494815763874074,0,0)" xlink:href="#am"/><use transform="matrix(0.035494815763874074,0,0,0.035494815763874074,8.518755783329778,0)" xlink:href="#aq"/><use transform="matrix(0.035494815763874074,0,0,0.035494815763874074,14.907822620827114,0)" xlink:href="#Y"/><use transform="matrix(0.035494815763874074,0,0,0.035494815763874074,22.00678577360193,0)" xlink:href="#J"/><use transform="matrix(0.035494815763874074,0,0,0.035494815763874074,26.230668849502944,0)" xlink:href="#N"/></g><path d="M160-131c35 5 61 23 61 61C221 17 115-2 30 0v-248c76 3 177-17 177 60 0 33-19 50-47 57zm-97-11c50-1 110 9 110-42 0-47-63-36-110-37v79zm0 115c55-2 124 14 124-45 0-56-70-42-124-44v89" id="ar"/><path d="M212-179c-10-28-35-45-73-45-59 0-87 40-87 99 0 60 29 101 89 101 43 0 62-24 78-52l27 14C228-24 195 4 139 4 59 4 22-46 18-125c-6-104 99-153 187-111 19 9 31 26 39 46" id="as"/><g id="p"><use transform="matrix(0.035494815763874074,0,0,0.035494815763874074,0,0)" xlink:href="#aj"/><use transform="matrix(0.035494815763874074,0,0,0.035494815763874074,9.193157282843385,0)" xlink:href="#ar"/><use transform="matrix(0.035494815763874074,0,0,0.035494815763874074,17.711913066173164,0)" xlink:href="#am"/><use transform="matrix(0.035494815763874074,0,0,0.035494815763874074,26.230668849502944,0)" xlink:href="#as"/></g><g id="q"><use transform="matrix(0.035494815763874074,0,0,0.035494815763874074,0,0)" xlink:href="#aj"/><use transform="matrix(0.035494815763874074,0,0,0.035494815763874074,9.193157282843385,0)" xlink:href="#P"/><use transform="matrix(0.035494815763874074,0,0,0.035494815763874074,16.2921204356182,0)" xlink:href="#R"/><use transform="matrix(0.035494815763874074,0,0,0.035494815763874074,19.09621088096425,0)" xlink:href="#N"/></g><path d="M30-248c118-7 216 8 213 122C240-48 200 0 122 0H30v-248zM63-27c89 8 146-16 146-99s-60-101-146-95v194" id="at"/><path d="M101-234c-31-9-42 10-38 44h38v23H63V0H32v-167H5v-23h27c-7-52 17-82 69-68v24" id="au"/><g id="r"><use transform="matrix(0.035494815763874074,0,0,0.035494815763874074,0,0)" xlink:href="#at"/><use transform="matrix(0.035494815763874074,0,0,0.035494815763874074,9.193157282843385,0)" xlink:href="#N"/><use transform="matrix(0.035494815763874074,0,0,0.035494815763874074,16.2921204356182,0)" xlink:href="#au"/><use transform="matrix(0.035494815763874074,0,0,0.035494815763874074,19.84160201200561,0)" xlink:href="#S"/><use transform="matrix(0.035494815763874074,0,0,0.035494815763874074,22.64569245735166,0)" xlink:href="#V"/><use transform="matrix(0.035494815763874074,0,0,0.035494815763874074,29.74465561012647,0)" xlink:href="#S"/><use transform="matrix(0.035494815763874074,0,0,0.035494815763874074,32.54874605547253,0)" xlink:href="#ab"/><use transform="matrix(0.035494815763874074,0,0,0.035494815763874074,36.09822763185993,0)" xlink:href="#S"/><use transform="matrix(0.035494815763874074,0,0,0.035494815763874074,38.90231807720598,0)" xlink:href="#P"/><use transform="matrix(0.035494815763874074,0,0,0.035494815763874074,46.0012812299808,0)" xlink:href="#V"/></g><g id="s"><use transform="matrix(0.04464738711314054,0,0,0.04464738711314054,0,0)" xlink:href="#am"/><use transform="matrix(0.04464738711314054,0,0,0.04464738711314054,10.715372907153732,0)" xlink:href="#aq"/><use transform="matrix(0.04464738711314054,0,0,0.04464738711314054,18.75190258751903,0)" xlink:href="#Y"/><use transform="matrix(0.04464738711314054,0,0,0.04464738711314054,27.68138001014714,0)" xlink:href="#J"/><use transform="matrix(0.04464738711314054,0,0,0.04464738711314054,32.99441907661087,0)" xlink:href="#N"/></g><g id="t"><use transform="matrix(0.04464738711314054,0,0,0.04464738711314054,0,0)" xlink:href="#aj"/><use transform="matrix(0.04464738711314054,0,0,0.04464738711314054,11.563673262303404,0)" xlink:href="#ar"/><use transform="matrix(0.04464738711314054,0,0,0.04464738711314054,22.279046169457136,0)" xlink:href="#am"/><use transform="matrix(0.04464738711314054,0,0,0.04464738711314054,32.99441907661087,0)" xlink:href="#as"/></g><g id="u"><use transform="matrix(0.04464738711314054,0,0,0.04464738711314054,0,0)" xlink:href="#aj"/><use transform="matrix(0.04464738711314054,0,0,0.04464738711314054,11.563673262303404,0)" xlink:href="#P"/><use transform="matrix(0.04464738711314054,0,0,0.04464738711314054,20.49315068493151,0)" xlink:href="#R"/><use transform="matrix(0.04464738711314054,0,0,0.04464738711314054,24.020294266869616,0)" xlink:href="#N"/></g><g id="v"><use transform="matrix(0.04464738711314054,0,0,0.04464738711314054,0,0)" xlink:href="#am"/><use transform="matrix(0.04464738711314054,0,0,0.04464738711314054,10.715372907153732,0)" xlink:href="#aa"/><use transform="matrix(0.04464738711314054,0,0,0.04464738711314054,18.75190258751903,0)" xlink:href="#aa"/><use transform="matrix(0.04464738711314054,0,0,0.04464738711314054,26.788432267884332,0)" xlink:href="#S"/><use transform="matrix(0.04464738711314054,0,0,0.04464738711314054,30.315575849822434,0)" xlink:href="#K"/><use transform="matrix(0.04464738711314054,0,0,0.04464738711314054,39.24505327245054,0)" xlink:href="#V"/><use transform="matrix(0.04464738711314054,0,0,0.04464738711314054,48.17453069507866,0)" xlink:href="#O"/><use transform="matrix(0.04464738711314054,0,0,0.04464738711314054,61.52409944190768,0)" xlink:href="#N"/><use transform="matrix(0.04464738711314054,0,0,0.04464738711314054,70.45357686453579,0)" xlink:href="#V"/><use transform="matrix(0.04464738711314054,0,0,0.04464738711314054,79.38305428716389,0)" xlink:href="#ab"/></g><path d="M30-248c87 1 191-15 191 75 0 78-77 80-158 76V0H30v-248zm33 125c57 0 124 11 124-50 0-59-68-47-124-48v98" id="av"/><g id="w"><use transform="matrix(0.035494815763874074,0,0,0.035494815763874074,0,0)" xlink:href="#av"/><use transform="matrix(0.035494815763874074,0,0,0.035494815763874074,8.518755783329778,0)" xlink:href="#P"/><use transform="matrix(0.035494815763874074,0,0,0.035494815763874074,15.617718936104591,0)" xlink:href="#R"/><use transform="matrix(0.035494815763874074,0,0,0.035494815763874074,18.421809381450643,0)" xlink:href="#S"/><use transform="matrix(0.035494815763874074,0,0,0.035494815763874074,21.225899826796695,0)" xlink:href="#T"/><use transform="matrix(0.035494815763874074,0,0,0.035494815763874074,27.61496666429403,0)" xlink:href="#U"/></g><g id="x"><use transform="matrix(0.035494815763874074,0,0,0.035494815763874074,0,0)" xlink:href="#am"/><use transform="matrix(0.035494815763874074,0,0,0.035494815763874074,8.518755783329778,0)" xlink:href="#aa"/><use transform="matrix(0.035494815763874074,0,0,0.035494815763874074,14.907822620827114,0)" xlink:href="#aa"/><use transform="matrix(0.035494815763874074,0,0,0.035494815763874074,21.296889458324447,0)" xlink:href="#S"/><use transform="matrix(0.035494815763874074,0,0,0.035494815763874074,24.1009799036705,0)" xlink:href="#K"/><use transform="matrix(0.035494815763874074,0,0,0.035494815763874074,31.199943056445314,0)" xlink:href="#V"/><use transform="matrix(0.035494815763874074,0,0,0.035494815763874074,38.29890620922013,0)" xlink:href="#O"/><use transform="matrix(0.035494815763874074,0,0,0.035494815763874074,48.91185612261848,0)" xlink:href="#N"/><use transform="matrix(0.035494815763874074,0,0,0.035494815763874074,56.010819275393295,0)" xlink:href="#V"/><use transform="matrix(0.035494815763874074,0,0,0.035494815763874074,63.1097824281681,0)" xlink:href="#ab"/></g><path d="M240 0l2-218c-23 76-54 145-80 218h-23L58-218 59 0H30v-248h44l77 211c21-75 51-140 76-211h43V0h-30" id="aw"/><g id="y"><use transform="matrix(0.04217232582068305,0,0,0.04217232582068305,0,0)" xlink:href="#aw"/><use transform="matrix(0.04217232582068305,0,0,0.04217232582068305,12.609525420384232,0)" xlink:href="#an"/><use transform="matrix(0.04217232582068305,0,0,0.04217232582068305,21.043990584520845,0)" xlink:href="#V"/><use transform="matrix(0.04217232582068305,0,0,0.04217232582068305,29.478455748657453,0)" xlink:href="#an"/><use transform="matrix(0.04217232582068305,0,0,0.04217232582068305,37.912920912794064,0)" xlink:href="#K"/><use transform="matrix(0.04217232582068305,0,0,0.04217232582068305,46.347386076930675,0)" xlink:href="#N"/><use transform="matrix(0.04217232582068305,0,0,0.04217232582068305,54.78185124106729,0)" xlink:href="#O"/><use transform="matrix(0.04217232582068305,0,0,0.04217232582068305,67.39137666145153,0)" xlink:href="#N"/><use transform="matrix(0.04217232582068305,0,0,0.04217232582068305,75.82584182558813,0)" xlink:href="#V"/><use transform="matrix(0.04217232582068305,0,0,0.04217232582068305,84.26030698972474,0)" xlink:href="#ab"/></g><g id="z"><use transform="matrix(0.04217232582068305,0,0,0.04217232582068305,0,0)" xlink:href="#ak"/><use transform="matrix(0.04217232582068305,0,0,0.04217232582068305,11.808251229791257,0)" xlink:href="#J"/><use transform="matrix(0.04217232582068305,0,0,0.04217232582068305,16.82675800245254,0)" xlink:href="#P"/><use transform="matrix(0.04217232582068305,0,0,0.04217232582068305,25.261223166589147,0)" xlink:href="#Y"/><use transform="matrix(0.04217232582068305,0,0,0.04217232582068305,33.695688330725766,0)" xlink:href="#Q"/></g><g id="A"><use transform="matrix(0.05,0,0,0.05,0,0)" xlink:href="#R"/><use transform="matrix(0.05,0,0,0.05,3.95,0)" xlink:href="#an"/><use transform="matrix(0.05,0,0,0.05,13.949999999999998,0)" xlink:href="#ad"/><use transform="matrix(0.05,0,0,0.05,26.899999999999995,0)" xlink:href="#W"/><use transform="matrix(0.05,0,0,0.05,36.9,0)" xlink:href="#W"/><use transform="matrix(0.05,0,0,0.05,46.9,0)" xlink:href="#W"/><use transform="matrix(0.05,0,0,0.05,56.900000000000006,0)" xlink:href="#W"/><use transform="matrix(0.05,0,0,0.05,66.9,0)" xlink:href="#W"/></g><linearGradient gradientUnits="userSpaceOnUse" id="B" x1="572.13" y1="-22.3" x2="572.13" y2="32.47"><stop offset="22%" stop-color="#21d400"/><stop offset="100%" stop-color="#088a00"/></linearGradient><linearGradient gradientUnits="userSpaceOnUse" id="C" x1="570.39" y1="-19.16" x2="574.71" y2="34.64"><stop offset="22%" stop-color="#21d400"/><stop offset="100%" stop-color="#088a00"/></linearGradient><linearGradient gradientUnits="userSpaceOnUse" id="D" x1="689.02" y1="24.88" x2="689.02" y2="-24.21"><stop offset="0%" stop-color="#5e9624"/><stop offset="100%" stop-color="#b4ec36"/></linearGradient><linearGradient gradientUnits="userSpaceOnUse" id="E" x1="688.97" y1="22.09" x2="688.97" y2="-26.16"><stop offset="0%" stop-color="#5e9624"/><stop offset="100%" stop-color="#b4ec36"/></linearGradient><g id="F"><use transform="matrix(0.05,0,0,0.05,0,0)" xlink:href="#M"/><use transform="matrix(0.05,0,0,0.05,10,0)" xlink:href="#N"/><use transform="matrix(0.05,0,0,0.05,20,0)" xlink:href="#V"/><use transform="matrix(0.05,0,0,0.05,30,0)" xlink:href="#U"/><use transform="matrix(0.05,0,0,0.05,39,0)" xlink:href="#am"/><use transform="matrix(0.05,0,0,0.05,51,0)" xlink:href="#T"/><use transform="matrix(0.05,0,0,0.05,60,0)" xlink:href="#ab"/><use transform="matrix(0.05,0,0,0.05,65,0)" xlink:href="#S"/><use transform="matrix(0.05,0,0,0.05,68.95,0)" xlink:href="#P"/><use transform="matrix(0.05,0,0,0.05,78.95,0)" xlink:href="#V"/></g><g id="G"><use transform="matrix(0.05,0,0,0.05,0,0)" xlink:href="#av"/><use transform="matrix(0.05,0,0,0.05,12,0)" xlink:href="#P"/><use transform="matrix(0.05,0,0,0.05,22,0)" xlink:href="#R"/><use transform="matrix(0.05,0,0,0.05,25.950000000000003,0)" xlink:href="#S"/><use transform="matrix(0.05,0,0,0.05,29.899999999999995,0)" xlink:href="#T"/><use transform="matrix(0.05,0,0,0.05,38.9,0)" xlink:href="#U"/></g><g id="H"><use transform="matrix(0.05,0,0,0.05,0,0)" xlink:href="#aw"/><use transform="matrix(0.05,0,0,0.05,14.950000000000001,0)" xlink:href="#an"/><use transform="matrix(0.05,0,0,0.05,24.950000000000003,0)" xlink:href="#V"/><use transform="matrix(0.05,0,0,0.05,34.95,0)" xlink:href="#an"/><use transform="matrix(0.05,0,0,0.05,44.95,0)" xlink:href="#K"/><use transform="matrix(0.05,0,0,0.05,54.95,0)" xlink:href="#N"/><use transform="matrix(0.05,0,0,0.05,64.95,0)" xlink:href="#O"/><use transform="matrix(0.05,0,0,0.05,79.9,0)" xlink:href="#N"/><use transform="matrix(0.05,0,0,0.05,89.9,0)" xlink:href="#V"/><use transform="matrix(0.05,0,0,0.05,99.9,0)" xlink:href="#ab"/></g><g id="I"><use transform="matrix(0.05,0,0,0.05,0,0)" xlink:href="#ak"/><use transform="matrix(0.05,0,0,0.05,14,0)" xlink:href="#J"/><use transform="matrix(0.05,0,0,0.05,19.95,0)" xlink:href="#P"/><use transform="matrix(0.05,0,0,0.05,29.950000000000003,0)" xlink:href="#Y"/><use transform="matrix(0.05,0,0,0.05,39.95,0)" xlink:href="#Q"/></g></defs></g></svg>