<svg xmlns="http://www.w3.org/2000/svg" xmlns:xlink="http://www.w3.org/1999/xlink" xmlns:lucid="lucid" width="1086.58" height="567.3"><g transform="translate(-136 -228)" lucid:page-tab-id="8MWVUbhl2AIT"><path d="M0 0h1500v1000H0z" fill="#fff"/><path d="M460 257.93a6 6 0 0 1 6-6h679.77a6 6 0 0 1 6 6v458a6 6 0 0 1-6 6H466a6 6 0 0 1-6-6z" stroke="#3a414a" fill="#fff"/><path d="M640 286a6 6 0 0 1 6-6h460.42a6 6 0 0 1 6 6v346.36a6 6 0 0 1-6 6H646a6 6 0 0 1-6-6z" stroke="#3a414a" fill="#fff"/><path d="M691.77 308.2a6 6 0 0 1 6-6h308a6 6 0 0 1 6 6v248a6 6 0 0 1-6 6h-308a6 6 0 0 1-6-6z" stroke="#3a414a" fill="#fff"/><path d="M980 575.17c0 .16.07.28.18.36l2.74 1.6 4.62 2.84c.2.08.43.04.54-.16l1.56-2.8c.1-.2.03-.4-.14-.5l-5.42-3.25c-.12-.08-.2-.2-.2-.36v-25.73c0-.16.08-.28.2-.36l5.42-3.23c.17-.12.23-.32.14-.52l-1.56-2.8c-.1-.2-.35-.28-.54-.2l-4.52 2.76-2.84 1.7c-.1.07-.18.2-.18.35v30.32z" stroke="#000" stroke-opacity="0" fill="#949494"/><path d="M983.85 546.96l.14-.15 5.4-3.23.07-.03c.14-.12.18-.34.07-.5l-1.55-2.8c-.02 0-.03-.04-.04-.06-.1-.18-.32-.24-.5-.12l-4.52 2.76-2.8 1.67s-.12 0-.14.14l2.1 1.28zM989.42 576.43l-5.4-3.25c-.1-.05-.14-.13-.18-.22l-3.82 2.5h.12l2.7 1.62 4.72 2.78.05.02c.18.1.4 0 .48-.18l1.55-2.8s0-.02.02-.03c.05-.2-.05-.38-.23-.44z" stroke="#000" stroke-opacity="0" fill="#a3a3a3"/><path d="M1020 575.17c0 .16-.07.28-.18.36l-2.74 1.6-4.62 2.84c-.2.08-.43.04-.54-.16l-1.56-2.8c-.1-.2-.03-.4.14-.5l5.42-3.25c.12-.08.2-.2.2-.36v-25.73c0-.16-.08-.28-.2-.36l-5.42-3.23c-.17-.12-.23-.32-.14-.52l1.56-2.8c.1-.2.33-.28.53-.2l4.53 2.72 2.84 1.68c.1.08.18.2.18.36v30.37z" stroke="#000" stroke-opacity="0" fill="#949494"/><path d="M1016.15 546.96l-.14-.15-5.4-3.23c-.16-.08-.25-.28-.17-.46l.03-.05 1.55-2.8c.07-.2.27-.3.45-.23.03 0 .05.02.08.04l4.53 2.7 2.8 1.68.14.15-2.1 1.26zM1010.58 576.43l5.4-3.25c.1-.05.13-.13.17-.22l3.8 2.5-2.7 1.62-4.7 2.78c-.15.1-.37.07-.48-.1l-.03-.06-1.55-2.8c-.1-.15-.06-.36.08-.47z" stroke="#000" stroke-opacity="0" fill="#a3a3a3"/><path d="M1012.48 552.36v15.3l-12.52 7.7v-15.32l12.52-7.68z" stroke="#000" stroke-opacity="0" fill="#32bedd"/><path d="M1012.48 552.34l-12.5 7.7-12.5-7.7 12.5-7.7 12.5 7.7z" stroke="#000" stroke-opacity="0" fill="#9cebff"/><path d="M999.96 560.07v15.3l-12.48-7.72v-15.3l12.48 7.72z" stroke="#000" stroke-opacity="0" fill="#50e6ff"/><path d="M987.48 567.67l12.48-7.63v15.32l-12.48-7.7z" stroke="#000" stroke-opacity="0" fill="#9cebff"/><path d="M1012.48 567.67l-12.52-7.63v15.32l12.52-7.7z" stroke="#000" stroke-opacity="0" fill="#50e6ff"/><path d="M988.06 540.25h23.9l-1.32 2.93 5.8 3.4.14 26.75-5.78 3.32 1.5 2.85-.34.3h-23.9l1.36-3.03-5.84-3.64.06-26.6 5.74-3.2-1.55-2.76z" stroke="#000" stroke-opacity="0" fill-opacity="0"/><use xlink:href="#a" transform="matrix(1,0,0,1,950,589) translate(-59.849999999999994 14.4)"/><path d="M1170.84 718.06c2.88-2.04 2.88-5.37 0-7.4l-12.64-9.13c-2.88-2.04-7.52-2.04-10.4 0l-12.64 9.12c-2.88 2.04-2.88 5.37 0 7.4l11.12 8.02v15.4l6.72 4.83 5.84-4.17v-.04l3.4-2.47-3.4-2.45 3.4-2.4-3.4-2.46 3.4-2.4-3.4-2.46v-.75l12-8.64zm-17.84-14.3c2.32-.06 4.2 1.3 4.24 2.9.04 1.67-1.8 3.02-4.08 3.06h-.16c-2.32-.04-4.12-1.4-4.08-3.05.04-1.62 1.84-2.92 4.08-2.92z" stroke="#000" stroke-opacity="0" stroke-width="3" fill="#fcd116"/><path d="M1149.42 740.7l2.62 1.86V727.8l-2.62-.94z" stroke="#000" stroke-opacity="0" stroke-width="3" fill="#ff8c00" fill-opacity=".4"/><path d="M1140.57 712.6h24.05v2.5h-24.05zm0 4.04h24.05v2.5h-24.05z" stroke="#000" stroke-opacity="0" stroke-width="3" fill="#fff" fill-opacity=".5"/><use xlink:href="#b" transform="matrix(1,0,0,1,1103,755.3000000000001) translate(0.5749999999999957 14.4)"/><path d="M160 264a12 12 0 0 1 12-12h256a12 12 0 0 1 12 12v446a12 12 0 0 1-12 12H172a12 12 0 0 1-12-12z" stroke="#dfe3e8" stroke-width="2" fill="#fff"/><path d="M235.37 352.2c1.35-1.35 1.35-3.54 0-4.88l-5.93-6c-1.35-1.34-3.53-1.34-4.9 0l-5.92 6c-1.35 1.34-1.35 3.53 0 4.87l5.22 5.26v10.14l3.16 3.16 2.74-2.74V368l1.6-1.62-1.6-1.62 1.6-1.58-1.6-1.6 1.6-1.6-1.6-1.6v-.5l5.63-5.7zm-8.37-9.42c1.1-.03 1.97.85 2 1.92 0 1.1-.86 1.98-1.93 2H227c-1.1-.02-1.94-.9-1.92-2 .02-1.07.86-1.92 1.92-1.92z" stroke="#000" stroke-opacity="0" stroke-width="3" fill="#fcd116"/><path d="M225.3 367.1l1.24 1.2v-9.7l-1.22-.62z" stroke="#000" stroke-opacity="0" stroke-width="3" fill="#ff8c00" fill-opacity=".4"/><path d="M221.16 348.6h11.3v1.64h-11.3zm0 2.66h11.3v1.63h-11.3z" stroke="#000" stroke-opacity="0" stroke-width="3" fill="#fff" fill-opacity=".5"/><path d="M227.03 402.83c-.05 0-.1 0-.14-.05l-8.98-5.17c-.07-.05-.13-.13-.13-.23s.05-.2.12-.23l8.9-5.15c.1-.06.2-.06.3 0l8.95 5.17c.07.05.13.14.13.23 0 .1-.06.2-.13.24l-8.9 5.14c-.04.04-.1.05-.14.05" stroke="#000" stroke-opacity="0" fill="#3999c6"/><path d="M225.74 415.42l-.15-.03-8.93-5.2c-.1-.04-.14-.12-.14-.2V399.6c0-.1.05-.2.14-.24.08-.05.18-.05.27 0l8.93 5.17c.1.05.13.13.13.23v10.37c0 .1-.04.2-.13.24l-.13.02M228.26 415.42l-.14-.03c-.08-.06-.13-.16-.13-.25v-10.3c0-.1.04-.2.12-.23l8.93-5.17c.1-.05.2-.05.28 0 .07.04.13.14.13.24v10.28c0 .1-.05.2-.13.24l-8.93 5.17-.14.02" stroke="#000" stroke-opacity="0" fill="#59b4d9"/><path d="M228.26 415.42l-.14-.03c-.08-.06-.13-.16-.13-.25v-10.3c0-.1.04-.2.12-.23l8.93-5.17c.1-.05.2-.05.28 0 .07.04.13.14.13.24v10.28c0 .1-.05.2-.13.24l-8.93 5.17-.14.02" stroke="#000" stroke-opacity="0" fill="#fff" fill-opacity=".5"/><path d="M217.6 416.57c-.16 0-.3-.05-.45-.12l-4.17-2.4c-.7-.4-1.2-1.3-1.2-2.1v-15.37c0-.8.5-1.7 1.2-2.1l4.17-2.4c.42-.25.97-.1 1.2.32.25.42.1.96-.3 1.2l-4.2 2.42c-.13.1-.3.4-.3.56v15.36c0 .18.16.47.3.57l4.2 2.42c.4.25.55.8.3 1.2-.15.3-.46.45-.76.45zM236.4 391.95c.15 0 .3.05.44.13l4.17 2.4c.7.4 1.22 1.3 1.22 2.1v15.36c0 .8-.5 1.7-1.2 2.1l-4.18 2.4c-.42.25-.97.1-1.2-.3-.25-.43-.1-.97.32-1.22l4.17-2.4c.15-.1.32-.4.32-.58v-15.36c0-.17-.17-.47-.32-.56l-4.17-2.42c-.43-.24-.57-.78-.33-1.2.16-.3.47-.45.77-.45z" stroke="#000" stroke-opacity="0" fill="#7a7a7a"/><path d="M217.52 392.5l18.9.02 4.7 3.3.26 16.78-5.32 3.5-18.54-.1-5.03-3.33s-.1-17.06.05-17c.1.06 4.97-3.17 4.97-3.17z" stroke="#000" stroke-opacity="0" stroke-width="0" fill-opacity="0"/><path d="M211.77 453.62h6.34v6.34h-6.33v-6.34zM211.77 445.37h6.34v6.35h-6.33v-6.35zM211.77 461.87h6.34v6.34h-6.33v-6.33zM220.02 461.87h6.34v6.34h-6.34v-6.33zM228.26 461.87h6.35v6.34h-6.34v-6.33z" stroke="#000" stroke-opacity="0" fill="#a0a1a2"/><path d="M231.12 437.76c-6.22 0-11.1 4.88-11.1 11.1v11.1h11.1c6.22 0 11.1-4.88 11.1-11.1s-4.88-11.1-11.1-11.1z" stroke="#000" stroke-opacity="0" fill="#0072c6"/><path d="M224.46 447.28h1.9v6.97h-1.9v-6.97zM228.9 449.18h1.9v5.07h-1.9v-5.07zM233.34 444.74h1.9v9.5h-1.9v-9.5z" stroke="#000" stroke-opacity="0" fill="#fff"/><path d="M212.23 445.85v21.86h21.94l.06-9.5 7-9-2.77-6.9-6.93-3.77-6.3 2.86-3.87 4.36z" stroke="#000" stroke-opacity="0" stroke-width="0" fill-opacity="0"/><path d="M238.47 516.94c1.37 0 2.48-1.1 2.48-2.45v-.3c-1-7.75-5.4-14.04-13.95-14.04-8.55 0-13.07 5.33-13.94 14.06h-.02c-.1 1.37.9 2.58 2.26 2.72h23.17z" stroke="#000" stroke-opacity="0" fill="url(#c)"/><path d="M227 502c-1.6 0-2.93-.4-4.25-1.23l4.24 10.87 4.15-10.8c-1.3.8-2.62 1.18-4.16 1.17z" stroke="#000" stroke-opacity="0" fill="#ef0"/><path d="M234.84 494.23c0 4.28-3.5 7.75-7.82 7.75-4.3 0-7.8-3.47-7.8-7.75 0-4.28 3.5-7.75 7.8-7.75 4.32 0 7.82 3.47 7.82 7.75z" stroke="#000" stroke-opacity="0" fill="url(#d)"/><path d="M235.96 564.47h.05c1.3 0 2.32-1.06 2.32-2.35v-.27c-.92-7.43-5.17-13.5-13.27-13.5s-12.4 5.13-13.28 13.5c-.1 1.32.82 2.48 2.15 2.62h22.04z" stroke="#000" stroke-opacity="0" fill="url(#e)"/><path d="M225.2 550.12c-1.5 0-2.8-.36-4.05-1.18l3.9 10.45 4-10.38c-1.23.74-2.43 1.08-3.85 1.1z" stroke="#000" stroke-opacity="0" fill="#fff"/><path d="M232.6 542.68c0 4.13-3.35 7.48-7.48 7.48-4.12 0-7.47-3.35-7.47-7.48 0-4.12 3.35-7.47 7.47-7.47 4.13 0 7.48 3.36 7.48 7.48z" stroke="#000" stroke-opacity="0" fill="url(#f)"/><path d="M242.22 554.24v7.6l-6.5 3.82v-7.6l6.5-3.82z" stroke="#000" stroke-opacity="0" fill="#32bedd"/><path d="M242.22 554.26l-6.53 3.82-6.54-3.82 6.53-3.83 6.52 3.83z" stroke="#000" stroke-opacity="0" fill="#9cebff"/><path d="M235.67 558.05v7.6l-6.5-3.8v-7.6l6.5 3.8z" stroke="#000" stroke-opacity="0" fill="#50e6ff"/><path d="M229.16 561.85l6.5-3.77v7.58l-6.5-3.8z" stroke="#000" stroke-opacity="0" fill="#9cebff"/><path d="M242.22 561.85l-6.5-3.77v7.58l6.5-3.8z" stroke="#000" stroke-opacity="0" fill="#50e6ff"/><path d="M228.97 602.83h.03c1.1-.02 1.94-.8 1.94-1.76v-.23c-.76-5.55-4.3-10.1-11.1-10.1-6.77 0-10.38 3.85-11.12 10.13-.07.98.7 1.85 1.8 1.96h18.45z" stroke="#000" stroke-opacity="0" fill="url(#g)"/><path d="M219.98 592.08c-1.28 0-2.34-.28-3.4-.9l3.25 7.84 3.36-7.77c-1.03.55-2.05.8-3.22.83z" stroke="#000" stroke-opacity="0" fill="#fff"/><path d="M226.16 586.5c0 3.1-2.82 5.6-6.25 5.6-3.47 0-6.24-2.5-6.24-5.6 0-3.1 2.77-5.6 6.25-5.6 3.44 0 6.25 2.5 6.25 5.6z" stroke="#000" stroke-opacity="0" fill="url(#h)"/><path d="M234.23 595.16v5.68l-5.48 2.88v-5.7l5.48-2.86z" stroke="#000" stroke-opacity="0" fill="#32bedd"/><path d="M234.23 595.18l-5.48 2.85-5.48-2.85 5.48-2.88 5.48 2.88z" stroke="#000" stroke-opacity="0" fill="#9cebff"/><path d="M228.75 598v5.72l-5.48-2.88v-5.68l5.48 2.87z" stroke="#000" stroke-opacity="0" fill="#50e6ff"/><path d="M223.27 600.87l5.48-2.84v5.7l-5.48-2.87z" stroke="#000" stroke-opacity="0" fill="#9cebff"/><path d="M234.23 600.87l-5.48-2.84v5.7l5.48-2.87z" stroke="#000" stroke-opacity="0" fill="#50e6ff"/><path d="M234.23 596.2c0-2.12 1.68-3.83 3.8-3.83h3.4c2.12 0 3.84 1.7 3.84 3.84v3.7c0 2.1-1.72 3.82-3.84 3.82h-3.4c-2.12 0-3.8-1.7-3.8-3.82z" stroke="#000" stroke-opacity="0" fill-opacity="0"/><path d="M235.33 593.5l8.84 9.08m0-9.07l-8.84 9.08" stroke="#e81313" stroke-width="8" fill-opacity="0"/><path d="M211.77 651.37h30.45v6.57h-30.45v-6.57zM211.77 659.82h14.3v6.56h-14.3v-6.56zM227.87 659.82h14.3v6.56h-14.3v-6.56zM211.77 668.26h8.9v6.56h-8.9v-6.56zM222.54 668.26h8.9v6.56h-8.9v-6.56zM233.32 668.26h8.9v6.56h-8.9v-6.56z" fill="#0036d3"/><path d="M211.77 650.2h30.45v6.58h-30.45v-6.57zM211.77 658.65h14.3v6.57h-14.3v-6.57zM227.87 658.65h14.3v6.57h-14.3v-6.57zM211.77 667.1h8.9v6.56h-8.9v-6.56zM222.54 667.1h8.9v6.56h-8.9v-6.56zM233.32 667.1h8.9v6.56h-8.9v-6.56z" fill="#1071e5"/><use xlink:href="#i" transform="matrix(1,0,0,1,208.72389791183295,288.5429234338747) translate(0 22.162070181991737)"/><use xlink:href="#j" transform="matrix(1,0,0,1,263.538283062645,337.2668213457076) translate(0 21.775971398333354)"/><use xlink:href="#k" transform="matrix(1,0,0,1,263.538283062645,385.9907192575406) translate(0 21.775971398333354)"/><use xlink:href="#l" transform="matrix(1,0,0,1,263.538283062645,385.9907192575406) translate(73.78347755711886 21.775971398333354)"/><use xlink:href="#m" transform="matrix(1,0,0,1,263.538283062645,434.7146171693736) translate(0 12.573249951952217)"/><use xlink:href="#n" transform="matrix(1,0,0,1,263.538283062645,434.7146171693736) translate(26.207641979141517 12.573249951952217)"/><use xlink:href="#o" transform="matrix(1,0,0,1,263.538283062645,434.7146171693736) translate(0 30.36449490693515)"/><use xlink:href="#p" transform="matrix(1,0,0,1,263.538283062645,483.4385150812065) translate(0 12.573249951952217)"/><use xlink:href="#q" transform="matrix(1,0,0,1,263.538283062645,483.4385150812065) translate(38.89962859475434 12.573249951952217)"/><use xlink:href="#r" transform="matrix(1,0,0,1,263.538283062645,483.4385150812065) translate(80.00818701346489 12.573249951952217)"/><use xlink:href="#s" transform="matrix(1,0,0,1,263.538283062645,483.4385150812065) translate(0 30.36449490693515)"/><use xlink:href="#p" transform="matrix(1,0,0,1,263.538283062645,532.1624129930394) translate(0 12.573249951952217)"/><use xlink:href="#t" transform="matrix(1,0,0,1,263.538283062645,532.1624129930394) translate(38.89962859475434 12.573249951952217)"/><use xlink:href="#u" transform="matrix(1,0,0,1,263.538283062645,532.1624129930394) translate(0 30.36449490693515)"/><use xlink:href="#v" transform="matrix(1,0,0,1,263.538283062645,580.8863109048724) translate(0 20.691412444563902)"/><use xlink:href="#w" transform="matrix(1,0,0,1,263.538283062645,580.8863109048724) translate(39.69838627975976 20.691412444563902)"/><use xlink:href="#x" transform="matrix(1,0,0,1,263.538283062645,580.8863109048724) translate(81.6510601345973 20.691412444563902)"/><use xlink:href="#y" transform="matrix(1,0,0,1,263.538283062645,580.8863109048724) translate(0 38.84797948993622)"/><use xlink:href="#z" transform="matrix(1,0,0,1,263.538283062645,646.7853828306264) translate(0 21.468872429443685)"/><use xlink:href="#A" transform="matrix(1,0,0,1,263.538283062645,646.7853828306264) translate(75.5154483884692 21.468872429443685)"/><path d="M460 323.92a6 6 0 0 1 6-6h62.7a6 6 0 0 1 6 6v27.5a6 6 0 0 1-6 6H466a6 6 0 0 1-6-6z" stroke="#000" stroke-opacity="0" fill="#fff" fill-opacity="0"/><use xlink:href="#B" transform="matrix(1,0,0,1,465,322.9166666666667) translate(6.049999999999997 18.15)"/><path d="M791.77 434.7h25v25h-25v-25zM791.77 402.2h25v25h-25v-25zM791.77 467.2h25v25h-25v-25zM824.27 467.2h25v25h-25v-25zM856.77 467.2h25v25h-25v-25z" stroke="#000" stroke-opacity="0" fill="#a0a1a2"/><path d="M868.02 372.2c-24.5 0-43.75 19.25-43.75 43.75v43.75h43.75c24.5 0 43.75-19.25 43.75-43.75s-19.25-43.75-43.75-43.75z" stroke="#000" stroke-opacity="0" fill="#0072c6"/><path d="M841.77 409.7h7.5v27.5h-7.5v-27.5zM859.27 417.2h7.5v20h-7.5v-20zM876.77 399.7h7.5v37.5h-7.5v-37.5z" stroke="#000" stroke-opacity="0" fill="#fff"/><path d="M793.58 404.1v86.1h86.47l.23-37.48 27.53-35.4-10.84-27.26-27.3-14.83-24.8 11.26-15.3 17.24z" stroke="#000" stroke-opacity="0" stroke-width="0" fill-opacity="0"/><use xlink:href="#C" transform="matrix(1,0,0,1,761.7708333333333,501.19999999999993) translate(51.55 14.4)"/><path d="M511.14 320c1.96 0 3.56-1.45 3.56-3.22v-.37c-1.44-10.17-7.76-18.44-20-18.44s-18.72 7-19.96 18.47c-.04 0-.04.02-.04.02-.16 1.8 1.28 3.37 3.24 3.55h33.2z" stroke="#000" stroke-opacity="0" fill="url(#D)"/><path d="M494.7 300.4c-2.26 0-4.2-.53-6.08-1.64l6.07 14.28 5.96-14.2c-1.87 1.08-3.75 1.56-5.97 1.55z" stroke="#000" stroke-opacity="0" fill="#ef0"/><path d="M505.94 290.18c0 5.62-5 10.18-11.2 10.18-6.18 0-11.2-4.56-11.2-10.18s5.02-10.18 11.2-10.18c6.2 0 11.2 4.56 11.2 10.18z" stroke="#000" stroke-opacity="0" fill="url(#E)"/><path d="M603.83 319.1h.07c1.68-.03 3.04-1.27 3.04-2.78V316c-1.23-8.74-6.8-15.87-17.44-15.87s-16.3 6.03-17.44 15.88c-.14 1.55 1.08 2.92 2.82 3.1h28.95z" stroke="#000" stroke-opacity="0" fill="url(#F)"/><path d="M589.7 302.2c-1.98 0-3.67-.43-5.32-1.4l5.12 12.3 5.24-12.2c-1.6.87-3.17 1.28-5.04 1.3z" stroke="#000" stroke-opacity="0" fill="#fff"/><path d="M599.42 293.45c0 4.85-4.4 8.8-9.82 8.8s-9.82-3.95-9.82-8.8c0-4.86 4.4-8.8 9.82-8.8s9.82 3.94 9.82 8.8z" stroke="#000" stroke-opacity="0" fill="url(#G)"/><path d="M612.06 307.05V316l-8.56 4.48v-8.95l8.56-4.48z" stroke="#000" stroke-opacity="0" fill="#32bedd"/><path d="M612.06 307.06l-8.58 4.5-8.58-4.5 8.58-4.5 8.58 4.5z" stroke="#000" stroke-opacity="0" fill="#9cebff"/><path d="M603.46 311.53v8.95L594.9 316v-8.95l8.56 4.48z" stroke="#000" stroke-opacity="0" fill="#50e6ff"/><path d="M594.9 316l8.56-4.44v8.92L594.9 316z" stroke="#000" stroke-opacity="0" fill="#9cebff"/><path d="M612.06 316l-8.56-4.44v8.92l8.56-4.48z" stroke="#000" stroke-opacity="0" fill="#50e6ff"/><path d="M603.83 466.75h.07c1.68-.02 3.04-1.25 3.04-2.76v-.34c-1.23-8.74-6.8-15.86-17.44-15.86s-16.3 6.02-17.44 15.88c-.14 1.54 1.08 2.9 2.82 3.07h28.95z" stroke="#000" stroke-opacity="0" fill="url(#H)"/><path d="M589.7 449.87c-1.98 0-3.67-.43-5.32-1.4l5.12 12.3 5.24-12.2c-1.6.87-3.17 1.27-5.04 1.3z" stroke="#000" stroke-opacity="0" fill="#fff"/><path d="M599.42 441.1c0 4.87-4.4 8.8-9.82 8.8s-9.82-3.93-9.82-8.8c0-4.84 4.4-8.78 9.82-8.78s9.82 3.94 9.82 8.8z" stroke="#000" stroke-opacity="0" fill="url(#I)"/><path d="M612.06 454.7v8.96l-8.56 4.5v-8.96l8.56-4.5z" stroke="#000" stroke-opacity="0" fill="#32bedd"/><path d="M612.06 454.73l-8.58 4.5-8.58-4.5 8.58-4.5 8.58 4.5z" stroke="#000" stroke-opacity="0" fill="#9cebff"/><path d="M603.46 459.2v8.95l-8.56-4.5v-8.94l8.56 4.5z" stroke="#000" stroke-opacity="0" fill="#50e6ff"/><path d="M594.9 463.67l8.56-4.44v8.92l-8.56-4.48z" stroke="#000" stroke-opacity="0" fill="#9cebff"/><path d="M612.06 463.67l-8.56-4.44v8.92l8.56-4.48z" stroke="#000" stroke-opacity="0" fill="#50e6ff"/><path d="M612.06 456.35a6 6 0 0 1 6-6h5.35a6 6 0 0 1 6 6v5.8a6 6 0 0 1-6 6h-5.34a6 6 0 0 1-6-6z" fill="none"/><path d="M613.8 452.13l13.87 14.24m0-14.24l-13.88 14.24" stroke="#e81313" stroke-width="8" fill="none"/><path d="M1040 621.24h40v7.02h-40v-7.02zM1040 630.26h18.77v7.02H1040v-7.02zM1061.15 630.26h18.77v7.02h-18.77v-7.02zM1040 639.28h11.7v7.02H1040v-7.02zM1054.15 639.28h11.7v7.02h-11.7v-7.02zM1068.3 639.28h11.7v7.02h-11.7v-7.02z" fill="#0036d3"/><path d="M1040 620h40v7h-40v-7zM1040 629.02h18.77v7H1040v-7zM1061.15 629.02h18.77v7h-18.77v-7zM1040 638.04h11.7v7H1040v-7zM1054.15 638.04h11.7v7h-11.7v-7zM1068.3 638.04h11.7v7h-11.7v-7z" fill="#1071e5"/><g><use xlink:href="#J" transform="matrix(1,0,0,1,1040,646.3000000000001) translate(-50.567901234567884 14.222222222222221)"/></g><path d="M626.82 459.25H777.2M626.83 459.25h-3.5" stroke="#3a414a" fill="none"/><path d="M791.96 459.25l-14.27 4.63v-9.26z" stroke="#3a414a" fill="#3a414a"/><path d="M592.06 467.25v54.2a6 6 0 0 0 6 6h76.83" stroke="#3a414a" fill="none"/><path d="M592.56 467.26h-1v-.5h1z" stroke="#3a414a" stroke-width=".05" fill="#3a414a"/><path d="M689.65 527.44l-14.26 4.63v-9.27z" stroke="#3a414a" fill="#3a414a"/><path d="M559.36 306.22h-47.93" stroke="#3a414a" fill="none"/><path d="M574.13 306.22l-14.27 4.64v-9.27z" stroke="#3a414a" fill="#3a414a"/><path d="M511.44 306.72h-.24l-.56-1h.8z" stroke="#3a414a" stroke-width=".05" fill="#3a414a"/><defs><path d="M114-163C36-179 61-72 57 0H25l-1-190h30c1 12-1 29 2 39 6-27 23-49 58-41v29" id="K"/><path d="M177-190C167-65 218 103 67 71c-23-6-38-20-44-43l32-5c15 47 100 32 89-28v-30C133-14 115 1 83 1 29 1 15-40 15-95c0-56 16-97 71-98 29-1 48 16 59 35 1-10 0-23 2-32h30zM94-22c36 0 50-32 50-73 0-42-14-75-50-75-39 0-46 34-46 75s6 73 46 73" id="L"/><path d="M16-82v-28h88v28H16" id="M"/><path d="M85-194c31 0 48 13 60 33l-1-100h32l1 261h-30c-2-10 0-23-3-31C134-8 116 4 85 4 32 4 16-35 15-94c0-66 23-100 70-100zm9 24c-40 0-46 34-46 75 0 40 6 74 45 74 42 0 51-32 51-76 0-42-9-74-50-73" id="N"/><path d="M100-194c63 0 86 42 84 106H49c0 40 14 67 53 68 26 1 43-12 49-29l28 8c-11 28-37 45-77 45C44 4 14-33 15-96c1-61 26-98 85-98zm52 81c6-60-76-77-97-28-3 7-6 17-6 28h103" id="O"/><path d="M210-169c-67 3-38 105-44 169h-31v-121c0-29-5-50-35-48C34-165 62-65 56 0H25l-1-190h30c1 10-1 24 2 32 10-44 99-50 107 0 11-21 27-35 58-36 85-2 47 119 55 194h-31v-121c0-29-5-49-35-48" id="P"/><path d="M100-194c62-1 85 37 85 99 1 63-27 99-86 99S16-35 15-95c0-66 28-99 85-99zM99-20c44 1 53-31 53-75 0-43-8-75-51-75s-53 32-53 75 10 74 51 75" id="Q"/><path d="M117-194c89-4 53 116 60 194h-32v-121c0-31-8-49-39-48C34-167 62-67 57 0H25l-1-190h30c1 10-1 24 2 32 11-22 29-35 61-36" id="R"/><path d="M179-190L93 31C79 59 56 82 12 73V49c39 6 53-20 64-50L1-190h34L92-34l54-156h33" id="S"/><path d="M141-36C126-15 110 5 73 4 37 3 15-17 15-53c-1-64 63-63 125-63 3-35-9-54-41-54-24 1-41 7-42 31l-33-3c5-37 33-52 76-52 45 0 72 20 72 64v82c-1 20 7 32 28 27v20c-31 9-61-2-59-35zM48-53c0 20 12 33 32 33 41-3 63-29 60-74-43 2-92-5-92 41" id="T"/><path d="M135-143c-3-34-86-38-87 0 15 53 115 12 119 90S17 21 10-45l28-5c4 36 97 45 98 0-10-56-113-15-118-90-4-57 82-63 122-42 12 7 21 19 24 35" id="U"/><path d="M24-231v-30h32v30H24zM24 0v-190h32V0H24" id="V"/><path d="M158-156l-14 65h45v19h-49L124 0h-19l15-72H56L41 0H22l15-72H2v-19h39l14-65H11v-19h48l15-71h20l-16 71h64l16-71h19l-16 71h37v19h-40zm-83 0L61-91h63l14-65H75" id="W"/><g id="a"><use transform="matrix(0.05,0,0,0.05,0,0)" xlink:href="#K"/><use transform="matrix(0.05,0,0,0.05,5.95,0)" xlink:href="#L"/><use transform="matrix(0.05,0,0,0.05,15.949999999999998,0)" xlink:href="#M"/><use transform="matrix(0.05,0,0,0.05,21.9,0)" xlink:href="#N"/><use transform="matrix(0.05,0,0,0.05,31.899999999999995,0)" xlink:href="#O"/><use transform="matrix(0.05,0,0,0.05,41.9,0)" xlink:href="#P"/><use transform="matrix(0.05,0,0,0.05,56.85,0)" xlink:href="#Q"/><use transform="matrix(0.05,0,0,0.05,66.85,0)" xlink:href="#M"/><use transform="matrix(0.05,0,0,0.05,72.8,0)" xlink:href="#N"/><use transform="matrix(0.05,0,0,0.05,82.8,0)" xlink:href="#O"/><use transform="matrix(0.05,0,0,0.05,92.8,0)" xlink:href="#R"/><use transform="matrix(0.05,0,0,0.05,102.80000000000001,0)" xlink:href="#S"/><use transform="matrix(0.05,0,0,0.05,111.80000000000001,0)" xlink:href="#M"/><use transform="matrix(0.05,0,0,0.05,117.75,0)" xlink:href="#T"/><use transform="matrix(0.05,0,0,0.05,127.75,0)" xlink:href="#U"/><use transform="matrix(0.05,0,0,0.05,136.75,0)" xlink:href="#U"/><use transform="matrix(0.05,0,0,0.05,145.75,0)" xlink:href="#V"/><use transform="matrix(0.05,0,0,0.05,149.7,0)" xlink:href="#L"/><use transform="matrix(0.05,0,0,0.05,159.7,0)" xlink:href="#R"/><use transform="matrix(0.05,0,0,0.05,169.7,0)" xlink:href="#W"/><use transform="matrix(0.05,0,0,0.05,179.7,0)" xlink:href="#W"/><use transform="matrix(0.05,0,0,0.05,189.7,0)" xlink:href="#W"/><use transform="matrix(0.05,0,0,0.05,199.7,0)" xlink:href="#W"/><use transform="matrix(0.05,0,0,0.05,209.69999999999996,0)" xlink:href="#W"/></g><path d="M185-189c-5-48-123-54-124 2 14 75 158 14 163 119 3 78-121 87-175 55-17-10-28-26-33-46l33-7c5 56 141 63 141-1 0-78-155-14-162-118-5-82 145-84 179-34 5 7 8 16 11 25" id="X"/><path d="M84 4C-5 8 30-112 23-190h32v120c0 31 7 50 39 49 72-2 45-101 50-169h31l1 190h-30c-1-10 1-25-2-33-11 22-28 36-60 37" id="Y"/><path d="M115-194c53 0 69 39 70 98 0 66-23 100-70 100C84 3 66-7 56-30L54 0H23l1-261h32v101c10-23 28-34 59-34zm-8 174c40 0 45-34 45-75 0-40-5-75-45-74-42 0-51 32-51 76 0 43 10 73 51 73" id="Z"/><path d="M96-169c-40 0-48 33-48 73s9 75 48 75c24 0 41-14 43-38l32 2c-6 37-31 61-74 61-59 0-76-41-82-99-10-93 101-131 147-64 4 7 5 14 7 22l-32 3c-4-21-16-35-41-35" id="aa"/><path d="M115-194c55 1 70 41 70 98S169 2 115 4C84 4 66-9 55-30l1 105H24l-1-265h31l2 30c10-21 28-34 59-34zm-8 174c40 0 45-34 45-75s-6-73-45-74c-42 0-51 32-51 76 0 43 10 73 51 73" id="ab"/><path d="M59-47c-2 24 18 29 38 22v24C64 9 27 4 27-40v-127H5v-23h24l9-43h21v43h35v23H59v120" id="ac"/><g id="b"><use transform="matrix(0.05,0,0,0.05,0,0)" xlink:href="#X"/><use transform="matrix(0.05,0,0,0.05,12,0)" xlink:href="#Y"/><use transform="matrix(0.05,0,0,0.05,22,0)" xlink:href="#Z"/><use transform="matrix(0.05,0,0,0.05,32,0)" xlink:href="#U"/><use transform="matrix(0.05,0,0,0.05,41,0)" xlink:href="#aa"/><use transform="matrix(0.05,0,0,0.05,50,0)" xlink:href="#K"/><use transform="matrix(0.05,0,0,0.05,55.95,0)" xlink:href="#V"/><use transform="matrix(0.05,0,0,0.05,59.900000000000006,0)" xlink:href="#ab"/><use transform="matrix(0.05,0,0,0.05,69.9,0)" xlink:href="#ac"/><use transform="matrix(0.05,0,0,0.05,74.9,0)" xlink:href="#V"/><use transform="matrix(0.05,0,0,0.05,78.85000000000001,0)" xlink:href="#Q"/><use transform="matrix(0.05,0,0,0.05,88.85000000000001,0)" xlink:href="#R"/></g><linearGradient gradientUnits="userSpaceOnUse" id="c" x1="226.99" y1="497.49" x2="226.99" y2="521.83"><stop offset="22%" stop-color="#21d400"/><stop offset="100%" stop-color="#088a00"/></linearGradient><linearGradient gradientUnits="userSpaceOnUse" id="d" x1="226.3" y1="485.26" x2="228.09" y2="507.46"><stop offset="22%" stop-color="#21d400"/><stop offset="100%" stop-color="#088a00"/></linearGradient><linearGradient gradientUnits="userSpaceOnUse" id="e" x1="225.07" y1="567.06" x2="225.07" y2="543.62"><stop offset="0%" stop-color="#5e9624"/><stop offset="100%" stop-color="#b4ec36"/></linearGradient><linearGradient gradientUnits="userSpaceOnUse" id="f" x1="225.12" y1="551.37" x2="225.12" y2="529.89"><stop offset="0%" stop-color="#5e9624"/><stop offset="100%" stop-color="#b4ec36"/></linearGradient><linearGradient gradientUnits="userSpaceOnUse" id="g" x1="221.56" y1="607.32" x2="221.56" y2="573.44"><stop offset="0%" stop-color="#5e9624"/><stop offset="100%" stop-color="#b4ec36"/></linearGradient><linearGradient gradientUnits="userSpaceOnUse" id="h" x1="221.6" y1="606.36" x2="221.6" y2="572.88"><stop offset="0%" stop-color="#5e9624"/><stop offset="100%" stop-color="#b4ec36"/></linearGradient><path d="M24 0v-248h52v208h133V0H24" id="ad"/><path d="M185-48c-13 30-37 53-82 52C43 2 14-33 14-96s30-98 90-98c62 0 83 45 84 108H66c0 31 8 55 39 56 18 0 30-7 34-22zm-45-69c5-46-57-63-70-21-2 6-4 13-4 21h74" id="ae"/><path d="M195-6C206 82 75 100 31 46c-4-6-6-13-8-21l49-6c3 16 16 24 34 25 40 0 42-37 40-79-11 22-30 35-61 35-53 0-70-43-70-97 0-56 18-96 73-97 30 0 46 14 59 34l2-30h47zm-90-29c32 0 41-27 41-63 0-35-9-62-40-62-32 0-39 29-40 63 0 36 9 62 39 62" id="af"/><path d="M135-194c87-1 58 113 63 194h-50c-7-57 23-157-34-157-59 0-34 97-39 157H25l-1-190h47c2 12-1 28 3 38 12-26 28-41 61-42" id="ag"/><path d="M88-194c31-1 46 15 58 34l-1-101h50l1 261h-48c-2-10 0-23-3-31C134-8 116 4 84 4 32 4 16-41 15-95c0-56 19-97 73-99zm17 164c33 0 40-30 41-66 1-37-9-64-41-64s-38 30-39 65c0 43 13 65 39 65" id="ah"/><g id="i"><use transform="matrix(0.04504485809347915,0,0,0.04504485809347915,0,0)" xlink:href="#ad"/><use transform="matrix(0.04504485809347915,0,0,0.04504485809347915,9.864823922471933,0)" xlink:href="#ae"/><use transform="matrix(0.04504485809347915,0,0,0.04504485809347915,18.873795541167766,0)" xlink:href="#af"/><use transform="matrix(0.04504485809347915,0,0,0.04504485809347915,28.7386194636397,0)" xlink:href="#ae"/><use transform="matrix(0.04504485809347915,0,0,0.04504485809347915,37.74759108233553,0)" xlink:href="#ag"/><use transform="matrix(0.04504485809347915,0,0,0.04504485809347915,47.61241500480747,0)" xlink:href="#ah"/></g><g id="j"><use transform="matrix(0.045044858093479155,0,0,0.045044858093479155,0,0)" xlink:href="#X"/><use transform="matrix(0.045044858093479155,0,0,0.045044858093479155,10.810765942434998,0)" xlink:href="#Y"/><use transform="matrix(0.045044858093479155,0,0,0.045044858093479155,19.81973756113083,0)" xlink:href="#Z"/><use transform="matrix(0.045044858093479155,0,0,0.045044858093479155,28.82870917982666,0)" xlink:href="#U"/><use transform="matrix(0.045044858093479155,0,0,0.045044858093479155,36.936783636652905,0)" xlink:href="#aa"/><use transform="matrix(0.045044858093479155,0,0,0.045044858093479155,45.04485809347915,0)" xlink:href="#K"/><use transform="matrix(0.045044858093479155,0,0,0.045044858093479155,50.40519620660317,0)" xlink:href="#V"/><use transform="matrix(0.045044858093479155,0,0,0.045044858093479155,53.96373999598803,0)" xlink:href="#ab"/><use transform="matrix(0.045044858093479155,0,0,0.045044858093479155,62.97271161468386,0)" xlink:href="#ac"/><use transform="matrix(0.045044858093479155,0,0,0.045044858093479155,67.47719742403177,0)" xlink:href="#V"/><use transform="matrix(0.045044858093479155,0,0,0.045044858093479155,71.03574121341663,0)" xlink:href="#Q"/><use transform="matrix(0.045044858093479155,0,0,0.045044858093479155,80.04471283211245,0)" xlink:href="#R"/><use transform="matrix(0.045044858093479155,0,0,0.045044858093479155,89.05368445080828,0)" xlink:href="#U"/></g><path d="M233-177c-1 41-23 64-60 70L243 0h-38l-65-103H63V0H30v-248c88 3 205-21 203 71zM63-129c60-2 137 13 137-47 0-61-80-42-137-45v92" id="ai"/><g id="k"><use transform="matrix(0.045044858093479155,0,0,0.045044858093479155,0,0)" xlink:href="#ai"/><use transform="matrix(0.045044858093479155,0,0,0.045044858093479155,11.666618246211101,0)" xlink:href="#O"/><use transform="matrix(0.045044858093479155,0,0,0.045044858093479155,20.675589864906932,0)" xlink:href="#U"/><use transform="matrix(0.045044858093479155,0,0,0.045044858093479155,28.78366432173318,0)" xlink:href="#Q"/><use transform="matrix(0.045044858093479155,0,0,0.045044858093479155,37.792635940429015,0)" xlink:href="#Y"/><use transform="matrix(0.045044858093479155,0,0,0.045044858093479155,46.80160755912484,0)" xlink:href="#K"/><use transform="matrix(0.045044858093479155,0,0,0.045044858093479155,52.16194567224887,0)" xlink:href="#aa"/><use transform="matrix(0.045044858093479155,0,0,0.045044858093479155,60.27002012907511,0)" xlink:href="#O"/></g><path d="M143 4C61 4 22-44 18-125c-5-107 100-154 193-111 17 8 29 25 37 43l-32 9c-13-25-37-40-76-40-61 0-88 39-88 99 0 61 29 100 91 101 35 0 62-11 79-27v-45h-74v-28h105v86C228-13 192 4 143 4" id="aj"/><g id="l"><use transform="matrix(0.045044858093479155,0,0,0.045044858093479155,0,0)" xlink:href="#aj"/><use transform="matrix(0.045044858093479155,0,0,0.045044858093479155,12.612560266174164,0)" xlink:href="#K"/><use transform="matrix(0.045044858093479155,0,0,0.045044858093479155,17.972898379298183,0)" xlink:href="#Q"/><use transform="matrix(0.045044858093479155,0,0,0.045044858093479155,26.981869997994014,0)" xlink:href="#Y"/><use transform="matrix(0.045044858093479155,0,0,0.045044858093479155,35.99084161668984,0)" xlink:href="#ab"/><use transform="matrix(0.045044858093479155,0,0,0.045044858093479155,44.99981323538567,0)" xlink:href="#U"/></g><path d="M30 0v-248h33v221h125V0H30" id="ak"/><g id="m"><use transform="matrix(0.03743948854163074,0,0,0.03743948854163074,0,0)" xlink:href="#ak"/><use transform="matrix(0.03743948854163074,0,0,0.03743948854163074,7.487897708326148,0)" xlink:href="#Q"/><use transform="matrix(0.03743948854163074,0,0,0.03743948854163074,14.975795416652296,0)" xlink:href="#L"/></g><path d="M205 0l-28-72H64L36 0H1l101-248h38L239 0h-34zm-38-99l-47-123c-12 45-31 82-46 123h93" id="al"/><path d="M24 0v-261h32V0H24" id="am"/><g id="n"><use transform="matrix(0.03743948854163074,0,0,0.03743948854163074,0,0)" xlink:href="#al"/><use transform="matrix(0.03743948854163074,0,0,0.03743948854163074,8.985477249991378,0)" xlink:href="#R"/><use transform="matrix(0.03743948854163074,0,0,0.03743948854163074,16.473374958317525,0)" xlink:href="#T"/><use transform="matrix(0.03743948854163074,0,0,0.03743948854163074,23.961272666643673,0)" xlink:href="#am"/><use transform="matrix(0.03743948854163074,0,0,0.03743948854163074,26.918992261432503,0)" xlink:href="#S"/><use transform="matrix(0.03743948854163074,0,0,0.03743948854163074,33.658100198926036,0)" xlink:href="#ac"/><use transform="matrix(0.03743948854163074,0,0,0.03743948854163074,37.4020490530891,0)" xlink:href="#V"/><use transform="matrix(0.03743948854163074,0,0,0.03743948854163074,40.359768647877935,0)" xlink:href="#aa"/><use transform="matrix(0.03743948854163074,0,0,0.03743948854163074,47.098876585371464,0)" xlink:href="#U"/></g><path d="M266 0h-40l-56-210L115 0H75L2-248h35L96-30l15-64 43-154h32l59 218 59-218h35" id="an"/><path d="M143 0L79-87 56-68V0H24v-261h32v163l83-92h37l-77 82L181 0h-38" id="ao"/><g id="o"><use transform="matrix(0.03743948854163074,0,0,0.03743948854163074,0,0)" xlink:href="#an"/><use transform="matrix(0.03743948854163074,0,0,0.03743948854163074,12.429910195821405,0)" xlink:href="#Q"/><use transform="matrix(0.03743948854163074,0,0,0.03743948854163074,19.917807904147555,0)" xlink:href="#K"/><use transform="matrix(0.03743948854163074,0,0,0.03743948854163074,24.37310704060161,0)" xlink:href="#ao"/><use transform="matrix(0.03743948854163074,0,0,0.03743948854163074,31.11221497809515,0)" xlink:href="#U"/><use transform="matrix(0.03743948854163074,0,0,0.03743948854163074,37.85132291558868,0)" xlink:href="#ab"/><use transform="matrix(0.03743948854163074,0,0,0.03743948854163074,45.339220623914834,0)" xlink:href="#T"/><use transform="matrix(0.03743948854163074,0,0,0.03743948854163074,52.82711833224097,0)" xlink:href="#aa"/><use transform="matrix(0.03743948854163074,0,0,0.03743948854163074,59.566226269734514,0)" xlink:href="#O"/><use transform="matrix(0.03743948854163074,0,0,0.03743948854163074,67.05412397806066,0)" xlink:href="#U"/></g><path d="M9 0v-24l116-142H16v-24h144v24L44-24h123V0H9" id="ap"/><g id="p"><use transform="matrix(0.03743948854163074,0,0,0.03743948854163074,0,0)" xlink:href="#al"/><use transform="matrix(0.03743948854163074,0,0,0.03743948854163074,8.985477249991378,0)" xlink:href="#ap"/><use transform="matrix(0.03743948854163074,0,0,0.03743948854163074,15.724585187484912,0)" xlink:href="#Y"/><use transform="matrix(0.03743948854163074,0,0,0.03743948854163074,23.21248289581106,0)" xlink:href="#K"/><use transform="matrix(0.03743948854163074,0,0,0.03743948854163074,27.667782032265123,0)" xlink:href="#O"/></g><path d="M160-131c35 5 61 23 61 61C221 17 115-2 30 0v-248c76 3 177-17 177 60 0 33-19 50-47 57zm-97-11c50-1 110 9 110-42 0-47-63-36-110-37v79zm0 115c55-2 124 14 124-45 0-56-70-42-124-44v89" id="aq"/><path d="M212-179c-10-28-35-45-73-45-59 0-87 40-87 99 0 60 29 101 89 101 43 0 62-24 78-52l27 14C228-24 195 4 139 4 59 4 22-46 18-125c-6-104 99-153 187-111 19 9 31 26 39 46" id="ar"/><g id="q"><use transform="matrix(0.03743948854163074,0,0,0.03743948854163074,0,0)" xlink:href="#ai"/><use transform="matrix(0.03743948854163074,0,0,0.03743948854163074,9.696827532282365,0)" xlink:href="#aq"/><use transform="matrix(0.03743948854163074,0,0,0.03743948854163074,18.682304782273743,0)" xlink:href="#al"/><use transform="matrix(0.03743948854163074,0,0,0.03743948854163074,27.667782032265123,0)" xlink:href="#ar"/></g><g id="r"><use transform="matrix(0.03743948854163074,0,0,0.03743948854163074,0,0)" xlink:href="#ai"/><use transform="matrix(0.03743948854163074,0,0,0.03743948854163074,9.696827532282365,0)" xlink:href="#Q"/><use transform="matrix(0.03743948854163074,0,0,0.03743948854163074,17.18472524060851,0)" xlink:href="#am"/><use transform="matrix(0.03743948854163074,0,0,0.03743948854163074,20.14244483539734,0)" xlink:href="#O"/></g><path d="M30-248c118-7 216 8 213 122C240-48 200 0 122 0H30v-248zM63-27c89 8 146-16 146-99s-60-101-146-95v194" id="as"/><path d="M101-234c-31-9-42 10-38 44h38v23H63V0H32v-167H5v-23h27c-7-52 17-82 69-68v24" id="at"/><g id="s"><use transform="matrix(0.03743948854163074,0,0,0.03743948854163074,0,0)" xlink:href="#as"/><use transform="matrix(0.03743948854163074,0,0,0.03743948854163074,9.696827532282365,0)" xlink:href="#O"/><use transform="matrix(0.03743948854163074,0,0,0.03743948854163074,17.18472524060851,0)" xlink:href="#at"/><use transform="matrix(0.03743948854163074,0,0,0.03743948854163074,20.928674094771587,0)" xlink:href="#V"/><use transform="matrix(0.03743948854163074,0,0,0.03743948854163074,23.88639368956041,0)" xlink:href="#R"/><use transform="matrix(0.03743948854163074,0,0,0.03743948854163074,31.37429139788656,0)" xlink:href="#V"/><use transform="matrix(0.03743948854163074,0,0,0.03743948854163074,34.33201099267539,0)" xlink:href="#ac"/><use transform="matrix(0.03743948854163074,0,0,0.03743948854163074,38.07595984683846,0)" xlink:href="#V"/><use transform="matrix(0.03743948854163074,0,0,0.03743948854163074,41.03367944162729,0)" xlink:href="#Q"/><use transform="matrix(0.03743948854163074,0,0,0.03743948854163074,48.52157714995344,0)" xlink:href="#R"/></g><g id="t"><use transform="matrix(0.03743948854163074,0,0,0.03743948854163074,0,0)" xlink:href="#ai"/><use transform="matrix(0.03743948854163074,0,0,0.03743948854163074,9.696827532282365,0)" xlink:href="#aq"/><use transform="matrix(0.03743948854163074,0,0,0.03743948854163074,18.682304782273743,0)" xlink:href="#al"/><use transform="matrix(0.03743948854163074,0,0,0.03743948854163074,27.667782032265123,0)" xlink:href="#ar"/></g><g id="u"><use transform="matrix(0.03743948854163074,0,0,0.03743948854163074,0,0)" xlink:href="#al"/><use transform="matrix(0.03743948854163074,0,0,0.03743948854163074,8.985477249991378,0)" xlink:href="#U"/><use transform="matrix(0.03743948854163074,0,0,0.03743948854163074,15.724585187484912,0)" xlink:href="#U"/><use transform="matrix(0.03743948854163074,0,0,0.03743948854163074,22.463693124978448,0)" xlink:href="#V"/><use transform="matrix(0.03743948854163074,0,0,0.03743948854163074,25.421412719767275,0)" xlink:href="#L"/><use transform="matrix(0.03743948854163074,0,0,0.03743948854163074,32.90931042809343,0)" xlink:href="#R"/><use transform="matrix(0.03743948854163074,0,0,0.03743948854163074,40.39720813641957,0)" xlink:href="#P"/><use transform="matrix(0.03743948854163074,0,0,0.03743948854163074,51.591615210367166,0)" xlink:href="#O"/><use transform="matrix(0.03743948854163074,0,0,0.03743948854163074,59.07951291869332,0)" xlink:href="#R"/><use transform="matrix(0.03743948854163074,0,0,0.03743948854163074,66.56741062701946,0)" xlink:href="#ac"/></g><g id="v"><use transform="matrix(0.03820826398436935,0,0,0.03820826398436935,0,0)" xlink:href="#al"/><use transform="matrix(0.03820826398436935,0,0,0.03820826398436935,9.169983356248645,0)" xlink:href="#ap"/><use transform="matrix(0.03820826398436935,0,0,0.03820826398436935,16.04747087343513,0)" xlink:href="#Y"/><use transform="matrix(0.03820826398436935,0,0,0.03820826398436935,23.689123670309,0)" xlink:href="#K"/><use transform="matrix(0.03820826398436935,0,0,0.03820826398436935,28.235907084448957,0)" xlink:href="#O"/></g><g id="w"><use transform="matrix(0.03820826398436935,0,0,0.03820826398436935,0,0)" xlink:href="#ai"/><use transform="matrix(0.03820826398436935,0,0,0.03820826398436935,9.895940371951662,0)" xlink:href="#aq"/><use transform="matrix(0.03820826398436935,0,0,0.03820826398436935,19.06592372820031,0)" xlink:href="#al"/><use transform="matrix(0.03820826398436935,0,0,0.03820826398436935,28.235907084448957,0)" xlink:href="#ar"/></g><g id="x"><use transform="matrix(0.03820826398436935,0,0,0.03820826398436935,0,0)" xlink:href="#as"/><use transform="matrix(0.03820826398436935,0,0,0.03820826398436935,9.895940371951662,0)" xlink:href="#O"/><use transform="matrix(0.03820826398436935,0,0,0.03820826398436935,17.537593168825534,0)" xlink:href="#R"/><use transform="matrix(0.03820826398436935,0,0,0.03820826398436935,25.179245965699405,0)" xlink:href="#S"/></g><g id="y"><use transform="matrix(0.03820826398436935,0,0,0.03820826398436935,0,0)" xlink:href="#al"/><use transform="matrix(0.03820826398436935,0,0,0.03820826398436935,9.169983356248645,0)" xlink:href="#U"/><use transform="matrix(0.03820826398436935,0,0,0.03820826398436935,16.04747087343513,0)" xlink:href="#U"/><use transform="matrix(0.03820826398436935,0,0,0.03820826398436935,22.924958390621608,0)" xlink:href="#V"/><use transform="matrix(0.03820826398436935,0,0,0.03820826398436935,25.94341124538679,0)" xlink:href="#L"/><use transform="matrix(0.03820826398436935,0,0,0.03820826398436935,33.58506404226066,0)" xlink:href="#R"/><use transform="matrix(0.03820826398436935,0,0,0.03820826398436935,41.22671683913454,0)" xlink:href="#P"/><use transform="matrix(0.03820826398436935,0,0,0.03820826398436935,52.65098777046097,0)" xlink:href="#O"/><use transform="matrix(0.03820826398436935,0,0,0.03820826398436935,60.29264056733484,0)" xlink:href="#R"/><use transform="matrix(0.03820826398436935,0,0,0.03820826398436935,67.93429336420871,0)" xlink:href="#ac"/></g><g id="z"><use transform="matrix(0.03743948854163074,0,0,0.03743948854163074,0,0)" xlink:href="#as"/><use transform="matrix(0.03743948854163074,0,0,0.03743948854163074,9.696827532282365,0)" xlink:href="#O"/><use transform="matrix(0.03743948854163074,0,0,0.03743948854163074,17.18472524060851,0)" xlink:href="#ab"/><use transform="matrix(0.03743948854163074,0,0,0.03743948854163074,24.67262294893466,0)" xlink:href="#am"/><use transform="matrix(0.03743948854163074,0,0,0.03743948854163074,27.63034254372349,0)" xlink:href="#Q"/><use transform="matrix(0.03743948854163074,0,0,0.03743948854163074,35.11824025204964,0)" xlink:href="#S"/><use transform="matrix(0.03743948854163074,0,0,0.03743948854163074,41.857348189543174,0)" xlink:href="#P"/><use transform="matrix(0.03743948854163074,0,0,0.03743948854163074,53.05175526349076,0)" xlink:href="#O"/><use transform="matrix(0.03743948854163074,0,0,0.03743948854163074,60.53965297181691,0)" xlink:href="#R"/><use transform="matrix(0.03743948854163074,0,0,0.03743948854163074,68.02755068014305,0)" xlink:href="#ac"/></g><g id="A"><use transform="matrix(0.03743948854163074,0,0,0.03743948854163074,0,0)" xlink:href="#X"/><use transform="matrix(0.03743948854163074,0,0,0.03743948854163074,8.985477249991378,0)" xlink:href="#ac"/><use transform="matrix(0.03743948854163074,0,0,0.03743948854163074,12.729426104154452,0)" xlink:href="#T"/><use transform="matrix(0.03743948854163074,0,0,0.03743948854163074,20.2173238124806,0)" xlink:href="#aa"/><use transform="matrix(0.03743948854163074,0,0,0.03743948854163074,26.956431749974133,0)" xlink:href="#ao"/></g><path d="M140-251c81 0 123 46 123 126C263-46 219 4 140 4 59 4 17-45 17-125s42-126 123-126zm0 227c63 0 89-41 89-101s-29-99-89-99c-61 0-89 39-89 99S79-25 140-24" id="au"/><path d="M206 0h-36l-40-164L89 0H53L-1-190h32L70-26l43-164h34l41 164 42-164h31" id="av"/><g id="B"><use transform="matrix(0.05,0,0,0.05,0,0)" xlink:href="#au"/><use transform="matrix(0.05,0,0,0.05,14,0)" xlink:href="#av"/><use transform="matrix(0.05,0,0,0.05,26.950000000000003,0)" xlink:href="#R"/><use transform="matrix(0.05,0,0,0.05,36.95,0)" xlink:href="#O"/><use transform="matrix(0.05,0,0,0.05,46.95,0)" xlink:href="#K"/></g><g id="C"><use transform="matrix(0.05,0,0,0.05,0,0)" xlink:href="#am"/><use transform="matrix(0.05,0,0,0.05,3.95,0)" xlink:href="#T"/><use transform="matrix(0.05,0,0,0.05,13.949999999999998,0)" xlink:href="#av"/><use transform="matrix(0.05,0,0,0.05,26.899999999999995,0)" xlink:href="#W"/><use transform="matrix(0.05,0,0,0.05,36.9,0)" xlink:href="#W"/><use transform="matrix(0.05,0,0,0.05,46.9,0)" xlink:href="#W"/><use transform="matrix(0.05,0,0,0.05,56.900000000000006,0)" xlink:href="#W"/><use transform="matrix(0.05,0,0,0.05,66.9,0)" xlink:href="#W"/></g><linearGradient gradientUnits="userSpaceOnUse" id="D" x1="494.7" y1="275.12" x2="494.7" y2="329.89"><stop offset="22%" stop-color="#21d400"/><stop offset="100%" stop-color="#088a00"/></linearGradient><linearGradient gradientUnits="userSpaceOnUse" id="E" x1="492.96" y1="278.25" x2="497.28" y2="332.05"><stop offset="22%" stop-color="#21d400"/><stop offset="100%" stop-color="#088a00"/></linearGradient><linearGradient gradientUnits="userSpaceOnUse" id="F" x1="592.1" y1="324.86" x2="592.1" y2="275.77"><stop offset="0%" stop-color="#5e9624"/><stop offset="100%" stop-color="#b4ec36"/></linearGradient><linearGradient gradientUnits="userSpaceOnUse" id="G" x1="592.06" y1="322.07" x2="592.06" y2="273.82"><stop offset="0%" stop-color="#5e9624"/><stop offset="100%" stop-color="#b4ec36"/></linearGradient><linearGradient gradientUnits="userSpaceOnUse" id="H" x1="592.1" y1="472.53" x2="592.1" y2="423.44"><stop offset="0%" stop-color="#5e9624"/><stop offset="100%" stop-color="#b4ec36"/></linearGradient><linearGradient gradientUnits="userSpaceOnUse" id="I" x1="592.06" y1="469.74" x2="592.06" y2="421.49"><stop offset="0%" stop-color="#5e9624"/><stop offset="100%" stop-color="#b4ec36"/></linearGradient><path fill="#3a414a" d="M135-143c-3-34-86-38-87 0 15 53 115 12 119 90S17 21 10-45l28-5c4 36 97 45 98 0-10-56-113-15-118-90-4-57 82-63 122-42 12 7 21 19 24 35" id="aw"/><path fill="#3a414a" d="M59-47c-2 24 18 29 38 22v24C64 9 27 4 27-40v-127H5v-23h24l9-43h21v43h35v23H59v120" id="ax"/><path fill="#3a414a" d="M141-36C126-15 110 5 73 4 37 3 15-17 15-53c-1-64 63-63 125-63 3-35-9-54-41-54-24 1-41 7-42 31l-33-3c5-37 33-52 76-52 45 0 72 20 72 64v82c-1 20 7 32 28 27v20c-31 9-61-2-59-35zM48-53c0 20 12 33 32 33 41-3 63-29 60-74-43 2-92-5-92 41" id="ay"/><path fill="#3a414a" d="M96-169c-40 0-48 33-48 73s9 75 48 75c24 0 41-14 43-38l32 2c-6 37-31 61-74 61-59 0-76-41-82-99-10-93 101-131 147-64 4 7 5 14 7 22l-32 3c-4-21-16-35-41-35" id="az"/><path fill="#3a414a" d="M143 0L79-87 56-68V0H24v-261h32v163l83-92h37l-77 82L181 0h-38" id="aA"/><path fill="#3a414a" d="M16-82v-28h88v28H16" id="aB"/><path fill="#3a414a" d="M85-194c31 0 48 13 60 33l-1-100h32l1 261h-30c-2-10 0-23-3-31C134-8 116 4 85 4 32 4 16-35 15-94c0-66 23-100 70-100zm9 24c-40 0-46 34-46 75 0 40 6 74 45 74 42 0 51-32 51-76 0-42-9-74-50-73" id="aC"/><path fill="#3a414a" d="M100-194c63 0 86 42 84 106H49c0 40 14 67 53 68 26 1 43-12 49-29l28 8c-11 28-37 45-77 45C44 4 14-33 15-96c1-61 26-98 85-98zm52 81c6-60-76-77-97-28-3 7-6 17-6 28h103" id="aD"/><path fill="#3a414a" d="M210-169c-67 3-38 105-44 169h-31v-121c0-29-5-50-35-48C34-165 62-65 56 0H25l-1-190h30c1 10-1 24 2 32 10-44 99-50 107 0 11-21 27-35 58-36 85-2 47 119 55 194h-31v-121c0-29-5-49-35-48" id="aE"/><path fill="#3a414a" d="M100-194c62-1 85 37 85 99 1 63-27 99-86 99S16-35 15-95c0-66 28-99 85-99zM99-20c44 1 53-31 53-75 0-43-8-75-51-75s-53 32-53 75 10 74 51 75" id="aF"/><path fill="#3a414a" d="M158-156l-14 65h45v19h-49L124 0h-19l15-72H56L41 0H22l15-72H2v-19h39l14-65H11v-19h48l15-71h20l-16 71h64l16-71h19l-16 71h37v19h-40zm-83 0L61-91h63l14-65H75" id="aG"/><g id="J"><use transform="matrix(0.049382716049382706,0,0,0.049382716049382706,0,0)" xlink:href="#aw"/><use transform="matrix(0.049382716049382706,0,0,0.049382716049382706,8.888888888888888,0)" xlink:href="#ax"/><use transform="matrix(0.049382716049382706,0,0,0.049382716049382706,13.827160493827158,0)" xlink:href="#ay"/><use transform="matrix(0.049382716049382706,0,0,0.049382716049382706,23.7037037037037,0)" xlink:href="#az"/><use transform="matrix(0.049382716049382706,0,0,0.049382716049382706,32.59259259259259,0)" xlink:href="#aA"/><use transform="matrix(0.049382716049382706,0,0,0.049382716049382706,41.481481481481474,0)" xlink:href="#aB"/><use transform="matrix(0.049382716049382706,0,0,0.049382716049382706,47.35802469135802,0)" xlink:href="#aC"/><use transform="matrix(0.049382716049382706,0,0,0.049382716049382706,57.234567901234556,0)" xlink:href="#aD"/><use transform="matrix(0.049382716049382706,0,0,0.049382716049382706,67.1111111111111,0)" xlink:href="#aE"/><use transform="matrix(0.049382716049382706,0,0,0.049382716049382706,81.87654320987653,0)" xlink:href="#aF"/><use transform="matrix(0.049382716049382706,0,0,0.049382716049382706,91.75308641975307,0)" xlink:href="#aG"/><use transform="matrix(0.049382716049382706,0,0,0.049382716049382706,101.6296296296296,0)" xlink:href="#aG"/><use transform="matrix(0.049382716049382706,0,0,0.049382716049382706,111.50617283950618,0)" xlink:href="#aG"/><use transform="matrix(0.049382716049382706,0,0,0.049382716049382706,121.38271604938271,0)" xlink:href="#aG"/><use transform="matrix(0.049382716049382706,0,0,0.049382716049382706,131.25925925925924,0)" xlink:href="#aG"/></g></defs></g></svg>