<svg xmlns="http://www.w3.org/2000/svg" xmlns:xlink="http://www.w3.org/1999/xlink" xmlns:lucid="lucid" width="1071.08" height="560.5"><g transform="translate(241.5 -128.5)" lucid:page-tab-id="yjkVMxG_3eHp"><path d="M-500 0h1500v1000H-500z" fill="#fff"/><path d="M80 156a6 6 0 0 1 6-6h668a6 6 0 0 1 6 6v458a6 6 0 0 1-6 6H86a6 6 0 0 1-6-6z" stroke="#3a414a" fill="#fff"/><path d="M320 206a6 6 0 0 1 6-6h308a6 6 0 0 1 6 6v248a6 6 0 0 1-6 6H326a6 6 0 0 1-6-6z" stroke="#3a414a" fill="#fff"/><path d="M600 472.75c0 .25.1.43.28.55l4.1 2.4 6.93 4.25c.3.13.65.06.82-.24l2.34-4.2c.13-.3.04-.58-.22-.76l-8.13-4.87c-.16-.12-.26-.3-.26-.54v-38.57c0-.25.1-.43.27-.55l8.14-4.84c.26-.2.35-.5.22-.8l-2.34-4.2c-.16-.3-.52-.4-.8-.3l-6.8 4.15-4.24 2.54c-.18.12-.28.3-.28.53v45.5z" stroke="#000" stroke-opacity="0" fill="#949494"/><path d="M605.77 430.44l.22-.22 8.1-4.86c.03-.03.05-.04.1-.06.2-.16.27-.5.1-.73l-2.32-4.2-.04-.1c-.16-.27-.48-.35-.74-.2l-6.8 4.16-4.18 2.5s-.2 0-.22.23l3.17 1.9zM614.13 474.65l-8.12-4.88c-.1-.08-.18-.2-.24-.33l-5.73 3.75h.18l4.07 2.42 7.07 4.17c.03 0 .05.02.07.03.28.13.6 0 .72-.27l2.33-4.2.03-.06c.07-.3-.1-.57-.35-.65z" stroke="#000" stroke-opacity="0" fill="#a3a3a3"/><path d="M660 472.75c0 .25-.1.43-.28.55l-4.1 2.4-6.93 4.25c-.3.13-.65.06-.82-.24l-2.34-4.2c-.13-.3-.04-.58.22-.76l8.13-4.87c.16-.12.26-.3.26-.54v-38.57c0-.25-.1-.43-.27-.55l-8.14-4.84c-.26-.2-.35-.5-.22-.8l2.34-4.2c.14-.3.5-.4.8-.3l6.8 4.1 4.24 2.5c.18.13.28.3.28.55v45.56z" stroke="#000" stroke-opacity="0" fill="#949494"/><path d="M654.23 430.44l-.22-.22-8.1-4.86c-.24-.12-.37-.42-.26-.7l.05-.1 2.32-4.18c.1-.3.4-.45.66-.35.05 0 .07.03.12.05l6.8 4.07 4.18 2.5.22.24-3.17 1.9zM645.87 474.65l8.12-4.88c.1-.08.17-.2.23-.33l5.7 3.75-4.05 2.42-7.05 4.17c-.23.15-.56.1-.73-.17l-.04-.07-2.33-4.2c-.14-.24-.07-.55.14-.7z" stroke="#000" stroke-opacity="0" fill="#a3a3a3"/><path d="M648.72 438.54v22.94l-18.78 11.56v-22.98l18.78-11.52z" stroke="#000" stroke-opacity="0" fill="#32bedd"/><path d="M648.72 438.5l-18.75 11.56-18.75-11.55 18.75-11.54 18.75 11.55z" stroke="#000" stroke-opacity="0" fill="#9cebff"/><path d="M629.94 450.1v22.94l-18.72-11.56v-22.94l18.72 11.56z" stroke="#000" stroke-opacity="0" fill="#50e6ff"/><path d="M611.22 461.5l18.72-11.44v22.98l-18.72-11.54z" stroke="#000" stroke-opacity="0" fill="#9cebff"/><path d="M648.72 461.5l-18.78-11.44v22.98l18.78-11.54z" stroke="#000" stroke-opacity="0" fill="#50e6ff"/><path d="M612.1 420.38h35.83l-1.98 4.4 8.72 5.1.2 40.1-8.67 5 2.23 4.27-.5.47H612.1l2.03-4.57-8.77-5.46.1-39.88 8.62-4.8-2.33-4.16z" stroke="#000" stroke-opacity="0" fill-opacity="0"/><use xlink:href="#a" transform="matrix(1,0,0,1,570,489) translate(-45.349999999999994 14.4)"/><path d="M777.84 603.4c2.88-2.64 2.88-6.96 0-9.6l-12.64-11.82c-2.88-2.64-7.52-2.64-10.4 0l-12.64 11.82c-2.88 2.64-2.88 6.96 0 9.6l11.12 10.38v19.98L760 640l5.84-5.4v-.06l3.4-3.18-3.4-3.18 3.4-3.12-3.4-3.18 3.4-3.12-3.4-3.18v-.96l12-11.22zM760 584.86c2.32-.06 4.2 1.68 4.24 3.78.04 2.16-1.8 3.9-4.08 3.96H760c-2.32-.06-4.12-1.8-4.08-3.96.04-2.1 1.84-3.78 4.08-3.78z" stroke="#000" stroke-opacity="0" stroke-width="3" fill="#fcd116"/><path d="M756.42 632.75l2.62 2.4V616l-2.62-1.2z" stroke="#000" stroke-opacity="0" stroke-width="3" fill="#ff8c00" fill-opacity=".4"/><path d="M747.57 596.34h24.05v3.22h-24.05zm0 5.23h24.05v3.2h-24.05z" stroke="#000" stroke-opacity="0" stroke-width="3" fill="#fff" fill-opacity=".5"/><use xlink:href="#b" transform="matrix(1,0,0,1,710,649) translate(0.5749999999999957 14.4)"/><path d="M110 273.92a6 6 0 0 1 6-6h148a6 6 0 0 1 6 6v69.66a6 6 0 0 1-6 6H116a6 6 0 0 1-6-6z" stroke="#000" stroke-opacity="0" fill="#fff" fill-opacity="0"/><use xlink:href="#c" transform="matrix(1,0,0,1,115,272.91666666666663) translate(38.574999999999996 18.9)"/><use xlink:href="#d" transform="matrix(1,0,0,1,115,272.91666666666663) translate(105.475 18.9)"/><use xlink:href="#e" transform="matrix(1,0,0,1,115,272.91666666666663) translate(3.5999999999999943 40.5)"/><use xlink:href="#f" transform="matrix(1,0,0,1,115,272.91666666666663) translate(87.55 40.5)"/><use xlink:href="#d" transform="matrix(1,0,0,1,115,272.91666666666663) translate(140.45000000000002 40.5)"/><use xlink:href="#g" transform="matrix(1,0,0,1,115,272.91666666666663) translate(14.074999999999996 62.1)"/><use xlink:href="#h" transform="matrix(1,0,0,1,115,272.91666666666663) translate(85.975 62.1)"/><path d="M110 431a6 6 0 0 1 6-6h148a6 6 0 0 1 6 6v69.67a6 6 0 0 1-6 6H116a6 6 0 0 1-6-6z" stroke="#000" stroke-opacity="0" fill="#fff" fill-opacity="0"/><use xlink:href="#c" transform="matrix(1,0,0,1,115,430) translate(38.574999999999996 18.9)"/><use xlink:href="#d" transform="matrix(1,0,0,1,115,430) translate(105.475 18.9)"/><use xlink:href="#e" transform="matrix(1,0,0,1,115,430) translate(3.5999999999999943 40.5)"/><use xlink:href="#f" transform="matrix(1,0,0,1,115,430) translate(87.55 40.5)"/><use xlink:href="#d" transform="matrix(1,0,0,1,115,430) translate(140.45000000000002 40.5)"/><use xlink:href="#i" transform="matrix(1,0,0,1,115,430) translate(31.525 62.1)"/><use xlink:href="#h" transform="matrix(1,0,0,1,115,430) translate(68.525 62.1)"/><path d="M420 302.5h25v25h-25v-25zM420 270h25v25h-25v-25zM420 335h25v25h-25v-25zM452.5 335h25v25h-25v-25zM485 335h25v25h-25v-25z" stroke="#000" stroke-opacity="0" fill="#a0a1a2"/><path d="M496.25 240c-24.5 0-43.75 19.25-43.75 43.75v43.75h43.75c24.5 0 43.75-19.25 43.75-43.75S520.75 240 496.25 240z" stroke="#000" stroke-opacity="0" fill="#0072c6"/><path d="M470 277.5h7.5V305H470v-27.5zM487.5 285h7.5v20h-7.5v-20zM505 267.5h7.5V305H505v-37.5z" stroke="#000" stroke-opacity="0" fill="#fff"/><path d="M421.8 271.9V358h86.48l.23-37.48 27.54-35.4-10.85-27.26-27.32-14.83-24.78 11.26-15.3 17.24z" stroke="#000" stroke-opacity="0" stroke-width="0" fill-opacity="0"/><use xlink:href="#j" transform="matrix(1,0,0,1,390,369) translate(51.55 14.4)"/><path d="M-220 162a12 12 0 0 1 12-12H48a12 12 0 0 1 12 12v446a12 12 0 0 1-12 12h-256a12 12 0 0 1-12-12z" stroke="#dfe3e8" stroke-width="2" fill="#fff"/><path d="M-144.63 250.2c1.35-1.35 1.35-3.54 0-4.88l-5.93-6c-1.35-1.34-3.53-1.34-4.9 0l-5.92 6c-1.35 1.34-1.35 3.53 0 4.87l5.22 5.26v10.14l3.16 3.16 2.74-2.74V266l1.6-1.62-1.6-1.62 1.6-1.58-1.6-1.6 1.6-1.6-1.6-1.6v-.5l5.63-5.7zm-8.37-9.42c1.1-.03 1.97.85 2 1.92 0 1.1-.86 1.98-1.93 2h-.07c-1.1-.02-1.94-.9-1.92-2 .02-1.07.86-1.92 1.92-1.92z" stroke="#000" stroke-opacity="0" stroke-width="3" fill="#fcd116"/><path d="M-154.7 265.1l1.24 1.2v-9.7l-1.22-.62z" stroke="#000" stroke-opacity="0" stroke-width="3" fill="#ff8c00" fill-opacity=".4"/><path d="M-158.84 246.6h11.3v1.64h-11.3zm0 2.66h11.3v1.63h-11.3z" stroke="#000" stroke-opacity="0" stroke-width="3" fill="#fff" fill-opacity=".5"/><path d="M-152.97 300.83c-.05 0-.1 0-.14-.05l-8.98-5.17c-.07-.05-.13-.13-.13-.23s.05-.2.12-.23l8.9-5.15c.1-.06.2-.06.3 0l8.95 5.17c.07.05.13.14.13.23 0 .1-.06.2-.13.24l-8.9 5.14c-.04.04-.1.05-.14.05" stroke="#000" stroke-opacity="0" fill="#3999c6"/><path d="M-154.26 313.42l-.15-.03-8.93-5.2c-.1-.04-.14-.12-.14-.2V297.6c0-.1.05-.2.14-.24.08-.05.18-.05.27 0l8.93 5.17c.1.05.13.13.13.23v10.37c0 .1-.04.2-.13.24l-.13.02M-151.74 313.42l-.14-.03c-.08-.06-.13-.16-.13-.25v-10.3c0-.1.04-.2.12-.23l8.93-5.17c.1-.05.2-.05.28 0 .07.04.13.14.13.24v10.28c0 .1-.05.2-.13.24l-8.93 5.17-.14.02" stroke="#000" stroke-opacity="0" fill="#59b4d9"/><path d="M-151.74 313.42l-.14-.03c-.08-.06-.13-.16-.13-.25v-10.3c0-.1.04-.2.12-.23l8.93-5.17c.1-.05.2-.05.28 0 .07.04.13.14.13.24v10.28c0 .1-.05.2-.13.24l-8.93 5.17-.14.02" stroke="#000" stroke-opacity="0" fill="#fff" fill-opacity=".5"/><path d="M-162.4 314.57c-.16 0-.3-.05-.45-.12l-4.17-2.4c-.7-.4-1.2-1.3-1.2-2.1v-15.37c0-.8.5-1.7 1.2-2.1l4.17-2.4c.42-.25.97-.1 1.2.32.25.42.1.96-.3 1.2l-4.2 2.42c-.13.1-.3.4-.3.56v15.36c0 .18.16.47.3.57l4.2 2.42c.4.25.55.8.3 1.2-.15.3-.46.45-.76.45zM-143.6 289.95c.15 0 .3.05.44.13l4.17 2.4c.7.4 1.22 1.3 1.22 2.1v15.36c0 .8-.5 1.7-1.2 2.1l-4.18 2.4c-.42.25-.97.1-1.2-.3-.25-.43-.1-.97.32-1.22l4.17-2.4c.15-.1.32-.4.32-.58v-15.36c0-.17-.17-.47-.32-.56l-4.17-2.42c-.43-.24-.57-.78-.33-1.2.16-.3.47-.45.77-.45z" stroke="#000" stroke-opacity="0" fill="#7a7a7a"/><path d="M-162.48 290.5l18.9.02 4.7 3.3.26 16.78-5.32 3.5-18.54-.1-5.03-3.33s-.1-17.06.05-17c.1.06 4.97-3.17 4.97-3.17z" stroke="#000" stroke-opacity="0" stroke-width="0" fill-opacity="0"/><path d="M-168.23 351.62h6.34v6.34h-6.33v-6.34zM-168.23 343.37h6.34v6.35h-6.33v-6.35zM-168.23 359.87h6.34v6.34h-6.33v-6.33zM-159.98 359.87h6.34v6.34h-6.34v-6.33zM-151.74 359.87h6.35v6.34h-6.34v-6.33z" stroke="#000" stroke-opacity="0" fill="#a0a1a2"/><path d="M-148.88 335.76c-6.22 0-11.1 4.88-11.1 11.1v11.1h11.1c6.22 0 11.1-4.88 11.1-11.1s-4.88-11.1-11.1-11.1z" stroke="#000" stroke-opacity="0" fill="#0072c6"/><path d="M-155.54 345.28h1.9v6.97h-1.9v-6.97zM-151.1 347.18h1.9v5.07h-1.9v-5.07zM-146.66 342.74h1.9v9.5h-1.9v-9.5z" stroke="#000" stroke-opacity="0" fill="#fff"/><path d="M-167.77 343.85v21.86h21.94l.06-9.5 7-9-2.77-6.9-6.93-3.77-6.3 2.86-3.87 4.36z" stroke="#000" stroke-opacity="0" stroke-width="0" fill-opacity="0"/><path d="M-141.53 414.94c1.37 0 2.48-1.1 2.48-2.45v-.3c-1-7.75-5.4-14.04-13.95-14.04-8.55 0-13.07 5.33-13.94 14.06h-.02c-.1 1.37.9 2.58 2.26 2.72h23.17z" stroke="#000" stroke-opacity="0" fill="url(#k)"/><path d="M-153 400c-1.6 0-2.93-.4-4.25-1.23l4.24 10.87 4.15-10.8c-1.3.8-2.62 1.18-4.16 1.17z" stroke="#000" stroke-opacity="0" fill="#ef0"/><path d="M-145.16 392.23c0 4.28-3.5 7.75-7.82 7.75-4.3 0-7.8-3.47-7.8-7.75 0-4.28 3.5-7.75 7.8-7.75 4.32 0 7.82 3.47 7.82 7.75z" stroke="#000" stroke-opacity="0" fill="url(#l)"/><path d="M-144.04 462.47h.05c1.3 0 2.32-1.06 2.32-2.35v-.27c-.92-7.43-5.17-13.5-13.27-13.5s-12.4 5.13-13.28 13.5c-.1 1.32.82 2.48 2.15 2.62h22.04z" stroke="#000" stroke-opacity="0" fill="url(#m)"/><path d="M-154.8 448.12c-1.5 0-2.8-.36-4.05-1.18l3.9 10.45 4-10.38c-1.23.74-2.43 1.08-3.85 1.1z" stroke="#000" stroke-opacity="0" fill="#fff"/><path d="M-147.4 440.68c0 4.13-3.35 7.48-7.48 7.48-4.12 0-7.47-3.35-7.47-7.48 0-4.12 3.35-7.47 7.47-7.47 4.13 0 7.48 3.36 7.48 7.48z" stroke="#000" stroke-opacity="0" fill="url(#n)"/><path d="M-137.78 452.24v7.6l-6.5 3.82v-7.6l6.5-3.82z" stroke="#000" stroke-opacity="0" fill="#32bedd"/><path d="M-137.78 452.26l-6.53 3.82-6.54-3.82 6.53-3.83 6.52 3.83z" stroke="#000" stroke-opacity="0" fill="#9cebff"/><path d="M-144.33 456.06v7.6l-6.5-3.8v-7.62l6.5 3.8z" stroke="#000" stroke-opacity="0" fill="#50e6ff"/><path d="M-150.84 459.85l6.5-3.77v7.58l-6.5-3.8z" stroke="#000" stroke-opacity="0" fill="#9cebff"/><path d="M-137.78 459.85l-6.5-3.77v7.58l6.5-3.8z" stroke="#000" stroke-opacity="0" fill="#50e6ff"/><use xlink:href="#o" transform="matrix(1,0,0,1,-171.27610208816705,186.5429234338747) translate(0 22.162070181991737)"/><use xlink:href="#p" transform="matrix(1,0,0,1,-116.46171693735498,235.26682134570765) translate(0 21.775971398333354)"/><use xlink:href="#q" transform="matrix(1,0,0,1,-116.46171693735498,283.9907192575406) translate(0 21.775971398333354)"/><use xlink:href="#r" transform="matrix(1,0,0,1,-116.46171693735498,283.9907192575406) translate(73.78347755711886 21.775971398333354)"/><use xlink:href="#s" transform="matrix(1,0,0,1,-116.46171693735498,332.7146171693736) translate(0 12.573249951952217)"/><use xlink:href="#t" transform="matrix(1,0,0,1,-116.46171693735498,332.7146171693736) translate(26.207641979141517 12.573249951952217)"/><use xlink:href="#u" transform="matrix(1,0,0,1,-116.46171693735498,332.7146171693736) translate(0 30.36449490693515)"/><use xlink:href="#v" transform="matrix(1,0,0,1,-116.46171693735498,430.1624129930394) translate(0 19.81645387927778)"/><use xlink:href="#w" transform="matrix(1,0,0,1,-116.46171693735498,430.1624129930394) translate(48.351136964569015 19.81645387927778)"/><use xlink:href="#x" transform="matrix(1,0,0,1,-116.46171693735498,430.1624129930394) translate(0 41.93046762861676)"/><use xlink:href="#y" transform="matrix(1,0,0,1,-116.46171693735498,430.1624129930394) translate(38.99735589635114 41.93046762861676)"/><use xlink:href="#z" transform="matrix(1,0,0,1,-116.46171693735498,381.4385150812065) translate(0 12.573249951952217)"/><use xlink:href="#A" transform="matrix(1,0,0,1,-116.46171693735498,381.4385150812065) translate(38.89962859475434 12.573249951952217)"/><use xlink:href="#B" transform="matrix(1,0,0,1,-116.46171693735498,381.4385150812065) translate(80.00818701346489 12.573249951952217)"/><use xlink:href="#C" transform="matrix(1,0,0,1,-116.46171693735498,381.4385150812065) translate(0 30.36449490693515)"/><path d="M206.44 270c1.96 0 3.56-1.45 3.56-3.22v-.37c-1.44-10.17-7.76-18.44-20-18.44s-18.72 7-19.96 18.47c-.04 0-.04.02-.04.02-.16 1.8 1.28 3.37 3.24 3.55h33.2z" stroke="#000" stroke-opacity="0" fill="url(#D)"/><path d="M190 250.4c-2.26 0-4.2-.53-6.08-1.64l6.07 14.28 5.96-14.2c-1.88 1.08-3.76 1.56-5.97 1.55z" stroke="#000" stroke-opacity="0" fill="#ef0"/><path d="M201.24 240.18c0 5.62-5.02 10.18-11.2 10.18s-11.2-4.56-11.2-10.18 5.02-10.18 11.2-10.18 11.2 4.56 11.2 10.18z" stroke="#000" stroke-opacity="0" fill="url(#E)"/><path d="M206.44 425c1.96 0 3.56-1.45 3.56-3.22v-.37c-1.44-10.17-7.76-18.44-20-18.44s-18.72 7-19.96 18.47c-.04 0-.04.02-.04.02-.16 1.8 1.28 3.37 3.24 3.55h33.2z" stroke="#000" stroke-opacity="0" fill="url(#F)"/><path d="M190 405.4c-2.26 0-4.2-.53-6.08-1.64l6.07 14.28 5.96-14.2c-1.88 1.08-3.76 1.56-5.97 1.55z" stroke="#000" stroke-opacity="0" fill="#ef0"/><path d="M201.24 395.18c0 5.62-5.02 10.18-11.2 10.18s-11.2-4.56-11.2-10.18 5.02-10.18 11.2-10.18 11.2 4.56 11.2 10.18z" stroke="#000" stroke-opacity="0" fill="url(#G)"/><path d="M371.78 423.6h.07c1.67-.02 3.03-1.25 3.03-2.77v-.32c-1.22-8.73-6.8-15.85-17.44-15.85s-16.3 6.03-17.44 15.88c-.14 1.54 1.08 2.9 2.82 3.07h28.96z" stroke="#000" stroke-opacity="0" fill="url(#H)"/><path d="M357.64 406.72c-1.97 0-3.66-.43-5.32-1.4l5.13 12.3 5.23-12.2c-1.6.87-3.17 1.27-5.04 1.3z" stroke="#000" stroke-opacity="0" fill="#fff"/><path d="M367.36 397.96c0 4.86-4.4 8.8-9.82 8.8s-9.82-3.94-9.82-8.8c0-4.85 4.4-8.8 9.82-8.8s9.82 3.95 9.82 8.8z" stroke="#000" stroke-opacity="0" fill="url(#I)"/><path d="M380 411.56v8.95l-8.56 4.5v-8.95l8.56-4.5z" stroke="#000" stroke-opacity="0" fill="#32bedd"/><path d="M380 411.58l-8.58 4.5-8.58-4.5 8.58-4.5 8.58 4.5z" stroke="#000" stroke-opacity="0" fill="#9cebff"/><path d="M371.4 416.05V425l-8.56-4.5v-8.94l8.56 4.5z" stroke="#000" stroke-opacity="0" fill="#50e6ff"/><path d="M362.84 420.52l8.56-4.44V425l-8.56-4.48z" stroke="#000" stroke-opacity="0" fill="#9cebff"/><path d="M380 420.52l-8.56-4.44V425l8.56-4.48z" stroke="#000" stroke-opacity="0" fill="#50e6ff"/><path d="M371.78 266.52h.07c1.67-.02 3.03-1.25 3.03-2.77v-.32c-1.22-8.74-6.8-15.87-17.44-15.87s-16.3 6.03-17.44 15.9c-.14 1.52 1.08 2.9 2.82 3.06h28.96z" stroke="#000" stroke-opacity="0" fill="url(#J)"/><path d="M357.64 249.63c-1.97.02-3.66-.43-5.32-1.4l5.13 12.3 5.23-12.2c-1.6.87-3.17 1.28-5.04 1.3z" stroke="#000" stroke-opacity="0" fill="#fff"/><path d="M367.36 240.88c0 4.86-4.4 8.8-9.82 8.8s-9.82-3.94-9.82-8.8c0-4.86 4.4-8.8 9.82-8.8s9.82 3.94 9.82 8.8z" stroke="#000" stroke-opacity="0" fill="url(#K)"/><path d="M380 254.48v8.95l-8.56 4.5v-8.96l8.56-4.5z" stroke="#000" stroke-opacity="0" fill="#32bedd"/><path d="M380 254.5l-8.58 4.5-8.58-4.5 8.58-4.5 8.58 4.5z" stroke="#000" stroke-opacity="0" fill="#9cebff"/><path d="M371.4 258.97v8.95l-8.56-4.5v-8.94l8.56 4.5z" stroke="#000" stroke-opacity="0" fill="#50e6ff"/><path d="M362.84 263.44l8.56-4.45v8.92l-8.56-4.48z" stroke="#000" stroke-opacity="0" fill="#9cebff"/><path d="M380 263.44l-8.56-4.45v8.92l8.56-4.48z" stroke="#000" stroke-opacity="0" fill="#50e6ff"/><path d="M199.8 250h131.4" stroke="#3a414a" fill="none"/><path d="M199.8 250.32l-.88-.55-.86-.27h1.75z" stroke="#3a414a" stroke-width=".05" fill="#3a414a"/><path d="M345.98 250l-14.27 4.63v-9.26z" stroke="#3a414a" fill="#3a414a"/><path d="M206.13 410.22H327.7" stroke="#3a414a" fill="none"/><path d="M206.15 410.72h-.2l-.26-.44-.54-.56h1z" stroke="#3a414a" stroke-width=".05" fill="#3a414a"/><path d="M342.46 410.22l-14.26 4.64v-9.27z" stroke="#3a414a" fill="#3a414a"/><defs><path d="M114-163C36-179 61-72 57 0H25l-1-190h30c1 12-1 29 2 39 6-27 23-49 58-41v29" id="L"/><path d="M177-190C167-65 218 103 67 71c-23-6-38-20-44-43l32-5c15 47 100 32 89-28v-30C133-14 115 1 83 1 29 1 15-40 15-95c0-56 16-97 71-98 29-1 48 16 59 35 1-10 0-23 2-32h30zM94-22c36 0 50-32 50-73 0-42-14-75-50-75-39 0-46 34-46 75s6 73 46 73" id="M"/><path d="M16-82v-28h88v28H16" id="N"/><path d="M85-194c31 0 48 13 60 33l-1-100h32l1 261h-30c-2-10 0-23-3-31C134-8 116 4 85 4 32 4 16-35 15-94c0-66 23-100 70-100zm9 24c-40 0-46 34-46 75 0 40 6 74 45 74 42 0 51-32 51-76 0-42-9-74-50-73" id="O"/><path d="M100-194c63 0 86 42 84 106H49c0 40 14 67 53 68 26 1 43-12 49-29l28 8c-11 28-37 45-77 45C44 4 14-33 15-96c1-61 26-98 85-98zm52 81c6-60-76-77-97-28-3 7-6 17-6 28h103" id="P"/><path d="M210-169c-67 3-38 105-44 169h-31v-121c0-29-5-50-35-48C34-165 62-65 56 0H25l-1-190h30c1 10-1 24 2 32 10-44 99-50 107 0 11-21 27-35 58-36 85-2 47 119 55 194h-31v-121c0-29-5-49-35-48" id="Q"/><path d="M100-194c62-1 85 37 85 99 1 63-27 99-86 99S16-35 15-95c0-66 28-99 85-99zM99-20c44 1 53-31 53-75 0-43-8-75-51-75s-53 32-53 75 10 74 51 75" id="R"/><path d="M117-194c89-4 53 116 60 194h-32v-121c0-31-8-49-39-48C34-167 62-67 57 0H25l-1-190h30c1 10-1 24 2 32 11-22 29-35 61-36" id="S"/><path d="M59-47c-2 24 18 29 38 22v24C64 9 27 4 27-40v-127H5v-23h24l9-43h21v43h35v23H59v120" id="T"/><path d="M141-36C126-15 110 5 73 4 37 3 15-17 15-53c-1-64 63-63 125-63 3-35-9-54-41-54-24 1-41 7-42 31l-33-3c5-37 33-52 76-52 45 0 72 20 72 64v82c-1 20 7 32 28 27v20c-31 9-61-2-59-35zM48-53c0 20 12 33 32 33 41-3 63-29 60-74-43 2-92-5-92 41" id="U"/><path d="M96-169c-40 0-48 33-48 73s9 75 48 75c24 0 41-14 43-38l32 2c-6 37-31 61-74 61-59 0-76-41-82-99-10-93 101-131 147-64 4 7 5 14 7 22l-32 3c-4-21-16-35-41-35" id="V"/><path d="M24-231v-30h32v30H24zM24 0v-190h32V0H24" id="W"/><path d="M135-143c-3-34-86-38-87 0 15 53 115 12 119 90S17 21 10-45l28-5c4 36 97 45 98 0-10-56-113-15-118-90-4-57 82-63 122-42 12 7 21 19 24 35" id="X"/><path d="M158-156l-14 65h45v19h-49L124 0h-19l15-72H56L41 0H22l15-72H2v-19h39l14-65H11v-19h48l15-71h20l-16 71h64l16-71h19l-16 71h37v19h-40zm-83 0L61-91h63l14-65H75" id="Y"/><g id="a"><use transform="matrix(0.05,0,0,0.05,0,0)" xlink:href="#L"/><use transform="matrix(0.05,0,0,0.05,5.95,0)" xlink:href="#M"/><use transform="matrix(0.05,0,0,0.05,15.949999999999998,0)" xlink:href="#N"/><use transform="matrix(0.05,0,0,0.05,21.9,0)" xlink:href="#O"/><use transform="matrix(0.05,0,0,0.05,31.899999999999995,0)" xlink:href="#P"/><use transform="matrix(0.05,0,0,0.05,41.9,0)" xlink:href="#Q"/><use transform="matrix(0.05,0,0,0.05,56.85,0)" xlink:href="#R"/><use transform="matrix(0.05,0,0,0.05,66.85,0)" xlink:href="#N"/><use transform="matrix(0.05,0,0,0.05,72.8,0)" xlink:href="#S"/><use transform="matrix(0.05,0,0,0.05,82.8,0)" xlink:href="#R"/><use transform="matrix(0.05,0,0,0.05,92.8,0)" xlink:href="#T"/><use transform="matrix(0.05,0,0,0.05,97.8,0)" xlink:href="#U"/><use transform="matrix(0.05,0,0,0.05,107.80000000000001,0)" xlink:href="#V"/><use transform="matrix(0.05,0,0,0.05,116.80000000000001,0)" xlink:href="#T"/><use transform="matrix(0.05,0,0,0.05,121.80000000000001,0)" xlink:href="#W"/><use transform="matrix(0.05,0,0,0.05,125.75,0)" xlink:href="#R"/><use transform="matrix(0.05,0,0,0.05,135.75,0)" xlink:href="#S"/><use transform="matrix(0.05,0,0,0.05,145.75,0)" xlink:href="#X"/><use transform="matrix(0.05,0,0,0.05,154.75,0)" xlink:href="#N"/><use transform="matrix(0.05,0,0,0.05,160.7,0)" xlink:href="#Y"/><use transform="matrix(0.05,0,0,0.05,170.7,0)" xlink:href="#Y"/><use transform="matrix(0.05,0,0,0.05,180.7,0)" xlink:href="#Y"/><use transform="matrix(0.05,0,0,0.05,190.7,0)" xlink:href="#Y"/><use transform="matrix(0.05,0,0,0.05,200.7,0)" xlink:href="#Y"/></g><path d="M185-189c-5-48-123-54-124 2 14 75 158 14 163 119 3 78-121 87-175 55-17-10-28-26-33-46l33-7c5 56 141 63 141-1 0-78-155-14-162-118-5-82 145-84 179-34 5 7 8 16 11 25" id="Z"/><path d="M84 4C-5 8 30-112 23-190h32v120c0 31 7 50 39 49 72-2 45-101 50-169h31l1 190h-30c-1-10 1-25-2-33-11 22-28 36-60 37" id="aa"/><path d="M115-194c53 0 69 39 70 98 0 66-23 100-70 100C84 3 66-7 56-30L54 0H23l1-261h32v101c10-23 28-34 59-34zm-8 174c40 0 45-34 45-75 0-40-5-75-45-74-42 0-51 32-51 76 0 43 10 73 51 73" id="ab"/><path d="M115-194c55 1 70 41 70 98S169 2 115 4C84 4 66-9 55-30l1 105H24l-1-265h31l2 30c10-21 28-34 59-34zm-8 174c40 0 45-34 45-75s-6-73-45-74c-42 0-51 32-51 76 0 43 10 73 51 73" id="ac"/><g id="b"><use transform="matrix(0.05,0,0,0.05,0,0)" xlink:href="#Z"/><use transform="matrix(0.05,0,0,0.05,12,0)" xlink:href="#aa"/><use transform="matrix(0.05,0,0,0.05,22,0)" xlink:href="#ab"/><use transform="matrix(0.05,0,0,0.05,32,0)" xlink:href="#X"/><use transform="matrix(0.05,0,0,0.05,41,0)" xlink:href="#V"/><use transform="matrix(0.05,0,0,0.05,50,0)" xlink:href="#L"/><use transform="matrix(0.05,0,0,0.05,55.95,0)" xlink:href="#W"/><use transform="matrix(0.05,0,0,0.05,59.900000000000006,0)" xlink:href="#ac"/><use transform="matrix(0.05,0,0,0.05,69.9,0)" xlink:href="#T"/><use transform="matrix(0.05,0,0,0.05,74.9,0)" xlink:href="#W"/><use transform="matrix(0.05,0,0,0.05,78.85000000000001,0)" xlink:href="#R"/><use transform="matrix(0.05,0,0,0.05,88.85000000000001,0)" xlink:href="#S"/></g><path d="M212-179c-10-28-35-45-73-45-59 0-87 40-87 99 0 60 29 101 89 101 43 0 62-24 78-52l27 14C228-24 195 4 139 4 59 4 22-46 18-125c-6-104 99-153 187-111 19 9 31 26 39 46" id="ad"/><g id="c"><use transform="matrix(0.05,0,0,0.05,0,0)" xlink:href="#ad"/><use transform="matrix(0.05,0,0,0.05,12.950000000000001,0)" xlink:href="#aa"/><use transform="matrix(0.05,0,0,0.05,22.950000000000003,0)" xlink:href="#X"/><use transform="matrix(0.05,0,0,0.05,31.950000000000003,0)" xlink:href="#T"/><use transform="matrix(0.05,0,0,0.05,36.95,0)" xlink:href="#R"/><use transform="matrix(0.05,0,0,0.05,46.95,0)" xlink:href="#Q"/></g><use transform="matrix(0.05,0,0,0.05,0,0)" xlink:href="#N" id="d"/><path d="M205 0l-28-72H64L36 0H1l101-248h38L239 0h-34zm-38-99l-47-123c-12 45-31 82-46 123h93" id="ae"/><g id="e"><use transform="matrix(0.05,0,0,0.05,0,0)" xlink:href="#S"/><use transform="matrix(0.05,0,0,0.05,10,0)" xlink:href="#R"/><use transform="matrix(0.05,0,0,0.05,20,0)" xlink:href="#ae"/><use transform="matrix(0.05,0,0,0.05,32,0)" xlink:href="#V"/><use transform="matrix(0.05,0,0,0.05,41,0)" xlink:href="#T"/><use transform="matrix(0.05,0,0,0.05,46,0)" xlink:href="#W"/><use transform="matrix(0.05,0,0,0.05,49.95,0)" xlink:href="#R"/><use transform="matrix(0.05,0,0,0.05,59.95,0)" xlink:href="#S"/><use transform="matrix(0.05,0,0,0.05,69.95,0)" xlink:href="#X"/></g><path d="M30-248c118-7 216 8 213 122C240-48 200 0 122 0H30v-248zM63-27c89 8 146-16 146-99s-60-101-146-95v194" id="af"/><g id="f"><use transform="matrix(0.05,0,0,0.05,0,0)" xlink:href="#af"/><use transform="matrix(0.05,0,0,0.05,12.950000000000001,0)" xlink:href="#P"/><use transform="matrix(0.05,0,0,0.05,22.950000000000003,0)" xlink:href="#Q"/><use transform="matrix(0.05,0,0,0.05,37.900000000000006,0)" xlink:href="#R"/></g><path d="M233-177c-1 41-23 64-60 70L243 0h-38l-65-103H63V0H30v-248c88 3 205-21 203 71zM63-129c60-2 137 13 137-47 0-61-80-42-137-45v92" id="ag"/><path d="M108 0H70L1-190h34L89-25l56-165h34" id="ah"/><g id="g"><use transform="matrix(0.05,0,0,0.05,0,0)" xlink:href="#ag"/><use transform="matrix(0.05,0,0,0.05,12.950000000000001,0)" xlink:href="#P"/><use transform="matrix(0.05,0,0,0.05,22.950000000000003,0)" xlink:href="#Q"/><use transform="matrix(0.05,0,0,0.05,37.900000000000006,0)" xlink:href="#R"/><use transform="matrix(0.05,0,0,0.05,47.900000000000006,0)" xlink:href="#ah"/><use transform="matrix(0.05,0,0,0.05,56.900000000000006,0)" xlink:href="#P"/></g><g id="h"><use transform="matrix(0.05,0,0,0.05,0,0)" xlink:href="#ae"/><use transform="matrix(0.05,0,0,0.05,12,0)" xlink:href="#V"/><use transform="matrix(0.05,0,0,0.05,21,0)" xlink:href="#T"/><use transform="matrix(0.05,0,0,0.05,26,0)" xlink:href="#W"/><use transform="matrix(0.05,0,0,0.05,29.950000000000003,0)" xlink:href="#R"/><use transform="matrix(0.05,0,0,0.05,39.95,0)" xlink:href="#S"/></g><g id="i"><use transform="matrix(0.05,0,0,0.05,0,0)" xlink:href="#ae"/><use transform="matrix(0.05,0,0,0.05,12,0)" xlink:href="#O"/><use transform="matrix(0.05,0,0,0.05,22,0)" xlink:href="#O"/></g><path d="M24 0v-261h32V0H24" id="ai"/><path d="M206 0h-36l-40-164L89 0H53L-1-190h32L70-26l43-164h34l41 164 42-164h31" id="aj"/><g id="j"><use transform="matrix(0.05,0,0,0.05,0,0)" xlink:href="#ai"/><use transform="matrix(0.05,0,0,0.05,3.95,0)" xlink:href="#U"/><use transform="matrix(0.05,0,0,0.05,13.949999999999998,0)" xlink:href="#aj"/><use transform="matrix(0.05,0,0,0.05,26.899999999999995,0)" xlink:href="#Y"/><use transform="matrix(0.05,0,0,0.05,36.9,0)" xlink:href="#Y"/><use transform="matrix(0.05,0,0,0.05,46.9,0)" xlink:href="#Y"/><use transform="matrix(0.05,0,0,0.05,56.900000000000006,0)" xlink:href="#Y"/><use transform="matrix(0.05,0,0,0.05,66.9,0)" xlink:href="#Y"/></g><linearGradient gradientUnits="userSpaceOnUse" id="k" x1="-153.01" y1="395.49" x2="-153.01" y2="419.83"><stop offset="22%" stop-color="#21d400"/><stop offset="100%" stop-color="#088a00"/></linearGradient><linearGradient gradientUnits="userSpaceOnUse" id="l" x1="-153.7" y1="383.26" x2="-151.91" y2="405.46"><stop offset="22%" stop-color="#21d400"/><stop offset="100%" stop-color="#088a00"/></linearGradient><linearGradient gradientUnits="userSpaceOnUse" id="m" x1="-154.93" y1="465.06" x2="-154.93" y2="441.62"><stop offset="0%" stop-color="#5e9624"/><stop offset="100%" stop-color="#b4ec36"/></linearGradient><linearGradient gradientUnits="userSpaceOnUse" id="n" x1="-154.88" y1="449.37" x2="-154.88" y2="427.89"><stop offset="0%" stop-color="#5e9624"/><stop offset="100%" stop-color="#b4ec36"/></linearGradient><path d="M24 0v-248h52v208h133V0H24" id="ak"/><path d="M185-48c-13 30-37 53-82 52C43 2 14-33 14-96s30-98 90-98c62 0 83 45 84 108H66c0 31 8 55 39 56 18 0 30-7 34-22zm-45-69c5-46-57-63-70-21-2 6-4 13-4 21h74" id="al"/><path d="M195-6C206 82 75 100 31 46c-4-6-6-13-8-21l49-6c3 16 16 24 34 25 40 0 42-37 40-79-11 22-30 35-61 35-53 0-70-43-70-97 0-56 18-96 73-97 30 0 46 14 59 34l2-30h47zm-90-29c32 0 41-27 41-63 0-35-9-62-40-62-32 0-39 29-40 63 0 36 9 62 39 62" id="am"/><path d="M135-194c87-1 58 113 63 194h-50c-7-57 23-157-34-157-59 0-34 97-39 157H25l-1-190h47c2 12-1 28 3 38 12-26 28-41 61-42" id="an"/><path d="M88-194c31-1 46 15 58 34l-1-101h50l1 261h-48c-2-10 0-23-3-31C134-8 116 4 84 4 32 4 16-41 15-95c0-56 19-97 73-99zm17 164c33 0 40-30 41-66 1-37-9-64-41-64s-38 30-39 65c0 43 13 65 39 65" id="ao"/><g id="o"><use transform="matrix(0.04504485809347915,0,0,0.04504485809347915,0,0)" xlink:href="#ak"/><use transform="matrix(0.04504485809347915,0,0,0.04504485809347915,9.864823922471933,0)" xlink:href="#al"/><use transform="matrix(0.04504485809347915,0,0,0.04504485809347915,18.873795541167766,0)" xlink:href="#am"/><use transform="matrix(0.04504485809347915,0,0,0.04504485809347915,28.7386194636397,0)" xlink:href="#al"/><use transform="matrix(0.04504485809347915,0,0,0.04504485809347915,37.74759108233553,0)" xlink:href="#an"/><use transform="matrix(0.04504485809347915,0,0,0.04504485809347915,47.61241500480747,0)" xlink:href="#ao"/></g><g id="p"><use transform="matrix(0.045044858093479155,0,0,0.045044858093479155,0,0)" xlink:href="#Z"/><use transform="matrix(0.045044858093479155,0,0,0.045044858093479155,10.810765942434998,0)" xlink:href="#aa"/><use transform="matrix(0.045044858093479155,0,0,0.045044858093479155,19.81973756113083,0)" xlink:href="#ab"/><use transform="matrix(0.045044858093479155,0,0,0.045044858093479155,28.82870917982666,0)" xlink:href="#X"/><use transform="matrix(0.045044858093479155,0,0,0.045044858093479155,36.936783636652905,0)" xlink:href="#V"/><use transform="matrix(0.045044858093479155,0,0,0.045044858093479155,45.04485809347915,0)" xlink:href="#L"/><use transform="matrix(0.045044858093479155,0,0,0.045044858093479155,50.40519620660317,0)" xlink:href="#W"/><use transform="matrix(0.045044858093479155,0,0,0.045044858093479155,53.96373999598803,0)" xlink:href="#ac"/><use transform="matrix(0.045044858093479155,0,0,0.045044858093479155,62.97271161468386,0)" xlink:href="#T"/><use transform="matrix(0.045044858093479155,0,0,0.045044858093479155,67.47719742403177,0)" xlink:href="#W"/><use transform="matrix(0.045044858093479155,0,0,0.045044858093479155,71.03574121341663,0)" xlink:href="#R"/><use transform="matrix(0.045044858093479155,0,0,0.045044858093479155,80.04471283211245,0)" xlink:href="#S"/><use transform="matrix(0.045044858093479155,0,0,0.045044858093479155,89.05368445080828,0)" xlink:href="#X"/></g><g id="q"><use transform="matrix(0.045044858093479155,0,0,0.045044858093479155,0,0)" xlink:href="#ag"/><use transform="matrix(0.045044858093479155,0,0,0.045044858093479155,11.666618246211101,0)" xlink:href="#P"/><use transform="matrix(0.045044858093479155,0,0,0.045044858093479155,20.675589864906932,0)" xlink:href="#X"/><use transform="matrix(0.045044858093479155,0,0,0.045044858093479155,28.78366432173318,0)" xlink:href="#R"/><use transform="matrix(0.045044858093479155,0,0,0.045044858093479155,37.792635940429015,0)" xlink:href="#aa"/><use transform="matrix(0.045044858093479155,0,0,0.045044858093479155,46.80160755912484,0)" xlink:href="#L"/><use transform="matrix(0.045044858093479155,0,0,0.045044858093479155,52.16194567224887,0)" xlink:href="#V"/><use transform="matrix(0.045044858093479155,0,0,0.045044858093479155,60.27002012907511,0)" xlink:href="#P"/></g><path d="M143 4C61 4 22-44 18-125c-5-107 100-154 193-111 17 8 29 25 37 43l-32 9c-13-25-37-40-76-40-61 0-88 39-88 99 0 61 29 100 91 101 35 0 62-11 79-27v-45h-74v-28h105v86C228-13 192 4 143 4" id="ap"/><g id="r"><use transform="matrix(0.045044858093479155,0,0,0.045044858093479155,0,0)" xlink:href="#ap"/><use transform="matrix(0.045044858093479155,0,0,0.045044858093479155,12.612560266174164,0)" xlink:href="#L"/><use transform="matrix(0.045044858093479155,0,0,0.045044858093479155,17.972898379298183,0)" xlink:href="#R"/><use transform="matrix(0.045044858093479155,0,0,0.045044858093479155,26.981869997994014,0)" xlink:href="#aa"/><use transform="matrix(0.045044858093479155,0,0,0.045044858093479155,35.99084161668984,0)" xlink:href="#ac"/><use transform="matrix(0.045044858093479155,0,0,0.045044858093479155,44.99981323538567,0)" xlink:href="#X"/></g><path d="M30 0v-248h33v221h125V0H30" id="aq"/><g id="s"><use transform="matrix(0.03743948854163074,0,0,0.03743948854163074,0,0)" xlink:href="#aq"/><use transform="matrix(0.03743948854163074,0,0,0.03743948854163074,7.487897708326148,0)" xlink:href="#R"/><use transform="matrix(0.03743948854163074,0,0,0.03743948854163074,14.975795416652296,0)" xlink:href="#M"/></g><path d="M179-190L93 31C79 59 56 82 12 73V49c39 6 53-20 64-50L1-190h34L92-34l54-156h33" id="ar"/><g id="t"><use transform="matrix(0.03743948854163074,0,0,0.03743948854163074,0,0)" xlink:href="#ae"/><use transform="matrix(0.03743948854163074,0,0,0.03743948854163074,8.985477249991378,0)" xlink:href="#S"/><use transform="matrix(0.03743948854163074,0,0,0.03743948854163074,16.473374958317525,0)" xlink:href="#U"/><use transform="matrix(0.03743948854163074,0,0,0.03743948854163074,23.961272666643673,0)" xlink:href="#ai"/><use transform="matrix(0.03743948854163074,0,0,0.03743948854163074,26.918992261432503,0)" xlink:href="#ar"/><use transform="matrix(0.03743948854163074,0,0,0.03743948854163074,33.658100198926036,0)" xlink:href="#T"/><use transform="matrix(0.03743948854163074,0,0,0.03743948854163074,37.4020490530891,0)" xlink:href="#W"/><use transform="matrix(0.03743948854163074,0,0,0.03743948854163074,40.359768647877935,0)" xlink:href="#V"/><use transform="matrix(0.03743948854163074,0,0,0.03743948854163074,47.098876585371464,0)" xlink:href="#X"/></g><path d="M266 0h-40l-56-210L115 0H75L2-248h35L96-30l15-64 43-154h32l59 218 59-218h35" id="as"/><path d="M143 0L79-87 56-68V0H24v-261h32v163l83-92h37l-77 82L181 0h-38" id="at"/><g id="u"><use transform="matrix(0.03743948854163074,0,0,0.03743948854163074,0,0)" xlink:href="#as"/><use transform="matrix(0.03743948854163074,0,0,0.03743948854163074,12.429910195821405,0)" xlink:href="#R"/><use transform="matrix(0.03743948854163074,0,0,0.03743948854163074,19.917807904147555,0)" xlink:href="#L"/><use transform="matrix(0.03743948854163074,0,0,0.03743948854163074,24.37310704060161,0)" xlink:href="#at"/><use transform="matrix(0.03743948854163074,0,0,0.03743948854163074,31.11221497809515,0)" xlink:href="#X"/><use transform="matrix(0.03743948854163074,0,0,0.03743948854163074,37.85132291558868,0)" xlink:href="#ac"/><use transform="matrix(0.03743948854163074,0,0,0.03743948854163074,45.339220623914834,0)" xlink:href="#U"/><use transform="matrix(0.03743948854163074,0,0,0.03743948854163074,52.82711833224097,0)" xlink:href="#V"/><use transform="matrix(0.03743948854163074,0,0,0.03743948854163074,59.566226269734514,0)" xlink:href="#P"/><use transform="matrix(0.03743948854163074,0,0,0.03743948854163074,67.05412397806066,0)" xlink:href="#X"/></g><path d="M9 0v-24l116-142H16v-24h144v24L44-24h123V0H9" id="au"/><g id="v"><use transform="matrix(0.046536224219989424,0,0,0.046536224219989424,0,0)" xlink:href="#ae"/><use transform="matrix(0.046536224219989424,0,0,0.046536224219989424,11.168693812797462,0)" xlink:href="#au"/><use transform="matrix(0.046536224219989424,0,0,0.046536224219989424,19.54521417239556,0)" xlink:href="#aa"/><use transform="matrix(0.046536224219989424,0,0,0.046536224219989424,28.852459016393446,0)" xlink:href="#L"/><use transform="matrix(0.046536224219989424,0,0,0.046536224219989424,34.39026969857219,0)" xlink:href="#P"/></g><path d="M160-131c35 5 61 23 61 61C221 17 115-2 30 0v-248c76 3 177-17 177 60 0 33-19 50-47 57zm-97-11c50-1 110 9 110-42 0-47-63-36-110-37v79zm0 115c55-2 124 14 124-45 0-56-70-42-124-44v89" id="av"/><g id="w"><use transform="matrix(0.046536224219989424,0,0,0.046536224219989424,0,0)" xlink:href="#ag"/><use transform="matrix(0.046536224219989424,0,0,0.046536224219989424,12.05288207297726,0)" xlink:href="#av"/><use transform="matrix(0.046536224219989424,0,0,0.046536224219989424,23.221575885774726,0)" xlink:href="#ae"/><use transform="matrix(0.046536224219989424,0,0,0.046536224219989424,34.39026969857219,0)" xlink:href="#ad"/></g><g id="x"><use transform="matrix(0.046536224219989424,0,0,0.046536224219989424,0,0)" xlink:href="#ag"/><use transform="matrix(0.046536224219989424,0,0,0.046536224219989424,12.05288207297726,0)" xlink:href="#R"/><use transform="matrix(0.046536224219989424,0,0,0.046536224219989424,21.360126916975148,0)" xlink:href="#ai"/><use transform="matrix(0.046536224219989424,0,0,0.046536224219989424,25.036488630354317,0)" xlink:href="#P"/></g><g id="y"><use transform="matrix(0.046536224219989424,0,0,0.046536224219989424,0,0)" xlink:href="#ae"/><use transform="matrix(0.046536224219989424,0,0,0.046536224219989424,11.168693812797462,0)" xlink:href="#X"/><use transform="matrix(0.046536224219989424,0,0,0.046536224219989424,19.54521417239556,0)" xlink:href="#X"/><use transform="matrix(0.046536224219989424,0,0,0.046536224219989424,27.92173453199366,0)" xlink:href="#W"/><use transform="matrix(0.046536224219989424,0,0,0.046536224219989424,31.598096245372822,0)" xlink:href="#M"/><use transform="matrix(0.046536224219989424,0,0,0.046536224219989424,40.90534108937071,0)" xlink:href="#S"/><use transform="matrix(0.046536224219989424,0,0,0.046536224219989424,50.2125859333686,0)" xlink:href="#Q"/><use transform="matrix(0.046536224219989424,0,0,0.046536224219989424,64.12691697514543,0)" xlink:href="#P"/><use transform="matrix(0.046536224219989424,0,0,0.046536224219989424,73.43416181914333,0)" xlink:href="#S"/><use transform="matrix(0.046536224219989424,0,0,0.046536224219989424,82.7414066631412,0)" xlink:href="#T"/></g><g id="z"><use transform="matrix(0.03743948854163074,0,0,0.03743948854163074,0,0)" xlink:href="#ae"/><use transform="matrix(0.03743948854163074,0,0,0.03743948854163074,8.985477249991378,0)" xlink:href="#au"/><use transform="matrix(0.03743948854163074,0,0,0.03743948854163074,15.724585187484912,0)" xlink:href="#aa"/><use transform="matrix(0.03743948854163074,0,0,0.03743948854163074,23.21248289581106,0)" xlink:href="#L"/><use transform="matrix(0.03743948854163074,0,0,0.03743948854163074,27.667782032265123,0)" xlink:href="#P"/></g><g id="A"><use transform="matrix(0.03743948854163074,0,0,0.03743948854163074,0,0)" xlink:href="#ag"/><use transform="matrix(0.03743948854163074,0,0,0.03743948854163074,9.696827532282365,0)" xlink:href="#av"/><use transform="matrix(0.03743948854163074,0,0,0.03743948854163074,18.682304782273743,0)" xlink:href="#ae"/><use transform="matrix(0.03743948854163074,0,0,0.03743948854163074,27.667782032265123,0)" xlink:href="#ad"/></g><g id="B"><use transform="matrix(0.03743948854163074,0,0,0.03743948854163074,0,0)" xlink:href="#ag"/><use transform="matrix(0.03743948854163074,0,0,0.03743948854163074,9.696827532282365,0)" xlink:href="#R"/><use transform="matrix(0.03743948854163074,0,0,0.03743948854163074,17.18472524060851,0)" xlink:href="#ai"/><use transform="matrix(0.03743948854163074,0,0,0.03743948854163074,20.14244483539734,0)" xlink:href="#P"/></g><path d="M101-234c-31-9-42 10-38 44h38v23H63V0H32v-167H5v-23h27c-7-52 17-82 69-68v24" id="aw"/><g id="C"><use transform="matrix(0.03743948854163074,0,0,0.03743948854163074,0,0)" xlink:href="#af"/><use transform="matrix(0.03743948854163074,0,0,0.03743948854163074,9.696827532282365,0)" xlink:href="#P"/><use transform="matrix(0.03743948854163074,0,0,0.03743948854163074,17.18472524060851,0)" xlink:href="#aw"/><use transform="matrix(0.03743948854163074,0,0,0.03743948854163074,20.928674094771587,0)" xlink:href="#W"/><use transform="matrix(0.03743948854163074,0,0,0.03743948854163074,23.88639368956041,0)" xlink:href="#S"/><use transform="matrix(0.03743948854163074,0,0,0.03743948854163074,31.37429139788656,0)" xlink:href="#W"/><use transform="matrix(0.03743948854163074,0,0,0.03743948854163074,34.33201099267539,0)" xlink:href="#T"/><use transform="matrix(0.03743948854163074,0,0,0.03743948854163074,38.07595984683846,0)" xlink:href="#W"/><use transform="matrix(0.03743948854163074,0,0,0.03743948854163074,41.03367944162729,0)" xlink:href="#R"/><use transform="matrix(0.03743948854163074,0,0,0.03743948854163074,48.52157714995344,0)" xlink:href="#S"/></g><linearGradient gradientUnits="userSpaceOnUse" id="D" x1="190" y1="225.12" x2="190" y2="279.89"><stop offset="22%" stop-color="#21d400"/><stop offset="100%" stop-color="#088a00"/></linearGradient><linearGradient gradientUnits="userSpaceOnUse" id="E" x1="188.25" y1="228.25" x2="192.58" y2="282.05"><stop offset="22%" stop-color="#21d400"/><stop offset="100%" stop-color="#088a00"/></linearGradient><linearGradient gradientUnits="userSpaceOnUse" id="F" x1="190" y1="380.12" x2="190" y2="434.89"><stop offset="22%" stop-color="#21d400"/><stop offset="100%" stop-color="#088a00"/></linearGradient><linearGradient gradientUnits="userSpaceOnUse" id="G" x1="188.25" y1="383.25" x2="192.58" y2="437.05"><stop offset="22%" stop-color="#21d400"/><stop offset="100%" stop-color="#088a00"/></linearGradient><linearGradient gradientUnits="userSpaceOnUse" id="H" x1="360.04" y1="429.38" x2="360.04" y2="380.29"><stop offset="0%" stop-color="#5e9624"/><stop offset="100%" stop-color="#b4ec36"/></linearGradient><linearGradient gradientUnits="userSpaceOnUse" id="I" x1="360" y1="426.59" x2="360" y2="378.34"><stop offset="0%" stop-color="#5e9624"/><stop offset="100%" stop-color="#b4ec36"/></linearGradient><linearGradient gradientUnits="userSpaceOnUse" id="J" x1="360.04" y1="272.3" x2="360.04" y2="223.2"><stop offset="0%" stop-color="#5e9624"/><stop offset="100%" stop-color="#b4ec36"/></linearGradient><linearGradient gradientUnits="userSpaceOnUse" id="K" x1="360" y1="269.51" x2="360" y2="221.26"><stop offset="0%" stop-color="#5e9624"/><stop offset="100%" stop-color="#b4ec36"/></linearGradient></defs></g></svg>