<svg xmlns="http://www.w3.org/2000/svg" xmlns:xlink="http://www.w3.org/1999/xlink" xmlns:lucid="lucid" width="1071.08" height="560.5"><g transform="translate(-173.79583333333335 118.91666666666666)" lucid:page-tab-id="sfEVRvF4WmOL"><path d="M0-500h1500V500H0z" fill="#fff"/><path d="M495.3-91.42a6 6 0 0 1 6-6h668a6 6 0 0 1 6 6v458a6 6 0 0 1-6 6h-668a6 6 0 0 1-6-6z" stroke="#3a414a" fill="#fff"/><path d="M735.3-41.42a6 6 0 0 1 6-6h308a6 6 0 0 1 6 6v248a6 6 0 0 1-6 6h-308a6 6 0 0 1-6-6z" stroke="#3a414a" fill="#fff"/><path d="M1015.3 225.34c0 .24.1.42.27.54l4.1 2.4 6.94 4.26c.3.12.65.06.82-.24l2.34-4.2c.13-.3.04-.6-.22-.78l-8.13-4.86c-.16-.12-.27-.3-.27-.54v-38.58c0-.24.1-.42.28-.54l8.14-4.86c.26-.18.35-.48.22-.78l-2.34-4.2c-.16-.3-.52-.42-.8-.3l-6.8 4.14-4.25 2.52c-.17.12-.27.3-.27.54v45.48z" stroke="#000" stroke-opacity="0" fill="#949494"/><path d="M1021.07 183.02l.22-.22 8.1-4.86.1-.05c.2-.18.27-.5.1-.74l-2.32-4.2-.05-.1c-.15-.28-.47-.36-.73-.2l-6.8 4.15-4.2 2.52s-.17 0-.2.23l3.16 1.9zM1029.43 227.23l-8.13-4.87c-.1-.1-.18-.2-.24-.34l-5.73 3.75h.17l4.07 2.43 7.07 4.17c.03 0 .04.03.07.04.27.15.6.02.72-.26l2.33-4.2c0-.02 0-.04.03-.06.07-.28-.1-.56-.35-.65z" stroke="#000" stroke-opacity="0" fill="#a3a3a3"/><path d="M1075.3 225.34c0 .24-.1.42-.28.54l-4.1 2.4-6.94 4.26c-.3.12-.63.06-.8-.24l-2.35-4.2c-.13-.3-.04-.6.22-.78l8.13-4.86c.18-.12.28-.3.28-.54v-38.58c0-.24-.1-.42-.28-.54l-8.13-4.86c-.26-.18-.35-.48-.22-.78l2.34-4.2c.15-.3.5-.42.8-.3l6.8 4.08 4.25 2.52c.17.12.28.3.28.54v45.54z" stroke="#000" stroke-opacity="0" fill="#949494"/><path d="M1069.52 183.02l-.2-.22-8.12-4.86c-.25-.12-.38-.42-.26-.7l.04-.08 2.34-4.2c.08-.3.38-.45.66-.34.04 0 .07.03.1.05l6.8 4.07 4.2 2.5.22.23-3.17 1.9zM1061.17 227.23l8.1-4.87c.13-.1.2-.2.25-.34l5.72 3.75-4.06 2.43-7.05 4.17c-.23.17-.56.1-.73-.16-.02 0-.03-.03-.05-.06l-2.32-4.2c-.15-.24-.07-.55.14-.7z" stroke="#000" stroke-opacity="0" fill="#a3a3a3"/><path d="M1064.02 191.12v22.95l-18.78 11.55v-22.97l18.78-11.53z" stroke="#000" stroke-opacity="0" fill="#32bedd"/><path d="M1064.02 191.1l-18.75 11.54-18.75-11.55 18.75-11.56 18.75 11.55z" stroke="#000" stroke-opacity="0" fill="#9cebff"/><path d="M1045.24 202.68v22.94l-18.72-11.55v-22.95l18.72 11.56z" stroke="#000" stroke-opacity="0" fill="#50e6ff"/><path d="M1026.52 214.1l18.72-11.46v22.98l-18.72-11.53z" stroke="#000" stroke-opacity="0" fill="#9cebff"/><path d="M1064.02 214.1l-18.78-11.46v22.98l18.78-11.53z" stroke="#000" stroke-opacity="0" fill="#50e6ff"/><path d="M1027.4 172.96h35.83l-1.98 4.4 8.7 5.1.2 40.1-8.65 5 2.22 4.27-.5.47h-35.83l2.02-4.56-8.76-5.46.1-39.88 8.6-4.8-2.3-4.16z" stroke="#000" stroke-opacity="0" fill-opacity="0"/><use xlink:href="#a" transform="matrix(1,0,0,1,985.2958333333333,241.58333333333334) translate(-55.29999999999998 14.4)"/><path d="M1193.14 355.98c2.88-2.64 2.88-6.96 0-9.6l-12.64-11.82c-2.88-2.64-7.52-2.64-10.4 0l-12.64 11.82c-2.88 2.64-2.88 6.96 0 9.6l11.12 10.38v19.98l6.72 6.24 5.84-5.4v-.06l3.4-3.18-3.4-3.18 3.4-3.12-3.4-3.18 3.4-3.12-3.4-3.18v-.96l12-11.22zm-17.84-18.54c2.32-.06 4.2 1.68 4.24 3.78.04 2.16-1.8 3.9-4.08 3.96h-.16c-2.32-.06-4.12-1.8-4.08-3.96.04-2.1 1.84-3.78 4.08-3.78z" stroke="#000" stroke-opacity="0" stroke-width="3" fill="#fcd116"/><path d="M1171.72 385.33l2.62 2.4V368.6l-2.62-1.2z" stroke="#000" stroke-opacity="0" stroke-width="3" fill="#ff8c00" fill-opacity=".4"/><path d="M1162.87 348.92h24.05v3.22h-24.05zm0 5.23h24.05v3.22h-24.05z" stroke="#000" stroke-opacity="0" stroke-width="3" fill="#fff" fill-opacity=".5"/><use xlink:href="#b" transform="matrix(1,0,0,1,1125.2958333333333,401.58333333333337) translate(0.5749999999999957 14.4)"/><path d="M567.94 26.5a6 6 0 0 1 6-6h62.7a6 6 0 0 1 6 6V54a6 6 0 0 1-6 6h-62.7a6 6 0 0 1-6-6z" stroke="#000" stroke-opacity="0" fill="#fff" fill-opacity="0"/><use xlink:href="#c" transform="matrix(1,0,0,1,572.94375,25.49999999999997) translate(6.049999999999997 18.15)"/><path d="M545.3 183.58a6 6 0 0 1 6-6h108a6 6 0 0 1 6 6V199a6 6 0 0 1-6 6h-108a6 6 0 0 1-6-6z" stroke="#000" stroke-opacity="0" fill="#fff" fill-opacity="0"/><use xlink:href="#d" transform="matrix(1,0,0,1,550.2958333333333,182.58333333333334) translate(10.599999999999994 15.525)"/><path d="M835.3 55.08h25v25h-25v-25zM835.3 22.58h25v25h-25v-25zM835.3 87.58h25v25h-25v-25zM867.8 87.58h25v25h-25v-25zM900.3 87.58h25v25h-25v-25z" stroke="#000" stroke-opacity="0" fill="#a0a1a2"/><path d="M911.55-7.42c-24.5 0-43.75 19.25-43.75 43.75v43.75h43.75c24.5 0 43.75-19.25 43.75-43.75S936.05-7.42 911.55-7.42z" stroke="#000" stroke-opacity="0" fill="#0072c6"/><path d="M885.3 30.08h7.5v27.5h-7.5v-27.5zM902.8 37.58h7.5v20h-7.5v-20zM920.3 20.08h7.5v37.5h-7.5v-37.5z" stroke="#000" stroke-opacity="0" fill="#fff"/><path d="M837.1 24.47v86.12h86.48l.22-37.5 27.53-35.4-10.85-27.26-27.3-14.83-24.8 11.28-15.3 17.24z" stroke="#000" stroke-opacity="0" stroke-width="0" fill-opacity="0"/><use xlink:href="#e" transform="matrix(1,0,0,1,805.2958333333333,121.58333333333334) translate(51.55 14.4)"/><path d="M195.3-85.42a12 12 0 0 1 12-12h256a12 12 0 0 1 12 12v446a12 12 0 0 1-12 12h-256a12 12 0 0 1-12-12z" stroke="#dfe3e8" stroke-width="2" fill="#fff"/><path d="M270.67 2.77c1.35-1.34 1.35-3.53 0-4.87l-5.94-6c-1.35-1.34-3.53-1.34-4.88 0l-5.93 6c-1.36 1.34-1.36 3.53 0 4.87l5.22 5.27v10.14l3.15 3.17 2.73-2.74v-.02l1.6-1.62-1.6-1.6 1.6-1.6-1.6-1.6 1.6-1.6-1.6-1.6v-.5l5.64-5.7zm-8.38-9.4c1.08-.04 1.96.84 1.98 1.9.02 1.1-.84 2-1.9 2.02h-.1c-1.08-.04-1.92-.92-1.9-2.02 0-1.07.86-1.92 1.9-1.92z" stroke="#000" stroke-opacity="0" stroke-width="3" fill="#fcd116"/><path d="M260.6 17.67l1.24 1.22V9.16l-1.23-.6z" stroke="#000" stroke-opacity="0" stroke-width="3" fill="#ff8c00" fill-opacity=".4"/><path d="M256.45-.8h11.3V.8h-11.3zm0 2.64h11.3v1.64h-11.3z" stroke="#000" stroke-opacity="0" stroke-width="3" fill="#fff" fill-opacity=".5"/><path d="M262.33 53.4c-.06 0-.1 0-.15-.03l-8.96-5.18c-.07-.06-.13-.15-.13-.25s.05-.18.12-.23l8.9-5.15c.1-.04.2-.04.28 0l8.96 5.2c.08.03.13.13.13.2 0 .12-.06.2-.14.25l-8.9 5.15c-.04.03-.1.04-.13.04" stroke="#000" stroke-opacity="0" fill="#3999c6"/><path d="M261.03 66c-.04 0-.1 0-.14-.03l-8.93-5.18c-.1-.05-.15-.13-.15-.23V50.2c0-.1.05-.2.15-.24.07-.05.18-.05.26 0l8.94 5.18c.08.05.13.13.13.22v10.37c0 .1-.05.2-.13.24l-.14.03M263.56 66c-.05 0-.1 0-.14-.03-.1-.05-.13-.14-.13-.24v-10.3c0-.1.03-.18.12-.23l8.93-5.17c.08-.05.2-.05.27 0 .08.05.14.14.14.24v10.3c0 .1-.05.18-.14.23l-8.93 5.17c-.04.02-.1.03-.14.03" stroke="#000" stroke-opacity="0" fill="#59b4d9"/><path d="M263.56 66c-.05 0-.1 0-.14-.03-.1-.05-.13-.14-.13-.24v-10.3c0-.1.03-.18.12-.23l8.93-5.17c.08-.05.2-.05.27 0 .08.05.14.14.14.24v10.3c0 .1-.05.18-.14.23l-8.93 5.17c-.04.02-.1.03-.14.03" stroke="#000" stroke-opacity="0" fill="#fff" fill-opacity=".5"/><path d="M252.9 67.15c-.17 0-.3-.05-.46-.12l-4.17-2.4c-.7-.4-1.2-1.3-1.2-2.1V47.16c0-.82.5-1.7 1.2-2.1l4.17-2.4c.43-.25.97-.1 1.2.3.26.43.1.97-.3 1.22l-4.18 2.4c-.15.1-.32.4-.32.57v15.35c0 .18.17.47.32.57l4.17 2.4c.42.25.57.8.32 1.2-.16.3-.46.45-.76.45zM271.7 42.54c.15 0 .3.05.44.12l4.17 2.4c.7.4 1.22 1.3 1.22 2.1v15.37c0 .8-.5 1.7-1.2 2.1l-4.18 2.4c-.43.25-.97.1-1.2-.32-.26-.4-.1-.95.3-1.2l4.18-2.4c.15-.1.33-.4.33-.58V47.16c0-.17-.18-.46-.33-.56l-4.17-2.4c-.42-.26-.57-.8-.32-1.22.16-.3.46-.44.76-.44z" stroke="#000" stroke-opacity="0" fill="#7a7a7a"/><path d="M252.82 43.08l18.88.03 4.72 3.3.26 16.78-5.32 3.5-18.54-.1-5.03-3.33s-.1-17.05.04-17c.12.06 4.98-3.17 4.98-3.17z" stroke="#000" stroke-opacity="0" stroke-width="0" fill-opacity="0"/><path d="M247.06 104.2h6.35v6.35h-6.34v-6.35zM247.06 95.96h6.35v6.34h-6.34v-6.34zM247.06 112.45h6.35v6.35h-6.34v-6.35zM255.3 112.45h6.36v6.35h-6.35v-6.35zM263.56 112.45h6.34v6.35h-6.34v-6.35z" stroke="#000" stroke-opacity="0" fill="#a0a1a2"/><path d="M266.4 88.34c-6.2 0-11.1 4.9-11.1 11.1v11.1h11.1c6.23 0 11.12-4.88 11.12-11.1 0-6.2-4.9-11.1-11.1-11.1z" stroke="#000" stroke-opacity="0" fill="#0072c6"/><path d="M259.75 97.86h1.9v6.98h-1.9v-6.98zM264.2 99.76h1.9v5.08h-1.9v-5.08zM268.64 95.32h1.9v9.52h-1.9v-9.52z" stroke="#000" stroke-opacity="0" fill="#fff"/><path d="M247.52 96.43v21.86h21.95l.05-9.52 7-9-2.76-6.9-6.93-3.77-6.3 2.87-3.88 4.38z" stroke="#000" stroke-opacity="0" stroke-width="0" fill-opacity="0"/><path d="M273.76 167.52c1.37 0 2.5-1.1 2.5-2.45v-.28c-1.02-7.77-5.43-14.06-13.97-14.06-8.55 0-13.07 5.34-13.94 14.06-.03 0-.03.02-.03.02-.1 1.36.9 2.57 2.26 2.7h23.16z" stroke="#000" stroke-opacity="0" fill="url(#f)"/><path d="M262.28 152.6c-1.57 0-2.9-.4-4.23-1.25l4.23 10.87 4.17-10.8c-1.3.8-2.62 1.18-4.17 1.17z" stroke="#000" stroke-opacity="0" fill="#ef0"/><path d="M270.13 144.82c0 4.28-3.5 7.75-7.8 7.75-4.33 0-7.83-3.47-7.83-7.75 0-4.28 3.5-7.75 7.82-7.75 4.3 0 7.8 3.47 7.8 7.75z" stroke="#000" stroke-opacity="0" fill="url(#g)"/><path d="M271.26 215.06h.05c1.28-.02 2.32-1.07 2.32-2.36v-.27c-.93-7.43-5.18-13.48-13.28-13.48s-12.4 5.12-13.27 13.5c-.1 1.3.82 2.46 2.15 2.6h22.04z" stroke="#000" stroke-opacity="0" fill="url(#h)"/><path d="M260.5 200.7c-1.5.02-2.8-.36-4.06-1.17l3.9 10.44 4-10.37c-1.22.74-2.42 1.08-3.84 1.1z" stroke="#000" stroke-opacity="0" fill="#fff"/><path d="M267.9 193.27c0 4.12-3.35 7.47-7.48 7.47-4.13 0-7.48-3.35-7.48-7.47 0-4.13 3.35-7.48 7.48-7.48 4.13 0 7.47 3.34 7.47 7.47z" stroke="#000" stroke-opacity="0" fill="url(#i)"/><path d="M277.52 204.82v7.6l-6.52 3.82v-7.6l6.52-3.82z" stroke="#000" stroke-opacity="0" fill="#32bedd"/><path d="M277.52 204.84l-6.53 3.82-6.55-3.82 6.54-3.82 6.52 3.82z" stroke="#000" stroke-opacity="0" fill="#9cebff"/><path d="M270.97 208.64v7.6l-6.52-3.8v-7.62l6.52 3.82z" stroke="#000" stroke-opacity="0" fill="#50e6ff"/><path d="M264.45 212.44l6.52-3.78v7.58l-6.52-3.8z" stroke="#000" stroke-opacity="0" fill="#9cebff"/><path d="M277.52 212.44l-6.52-3.78v7.58l6.52-3.8z" stroke="#000" stroke-opacity="0" fill="#50e6ff"/><path d="M272.56 263.7H271v-2.87c0-6.03-3.85-9.14-8.33-9.14h-.73c-4.58 0-8.36 3-8.36 9.13v2.86h-1.53c-.66 0-1.56.87-1.56 1.54v15.35c0 .66.9 1.54 1.55 1.54h20.48c.66 0 1.56-.88 1.56-1.55v-15.36c-.08-.67-.98-1.55-1.54-1.55zm-9.16 9.06v6.37h-2.3v-6.37c-.9-.42-1.55-1.3-1.55-2.37 0-1.47 1.25-2.7 2.7-2.7 1.48 0 2.7 1.23 2.7 2.7 0 .96-.65 1.85-1.55 2.36zm4.74-9.07h-11.68v-2.87c0-3.84 2.03-6.46 5.48-6.46h.73c3.5 0 5.47 2.62 5.47 6.46v2.86z" stroke="#000" stroke-opacity="0" fill="#0078d7"/><use xlink:href="#j" transform="matrix(1,0,0,1,244.0197312451663,-60.873743232791945) translate(0 22.162070181991737)"/><use xlink:href="#k" transform="matrix(1,0,0,1,298.83411639597836,-12.149845320959002) translate(0 21.775971398333354)"/><use xlink:href="#l" transform="matrix(1,0,0,1,298.83411639597836,36.57405259087395) translate(0 21.775971398333354)"/><use xlink:href="#m" transform="matrix(1,0,0,1,298.83411639597836,36.57405259087395) translate(73.78347755711886 21.775971398333354)"/><use xlink:href="#n" transform="matrix(1,0,0,1,298.83411639597836,85.2979505027069) translate(0 12.573249951952217)"/><use xlink:href="#o" transform="matrix(1,0,0,1,298.83411639597836,85.2979505027069) translate(26.207641979141517 12.573249951952217)"/><use xlink:href="#p" transform="matrix(1,0,0,1,298.83411639597836,85.2979505027069) translate(0 30.36449490693515)"/><use xlink:href="#q" transform="matrix(1,0,0,1,298.83411639597836,134.02184841453985) translate(0 12.573249951952217)"/><use xlink:href="#r" transform="matrix(1,0,0,1,298.83411639597836,134.02184841453985) translate(38.89962859475434 12.573249951952217)"/><use xlink:href="#s" transform="matrix(1,0,0,1,298.83411639597836,134.02184841453985) translate(80.00818701346489 12.573249951952217)"/><use xlink:href="#t" transform="matrix(1,0,0,1,298.83411639597836,134.02184841453985) translate(0 30.36449490693515)"/><use xlink:href="#u" transform="matrix(1,0,0,1,298.83411639597836,182.74574632637277) translate(0 19.81645387927778)"/><use xlink:href="#v" transform="matrix(1,0,0,1,298.83411639597836,182.74574632637277) translate(48.351136964569015 19.81645387927778)"/><use xlink:href="#w" transform="matrix(1,0,0,1,298.83411639597836,182.74574632637277) translate(0 41.93046762861676)"/><use xlink:href="#x" transform="matrix(1,0,0,1,298.83411639597836,182.74574632637277) translate(38.99735589635114 41.93046762861676)"/><use xlink:href="#l" transform="matrix(1,0,0,1,298.83411639597836,248.6448182521269) translate(0 21.775971398333354)"/><use xlink:href="#y" transform="matrix(1,0,0,1,298.83411639597836,248.6448182521269) translate(73.78347755711886 21.775971398333354)"/><path d="M621.74 22.58c1.96 0 3.56-1.45 3.56-3.2v-.02V19C623.86 8.8 617.54.53 605.3.53s-18.72 7-19.96 18.47c-.04 0-.04.04-.04.04-.16 1.78 1.28 3.37 3.24 3.54h33.2z" stroke="#000" stroke-opacity="0" fill="url(#z)"/><path d="M605.28 2.97c-2.25 0-4.17-.5-6.06-1.63l6.06 14.28 5.98-14.2c-1.88 1.08-3.76 1.57-5.98 1.55z" stroke="#000" stroke-opacity="0" fill="#ef0"/><path d="M616.54-7.24c0 5.62-5.02 10.18-11.2 10.18-6.2 0-11.2-4.56-11.2-10.18s5-10.18 11.2-10.18c6.18 0 11.2 4.56 11.2 10.18z" stroke="#000" stroke-opacity="0" fill="url(#A)"/><path d="M621.74 177.58c1.96 0 3.56-1.45 3.56-3.22V174c-1.44-10.2-7.76-18.46-20-18.46s-18.72 7-19.96 18.47c-.04 0-.04.03-.04.03-.16 1.8 1.28 3.38 3.24 3.55h33.2z" stroke="#000" stroke-opacity="0" fill="url(#B)"/><path d="M605.28 157.97c-2.25 0-4.17-.5-6.06-1.63l6.06 14.28 5.98-14.2c-1.88 1.08-3.76 1.57-5.98 1.55z" stroke="#000" stroke-opacity="0" fill="#ef0"/><path d="M616.54 147.76c0 5.62-5.02 10.18-11.2 10.18-6.2 0-11.2-4.56-11.2-10.18s5-10.18 11.2-10.18c6.18 0 11.2 4.56 11.2 10.18z" stroke="#000" stroke-opacity="0" fill="url(#C)"/><path d="M787.07 176.2h.07c1.68-.03 3.04-1.26 3.04-2.78v-.32c-1.22-8.74-6.8-15.87-17.44-15.87s-16.3 6.03-17.44 15.9c-.14 1.52 1.08 2.88 2.82 3.06h28.95z" stroke="#000" stroke-opacity="0" fill="url(#D)"/><path d="M772.94 159.3c-1.98 0-3.67-.43-5.32-1.4l5.12 12.3 5.24-12.2c-1.6.87-3.17 1.28-5.04 1.3z" stroke="#000" stroke-opacity="0" fill="#fff"/><path d="M782.66 150.55c0 4.85-4.4 8.8-9.82 8.8-5.43 0-9.82-3.95-9.82-8.8 0-4.86 4.4-8.8 9.82-8.8s9.82 3.94 9.82 8.8z" stroke="#000" stroke-opacity="0" fill="url(#E)"/><path d="M795.3 164.15v8.94l-8.56 4.48v-8.95l8.56-4.48z" stroke="#000" stroke-opacity="0" fill="#32bedd"/><path d="M795.3 164.16l-8.58 4.5-8.58-4.5 8.58-4.5 8.58 4.5z" stroke="#000" stroke-opacity="0" fill="#9cebff"/><path d="M786.7 168.63v8.95l-8.56-4.5v-8.93l8.56 4.48z" stroke="#000" stroke-opacity="0" fill="#50e6ff"/><path d="M778.14 173.1l8.56-4.44v8.92l-8.56-4.48z" stroke="#000" stroke-opacity="0" fill="#9cebff"/><path d="M795.3 173.1l-8.56-4.44v8.92l8.56-4.48z" stroke="#000" stroke-opacity="0" fill="#50e6ff"/><path d="M787.07 19.1h.07c1.68-.02 3.04-1.25 3.04-2.77v-.32C788.96 7.28 783.38.16 772.74.16s-16.3 6.02-17.44 15.88c-.14 1.54 1.08 2.9 2.82 3.07h28.95z" stroke="#000" stroke-opacity="0" fill="url(#F)"/><path d="M772.94 2.22c-1.98 0-3.67-.43-5.32-1.4l5.12 12.3 5.24-12.2c-1.6.87-3.17 1.27-5.04 1.3z" stroke="#000" stroke-opacity="0" fill="#fff"/><path d="M782.66-6.54c0 4.86-4.4 8.8-9.82 8.8-5.43 0-9.82-3.94-9.82-8.8 0-4.85 4.4-8.8 9.82-8.8s9.82 3.95 9.82 8.8z" stroke="#000" stroke-opacity="0" fill="url(#G)"/><path d="M795.3 7.06V16l-8.56 4.5v-8.95l8.56-4.5z" stroke="#000" stroke-opacity="0" fill="#32bedd"/><path d="M795.3 7.08l-8.58 4.5-8.58-4.5 8.58-4.5 8.58 4.5z" stroke="#000" stroke-opacity="0" fill="#9cebff"/><path d="M786.7 11.55v8.95l-8.56-4.5V7.07l8.56 4.5z" stroke="#000" stroke-opacity="0" fill="#50e6ff"/><path d="M778.14 16.02l8.56-4.44v8.92l-8.56-4.48z" stroke="#000" stroke-opacity="0" fill="#9cebff"/><path d="M795.3 16.02l-8.56-4.44v8.92l8.56-4.48z" stroke="#000" stroke-opacity="0" fill="#50e6ff"/><path d="M615.1 2.58h131.4" stroke="#3a414a" fill="none"/><path d="M615.1 2.9l-.9-.55-.85-.27h1.75z" stroke="#3a414a" stroke-width=".05" fill="#3a414a"/><path d="M761.27 2.58L747 7.22v-9.27z" stroke="#3a414a" fill="#3a414a"/><path d="M621.43 162.8H743" stroke="#3a414a" fill="none"/><path d="M621.44 163.3h-.2l-.25-.44-.55-.56h1z" stroke="#3a414a" stroke-width=".05" fill="#3a414a"/><path d="M757.76 162.8l-14.27 4.64v-9.27z" stroke="#3a414a" fill="#3a414a"/><path d="M752.7 208.34h-2.64v-3.76c0-7.92-6.52-12-14.12-12h-1.24c-7.76 0-14.16 3.96-14.16 12v3.76h-2.6c-1.12 0-2.64 1.16-2.64 2.04v20.16c0 .88 1.52 2.04 2.64 2.04h34.72c1.12 0 2.64-1.16 2.64-2.04v-20.16c-.12-.88-1.64-2.04-2.6-2.04zm-15.52 11.92v8.36h-3.88v-8.36c-1.52-.56-2.64-1.72-2.64-3.12 0-1.92 2.12-3.52 4.56-3.52 2.52 0 4.6 1.6 4.6 3.52 0 1.28-1.12 2.44-2.64 3.12zm8.04-11.92h-19.8v-3.76c0-5.04 3.44-8.48 9.28-8.48h1.24c5.96 0 9.28 3.44 9.28 8.48v3.76z" stroke="#000" stroke-opacity="0" fill="#0078d7"/><defs><path d="M114-163C36-179 61-72 57 0H25l-1-190h30c1 12-1 29 2 39 6-27 23-49 58-41v29" id="H"/><path d="M177-190C167-65 218 103 67 71c-23-6-38-20-44-43l32-5c15 47 100 32 89-28v-30C133-14 115 1 83 1 29 1 15-40 15-95c0-56 16-97 71-98 29-1 48 16 59 35 1-10 0-23 2-32h30zM94-22c36 0 50-32 50-73 0-42-14-75-50-75-39 0-46 34-46 75s6 73 46 73" id="I"/><path d="M16-82v-28h88v28H16" id="J"/><path d="M85-194c31 0 48 13 60 33l-1-100h32l1 261h-30c-2-10 0-23-3-31C134-8 116 4 85 4 32 4 16-35 15-94c0-66 23-100 70-100zm9 24c-40 0-46 34-46 75 0 40 6 74 45 74 42 0 51-32 51-76 0-42-9-74-50-73" id="K"/><path d="M100-194c63 0 86 42 84 106H49c0 40 14 67 53 68 26 1 43-12 49-29l28 8c-11 28-37 45-77 45C44 4 14-33 15-96c1-61 26-98 85-98zm52 81c6-60-76-77-97-28-3 7-6 17-6 28h103" id="L"/><path d="M210-169c-67 3-38 105-44 169h-31v-121c0-29-5-50-35-48C34-165 62-65 56 0H25l-1-190h30c1 10-1 24 2 32 10-44 99-50 107 0 11-21 27-35 58-36 85-2 47 119 55 194h-31v-121c0-29-5-49-35-48" id="M"/><path d="M100-194c62-1 85 37 85 99 1 63-27 99-86 99S16-35 15-95c0-66 28-99 85-99zM99-20c44 1 53-31 53-75 0-43-8-75-51-75s-53 32-53 75 10 74 51 75" id="N"/><path d="M135-143c-3-34-86-38-87 0 15 53 115 12 119 90S17 21 10-45l28-5c4 36 97 45 98 0-10-56-113-15-118-90-4-57 82-63 122-42 12 7 21 19 24 35" id="O"/><path d="M84 4C-5 8 30-112 23-190h32v120c0 31 7 50 39 49 72-2 45-101 50-169h31l1 190h-30c-1-10 1-25-2-33-11 22-28 36-60 37" id="P"/><path d="M96-169c-40 0-48 33-48 73s9 75 48 75c24 0 41-14 43-38l32 2c-6 37-31 61-74 61-59 0-76-41-82-99-10-93 101-131 147-64 4 7 5 14 7 22l-32 3c-4-21-16-35-41-35" id="Q"/><path d="M24 0v-261h32V0H24" id="R"/><path d="M143 0L79-87 56-68V0H24v-261h32v163l83-92h37l-77 82L181 0h-38" id="S"/><path d="M158-156l-14 65h45v19h-49L124 0h-19l15-72H56L41 0H22l15-72H2v-19h39l14-65H11v-19h48l15-71h20l-16 71h64l16-71h19l-16 71h37v19h-40zm-83 0L61-91h63l14-65H75" id="T"/><g id="a"><use transform="matrix(0.05,0,0,0.05,0,0)" xlink:href="#H"/><use transform="matrix(0.05,0,0,0.05,5.95,0)" xlink:href="#I"/><use transform="matrix(0.05,0,0,0.05,15.949999999999998,0)" xlink:href="#J"/><use transform="matrix(0.05,0,0,0.05,21.9,0)" xlink:href="#K"/><use transform="matrix(0.05,0,0,0.05,31.899999999999995,0)" xlink:href="#L"/><use transform="matrix(0.05,0,0,0.05,41.9,0)" xlink:href="#M"/><use transform="matrix(0.05,0,0,0.05,56.85,0)" xlink:href="#N"/><use transform="matrix(0.05,0,0,0.05,66.85,0)" xlink:href="#J"/><use transform="matrix(0.05,0,0,0.05,72.8,0)" xlink:href="#H"/><use transform="matrix(0.05,0,0,0.05,78.75,0)" xlink:href="#L"/><use transform="matrix(0.05,0,0,0.05,88.75,0)" xlink:href="#O"/><use transform="matrix(0.05,0,0,0.05,97.75,0)" xlink:href="#N"/><use transform="matrix(0.05,0,0,0.05,107.75,0)" xlink:href="#P"/><use transform="matrix(0.05,0,0,0.05,117.75,0)" xlink:href="#H"/><use transform="matrix(0.05,0,0,0.05,123.7,0)" xlink:href="#Q"/><use transform="matrix(0.05,0,0,0.05,132.7,0)" xlink:href="#L"/><use transform="matrix(0.05,0,0,0.05,142.7,0)" xlink:href="#R"/><use transform="matrix(0.05,0,0,0.05,146.64999999999998,0)" xlink:href="#N"/><use transform="matrix(0.05,0,0,0.05,156.64999999999998,0)" xlink:href="#Q"/><use transform="matrix(0.05,0,0,0.05,165.64999999999998,0)" xlink:href="#S"/><use transform="matrix(0.05,0,0,0.05,174.64999999999998,0)" xlink:href="#J"/><use transform="matrix(0.05,0,0,0.05,180.59999999999997,0)" xlink:href="#T"/><use transform="matrix(0.05,0,0,0.05,190.59999999999997,0)" xlink:href="#T"/><use transform="matrix(0.05,0,0,0.05,200.59999999999997,0)" xlink:href="#T"/><use transform="matrix(0.05,0,0,0.05,210.59999999999997,0)" xlink:href="#T"/><use transform="matrix(0.05,0,0,0.05,220.59999999999997,0)" xlink:href="#T"/></g><path d="M185-189c-5-48-123-54-124 2 14 75 158 14 163 119 3 78-121 87-175 55-17-10-28-26-33-46l33-7c5 56 141 63 141-1 0-78-155-14-162-118-5-82 145-84 179-34 5 7 8 16 11 25" id="U"/><path d="M115-194c53 0 69 39 70 98 0 66-23 100-70 100C84 3 66-7 56-30L54 0H23l1-261h32v101c10-23 28-34 59-34zm-8 174c40 0 45-34 45-75 0-40-5-75-45-74-42 0-51 32-51 76 0 43 10 73 51 73" id="V"/><path d="M24-231v-30h32v30H24zM24 0v-190h32V0H24" id="W"/><path d="M115-194c55 1 70 41 70 98S169 2 115 4C84 4 66-9 55-30l1 105H24l-1-265h31l2 30c10-21 28-34 59-34zm-8 174c40 0 45-34 45-75s-6-73-45-74c-42 0-51 32-51 76 0 43 10 73 51 73" id="X"/><path d="M59-47c-2 24 18 29 38 22v24C64 9 27 4 27-40v-127H5v-23h24l9-43h21v43h35v23H59v120" id="Y"/><path d="M117-194c89-4 53 116 60 194h-32v-121c0-31-8-49-39-48C34-167 62-67 57 0H25l-1-190h30c1 10-1 24 2 32 11-22 29-35 61-36" id="Z"/><g id="b"><use transform="matrix(0.05,0,0,0.05,0,0)" xlink:href="#U"/><use transform="matrix(0.05,0,0,0.05,12,0)" xlink:href="#P"/><use transform="matrix(0.05,0,0,0.05,22,0)" xlink:href="#V"/><use transform="matrix(0.05,0,0,0.05,32,0)" xlink:href="#O"/><use transform="matrix(0.05,0,0,0.05,41,0)" xlink:href="#Q"/><use transform="matrix(0.05,0,0,0.05,50,0)" xlink:href="#H"/><use transform="matrix(0.05,0,0,0.05,55.95,0)" xlink:href="#W"/><use transform="matrix(0.05,0,0,0.05,59.900000000000006,0)" xlink:href="#X"/><use transform="matrix(0.05,0,0,0.05,69.9,0)" xlink:href="#Y"/><use transform="matrix(0.05,0,0,0.05,74.9,0)" xlink:href="#W"/><use transform="matrix(0.05,0,0,0.05,78.85000000000001,0)" xlink:href="#N"/><use transform="matrix(0.05,0,0,0.05,88.85000000000001,0)" xlink:href="#Z"/></g><path d="M140-251c81 0 123 46 123 126C263-46 219 4 140 4 59 4 17-45 17-125s42-126 123-126zm0 227c63 0 89-41 89-101s-29-99-89-99c-61 0-89 39-89 99S79-25 140-24" id="aa"/><path d="M206 0h-36l-40-164L89 0H53L-1-190h32L70-26l43-164h34l41 164 42-164h31" id="ab"/><g id="c"><use transform="matrix(0.05,0,0,0.05,0,0)" xlink:href="#aa"/><use transform="matrix(0.05,0,0,0.05,14,0)" xlink:href="#ab"/><use transform="matrix(0.05,0,0,0.05,26.950000000000003,0)" xlink:href="#Z"/><use transform="matrix(0.05,0,0,0.05,36.95,0)" xlink:href="#L"/><use transform="matrix(0.05,0,0,0.05,46.95,0)" xlink:href="#H"/></g><path d="M212-179c-10-28-35-45-73-45-59 0-87 40-87 99 0 60 29 101 89 101 43 0 62-24 78-52l27 14C228-24 195 4 139 4 59 4 22-46 18-125c-6-104 99-153 187-111 19 9 31 26 39 46" id="ac"/><g id="d"><use transform="matrix(0.05,0,0,0.05,0,0)" xlink:href="#ac"/><use transform="matrix(0.05,0,0,0.05,12.950000000000001,0)" xlink:href="#N"/><use transform="matrix(0.05,0,0,0.05,22.950000000000003,0)" xlink:href="#Z"/><use transform="matrix(0.05,0,0,0.05,32.95,0)" xlink:href="#Y"/><use transform="matrix(0.05,0,0,0.05,37.95,0)" xlink:href="#H"/><use transform="matrix(0.05,0,0,0.05,43.900000000000006,0)" xlink:href="#W"/><use transform="matrix(0.05,0,0,0.05,47.85000000000001,0)" xlink:href="#V"/><use transform="matrix(0.05,0,0,0.05,57.85,0)" xlink:href="#P"/><use transform="matrix(0.05,0,0,0.05,67.85000000000001,0)" xlink:href="#Y"/><use transform="matrix(0.05,0,0,0.05,72.85000000000001,0)" xlink:href="#N"/><use transform="matrix(0.05,0,0,0.05,82.85000000000001,0)" xlink:href="#H"/></g><path d="M141-36C126-15 110 5 73 4 37 3 15-17 15-53c-1-64 63-63 125-63 3-35-9-54-41-54-24 1-41 7-42 31l-33-3c5-37 33-52 76-52 45 0 72 20 72 64v82c-1 20 7 32 28 27v20c-31 9-61-2-59-35zM48-53c0 20 12 33 32 33 41-3 63-29 60-74-43 2-92-5-92 41" id="ad"/><g id="e"><use transform="matrix(0.05,0,0,0.05,0,0)" xlink:href="#R"/><use transform="matrix(0.05,0,0,0.05,3.95,0)" xlink:href="#ad"/><use transform="matrix(0.05,0,0,0.05,13.949999999999998,0)" xlink:href="#ab"/><use transform="matrix(0.05,0,0,0.05,26.899999999999995,0)" xlink:href="#T"/><use transform="matrix(0.05,0,0,0.05,36.9,0)" xlink:href="#T"/><use transform="matrix(0.05,0,0,0.05,46.9,0)" xlink:href="#T"/><use transform="matrix(0.05,0,0,0.05,56.900000000000006,0)" xlink:href="#T"/><use transform="matrix(0.05,0,0,0.05,66.9,0)" xlink:href="#T"/></g><linearGradient gradientUnits="userSpaceOnUse" id="f" x1="262.29" y1="148.07" x2="262.29" y2="172.42"><stop offset="22%" stop-color="#21d400"/><stop offset="100%" stop-color="#088a00"/></linearGradient><linearGradient gradientUnits="userSpaceOnUse" id="g" x1="261.59" y1="135.85" x2="263.39" y2="158.04"><stop offset="22%" stop-color="#21d400"/><stop offset="100%" stop-color="#088a00"/></linearGradient><linearGradient gradientUnits="userSpaceOnUse" id="h" x1="260.37" y1="217.65" x2="260.37" y2="194.21"><stop offset="0%" stop-color="#5e9624"/><stop offset="100%" stop-color="#b4ec36"/></linearGradient><linearGradient gradientUnits="userSpaceOnUse" id="i" x1="260.42" y1="201.95" x2="260.42" y2="180.47"><stop offset="0%" stop-color="#5e9624"/><stop offset="100%" stop-color="#b4ec36"/></linearGradient><path d="M24 0v-248h52v208h133V0H24" id="ae"/><path d="M185-48c-13 30-37 53-82 52C43 2 14-33 14-96s30-98 90-98c62 0 83 45 84 108H66c0 31 8 55 39 56 18 0 30-7 34-22zm-45-69c5-46-57-63-70-21-2 6-4 13-4 21h74" id="af"/><path d="M195-6C206 82 75 100 31 46c-4-6-6-13-8-21l49-6c3 16 16 24 34 25 40 0 42-37 40-79-11 22-30 35-61 35-53 0-70-43-70-97 0-56 18-96 73-97 30 0 46 14 59 34l2-30h47zm-90-29c32 0 41-27 41-63 0-35-9-62-40-62-32 0-39 29-40 63 0 36 9 62 39 62" id="ag"/><path d="M135-194c87-1 58 113 63 194h-50c-7-57 23-157-34-157-59 0-34 97-39 157H25l-1-190h47c2 12-1 28 3 38 12-26 28-41 61-42" id="ah"/><path d="M88-194c31-1 46 15 58 34l-1-101h50l1 261h-48c-2-10 0-23-3-31C134-8 116 4 84 4 32 4 16-41 15-95c0-56 19-97 73-99zm17 164c33 0 40-30 41-66 1-37-9-64-41-64s-38 30-39 65c0 43 13 65 39 65" id="ai"/><g id="j"><use transform="matrix(0.04504485809347915,0,0,0.04504485809347915,0,0)" xlink:href="#ae"/><use transform="matrix(0.04504485809347915,0,0,0.04504485809347915,9.864823922471933,0)" xlink:href="#af"/><use transform="matrix(0.04504485809347915,0,0,0.04504485809347915,18.873795541167766,0)" xlink:href="#ag"/><use transform="matrix(0.04504485809347915,0,0,0.04504485809347915,28.7386194636397,0)" xlink:href="#af"/><use transform="matrix(0.04504485809347915,0,0,0.04504485809347915,37.74759108233553,0)" xlink:href="#ah"/><use transform="matrix(0.04504485809347915,0,0,0.04504485809347915,47.61241500480747,0)" xlink:href="#ai"/></g><g id="k"><use transform="matrix(0.045044858093479155,0,0,0.045044858093479155,0,0)" xlink:href="#U"/><use transform="matrix(0.045044858093479155,0,0,0.045044858093479155,10.810765942434998,0)" xlink:href="#P"/><use transform="matrix(0.045044858093479155,0,0,0.045044858093479155,19.81973756113083,0)" xlink:href="#V"/><use transform="matrix(0.045044858093479155,0,0,0.045044858093479155,28.82870917982666,0)" xlink:href="#O"/><use transform="matrix(0.045044858093479155,0,0,0.045044858093479155,36.936783636652905,0)" xlink:href="#Q"/><use transform="matrix(0.045044858093479155,0,0,0.045044858093479155,45.04485809347915,0)" xlink:href="#H"/><use transform="matrix(0.045044858093479155,0,0,0.045044858093479155,50.40519620660317,0)" xlink:href="#W"/><use transform="matrix(0.045044858093479155,0,0,0.045044858093479155,53.96373999598803,0)" xlink:href="#X"/><use transform="matrix(0.045044858093479155,0,0,0.045044858093479155,62.97271161468386,0)" xlink:href="#Y"/><use transform="matrix(0.045044858093479155,0,0,0.045044858093479155,67.47719742403177,0)" xlink:href="#W"/><use transform="matrix(0.045044858093479155,0,0,0.045044858093479155,71.03574121341663,0)" xlink:href="#N"/><use transform="matrix(0.045044858093479155,0,0,0.045044858093479155,80.04471283211245,0)" xlink:href="#Z"/><use transform="matrix(0.045044858093479155,0,0,0.045044858093479155,89.05368445080828,0)" xlink:href="#O"/></g><path d="M233-177c-1 41-23 64-60 70L243 0h-38l-65-103H63V0H30v-248c88 3 205-21 203 71zM63-129c60-2 137 13 137-47 0-61-80-42-137-45v92" id="aj"/><g id="l"><use transform="matrix(0.045044858093479155,0,0,0.045044858093479155,0,0)" xlink:href="#aj"/><use transform="matrix(0.045044858093479155,0,0,0.045044858093479155,11.666618246211101,0)" xlink:href="#L"/><use transform="matrix(0.045044858093479155,0,0,0.045044858093479155,20.675589864906932,0)" xlink:href="#O"/><use transform="matrix(0.045044858093479155,0,0,0.045044858093479155,28.78366432173318,0)" xlink:href="#N"/><use transform="matrix(0.045044858093479155,0,0,0.045044858093479155,37.792635940429015,0)" xlink:href="#P"/><use transform="matrix(0.045044858093479155,0,0,0.045044858093479155,46.80160755912484,0)" xlink:href="#H"/><use transform="matrix(0.045044858093479155,0,0,0.045044858093479155,52.16194567224887,0)" xlink:href="#Q"/><use transform="matrix(0.045044858093479155,0,0,0.045044858093479155,60.27002012907511,0)" xlink:href="#L"/></g><path d="M143 4C61 4 22-44 18-125c-5-107 100-154 193-111 17 8 29 25 37 43l-32 9c-13-25-37-40-76-40-61 0-88 39-88 99 0 61 29 100 91 101 35 0 62-11 79-27v-45h-74v-28h105v86C228-13 192 4 143 4" id="ak"/><g id="m"><use transform="matrix(0.045044858093479155,0,0,0.045044858093479155,0,0)" xlink:href="#ak"/><use transform="matrix(0.045044858093479155,0,0,0.045044858093479155,12.612560266174164,0)" xlink:href="#H"/><use transform="matrix(0.045044858093479155,0,0,0.045044858093479155,17.972898379298183,0)" xlink:href="#N"/><use transform="matrix(0.045044858093479155,0,0,0.045044858093479155,26.981869997994014,0)" xlink:href="#P"/><use transform="matrix(0.045044858093479155,0,0,0.045044858093479155,35.99084161668984,0)" xlink:href="#X"/><use transform="matrix(0.045044858093479155,0,0,0.045044858093479155,44.99981323538567,0)" xlink:href="#O"/></g><path d="M30 0v-248h33v221h125V0H30" id="al"/><g id="n"><use transform="matrix(0.03743948854163074,0,0,0.03743948854163074,0,0)" xlink:href="#al"/><use transform="matrix(0.03743948854163074,0,0,0.03743948854163074,7.487897708326148,0)" xlink:href="#N"/><use transform="matrix(0.03743948854163074,0,0,0.03743948854163074,14.975795416652296,0)" xlink:href="#I"/></g><path d="M205 0l-28-72H64L36 0H1l101-248h38L239 0h-34zm-38-99l-47-123c-12 45-31 82-46 123h93" id="am"/><path d="M179-190L93 31C79 59 56 82 12 73V49c39 6 53-20 64-50L1-190h34L92-34l54-156h33" id="an"/><g id="o"><use transform="matrix(0.03743948854163074,0,0,0.03743948854163074,0,0)" xlink:href="#am"/><use transform="matrix(0.03743948854163074,0,0,0.03743948854163074,8.985477249991378,0)" xlink:href="#Z"/><use transform="matrix(0.03743948854163074,0,0,0.03743948854163074,16.473374958317525,0)" xlink:href="#ad"/><use transform="matrix(0.03743948854163074,0,0,0.03743948854163074,23.961272666643673,0)" xlink:href="#R"/><use transform="matrix(0.03743948854163074,0,0,0.03743948854163074,26.918992261432503,0)" xlink:href="#an"/><use transform="matrix(0.03743948854163074,0,0,0.03743948854163074,33.658100198926036,0)" xlink:href="#Y"/><use transform="matrix(0.03743948854163074,0,0,0.03743948854163074,37.4020490530891,0)" xlink:href="#W"/><use transform="matrix(0.03743948854163074,0,0,0.03743948854163074,40.359768647877935,0)" xlink:href="#Q"/><use transform="matrix(0.03743948854163074,0,0,0.03743948854163074,47.098876585371464,0)" xlink:href="#O"/></g><path d="M266 0h-40l-56-210L115 0H75L2-248h35L96-30l15-64 43-154h32l59 218 59-218h35" id="ao"/><g id="p"><use transform="matrix(0.03743948854163074,0,0,0.03743948854163074,0,0)" xlink:href="#ao"/><use transform="matrix(0.03743948854163074,0,0,0.03743948854163074,12.429910195821405,0)" xlink:href="#N"/><use transform="matrix(0.03743948854163074,0,0,0.03743948854163074,19.917807904147555,0)" xlink:href="#H"/><use transform="matrix(0.03743948854163074,0,0,0.03743948854163074,24.37310704060161,0)" xlink:href="#S"/><use transform="matrix(0.03743948854163074,0,0,0.03743948854163074,31.11221497809515,0)" xlink:href="#O"/><use transform="matrix(0.03743948854163074,0,0,0.03743948854163074,37.85132291558868,0)" xlink:href="#X"/><use transform="matrix(0.03743948854163074,0,0,0.03743948854163074,45.339220623914834,0)" xlink:href="#ad"/><use transform="matrix(0.03743948854163074,0,0,0.03743948854163074,52.82711833224097,0)" xlink:href="#Q"/><use transform="matrix(0.03743948854163074,0,0,0.03743948854163074,59.566226269734514,0)" xlink:href="#L"/><use transform="matrix(0.03743948854163074,0,0,0.03743948854163074,67.05412397806066,0)" xlink:href="#O"/></g><path d="M9 0v-24l116-142H16v-24h144v24L44-24h123V0H9" id="ap"/><g id="q"><use transform="matrix(0.03743948854163074,0,0,0.03743948854163074,0,0)" xlink:href="#am"/><use transform="matrix(0.03743948854163074,0,0,0.03743948854163074,8.985477249991378,0)" xlink:href="#ap"/><use transform="matrix(0.03743948854163074,0,0,0.03743948854163074,15.724585187484912,0)" xlink:href="#P"/><use transform="matrix(0.03743948854163074,0,0,0.03743948854163074,23.21248289581106,0)" xlink:href="#H"/><use transform="matrix(0.03743948854163074,0,0,0.03743948854163074,27.667782032265123,0)" xlink:href="#L"/></g><path d="M160-131c35 5 61 23 61 61C221 17 115-2 30 0v-248c76 3 177-17 177 60 0 33-19 50-47 57zm-97-11c50-1 110 9 110-42 0-47-63-36-110-37v79zm0 115c55-2 124 14 124-45 0-56-70-42-124-44v89" id="aq"/><g id="r"><use transform="matrix(0.03743948854163074,0,0,0.03743948854163074,0,0)" xlink:href="#aj"/><use transform="matrix(0.03743948854163074,0,0,0.03743948854163074,9.696827532282365,0)" xlink:href="#aq"/><use transform="matrix(0.03743948854163074,0,0,0.03743948854163074,18.682304782273743,0)" xlink:href="#am"/><use transform="matrix(0.03743948854163074,0,0,0.03743948854163074,27.667782032265123,0)" xlink:href="#ac"/></g><g id="s"><use transform="matrix(0.03743948854163074,0,0,0.03743948854163074,0,0)" xlink:href="#aj"/><use transform="matrix(0.03743948854163074,0,0,0.03743948854163074,9.696827532282365,0)" xlink:href="#N"/><use transform="matrix(0.03743948854163074,0,0,0.03743948854163074,17.18472524060851,0)" xlink:href="#R"/><use transform="matrix(0.03743948854163074,0,0,0.03743948854163074,20.14244483539734,0)" xlink:href="#L"/></g><path d="M30-248c118-7 216 8 213 122C240-48 200 0 122 0H30v-248zM63-27c89 8 146-16 146-99s-60-101-146-95v194" id="ar"/><path d="M101-234c-31-9-42 10-38 44h38v23H63V0H32v-167H5v-23h27c-7-52 17-82 69-68v24" id="as"/><g id="t"><use transform="matrix(0.03743948854163074,0,0,0.03743948854163074,0,0)" xlink:href="#ar"/><use transform="matrix(0.03743948854163074,0,0,0.03743948854163074,9.696827532282365,0)" xlink:href="#L"/><use transform="matrix(0.03743948854163074,0,0,0.03743948854163074,17.18472524060851,0)" xlink:href="#as"/><use transform="matrix(0.03743948854163074,0,0,0.03743948854163074,20.928674094771587,0)" xlink:href="#W"/><use transform="matrix(0.03743948854163074,0,0,0.03743948854163074,23.88639368956041,0)" xlink:href="#Z"/><use transform="matrix(0.03743948854163074,0,0,0.03743948854163074,31.37429139788656,0)" xlink:href="#W"/><use transform="matrix(0.03743948854163074,0,0,0.03743948854163074,34.33201099267539,0)" xlink:href="#Y"/><use transform="matrix(0.03743948854163074,0,0,0.03743948854163074,38.07595984683846,0)" xlink:href="#W"/><use transform="matrix(0.03743948854163074,0,0,0.03743948854163074,41.03367944162729,0)" xlink:href="#N"/><use transform="matrix(0.03743948854163074,0,0,0.03743948854163074,48.52157714995344,0)" xlink:href="#Z"/></g><g id="u"><use transform="matrix(0.046536224219989424,0,0,0.046536224219989424,0,0)" xlink:href="#am"/><use transform="matrix(0.046536224219989424,0,0,0.046536224219989424,11.168693812797462,0)" xlink:href="#ap"/><use transform="matrix(0.046536224219989424,0,0,0.046536224219989424,19.54521417239556,0)" xlink:href="#P"/><use transform="matrix(0.046536224219989424,0,0,0.046536224219989424,28.852459016393446,0)" xlink:href="#H"/><use transform="matrix(0.046536224219989424,0,0,0.046536224219989424,34.39026969857219,0)" xlink:href="#L"/></g><g id="v"><use transform="matrix(0.046536224219989424,0,0,0.046536224219989424,0,0)" xlink:href="#aj"/><use transform="matrix(0.046536224219989424,0,0,0.046536224219989424,12.05288207297726,0)" xlink:href="#aq"/><use transform="matrix(0.046536224219989424,0,0,0.046536224219989424,23.221575885774726,0)" xlink:href="#am"/><use transform="matrix(0.046536224219989424,0,0,0.046536224219989424,34.39026969857219,0)" xlink:href="#ac"/></g><g id="w"><use transform="matrix(0.046536224219989424,0,0,0.046536224219989424,0,0)" xlink:href="#aj"/><use transform="matrix(0.046536224219989424,0,0,0.046536224219989424,12.05288207297726,0)" xlink:href="#N"/><use transform="matrix(0.046536224219989424,0,0,0.046536224219989424,21.360126916975148,0)" xlink:href="#R"/><use transform="matrix(0.046536224219989424,0,0,0.046536224219989424,25.036488630354317,0)" xlink:href="#L"/></g><g id="x"><use transform="matrix(0.046536224219989424,0,0,0.046536224219989424,0,0)" xlink:href="#am"/><use transform="matrix(0.046536224219989424,0,0,0.046536224219989424,11.168693812797462,0)" xlink:href="#O"/><use transform="matrix(0.046536224219989424,0,0,0.046536224219989424,19.54521417239556,0)" xlink:href="#O"/><use transform="matrix(0.046536224219989424,0,0,0.046536224219989424,27.92173453199366,0)" xlink:href="#W"/><use transform="matrix(0.046536224219989424,0,0,0.046536224219989424,31.598096245372822,0)" xlink:href="#I"/><use transform="matrix(0.046536224219989424,0,0,0.046536224219989424,40.90534108937071,0)" xlink:href="#Z"/><use transform="matrix(0.046536224219989424,0,0,0.046536224219989424,50.2125859333686,0)" xlink:href="#M"/><use transform="matrix(0.046536224219989424,0,0,0.046536224219989424,64.12691697514543,0)" xlink:href="#L"/><use transform="matrix(0.046536224219989424,0,0,0.046536224219989424,73.43416181914333,0)" xlink:href="#Z"/><use transform="matrix(0.046536224219989424,0,0,0.046536224219989424,82.7414066631412,0)" xlink:href="#Y"/></g><g id="y"><use transform="matrix(0.045044858093479155,0,0,0.045044858093479155,0,0)" xlink:href="#al"/><use transform="matrix(0.045044858093479155,0,0,0.045044858093479155,9.008971618695831,0)" xlink:href="#N"/><use transform="matrix(0.045044858093479155,0,0,0.045044858093479155,18.017943237391663,0)" xlink:href="#Q"/><use transform="matrix(0.045044858093479155,0,0,0.045044858093479155,26.12601769421791,0)" xlink:href="#S"/></g><linearGradient gradientUnits="userSpaceOnUse" id="z" x1="605.3" y1="-22.3" x2="605.3" y2="32.47"><stop offset="22%" stop-color="#21d400"/><stop offset="100%" stop-color="#088a00"/></linearGradient><linearGradient gradientUnits="userSpaceOnUse" id="A" x1="603.55" y1="-19.16" x2="607.87" y2="34.64"><stop offset="22%" stop-color="#21d400"/><stop offset="100%" stop-color="#088a00"/></linearGradient><linearGradient gradientUnits="userSpaceOnUse" id="B" x1="605.3" y1="132.7" x2="605.3" y2="187.47"><stop offset="22%" stop-color="#21d400"/><stop offset="100%" stop-color="#088a00"/></linearGradient><linearGradient gradientUnits="userSpaceOnUse" id="C" x1="603.55" y1="135.84" x2="607.87" y2="189.64"><stop offset="22%" stop-color="#21d400"/><stop offset="100%" stop-color="#088a00"/></linearGradient><linearGradient gradientUnits="userSpaceOnUse" id="D" x1="775.34" y1="181.96" x2="775.34" y2="132.87"><stop offset="0%" stop-color="#5e9624"/><stop offset="100%" stop-color="#b4ec36"/></linearGradient><linearGradient gradientUnits="userSpaceOnUse" id="E" x1="775.3" y1="179.17" x2="775.3" y2="130.92"><stop offset="0%" stop-color="#5e9624"/><stop offset="100%" stop-color="#b4ec36"/></linearGradient><linearGradient gradientUnits="userSpaceOnUse" id="F" x1="775.34" y1="24.88" x2="775.34" y2="-24.21"><stop offset="0%" stop-color="#5e9624"/><stop offset="100%" stop-color="#b4ec36"/></linearGradient><linearGradient gradientUnits="userSpaceOnUse" id="G" x1="775.3" y1="22.09" x2="775.3" y2="-26.16"><stop offset="0%" stop-color="#5e9624"/><stop offset="100%" stop-color="#b4ec36"/></linearGradient></defs></g></svg>