<svg xmlns="http://www.w3.org/2000/svg" xmlns:xlink="http://www.w3.org/1999/xlink" xmlns:lucid="lucid" width="1031.08" height="529.5"><g transform="translate(-318.5 -439.5)" lucid:page-tab-id="BDA24SNb_K3Z"><path d="M0 0h1500v1000H0z" fill="#fff"/><path d="M669.3 506a6 6 0 0 1 6-6H1274a6 6 0 0 1 6 6v380a6 6 0 0 1-6 6H675.3a6 6 0 0 1-6-6z" stroke="#3a414a" fill="#fff"/><path d="M935.57 526a6 6 0 0 1 6-6H1154a6 6 0 0 1 6 6v204.04a6 6 0 0 1-6 6H941.57a6 6 0 0 1-6-6z" stroke="#3a414a" fill="#fff"/><path d="M1140 747.53c0 .15.07.26.18.33l2.74 1.48 4.62 2.63c.2.08.43.04.54-.15l1.56-2.6c.1-.17.03-.36-.14-.47l-5.42-3c-.12-.07-.2-.18-.2-.33v-23.8c0-.15.08-.26.2-.34l5.42-3c.17-.1.23-.3.14-.48l-1.56-2.6c-.1-.17-.35-.25-.54-.17l-4.52 2.55-2.84 1.56c-.1.07-.18.18-.18.33v28.06z" stroke="#000" stroke-opacity="0" fill="#949494"/><path d="M1143.85 721.42l.14-.13 5.4-3c.02-.03.04-.03.07-.05.14-.1.18-.3.07-.45l-1.55-2.6c-.02 0-.03-.03-.04-.05-.1-.17-.32-.22-.5-.12l-4.52 2.56-2.8 1.53s-.12 0-.14.15l2.1 1.18zM1149.42 748.7l-5.4-3c-.1-.06-.14-.13-.18-.22l-3.82 2.32h.12l2.7 1.5 4.72 2.57.05.02c.18.08.4 0 .48-.17l1.56-2.6v-.03c.06-.18-.04-.35-.22-.4z" stroke="#000" stroke-opacity="0" fill="#a3a3a3"/><path d="M1180 747.53c0 .15-.07.26-.18.33l-2.74 1.48-4.62 2.63c-.2.08-.43.04-.54-.15l-1.56-2.6c-.1-.17-.03-.36.14-.47l5.42-3c.12-.07.2-.18.2-.33v-23.8c0-.15-.08-.26-.2-.34l-5.42-3c-.17-.1-.23-.3-.14-.48l1.56-2.6c.1-.17.33-.25.53-.17l4.53 2.5 2.84 1.57c.1.07.18.18.18.33v28.1z" stroke="#000" stroke-opacity="0" fill="#949494"/><path d="M1176.15 721.42l-.14-.13-5.4-3c-.16-.1-.25-.27-.17-.44l.03-.06 1.55-2.6c.07-.17.27-.27.45-.2.03 0 .05.02.08.03l4.53 2.5 2.8 1.56.14.13-2.1 1.17zM1170.58 748.7l5.4-3c.1-.06.13-.13.17-.22l3.8 2.32-2.7 1.5-4.7 2.57c-.15.1-.37.06-.48-.1l-.03-.04-1.55-2.6c-.1-.14-.06-.34.08-.43z" stroke="#000" stroke-opacity="0" fill="#a3a3a3"/><path d="M1172.48 726.42v14.16l-12.52 7.13v-14.17l12.52-7.1z" stroke="#000" stroke-opacity="0" fill="#32bedd"/><path d="M1172.48 726.4l-12.5 7.13-12.5-7.13 12.5-7.13 12.5 7.13z" stroke="#000" stroke-opacity="0" fill="#9cebff"/><path d="M1159.96 733.55v14.16l-12.48-7.13v-14.15l12.48 7.13z" stroke="#000" stroke-opacity="0" fill="#50e6ff"/><path d="M1147.48 740.6l12.48-7.07v14.18l-12.48-7.1z" stroke="#000" stroke-opacity="0" fill="#9cebff"/><path d="M1172.48 740.6l-12.52-7.07v14.18l12.52-7.1z" stroke="#000" stroke-opacity="0" fill="#50e6ff"/><path d="M1148.06 715.22h23.9l-1.32 2.7 5.8 3.15.14 24.75-5.78 3.08 1.5 2.63-.34.3h-23.9l1.36-2.82-5.84-3.36.06-24.6 5.74-2.97-1.55-2.56z" stroke="#000" stroke-opacity="0" fill-opacity="0"/><use xlink:href="#a" transform="matrix(1,0,0,1,1110,761) translate(-30.900000000000006 14.4)"/><path d="M1297.84 883.4c2.88-2.64 2.88-6.96 0-9.6l-12.64-11.82c-2.88-2.64-7.52-2.64-10.4 0l-12.64 11.82c-2.88 2.64-2.88 6.96 0 9.6l11.12 10.38v19.98L1280 920l5.84-5.4v-.06l3.4-3.18-3.4-3.18 3.4-3.12-3.4-3.18 3.4-3.12-3.4-3.18v-.96l12-11.22zM1280 864.86c2.32-.06 4.2 1.68 4.24 3.78.04 2.16-1.8 3.9-4.08 3.96h-.16c-2.32-.06-4.12-1.8-4.08-3.96.04-2.1 1.84-3.78 4.08-3.78z" stroke="#000" stroke-opacity="0" stroke-width="3" fill="#fcd116"/><path d="M1276.42 912.75l2.62 2.4V896l-2.62-1.2z" stroke="#000" stroke-opacity="0" stroke-width="3" fill="#ff8c00" fill-opacity=".4"/><path d="M1267.57 876.34h24.05v3.22h-24.05zm0 5.23h24.05v3.2h-24.05z" stroke="#000" stroke-opacity="0" stroke-width="3" fill="#fff" fill-opacity=".5"/><use xlink:href="#b" transform="matrix(1,0,0,1,1230,929) translate(0.5749999999999957 14.4)"/><path d="M340 473a12 12 0 0 1 12-12h256a12 12 0 0 1 12 12v446a12 12 0 0 1-12 12H352a12 12 0 0 1-12-12z" stroke="#dfe3e8" stroke-width="2" fill="#fff"/><path d="M415.37 561.2c1.35-1.35 1.35-3.54 0-4.88l-5.93-6c-1.36-1.34-3.53-1.34-4.9 0l-5.92 6c-1.35 1.34-1.35 3.53 0 4.87l5.22 5.26v10.14l3.16 3.16 2.74-2.74V577l1.6-1.62-1.6-1.62 1.6-1.58-1.6-1.6 1.6-1.6-1.6-1.6v-.5l5.63-5.7zm-8.37-9.42c1.08-.03 1.97.85 2 1.92 0 1.1-.86 1.98-1.93 2H407c-1.1-.02-1.94-.9-1.92-2 .02-1.07.86-1.92 1.92-1.92z" stroke="#000" stroke-opacity="0" stroke-width="3" fill="#fcd116"/><path d="M405.3 576.1l1.25 1.2v-9.7l-1.24-.62z" stroke="#000" stroke-opacity="0" stroke-width="3" fill="#ff8c00" fill-opacity=".4"/><path d="M401.16 557.6h11.3v1.64h-11.3zm0 2.66h11.3v1.63h-11.3z" stroke="#000" stroke-opacity="0" stroke-width="3" fill="#fff" fill-opacity=".5"/><path d="M407.03 611.83c-.05 0-.1 0-.14-.05l-8.98-5.17c-.07-.05-.13-.13-.13-.23s.05-.2.12-.23l8.9-5.15c.1-.06.2-.06.3 0l8.95 5.17c.07.05.13.14.13.23 0 .1-.06.2-.13.24l-8.9 5.14c-.05.04-.1.05-.14.05" stroke="#000" stroke-opacity="0" fill="#3999c6"/><path d="M405.74 624.42c-.05 0-.1-.02-.14-.03l-8.93-5.2c-.1-.04-.14-.12-.14-.2V608.6c0-.1.05-.2.14-.24.08-.05.18-.05.27 0l8.93 5.17c.08.05.13.13.13.23v10.37c0 .1-.05.2-.13.24l-.13.02M408.26 624.42l-.14-.03c-.08-.06-.13-.16-.13-.25v-10.3c0-.1.04-.2.12-.23l8.93-5.17c.1-.05.2-.05.28 0 .07.04.13.14.13.24v10.28c0 .1-.05.2-.13.24l-8.93 5.17-.13.02" stroke="#000" stroke-opacity="0" fill="#59b4d9"/><path d="M408.26 624.42l-.14-.03c-.08-.06-.13-.16-.13-.25v-10.3c0-.1.04-.2.12-.23l8.93-5.17c.1-.05.2-.05.28 0 .07.04.13.14.13.24v10.28c0 .1-.05.2-.13.24l-8.93 5.17-.13.02" stroke="#000" stroke-opacity="0" fill="#fff" fill-opacity=".5"/><path d="M397.6 625.57c-.16 0-.3-.05-.45-.12l-4.17-2.42c-.7-.4-1.2-1.27-1.2-2.1V605.6c0-.8.5-1.7 1.2-2.1l4.17-2.4c.42-.25.97-.1 1.2.32.25.42.1.96-.3 1.2l-4.2 2.42c-.14.1-.3.4-.3.56v15.36c0 .17.16.47.3.57l4.2 2.42c.4.25.55.8.3 1.2-.15.3-.46.45-.76.45zM416.4 600.95c.15 0 .3.05.44.13l4.17 2.4c.7.4 1.22 1.3 1.22 2.1v15.36c0 .8-.5 1.7-1.2 2.1l-4.18 2.4c-.42.25-.96.1-1.2-.3-.25-.43-.1-.97.32-1.22l4.17-2.4c.15-.1.32-.4.32-.58v-15.36c0-.17-.17-.47-.32-.57l-4.17-2.4c-.43-.24-.57-.78-.32-1.2.16-.3.46-.45.76-.45z" stroke="#000" stroke-opacity="0" fill="#7a7a7a"/><path d="M397.52 601.5l18.9.02 4.7 3.3.26 16.78-5.32 3.5-18.54-.1-5.03-3.33s-.1-17.06.05-17c.1.06 4.97-3.17 4.97-3.17z" stroke="#000" stroke-opacity="0" stroke-width="0" fill-opacity="0"/><path d="M418.47 677.2c1.37 0 2.48-1.1 2.48-2.44v-.28c-1-7.75-5.4-14.05-13.95-14.05-8.55 0-13.07 5.34-13.94 14.06h-.02c-.1 1.37.9 2.58 2.26 2.7h23.17z" stroke="#000" stroke-opacity="0" fill="url(#c)"/><path d="M407 662.28c-1.58 0-2.93-.4-4.25-1.24L407 671.9l4.15-10.8c-1.3.82-2.62 1.2-4.16 1.18z" stroke="#000" stroke-opacity="0" fill="#ef0"/><path d="M414.84 654.5c0 4.3-3.5 7.76-7.82 7.76-4.3 0-7.8-3.47-7.8-7.75 0-4.27 3.5-7.74 7.8-7.74 4.32 0 7.82 3.47 7.82 7.75z" stroke="#000" stroke-opacity="0" fill="url(#d)"/><path d="M415.96 724.75h.05c1.3-.02 2.32-1.06 2.32-2.35v-.28c-.93-7.42-5.18-13.48-13.27-13.48-8.1 0-12.4 5.12-13.28 13.5-.1 1.3.82 2.46 2.15 2.6h22.04z" stroke="#000" stroke-opacity="0" fill="url(#e)"/><path d="M405.2 710.4c-1.5 0-2.8-.37-4.05-1.18l3.9 10.44 4-10.37c-1.23.73-2.43 1.08-3.85 1.1z" stroke="#000" stroke-opacity="0" fill="#fff"/><path d="M412.6 702.96c0 4.13-3.35 7.48-7.48 7.48-4.12 0-7.47-3.35-7.47-7.48 0-4.13 3.35-7.48 7.47-7.48 4.13 0 7.48 3.35 7.48 7.48z" stroke="#000" stroke-opacity="0" fill="url(#f)"/><path d="M422.22 714.52v7.6l-6.52 3.82v-7.6l6.52-3.82z" stroke="#000" stroke-opacity="0" fill="#32bedd"/><path d="M422.22 714.53l-6.53 3.82-6.54-3.82 6.53-3.82 6.52 3.83z" stroke="#000" stroke-opacity="0" fill="#9cebff"/><path d="M415.67 718.33v7.6l-6.5-3.8v-7.6l6.5 3.8z" stroke="#000" stroke-opacity="0" fill="#50e6ff"/><path d="M409.16 722.13l6.5-3.78v7.6l-6.5-3.82z" stroke="#000" stroke-opacity="0" fill="#9cebff"/><path d="M422.22 722.13l-6.52-3.78v7.6l6.52-3.82z" stroke="#000" stroke-opacity="0" fill="#50e6ff"/><use xlink:href="#g" transform="matrix(1,0,0,1,388.723897911833,497.5429234338747) translate(0 22.162070181991737)"/><use xlink:href="#h" transform="matrix(1,0,0,1,443.538283062645,546.2668213457076) translate(0 21.775971398333354)"/><use xlink:href="#i" transform="matrix(1,0,0,1,443.538283062645,594.9907192575406) translate(0 21.775971398333354)"/><use xlink:href="#j" transform="matrix(1,0,0,1,443.538283062645,594.9907192575406) translate(73.78347755711886 21.775971398333354)"/><use xlink:href="#k" transform="matrix(1,0,0,1,443.538283062645,643.7146171693736) translate(0 12.573249951952217)"/><use xlink:href="#l" transform="matrix(1,0,0,1,443.538283062645,643.7146171693736) translate(38.89962859475434 12.573249951952217)"/><use xlink:href="#m" transform="matrix(1,0,0,1,443.538283062645,643.7146171693736) translate(80.00818701346489 12.573249951952217)"/><use xlink:href="#n" transform="matrix(1,0,0,1,443.538283062645,643.7146171693736) translate(0 30.36449490693515)"/><use xlink:href="#o" transform="matrix(1,0,0,1,443.538283062645,692.4385150812066) translate(0 19.81645387927778)"/><use xlink:href="#p" transform="matrix(1,0,0,1,443.538283062645,692.4385150812066) translate(48.351136964569015 19.81645387927778)"/><use xlink:href="#q" transform="matrix(1,0,0,1,443.538283062645,692.4385150812066) translate(0 41.93046762861676)"/><use xlink:href="#r" transform="matrix(1,0,0,1,443.538283062645,692.4385150812066) translate(38.99735589635114 41.93046762861676)"/><path d="M789.6 612c1.96 0 3.56-1.46 3.56-3.22v-.37c-1.44-10.17-7.76-18.44-20-18.44s-18.72 7-19.96 18.47c-.04 0-.04.02-.04.02-.16 1.8 1.28 3.37 3.24 3.55h33.2z" stroke="#000" stroke-opacity="0" fill="url(#s)"/><path d="M773.15 592.4c-2.25 0-4.18-.53-6.07-1.64l6.07 14.28 5.97-14.2c-1.88 1.08-3.76 1.56-5.97 1.55z" stroke="#000" stroke-opacity="0" fill="#ef0"/><path d="M784.4 582.18c0 5.62-5.02 10.18-11.2 10.18S762 587.8 762 582.18 767.02 572 773.2 572s11.2 4.56 11.2 10.18z" stroke="#000" stroke-opacity="0" fill="url(#t)"/><use xlink:href="#u" transform="matrix(1,0,0,1,723.1603078762785,621) translate(3.549999999999997 14.4)"/><use xlink:href="#v" transform="matrix(1,0,0,1,723.1603078762785,621) translate(45.45 14.4)"/><use xlink:href="#w" transform="matrix(1,0,0,1,723.1603078762785,621) translate(21 36)"/><use xlink:href="#x" transform="matrix(1,0,0,1,723.1603078762785,621) translate(21.074999999999996 57.6)"/><use xlink:href="#y" transform="matrix(1,0,0,1,723.1603078762785,621) translate(-2.875000000000007 79.20000000000002)"/><path d="M881.07 619.42h.07c1.68-.02 3.04-1.25 3.04-2.77v-.32c-1.22-8.74-6.8-15.87-17.44-15.87s-16.3 6.03-17.44 15.88c-.14 1.54 1.08 2.9 2.82 3.08h28.95z" stroke="#000" stroke-opacity="0" fill="url(#z)"/><path d="M866.94 602.53c-1.98 0-3.67-.43-5.32-1.4l5.12 12.3 5.24-12.2c-1.6.87-3.17 1.28-5.04 1.3z" stroke="#000" stroke-opacity="0" fill="#fff"/><path d="M876.66 593.78c0 4.85-4.4 8.8-9.82 8.8-5.43 0-9.82-3.95-9.82-8.8 0-4.86 4.4-8.8 9.82-8.8s9.82 3.94 9.82 8.8z" stroke="#000" stroke-opacity="0" fill="url(#A)"/><path d="M889.3 607.38v8.95l-8.56 4.48v-8.94l8.56-4.48z" stroke="#000" stroke-opacity="0" fill="#32bedd"/><path d="M889.3 607.4l-8.58 4.5-8.58-4.5 8.58-4.5 8.58 4.5z" stroke="#000" stroke-opacity="0" fill="#9cebff"/><path d="M880.7 611.86v8.95l-8.56-4.47v-8.95l8.56 4.48z" stroke="#000" stroke-opacity="0" fill="#50e6ff"/><path d="M872.14 616.34l8.56-4.45v8.9l-8.56-4.46z" stroke="#000" stroke-opacity="0" fill="#9cebff"/><path d="M889.3 616.34l-8.56-4.45v8.9l8.56-4.46z" stroke="#000" stroke-opacity="0" fill="#50e6ff"/><path d="M793.66 608.55h41.6" stroke="#3a414a" fill="none"/><path d="M793.67 609.05h-.63l.12-.27v-.37l-.1-.35h.6z" stroke="#3a414a" stroke-width=".05" fill="#3a414a"/><path d="M850.03 608.55l-14.27 4.63v-9.27z" stroke="#3a414a" fill="#3a414a"/><path d="M869.3 619.92v93.4a6 6 0 0 0 6 6h43.38" stroke="#3a414a" fill="none"/><path d="M869.8 619.93h-1v-.5h1z" stroke="#3a414a" stroke-width=".05" fill="#3a414a"/><path d="M933.45 719.3l-14.27 4.65v-9.28z" stroke="#3a414a" fill="#3a414a"/><path d="M689.3 758a6 6 0 0 1 6-6h248a6 6 0 0 1 6 6v108a6 6 0 0 1-6 6h-248a6 6 0 0 1-6-6z" fill="#fff" fill-opacity="0"/><path d="M715.3 752h-20a6 6 0 0 0-6 6v108a6 6 0 0 0 6 6h20" stroke="#3a414a" fill="none"/><g><use xlink:href="#B" transform="matrix(1,0,0,1,710.5458333333333,757) translate(0 15.888888888888893)"/><use xlink:href="#C" transform="matrix(1,0,0,1,710.5458333333333,757) translate(0 37.22222222222223)"/><use xlink:href="#D" transform="matrix(1,0,0,1,710.5458333333333,757) translate(20.691358024691354 37.22222222222223)"/><use xlink:href="#E" transform="matrix(1,0,0,1,710.5458333333333,757) translate(62.07407407407407 37.22222222222223)"/><use xlink:href="#F" transform="matrix(1,0,0,1,710.5458333333333,757) translate(81.82716049382715 37.22222222222223)"/><use xlink:href="#G" transform="matrix(1,0,0,1,710.5458333333333,757) translate(0 58.55555555555556)"/><use xlink:href="#H" transform="matrix(1,0,0,1,710.5458333333333,757) translate(0 79.88888888888889)"/><use xlink:href="#I" transform="matrix(1,0,0,1,710.5458333333333,757) translate(20.691358024691354 79.88888888888889)"/><use xlink:href="#J" transform="matrix(1,0,0,1,710.5458333333333,757) translate(93.58024691358023 79.88888888888889)"/><use xlink:href="#F" transform="matrix(1,0,0,1,710.5458333333333,757) translate(132.09876543209873 79.88888888888889)"/><use xlink:href="#K" transform="matrix(1,0,0,1,710.5458333333333,757) translate(0 101.22222222222223)"/></g><defs><path d="M114-163C36-179 61-72 57 0H25l-1-190h30c1 12-1 29 2 39 6-27 23-49 58-41v29" id="L"/><path d="M177-190C167-65 218 103 67 71c-23-6-38-20-44-43l32-5c15 47 100 32 89-28v-30C133-14 115 1 83 1 29 1 15-40 15-95c0-56 16-97 71-98 29-1 48 16 59 35 1-10 0-23 2-32h30zM94-22c36 0 50-32 50-73 0-42-14-75-50-75-39 0-46 34-46 75s6 73 46 73" id="M"/><path d="M16-82v-28h88v28H16" id="N"/><path d="M85-194c31 0 48 13 60 33l-1-100h32l1 261h-30c-2-10 0-23-3-31C134-8 116 4 85 4 32 4 16-35 15-94c0-66 23-100 70-100zm9 24c-40 0-46 34-46 75 0 40 6 74 45 74 42 0 51-32 51-76 0-42-9-74-50-73" id="O"/><path d="M100-194c63 0 86 42 84 106H49c0 40 14 67 53 68 26 1 43-12 49-29l28 8c-11 28-37 45-77 45C44 4 14-33 15-96c1-61 26-98 85-98zm52 81c6-60-76-77-97-28-3 7-6 17-6 28h103" id="P"/><path d="M210-169c-67 3-38 105-44 169h-31v-121c0-29-5-50-35-48C34-165 62-65 56 0H25l-1-190h30c1 10-1 24 2 32 10-44 99-50 107 0 11-21 27-35 58-36 85-2 47 119 55 194h-31v-121c0-29-5-49-35-48" id="Q"/><path d="M100-194c62-1 85 37 85 99 1 63-27 99-86 99S16-35 15-95c0-66 28-99 85-99zM99-20c44 1 53-31 53-75 0-43-8-75-51-75s-53 32-53 75 10 74 51 75" id="R"/><path d="M141-36C126-15 110 5 73 4 37 3 15-17 15-53c-1-64 63-63 125-63 3-35-9-54-41-54-24 1-41 7-42 31l-33-3c5-37 33-52 76-52 45 0 72 20 72 64v82c-1 20 7 32 28 27v20c-31 9-61-2-59-35zM48-53c0 20 12 33 32 33 41-3 63-29 60-74-43 2-92-5-92 41" id="S"/><path d="M115-194c53 0 69 39 70 98 0 66-23 100-70 100C84 3 66-7 56-30L54 0H23l1-261h32v101c10-23 28-34 59-34zm-8 174c40 0 45-34 45-75 0-40-5-75-45-74-42 0-51 32-51 76 0 43 10 73 51 73" id="T"/><path d="M96-169c-40 0-48 33-48 73s9 75 48 75c24 0 41-14 43-38l32 2c-6 37-31 61-74 61-59 0-76-41-82-99-10-93 101-131 147-64 4 7 5 14 7 22l-32 3c-4-21-16-35-41-35" id="U"/><path d="M158-156l-14 65h45v19h-49L124 0h-19l15-72H56L41 0H22l15-72H2v-19h39l14-65H11v-19h48l15-71h20l-16 71h64l16-71h19l-16 71h37v19h-40zm-83 0L61-91h63l14-65H75" id="V"/><g id="a"><use transform="matrix(0.05,0,0,0.05,0,0)" xlink:href="#L"/><use transform="matrix(0.05,0,0,0.05,5.95,0)" xlink:href="#M"/><use transform="matrix(0.05,0,0,0.05,15.949999999999998,0)" xlink:href="#N"/><use transform="matrix(0.05,0,0,0.05,21.9,0)" xlink:href="#O"/><use transform="matrix(0.05,0,0,0.05,31.899999999999995,0)" xlink:href="#P"/><use transform="matrix(0.05,0,0,0.05,41.9,0)" xlink:href="#Q"/><use transform="matrix(0.05,0,0,0.05,56.85,0)" xlink:href="#R"/><use transform="matrix(0.05,0,0,0.05,66.85,0)" xlink:href="#N"/><use transform="matrix(0.05,0,0,0.05,72.8,0)" xlink:href="#S"/><use transform="matrix(0.05,0,0,0.05,82.8,0)" xlink:href="#T"/><use transform="matrix(0.05,0,0,0.05,92.8,0)" xlink:href="#S"/><use transform="matrix(0.05,0,0,0.05,102.80000000000001,0)" xlink:href="#U"/><use transform="matrix(0.05,0,0,0.05,111.80000000000001,0)" xlink:href="#V"/><use transform="matrix(0.05,0,0,0.05,121.80000000000001,0)" xlink:href="#V"/><use transform="matrix(0.05,0,0,0.05,131.8,0)" xlink:href="#V"/><use transform="matrix(0.05,0,0,0.05,141.8,0)" xlink:href="#V"/><use transform="matrix(0.05,0,0,0.05,151.8,0)" xlink:href="#V"/></g><path d="M185-189c-5-48-123-54-124 2 14 75 158 14 163 119 3 78-121 87-175 55-17-10-28-26-33-46l33-7c5 56 141 63 141-1 0-78-155-14-162-118-5-82 145-84 179-34 5 7 8 16 11 25" id="W"/><path d="M84 4C-5 8 30-112 23-190h32v120c0 31 7 50 39 49 72-2 45-101 50-169h31l1 190h-30c-1-10 1-25-2-33-11 22-28 36-60 37" id="X"/><path d="M135-143c-3-34-86-38-87 0 15 53 115 12 119 90S17 21 10-45l28-5c4 36 97 45 98 0-10-56-113-15-118-90-4-57 82-63 122-42 12 7 21 19 24 35" id="Y"/><path d="M24-231v-30h32v30H24zM24 0v-190h32V0H24" id="Z"/><path d="M115-194c55 1 70 41 70 98S169 2 115 4C84 4 66-9 55-30l1 105H24l-1-265h31l2 30c10-21 28-34 59-34zm-8 174c40 0 45-34 45-75s-6-73-45-74c-42 0-51 32-51 76 0 43 10 73 51 73" id="aa"/><path d="M59-47c-2 24 18 29 38 22v24C64 9 27 4 27-40v-127H5v-23h24l9-43h21v43h35v23H59v120" id="ab"/><path d="M117-194c89-4 53 116 60 194h-32v-121c0-31-8-49-39-48C34-167 62-67 57 0H25l-1-190h30c1 10-1 24 2 32 11-22 29-35 61-36" id="ac"/><g id="b"><use transform="matrix(0.05,0,0,0.05,0,0)" xlink:href="#W"/><use transform="matrix(0.05,0,0,0.05,12,0)" xlink:href="#X"/><use transform="matrix(0.05,0,0,0.05,22,0)" xlink:href="#T"/><use transform="matrix(0.05,0,0,0.05,32,0)" xlink:href="#Y"/><use transform="matrix(0.05,0,0,0.05,41,0)" xlink:href="#U"/><use transform="matrix(0.05,0,0,0.05,50,0)" xlink:href="#L"/><use transform="matrix(0.05,0,0,0.05,55.95,0)" xlink:href="#Z"/><use transform="matrix(0.05,0,0,0.05,59.900000000000006,0)" xlink:href="#aa"/><use transform="matrix(0.05,0,0,0.05,69.9,0)" xlink:href="#ab"/><use transform="matrix(0.05,0,0,0.05,74.9,0)" xlink:href="#Z"/><use transform="matrix(0.05,0,0,0.05,78.85000000000001,0)" xlink:href="#R"/><use transform="matrix(0.05,0,0,0.05,88.85000000000001,0)" xlink:href="#ac"/></g><linearGradient gradientUnits="userSpaceOnUse" id="c" x1="406.99" y1="657.76" x2="406.99" y2="682.11"><stop offset="22%" stop-color="#21d400"/><stop offset="100%" stop-color="#088a00"/></linearGradient><linearGradient gradientUnits="userSpaceOnUse" id="d" x1="406.3" y1="645.54" x2="408.09" y2="667.73"><stop offset="22%" stop-color="#21d400"/><stop offset="100%" stop-color="#088a00"/></linearGradient><linearGradient gradientUnits="userSpaceOnUse" id="e" x1="405.07" y1="727.34" x2="405.07" y2="703.9"><stop offset="0%" stop-color="#5e9624"/><stop offset="100%" stop-color="#b4ec36"/></linearGradient><linearGradient gradientUnits="userSpaceOnUse" id="f" x1="405.12" y1="711.64" x2="405.12" y2="690.16"><stop offset="0%" stop-color="#5e9624"/><stop offset="100%" stop-color="#b4ec36"/></linearGradient><path d="M24 0v-248h52v208h133V0H24" id="ad"/><path d="M185-48c-13 30-37 53-82 52C43 2 14-33 14-96s30-98 90-98c62 0 83 45 84 108H66c0 31 8 55 39 56 18 0 30-7 34-22zm-45-69c5-46-57-63-70-21-2 6-4 13-4 21h74" id="ae"/><path d="M195-6C206 82 75 100 31 46c-4-6-6-13-8-21l49-6c3 16 16 24 34 25 40 0 42-37 40-79-11 22-30 35-61 35-53 0-70-43-70-97 0-56 18-96 73-97 30 0 46 14 59 34l2-30h47zm-90-29c32 0 41-27 41-63 0-35-9-62-40-62-32 0-39 29-40 63 0 36 9 62 39 62" id="af"/><path d="M135-194c87-1 58 113 63 194h-50c-7-57 23-157-34-157-59 0-34 97-39 157H25l-1-190h47c2 12-1 28 3 38 12-26 28-41 61-42" id="ag"/><path d="M88-194c31-1 46 15 58 34l-1-101h50l1 261h-48c-2-10 0-23-3-31C134-8 116 4 84 4 32 4 16-41 15-95c0-56 19-97 73-99zm17 164c33 0 40-30 41-66 1-37-9-64-41-64s-38 30-39 65c0 43 13 65 39 65" id="ah"/><g id="g"><use transform="matrix(0.04504485809347915,0,0,0.04504485809347915,0,0)" xlink:href="#ad"/><use transform="matrix(0.04504485809347915,0,0,0.04504485809347915,9.864823922471933,0)" xlink:href="#ae"/><use transform="matrix(0.04504485809347915,0,0,0.04504485809347915,18.873795541167766,0)" xlink:href="#af"/><use transform="matrix(0.04504485809347915,0,0,0.04504485809347915,28.7386194636397,0)" xlink:href="#ae"/><use transform="matrix(0.04504485809347915,0,0,0.04504485809347915,37.74759108233553,0)" xlink:href="#ag"/><use transform="matrix(0.04504485809347915,0,0,0.04504485809347915,47.61241500480747,0)" xlink:href="#ah"/></g><g id="h"><use transform="matrix(0.045044858093479155,0,0,0.045044858093479155,0,0)" xlink:href="#W"/><use transform="matrix(0.045044858093479155,0,0,0.045044858093479155,10.810765942434998,0)" xlink:href="#X"/><use transform="matrix(0.045044858093479155,0,0,0.045044858093479155,19.81973756113083,0)" xlink:href="#T"/><use transform="matrix(0.045044858093479155,0,0,0.045044858093479155,28.82870917982666,0)" xlink:href="#Y"/><use transform="matrix(0.045044858093479155,0,0,0.045044858093479155,36.936783636652905,0)" xlink:href="#U"/><use transform="matrix(0.045044858093479155,0,0,0.045044858093479155,45.04485809347915,0)" xlink:href="#L"/><use transform="matrix(0.045044858093479155,0,0,0.045044858093479155,50.40519620660317,0)" xlink:href="#Z"/><use transform="matrix(0.045044858093479155,0,0,0.045044858093479155,53.96373999598803,0)" xlink:href="#aa"/><use transform="matrix(0.045044858093479155,0,0,0.045044858093479155,62.97271161468386,0)" xlink:href="#ab"/><use transform="matrix(0.045044858093479155,0,0,0.045044858093479155,67.47719742403177,0)" xlink:href="#Z"/><use transform="matrix(0.045044858093479155,0,0,0.045044858093479155,71.03574121341663,0)" xlink:href="#R"/><use transform="matrix(0.045044858093479155,0,0,0.045044858093479155,80.04471283211245,0)" xlink:href="#ac"/><use transform="matrix(0.045044858093479155,0,0,0.045044858093479155,89.05368445080828,0)" xlink:href="#Y"/></g><path d="M233-177c-1 41-23 64-60 70L243 0h-38l-65-103H63V0H30v-248c88 3 205-21 203 71zM63-129c60-2 137 13 137-47 0-61-80-42-137-45v92" id="ai"/><g id="i"><use transform="matrix(0.045044858093479155,0,0,0.045044858093479155,0,0)" xlink:href="#ai"/><use transform="matrix(0.045044858093479155,0,0,0.045044858093479155,11.666618246211101,0)" xlink:href="#P"/><use transform="matrix(0.045044858093479155,0,0,0.045044858093479155,20.675589864906932,0)" xlink:href="#Y"/><use transform="matrix(0.045044858093479155,0,0,0.045044858093479155,28.78366432173318,0)" xlink:href="#R"/><use transform="matrix(0.045044858093479155,0,0,0.045044858093479155,37.792635940429015,0)" xlink:href="#X"/><use transform="matrix(0.045044858093479155,0,0,0.045044858093479155,46.80160755912484,0)" xlink:href="#L"/><use transform="matrix(0.045044858093479155,0,0,0.045044858093479155,52.16194567224887,0)" xlink:href="#U"/><use transform="matrix(0.045044858093479155,0,0,0.045044858093479155,60.27002012907511,0)" xlink:href="#P"/></g><path d="M143 4C61 4 22-44 18-125c-5-107 100-154 193-111 17 8 29 25 37 43l-32 9c-13-25-37-40-76-40-61 0-88 39-88 99 0 61 29 100 91 101 35 0 62-11 79-27v-45h-74v-28h105v86C228-13 192 4 143 4" id="aj"/><g id="j"><use transform="matrix(0.045044858093479155,0,0,0.045044858093479155,0,0)" xlink:href="#aj"/><use transform="matrix(0.045044858093479155,0,0,0.045044858093479155,12.612560266174164,0)" xlink:href="#L"/><use transform="matrix(0.045044858093479155,0,0,0.045044858093479155,17.972898379298183,0)" xlink:href="#R"/><use transform="matrix(0.045044858093479155,0,0,0.045044858093479155,26.981869997994014,0)" xlink:href="#X"/><use transform="matrix(0.045044858093479155,0,0,0.045044858093479155,35.99084161668984,0)" xlink:href="#aa"/><use transform="matrix(0.045044858093479155,0,0,0.045044858093479155,44.99981323538567,0)" xlink:href="#Y"/></g><path d="M205 0l-28-72H64L36 0H1l101-248h38L239 0h-34zm-38-99l-47-123c-12 45-31 82-46 123h93" id="ak"/><path d="M9 0v-24l116-142H16v-24h144v24L44-24h123V0H9" id="al"/><g id="k"><use transform="matrix(0.03743948854163074,0,0,0.03743948854163074,0,0)" xlink:href="#ak"/><use transform="matrix(0.03743948854163074,0,0,0.03743948854163074,8.985477249991378,0)" xlink:href="#al"/><use transform="matrix(0.03743948854163074,0,0,0.03743948854163074,15.724585187484912,0)" xlink:href="#X"/><use transform="matrix(0.03743948854163074,0,0,0.03743948854163074,23.21248289581106,0)" xlink:href="#L"/><use transform="matrix(0.03743948854163074,0,0,0.03743948854163074,27.667782032265123,0)" xlink:href="#P"/></g><path d="M160-131c35 5 61 23 61 61C221 17 115-2 30 0v-248c76 3 177-17 177 60 0 33-19 50-47 57zm-97-11c50-1 110 9 110-42 0-47-63-36-110-37v79zm0 115c55-2 124 14 124-45 0-56-70-42-124-44v89" id="am"/><path d="M212-179c-10-28-35-45-73-45-59 0-87 40-87 99 0 60 29 101 89 101 43 0 62-24 78-52l27 14C228-24 195 4 139 4 59 4 22-46 18-125c-6-104 99-153 187-111 19 9 31 26 39 46" id="an"/><g id="l"><use transform="matrix(0.03743948854163074,0,0,0.03743948854163074,0,0)" xlink:href="#ai"/><use transform="matrix(0.03743948854163074,0,0,0.03743948854163074,9.696827532282365,0)" xlink:href="#am"/><use transform="matrix(0.03743948854163074,0,0,0.03743948854163074,18.682304782273743,0)" xlink:href="#ak"/><use transform="matrix(0.03743948854163074,0,0,0.03743948854163074,27.667782032265123,0)" xlink:href="#an"/></g><path d="M24 0v-261h32V0H24" id="ao"/><g id="m"><use transform="matrix(0.03743948854163074,0,0,0.03743948854163074,0,0)" xlink:href="#ai"/><use transform="matrix(0.03743948854163074,0,0,0.03743948854163074,9.696827532282365,0)" xlink:href="#R"/><use transform="matrix(0.03743948854163074,0,0,0.03743948854163074,17.18472524060851,0)" xlink:href="#ao"/><use transform="matrix(0.03743948854163074,0,0,0.03743948854163074,20.14244483539734,0)" xlink:href="#P"/></g><path d="M30-248c118-7 216 8 213 122C240-48 200 0 122 0H30v-248zM63-27c89 8 146-16 146-99s-60-101-146-95v194" id="ap"/><path d="M101-234c-31-9-42 10-38 44h38v23H63V0H32v-167H5v-23h27c-7-52 17-82 69-68v24" id="aq"/><g id="n"><use transform="matrix(0.03743948854163074,0,0,0.03743948854163074,0,0)" xlink:href="#ap"/><use transform="matrix(0.03743948854163074,0,0,0.03743948854163074,9.696827532282365,0)" xlink:href="#P"/><use transform="matrix(0.03743948854163074,0,0,0.03743948854163074,17.18472524060851,0)" xlink:href="#aq"/><use transform="matrix(0.03743948854163074,0,0,0.03743948854163074,20.928674094771587,0)" xlink:href="#Z"/><use transform="matrix(0.03743948854163074,0,0,0.03743948854163074,23.88639368956041,0)" xlink:href="#ac"/><use transform="matrix(0.03743948854163074,0,0,0.03743948854163074,31.37429139788656,0)" xlink:href="#Z"/><use transform="matrix(0.03743948854163074,0,0,0.03743948854163074,34.33201099267539,0)" xlink:href="#ab"/><use transform="matrix(0.03743948854163074,0,0,0.03743948854163074,38.07595984683846,0)" xlink:href="#Z"/><use transform="matrix(0.03743948854163074,0,0,0.03743948854163074,41.03367944162729,0)" xlink:href="#R"/><use transform="matrix(0.03743948854163074,0,0,0.03743948854163074,48.52157714995344,0)" xlink:href="#ac"/></g><g id="o"><use transform="matrix(0.046536224219989424,0,0,0.046536224219989424,0,0)" xlink:href="#ak"/><use transform="matrix(0.046536224219989424,0,0,0.046536224219989424,11.168693812797462,0)" xlink:href="#al"/><use transform="matrix(0.046536224219989424,0,0,0.046536224219989424,19.54521417239556,0)" xlink:href="#X"/><use transform="matrix(0.046536224219989424,0,0,0.046536224219989424,28.852459016393446,0)" xlink:href="#L"/><use transform="matrix(0.046536224219989424,0,0,0.046536224219989424,34.39026969857219,0)" xlink:href="#P"/></g><g id="p"><use transform="matrix(0.046536224219989424,0,0,0.046536224219989424,0,0)" xlink:href="#ai"/><use transform="matrix(0.046536224219989424,0,0,0.046536224219989424,12.05288207297726,0)" xlink:href="#am"/><use transform="matrix(0.046536224219989424,0,0,0.046536224219989424,23.221575885774726,0)" xlink:href="#ak"/><use transform="matrix(0.046536224219989424,0,0,0.046536224219989424,34.39026969857219,0)" xlink:href="#an"/></g><g id="q"><use transform="matrix(0.046536224219989424,0,0,0.046536224219989424,0,0)" xlink:href="#ai"/><use transform="matrix(0.046536224219989424,0,0,0.046536224219989424,12.05288207297726,0)" xlink:href="#R"/><use transform="matrix(0.046536224219989424,0,0,0.046536224219989424,21.360126916975148,0)" xlink:href="#ao"/><use transform="matrix(0.046536224219989424,0,0,0.046536224219989424,25.036488630354317,0)" xlink:href="#P"/></g><g id="r"><use transform="matrix(0.046536224219989424,0,0,0.046536224219989424,0,0)" xlink:href="#ak"/><use transform="matrix(0.046536224219989424,0,0,0.046536224219989424,11.168693812797462,0)" xlink:href="#Y"/><use transform="matrix(0.046536224219989424,0,0,0.046536224219989424,19.54521417239556,0)" xlink:href="#Y"/><use transform="matrix(0.046536224219989424,0,0,0.046536224219989424,27.92173453199366,0)" xlink:href="#Z"/><use transform="matrix(0.046536224219989424,0,0,0.046536224219989424,31.598096245372822,0)" xlink:href="#M"/><use transform="matrix(0.046536224219989424,0,0,0.046536224219989424,40.90534108937071,0)" xlink:href="#ac"/><use transform="matrix(0.046536224219989424,0,0,0.046536224219989424,50.2125859333686,0)" xlink:href="#Q"/><use transform="matrix(0.046536224219989424,0,0,0.046536224219989424,64.12691697514543,0)" xlink:href="#P"/><use transform="matrix(0.046536224219989424,0,0,0.046536224219989424,73.43416181914333,0)" xlink:href="#ac"/><use transform="matrix(0.046536224219989424,0,0,0.046536224219989424,82.7414066631412,0)" xlink:href="#ab"/></g><linearGradient gradientUnits="userSpaceOnUse" id="s" x1="773.16" y1="567.12" x2="773.16" y2="621.89"><stop offset="22%" stop-color="#21d400"/><stop offset="100%" stop-color="#088a00"/></linearGradient><linearGradient gradientUnits="userSpaceOnUse" id="t" x1="771.41" y1="570.25" x2="775.74" y2="624.05"><stop offset="22%" stop-color="#21d400"/><stop offset="100%" stop-color="#088a00"/></linearGradient><g id="u"><use transform="matrix(0.05,0,0,0.05,0,0)" xlink:href="#ai"/><use transform="matrix(0.05,0,0,0.05,12.950000000000001,0)" xlink:href="#R"/><use transform="matrix(0.05,0,0,0.05,22.950000000000003,0)" xlink:href="#ao"/><use transform="matrix(0.05,0,0,0.05,26.900000000000002,0)" xlink:href="#P"/></g><g id="v"><use transform="matrix(0.05,0,0,0.05,0,0)" xlink:href="#am"/><use transform="matrix(0.05,0,0,0.05,12,0)" xlink:href="#S"/><use transform="matrix(0.05,0,0,0.05,22,0)" xlink:href="#Y"/><use transform="matrix(0.05,0,0,0.05,31,0)" xlink:href="#P"/><use transform="matrix(0.05,0,0,0.05,41,0)" xlink:href="#O"/></g><g id="w"><use transform="matrix(0.05,0,0,0.05,0,0)" xlink:href="#ak"/><use transform="matrix(0.05,0,0,0.05,12,0)" xlink:href="#U"/><use transform="matrix(0.05,0,0,0.05,21,0)" xlink:href="#U"/><use transform="matrix(0.05,0,0,0.05,30,0)" xlink:href="#P"/><use transform="matrix(0.05,0,0,0.05,40,0)" xlink:href="#Y"/><use transform="matrix(0.05,0,0,0.05,49,0)" xlink:href="#Y"/></g><g id="x"><use transform="matrix(0.05,0,0,0.05,0,0)" xlink:href="#an"/><use transform="matrix(0.05,0,0,0.05,12.950000000000001,0)" xlink:href="#R"/><use transform="matrix(0.05,0,0,0.05,22.950000000000003,0)" xlink:href="#ac"/><use transform="matrix(0.05,0,0,0.05,32.95,0)" xlink:href="#ab"/><use transform="matrix(0.05,0,0,0.05,37.95,0)" xlink:href="#L"/><use transform="matrix(0.05,0,0,0.05,43.900000000000006,0)" xlink:href="#R"/><use transform="matrix(0.05,0,0,0.05,53.900000000000006,0)" xlink:href="#ao"/></g><g id="y"><use transform="matrix(0.05,0,0,0.05,0,0)" xlink:href="#ak"/><use transform="matrix(0.05,0,0,0.05,12,0)" xlink:href="#O"/><use transform="matrix(0.05,0,0,0.05,22,0)" xlink:href="#Q"/><use transform="matrix(0.05,0,0,0.05,36.95,0)" xlink:href="#Z"/><use transform="matrix(0.05,0,0,0.05,40.900000000000006,0)" xlink:href="#ac"/><use transform="matrix(0.05,0,0,0.05,50.900000000000006,0)" xlink:href="#Z"/><use transform="matrix(0.05,0,0,0.05,54.85,0)" xlink:href="#Y"/><use transform="matrix(0.05,0,0,0.05,63.85,0)" xlink:href="#ab"/><use transform="matrix(0.05,0,0,0.05,68.85000000000001,0)" xlink:href="#L"/><use transform="matrix(0.05,0,0,0.05,74.80000000000001,0)" xlink:href="#S"/><use transform="matrix(0.05,0,0,0.05,84.80000000000001,0)" xlink:href="#ab"/><use transform="matrix(0.05,0,0,0.05,89.80000000000001,0)" xlink:href="#R"/><use transform="matrix(0.05,0,0,0.05,99.80000000000001,0)" xlink:href="#L"/></g><linearGradient gradientUnits="userSpaceOnUse" id="z" x1="869.34" y1="625.19" x2="869.34" y2="576.1"><stop offset="0%" stop-color="#5e9624"/><stop offset="100%" stop-color="#b4ec36"/></linearGradient><linearGradient gradientUnits="userSpaceOnUse" id="A" x1="869.3" y1="622.4" x2="869.3" y2="574.15"><stop offset="0%" stop-color="#5e9624"/><stop offset="100%" stop-color="#b4ec36"/></linearGradient><path fill="#3a414a" d="M212-179c-10-28-35-45-73-45-59 0-87 40-87 99 0 60 29 101 89 101 43 0 62-24 78-52l27 14C228-24 195 4 139 4 59 4 22-46 18-125c-6-104 99-153 187-111 19 9 31 26 39 46" id="ar"/><path fill="#3a414a" d="M100-194c62-1 85 37 85 99 1 63-27 99-86 99S16-35 15-95c0-66 28-99 85-99zM99-20c44 1 53-31 53-75 0-43-8-75-51-75s-53 32-53 75 10 74 51 75" id="as"/><path fill="#3a414a" d="M117-194c89-4 53 116 60 194h-32v-121c0-31-8-49-39-48C34-167 62-67 57 0H25l-1-190h30c1 10-1 24 2 32 11-22 29-35 61-36" id="at"/><path fill="#3a414a" d="M85-194c31 0 48 13 60 33l-1-100h32l1 261h-30c-2-10 0-23-3-31C134-8 116 4 85 4 32 4 16-35 15-94c0-66 23-100 70-100zm9 24c-40 0-46 34-46 75 0 40 6 74 45 74 42 0 51-32 51-76 0-42-9-74-50-73" id="au"/><path fill="#3a414a" d="M24-231v-30h32v30H24zM24 0v-190h32V0H24" id="av"/><path fill="#3a414a" d="M59-47c-2 24 18 29 38 22v24C64 9 27 4 27-40v-127H5v-23h24l9-43h21v43h35v23H59v120" id="aw"/><path fill="#3a414a" d="M135-143c-3-34-86-38-87 0 15 53 115 12 119 90S17 21 10-45l28-5c4 36 97 45 98 0-10-56-113-15-118-90-4-57 82-63 122-42 12 7 21 19 24 35" id="ax"/><path fill="#3a414a" d="M33-154v-36h34v36H33zM33 0v-36h34V0H33" id="ay"/><g id="B"><use transform="matrix(0.049382716049382706,0,0,0.049382716049382706,0,0)" xlink:href="#ar"/><use transform="matrix(0.049382716049382706,0,0,0.049382716049382706,12.790123456790122,0)" xlink:href="#as"/><use transform="matrix(0.049382716049382706,0,0,0.049382716049382706,22.666666666666664,0)" xlink:href="#at"/><use transform="matrix(0.049382716049382706,0,0,0.049382716049382706,32.5432098765432,0)" xlink:href="#au"/><use transform="matrix(0.049382716049382706,0,0,0.049382716049382706,42.419753086419746,0)" xlink:href="#av"/><use transform="matrix(0.049382716049382706,0,0,0.049382716049382706,46.32098765432098,0)" xlink:href="#aw"/><use transform="matrix(0.049382716049382706,0,0,0.049382716049382706,51.25925925925925,0)" xlink:href="#av"/><use transform="matrix(0.049382716049382706,0,0,0.049382716049382706,55.16049382716049,0)" xlink:href="#as"/><use transform="matrix(0.049382716049382706,0,0,0.049382716049382706,65.03703703703702,0)" xlink:href="#at"/><use transform="matrix(0.049382716049382706,0,0,0.049382716049382706,74.91358024691357,0)" xlink:href="#ax"/><use transform="matrix(0.049382716049382706,0,0,0.049382716049382706,83.80246913580245,0)" xlink:href="#ay"/></g><path fill="#3a414a" d="M27 0v-27h64v-190l-56 39v-29l58-41h29v221h61V0H27" id="az"/><path fill="#3a414a" d="M33-261c38 41 65 92 65 168S71 34 33 75H2C39 34 66-17 66-93S39-220 2-261h31" id="aA"/><g id="C"><use transform="matrix(0.049382716049382706,0,0,0.049382716049382706,0,0)" xlink:href="#az"/><use transform="matrix(0.049382716049382706,0,0,0.049382716049382706,9.87654320987654,0)" xlink:href="#aA"/></g><path fill="#3a414a" d="M233-177c-1 41-23 64-60 70L243 0h-38l-65-103H63V0H30v-248c88 3 205-21 203 71zM63-129c60-2 137 13 137-47 0-61-80-42-137-45v92" id="aB"/><path fill="#3a414a" d="M24 0v-261h32V0H24" id="aC"/><path fill="#3a414a" d="M100-194c63 0 86 42 84 106H49c0 40 14 67 53 68 26 1 43-12 49-29l28 8c-11 28-37 45-77 45C44 4 14-33 15-96c1-61 26-98 85-98zm52 81c6-60-76-77-97-28-3 7-6 17-6 28h103" id="aD"/><g id="D"><use transform="matrix(0.049382716049382706,0,0,0.049382716049382706,0,0)" xlink:href="#aB"/><use transform="matrix(0.049382716049382706,0,0,0.049382716049382706,12.790123456790122,0)" xlink:href="#as"/><use transform="matrix(0.049382716049382706,0,0,0.049382716049382706,22.666666666666664,0)" xlink:href="#aC"/><use transform="matrix(0.049382716049382706,0,0,0.049382716049382706,26.567901234567895,0)" xlink:href="#aD"/></g><path fill="#3a414a" d="M33 0v-248h34V0H33" id="aE"/><g id="E"><use transform="matrix(0.049382716049382706,0,0,0.049382716049382706,0,0)" xlink:href="#aE"/><use transform="matrix(0.049382716049382706,0,0,0.049382716049382706,4.93827160493827,0)" xlink:href="#au"/></g><path fill="#3a414a" d="M210-169c-67 3-38 105-44 169h-31v-121c0-29-5-50-35-48C34-165 62-65 56 0H25l-1-190h30c1 10-1 24 2 32 10-44 99-50 107 0 11-21 27-35 58-36 85-2 47 119 55 194h-31v-121c0-29-5-49-35-48" id="aF"/><path fill="#3a414a" d="M141-36C126-15 110 5 73 4 37 3 15-17 15-53c-1-64 63-63 125-63 3-35-9-54-41-54-24 1-41 7-42 31l-33-3c5-37 33-52 76-52 45 0 72 20 72 64v82c-1 20 7 32 28 27v20c-31 9-61-2-59-35zM48-53c0 20 12 33 32 33 41-3 63-29 60-74-43 2-92-5-92 41" id="aG"/><path fill="#3a414a" d="M96-169c-40 0-48 33-48 73s9 75 48 75c24 0 41-14 43-38l32 2c-6 37-31 61-74 61-59 0-76-41-82-99-10-93 101-131 147-64 4 7 5 14 7 22l-32 3c-4-21-16-35-41-35" id="aH"/><path fill="#3a414a" d="M106-169C34-169 62-67 57 0H25v-261h32l-1 103c12-21 28-36 61-36 89 0 53 116 60 194h-32v-121c2-32-8-49-39-48" id="aI"/><g id="F"><use transform="matrix(0.049382716049382706,0,0,0.049382716049382706,0,0)" xlink:href="#aF"/><use transform="matrix(0.049382716049382706,0,0,0.049382716049382706,14.765432098765428,0)" xlink:href="#aG"/><use transform="matrix(0.049382716049382706,0,0,0.049382716049382706,24.641975308641968,0)" xlink:href="#aw"/><use transform="matrix(0.049382716049382706,0,0,0.049382716049382706,29.58024691358024,0)" xlink:href="#aH"/><use transform="matrix(0.049382716049382706,0,0,0.049382716049382706,38.469135802469125,0)" xlink:href="#aI"/><use transform="matrix(0.049382716049382706,0,0,0.049382716049382706,48.34567901234567,0)" xlink:href="#aD"/><use transform="matrix(0.049382716049382706,0,0,0.049382716049382706,58.222222222222214,0)" xlink:href="#ax"/></g><path fill="#3a414a" d="M114-163C36-179 61-72 57 0H25l-1-190h30c1 12-1 29 2 39 6-27 23-49 58-41v29" id="aJ"/><path fill="#3a414a" d="M115-194c53 0 69 39 70 98 0 66-23 100-70 100C84 3 66-7 56-30L54 0H23l1-261h32v101c10-23 28-34 59-34zm-8 174c40 0 45-34 45-75 0-40-5-75-45-74-42 0-51 32-51 76 0 43 10 73 51 73" id="aK"/><path fill="#3a414a" d="M84 4C-5 8 30-112 23-190h32v120c0 31 7 50 39 49 72-2 45-101 50-169h31l1 190h-30c-1-10 1-25-2-33-11 22-28 36-60 37" id="aL"/><g id="G"><use transform="matrix(0.049382716049382706,0,0,0.049382716049382706,0,0)" xlink:href="#ar"/><use transform="matrix(0.049382716049382706,0,0,0.049382716049382706,12.790123456790122,0)" xlink:href="#as"/><use transform="matrix(0.049382716049382706,0,0,0.049382716049382706,22.666666666666664,0)" xlink:href="#at"/><use transform="matrix(0.049382716049382706,0,0,0.049382716049382706,32.5432098765432,0)" xlink:href="#aw"/><use transform="matrix(0.049382716049382706,0,0,0.049382716049382706,37.481481481481474,0)" xlink:href="#aJ"/><use transform="matrix(0.049382716049382706,0,0,0.049382716049382706,43.35802469135802,0)" xlink:href="#av"/><use transform="matrix(0.049382716049382706,0,0,0.049382716049382706,47.25925925925925,0)" xlink:href="#aK"/><use transform="matrix(0.049382716049382706,0,0,0.049382716049382706,57.13580246913579,0)" xlink:href="#aL"/><use transform="matrix(0.049382716049382706,0,0,0.049382716049382706,67.01234567901234,0)" xlink:href="#aw"/><use transform="matrix(0.049382716049382706,0,0,0.049382716049382706,71.9506172839506,0)" xlink:href="#as"/><use transform="matrix(0.049382716049382706,0,0,0.049382716049382706,81.82716049382715,0)" xlink:href="#aJ"/></g><path fill="#3a414a" d="M101-251c82-7 93 87 43 132L82-64C71-53 59-42 53-27h129V0H18c2-99 128-94 128-182 0-28-16-43-45-43s-46 15-49 41l-32-3c6-41 34-60 81-64" id="aM"/><g id="H"><use transform="matrix(0.049382716049382706,0,0,0.049382716049382706,0,0)" xlink:href="#aM"/><use transform="matrix(0.049382716049382706,0,0,0.049382716049382706,9.87654320987654,0)" xlink:href="#aA"/></g><path fill="#3a414a" d="M30-248c87 1 191-15 191 75 0 78-77 80-158 76V0H30v-248zm33 125c57 0 124 11 124-50 0-59-68-47-124-48v98" id="aN"/><path fill="#3a414a" d="M115-194c55 1 70 41 70 98S169 2 115 4C84 4 66-9 55-30l1 105H24l-1-265h31l2 30c10-21 28-34 59-34zm-8 174c40 0 45-34 45-75s-6-73-45-74c-42 0-51 32-51 76 0 43 10 73 51 73" id="aO"/><g id="I"><use transform="matrix(0.049382716049382706,0,0,0.049382716049382706,0,0)" xlink:href="#aN"/><use transform="matrix(0.049382716049382706,0,0,0.049382716049382706,11.85185185185185,0)" xlink:href="#aJ"/><use transform="matrix(0.049382716049382706,0,0,0.049382716049382706,17.728395061728392,0)" xlink:href="#av"/><use transform="matrix(0.049382716049382706,0,0,0.049382716049382706,21.629629629629626,0)" xlink:href="#at"/><use transform="matrix(0.049382716049382706,0,0,0.049382716049382706,31.506172839506167,0)" xlink:href="#aH"/><use transform="matrix(0.049382716049382706,0,0,0.049382716049382706,40.395061728395056,0)" xlink:href="#av"/><use transform="matrix(0.049382716049382706,0,0,0.049382716049382706,44.29629629629629,0)" xlink:href="#aO"/><use transform="matrix(0.049382716049382706,0,0,0.049382716049382706,54.17283950617284,0)" xlink:href="#aG"/><use transform="matrix(0.049382716049382706,0,0,0.049382716049382706,64.04938271604938,0)" xlink:href="#aC"/></g><path fill="#3a414a" d="M179-190L93 31C79 59 56 82 12 73V49c39 6 53-20 64-50L1-190h34L92-34l54-156h33" id="aP"/><g id="J"><use transform="matrix(0.049382716049382706,0,0,0.049382716049382706,0,0)" xlink:href="#aw"/><use transform="matrix(0.049382716049382706,0,0,0.049382716049382706,4.93827160493827,0)" xlink:href="#aP"/><use transform="matrix(0.049382716049382706,0,0,0.049382716049382706,13.827160493827158,0)" xlink:href="#aO"/><use transform="matrix(0.049382716049382706,0,0,0.049382716049382706,23.7037037037037,0)" xlink:href="#aD"/></g><g id="K"><use transform="matrix(0.049382716049382706,0,0,0.049382716049382706,0,0)" xlink:href="#aL"/><use transform="matrix(0.049382716049382706,0,0,0.049382716049382706,9.87654320987654,0)" xlink:href="#ax"/><use transform="matrix(0.049382716049382706,0,0,0.049382716049382706,18.76543209876543,0)" xlink:href="#aD"/><use transform="matrix(0.049382716049382706,0,0,0.049382716049382706,28.64197530864197,0)" xlink:href="#aJ"/></g></defs></g></svg>